%TF.GenerationSoftware,KiCad,Pcbnew,8.0.6*%
%TF.CreationDate,2025-02-05T21:25:15+00:00*%
%TF.ProjectId,custom-esp32,63757374-6f6d-42d6-9573-7033322e6b69,0.1*%
%TF.SameCoordinates,Original*%
%TF.FileFunction,Copper,L3,Inr*%
%TF.FilePolarity,Positive*%
%FSLAX46Y46*%
G04 Gerber Fmt 4.6, Leading zero omitted, Abs format (unit mm)*
G04 Created by KiCad (PCBNEW 8.0.6) date 2025-02-05 21:25:15*
%MOMM*%
%LPD*%
G01*
G04 APERTURE LIST*
%TA.AperFunction,ComponentPad*%
%ADD10R,1.700000X1.700000*%
%TD*%
%TA.AperFunction,ComponentPad*%
%ADD11O,1.700000X1.700000*%
%TD*%
%TA.AperFunction,ComponentPad*%
%ADD12O,1.000000X2.100000*%
%TD*%
%TA.AperFunction,ComponentPad*%
%ADD13O,1.000000X1.800000*%
%TD*%
%TA.AperFunction,ViaPad*%
%ADD14C,0.600000*%
%TD*%
%TA.AperFunction,ViaPad*%
%ADD15C,0.500000*%
%TD*%
%TA.AperFunction,Conductor*%
%ADD16C,0.304800*%
%TD*%
%TA.AperFunction,Conductor*%
%ADD17C,0.381000*%
%TD*%
%TA.AperFunction,Conductor*%
%ADD18C,0.254000*%
%TD*%
G04 APERTURE END LIST*
D10*
%TO.N,3V3*%
%TO.C,J1*%
X90775000Y-35340800D03*
D11*
%TO.N,GPIO0*%
X90775000Y-37880800D03*
%TO.N,GPIO1*%
X90775000Y-40420800D03*
%TO.N,GPIO2*%
X90775000Y-42960800D03*
%TO.N,GPIO3*%
X90775000Y-45500800D03*
%TO.N,GPIO4*%
X90775000Y-48040800D03*
%TO.N,GPIO5*%
X90775000Y-50580800D03*
%TO.N,GPIO6*%
X90775000Y-53120800D03*
%TO.N,GPIO7*%
X90775000Y-55660800D03*
%TO.N,GPIO8*%
X90775000Y-58200800D03*
%TO.N,GPIO9*%
X90775000Y-60740800D03*
%TO.N,GPIO10*%
X90775000Y-63280800D03*
%TO.N,GPIO11*%
X90775000Y-65820800D03*
%TO.N,GPIO12*%
X90775000Y-68360800D03*
%TO.N,GPIO13*%
X90775000Y-70900800D03*
%TO.N,GPIO14*%
X90775000Y-73440800D03*
%TO.N,GPIO15*%
X90775000Y-75980800D03*
%TO.N,GPIO16*%
X90775000Y-78520800D03*
%TO.N,I2C_SCL*%
X90775000Y-81060800D03*
%TO.N,I2C_SDA*%
X90775000Y-83600800D03*
%TO.N,5VUSB*%
X90775000Y-86140800D03*
%TO.N,GND*%
X90775000Y-88680800D03*
%TD*%
D10*
%TO.N,GND*%
%TO.C,J2*%
X113635000Y-35340800D03*
D11*
%TO.N,ESP32_EN*%
X113635000Y-37880800D03*
%TO.N,GPIO46*%
X113635000Y-40420800D03*
%TO.N,GPIO45*%
X113635000Y-42960800D03*
%TO.N,RXD*%
X113635000Y-45500800D03*
%TO.N,TXD*%
X113635000Y-48040800D03*
%TO.N,GPIO42*%
X113635000Y-50580800D03*
%TO.N,GPIO41*%
X113635000Y-53120800D03*
%TO.N,GPIO40*%
X113635000Y-55660800D03*
%TO.N,GPIO39*%
X113635000Y-58200800D03*
%TO.N,GPIO38*%
X113635000Y-60740800D03*
%TO.N,GPIO37*%
X113635000Y-63280800D03*
%TO.N,GPIO36*%
X113635000Y-65820800D03*
%TO.N,GPIO35*%
X113635000Y-68360800D03*
%TO.N,GPIO34*%
X113635000Y-70900800D03*
%TO.N,GPIO33*%
X113635000Y-73440800D03*
%TO.N,GPIO26*%
X113635000Y-75980800D03*
%TO.N,GPIO21*%
X113635000Y-78520800D03*
%TO.N,unconnected-(J2-Pin_19-Pad19)*%
X113635000Y-81060800D03*
%TO.N,unconnected-(J2-Pin_20-Pad20)*%
X113635000Y-83600800D03*
%TO.N,GPIO48*%
X113635000Y-86140800D03*
%TO.N,GPIO47*%
X113635000Y-88680800D03*
%TD*%
D12*
%TO.N,GND*%
%TO.C,J3*%
X98317850Y-84940600D03*
D13*
X98317850Y-89120600D03*
D12*
X106957850Y-84940600D03*
D13*
X106957850Y-89120600D03*
%TD*%
D14*
%TO.N,GND*%
X97977800Y-35758600D03*
X96961800Y-84374200D03*
X101330600Y-35758600D03*
X99552600Y-78176600D03*
X102194200Y-35758600D03*
X105054400Y-42367200D03*
X102565200Y-39014400D03*
X108290200Y-85288600D03*
X103921400Y-35758600D03*
X106807000Y-60553600D03*
X98689000Y-52624200D03*
X111947800Y-35555400D03*
X108290200Y-89505000D03*
X96199800Y-47798200D03*
X100152200Y-44805600D03*
X108290200Y-84374200D03*
X104785000Y-35758600D03*
X94007400Y-36774600D03*
X98384200Y-60599800D03*
X101701600Y-39014400D03*
X110169800Y-37638200D03*
X109204600Y-50084200D03*
X107325000Y-35758600D03*
X99390200Y-43281600D03*
X103606600Y-44754800D03*
X102717600Y-44754800D03*
X98841400Y-35758600D03*
X106258200Y-57348600D03*
X99364800Y-41554400D03*
X97063400Y-89454200D03*
X95183800Y-50135000D03*
X106461400Y-35758600D03*
X99339400Y-39801800D03*
X105079800Y-43230800D03*
X99654200Y-35758600D03*
X96250600Y-35758600D03*
X110972600Y-74193400D03*
X99999800Y-39065200D03*
X97419000Y-60549000D03*
X99654200Y-60498200D03*
X100990400Y-44780200D03*
X103057800Y-35758600D03*
X100613874Y-74219726D03*
X105054400Y-40614600D03*
X98739800Y-53640200D03*
X109204600Y-52522600D03*
X97063400Y-88438200D03*
X101854000Y-44754800D03*
X94167800Y-74214200D03*
X105054400Y-41503600D03*
X107772200Y-81026000D03*
X99364800Y-40665400D03*
X107457800Y-54128599D03*
X104317800Y-74244200D03*
X96961800Y-85339400D03*
X105648600Y-35758600D03*
X92593000Y-88285800D03*
X99364800Y-42418000D03*
X99415600Y-44119800D03*
X106705400Y-59613800D03*
X103454200Y-39014400D03*
X105029000Y-39751000D03*
X100838000Y-39039800D03*
X110169800Y-38451000D03*
X105105200Y-44069000D03*
X104470200Y-44729400D03*
X103829400Y-52730400D03*
X92593000Y-89301800D03*
X104317800Y-38989000D03*
X100517800Y-35758600D03*
X108290200Y-88641400D03*
X110896400Y-78105000D03*
X108137800Y-35758600D03*
X93964600Y-34895000D03*
X94879000Y-64155800D03*
X110169800Y-34844200D03*
X111947800Y-34844200D03*
X97266600Y-81072200D03*
X97114200Y-35758600D03*
%TO.N,ESP32_EN*%
X111536926Y-66618674D03*
X111894300Y-37127500D03*
%TO.N,GPIO0*%
X92542200Y-38755800D03*
X92583000Y-66573400D03*
%TO.N,3V3*%
X99578000Y-54021200D03*
X93355000Y-37871400D03*
X103969500Y-76751500D03*
X103809800Y-56007000D03*
X95013850Y-51208301D03*
X99959000Y-65730600D03*
%TO.N,5VUSB*%
X108493400Y-56332600D03*
X99247800Y-83155000D03*
X101381400Y-80513400D03*
X101533800Y-83104200D03*
X105702035Y-83157635D03*
%TO.N,GPIO48*%
X107172600Y-50947800D03*
X101262250Y-51506600D03*
X103785000Y-50954507D03*
X111592200Y-70099400D03*
%TO.N,GPIO15*%
X92440600Y-76093800D03*
X98841400Y-50135000D03*
%TO.N,GPIO12*%
X96250600Y-50143000D03*
X92491400Y-68473800D03*
%TO.N,I2C_SDA*%
X92389800Y-83561400D03*
X101000400Y-62555600D03*
X101381400Y-50084200D03*
%TO.N,GPIO13*%
X97114200Y-50143000D03*
X92440600Y-70912200D03*
%TO.N,I2C_SCL*%
X97572000Y-63536400D03*
X92389800Y-81072200D03*
X100454203Y-50135000D03*
%TO.N,GPIO14*%
X92440600Y-73452200D03*
X97914203Y-50143000D03*
%TO.N,GPIO16*%
X92440600Y-78583000D03*
X99654200Y-50135000D03*
%TO.N,GPIO21*%
X103921400Y-50084200D03*
%TO.N,GPIO33*%
X106410600Y-50084200D03*
%TO.N,GPIO47*%
X105597800Y-50084200D03*
X110881000Y-71979000D03*
%TO.N,GPIO35*%
X108051600Y-47625000D03*
X111582200Y-67868800D03*
%TO.N,GPIO26*%
X104785000Y-50084200D03*
%TO.N,GPIO34*%
X107325000Y-50084200D03*
D15*
%TO.N,D-*%
X102997142Y-85975996D03*
X101738500Y-85965800D03*
%TO.N,D+*%
X102305302Y-85429497D03*
X103516500Y-85407000D03*
%TD*%
D16*
%TO.N,3V3*%
X103809800Y-56007000D02*
X101563800Y-56007000D01*
X95013850Y-51208301D02*
X95274351Y-50947800D01*
X101563800Y-56007000D02*
X99578000Y-54021200D01*
X99578000Y-52040000D02*
X99578000Y-54021200D01*
X95274351Y-50947800D02*
X98485800Y-50947800D01*
X93355000Y-37871400D02*
X93355000Y-49474600D01*
X93355000Y-49474600D02*
X95013850Y-51133450D01*
X95013850Y-51133450D02*
X95013850Y-51208301D01*
X98485800Y-50947800D02*
X99578000Y-52040000D01*
D17*
%TO.N,5VUSB*%
X101381400Y-63444600D02*
X101381400Y-80513400D01*
X108493400Y-56332600D02*
X101381400Y-63444600D01*
D18*
X91526200Y-86203000D02*
X90891200Y-86203000D01*
X105688848Y-83104200D02*
X101584600Y-83104200D01*
X99247800Y-83155000D02*
X94574200Y-83155000D01*
X94574200Y-83155000D02*
X91526200Y-86203000D01*
X101584600Y-83104200D02*
X99295648Y-83104200D01*
%TD*%
%TA.AperFunction,Conductor*%
%TO.N,GND*%
G36*
X114475512Y-34563825D02*
G01*
X114527893Y-34583008D01*
X114555689Y-34631374D01*
X114556900Y-34645375D01*
X114556900Y-37120307D01*
X114537821Y-37172726D01*
X114489511Y-37200618D01*
X114434575Y-37190931D01*
X114412311Y-37172042D01*
X114381413Y-37134393D01*
X114381406Y-37134386D01*
X114221453Y-37003117D01*
X114221451Y-37003116D01*
X114221450Y-37003115D01*
X114038954Y-36905568D01*
X114038951Y-36905567D01*
X114038949Y-36905566D01*
X113951149Y-36878933D01*
X113840934Y-36845500D01*
X113840930Y-36845499D01*
X113840922Y-36845498D01*
X113635003Y-36825217D01*
X113634997Y-36825217D01*
X113429077Y-36845498D01*
X113429067Y-36845499D01*
X113429066Y-36845500D01*
X113373958Y-36862216D01*
X113231050Y-36905566D01*
X113048546Y-37003117D01*
X112888593Y-37134386D01*
X112888586Y-37134393D01*
X112757317Y-37294346D01*
X112659766Y-37476850D01*
X112623008Y-37598030D01*
X112613917Y-37628000D01*
X112599700Y-37674867D01*
X112599698Y-37674877D01*
X112579417Y-37880796D01*
X112579417Y-37880803D01*
X112599698Y-38086722D01*
X112599699Y-38086730D01*
X112599700Y-38086734D01*
X112617305Y-38144769D01*
X112651904Y-38258832D01*
X112659768Y-38284754D01*
X112757315Y-38467250D01*
X112757317Y-38467253D01*
X112888586Y-38627206D01*
X112888593Y-38627213D01*
X113045278Y-38755800D01*
X113048550Y-38758485D01*
X113231046Y-38856032D01*
X113429066Y-38916100D01*
X113474413Y-38920566D01*
X113634997Y-38936383D01*
X113635000Y-38936383D01*
X113635003Y-38936383D01*
X113762455Y-38923829D01*
X113840934Y-38916100D01*
X114038954Y-38856032D01*
X114221450Y-38758485D01*
X114381410Y-38627210D01*
X114412310Y-38589557D01*
X114460313Y-38561140D01*
X114515352Y-38570227D01*
X114551673Y-38612565D01*
X114556900Y-38641292D01*
X114556900Y-39660307D01*
X114537821Y-39712726D01*
X114489511Y-39740618D01*
X114434575Y-39730931D01*
X114412311Y-39712042D01*
X114381413Y-39674393D01*
X114381406Y-39674386D01*
X114221453Y-39543117D01*
X114221451Y-39543116D01*
X114221450Y-39543115D01*
X114038954Y-39445568D01*
X114038951Y-39445567D01*
X114038949Y-39445566D01*
X113951149Y-39418933D01*
X113840934Y-39385500D01*
X113840930Y-39385499D01*
X113840922Y-39385498D01*
X113635003Y-39365217D01*
X113634997Y-39365217D01*
X113429077Y-39385498D01*
X113429067Y-39385499D01*
X113429066Y-39385500D01*
X113373958Y-39402216D01*
X113231050Y-39445566D01*
X113048546Y-39543117D01*
X112888593Y-39674386D01*
X112888586Y-39674393D01*
X112757317Y-39834346D01*
X112659766Y-40016850D01*
X112599700Y-40214867D01*
X112599698Y-40214877D01*
X112579417Y-40420796D01*
X112579417Y-40420803D01*
X112599698Y-40626722D01*
X112599699Y-40626730D01*
X112599700Y-40626734D01*
X112659768Y-40824754D01*
X112713100Y-40924530D01*
X112757317Y-41007253D01*
X112888586Y-41167206D01*
X112888593Y-41167213D01*
X113048546Y-41298482D01*
X113048550Y-41298485D01*
X113231046Y-41396032D01*
X113429066Y-41456100D01*
X113474413Y-41460566D01*
X113634997Y-41476383D01*
X113635000Y-41476383D01*
X113635003Y-41476383D01*
X113762455Y-41463829D01*
X113840934Y-41456100D01*
X114038954Y-41396032D01*
X114221450Y-41298485D01*
X114381410Y-41167210D01*
X114412310Y-41129557D01*
X114460313Y-41101140D01*
X114515352Y-41110227D01*
X114551673Y-41152565D01*
X114556900Y-41181292D01*
X114556900Y-42200307D01*
X114537821Y-42252726D01*
X114489511Y-42280618D01*
X114434575Y-42270931D01*
X114412311Y-42252042D01*
X114381413Y-42214393D01*
X114381406Y-42214386D01*
X114221453Y-42083117D01*
X114221451Y-42083116D01*
X114221450Y-42083115D01*
X114038954Y-41985568D01*
X114038951Y-41985567D01*
X114038949Y-41985566D01*
X113951149Y-41958933D01*
X113840934Y-41925500D01*
X113840930Y-41925499D01*
X113840922Y-41925498D01*
X113635003Y-41905217D01*
X113634997Y-41905217D01*
X113429077Y-41925498D01*
X113429067Y-41925499D01*
X113429066Y-41925500D01*
X113373958Y-41942216D01*
X113231050Y-41985566D01*
X113048546Y-42083117D01*
X112888593Y-42214386D01*
X112888586Y-42214393D01*
X112757317Y-42374346D01*
X112659766Y-42556850D01*
X112599700Y-42754867D01*
X112599698Y-42754877D01*
X112579417Y-42960796D01*
X112579417Y-42960803D01*
X112599698Y-43166722D01*
X112599699Y-43166730D01*
X112599700Y-43166734D01*
X112659768Y-43364754D01*
X112713100Y-43464530D01*
X112757317Y-43547253D01*
X112888586Y-43707206D01*
X112888593Y-43707213D01*
X113048546Y-43838482D01*
X113048550Y-43838485D01*
X113231046Y-43936032D01*
X113429066Y-43996100D01*
X113474413Y-44000566D01*
X113634997Y-44016383D01*
X113635000Y-44016383D01*
X113635003Y-44016383D01*
X113762455Y-44003829D01*
X113840934Y-43996100D01*
X114038954Y-43936032D01*
X114221450Y-43838485D01*
X114381410Y-43707210D01*
X114412310Y-43669557D01*
X114460313Y-43641140D01*
X114515352Y-43650227D01*
X114551673Y-43692565D01*
X114556900Y-43721292D01*
X114556900Y-44740307D01*
X114537821Y-44792726D01*
X114489511Y-44820618D01*
X114434575Y-44810931D01*
X114412311Y-44792042D01*
X114381413Y-44754393D01*
X114381406Y-44754386D01*
X114221453Y-44623117D01*
X114221451Y-44623116D01*
X114221450Y-44623115D01*
X114038954Y-44525568D01*
X114038951Y-44525567D01*
X114038949Y-44525566D01*
X113951149Y-44498933D01*
X113840934Y-44465500D01*
X113840930Y-44465499D01*
X113840922Y-44465498D01*
X113635003Y-44445217D01*
X113634997Y-44445217D01*
X113429077Y-44465498D01*
X113429067Y-44465499D01*
X113429066Y-44465500D01*
X113373958Y-44482216D01*
X113231050Y-44525566D01*
X113048546Y-44623117D01*
X112888593Y-44754386D01*
X112888586Y-44754393D01*
X112757317Y-44914346D01*
X112659766Y-45096850D01*
X112599700Y-45294867D01*
X112599698Y-45294877D01*
X112579417Y-45500796D01*
X112579417Y-45500803D01*
X112599698Y-45706722D01*
X112599699Y-45706730D01*
X112599700Y-45706734D01*
X112659768Y-45904754D01*
X112713100Y-46004530D01*
X112757317Y-46087253D01*
X112888586Y-46247206D01*
X112888593Y-46247213D01*
X113048546Y-46378482D01*
X113048550Y-46378485D01*
X113231046Y-46476032D01*
X113429066Y-46536100D01*
X113474413Y-46540566D01*
X113634997Y-46556383D01*
X113635000Y-46556383D01*
X113635003Y-46556383D01*
X113762455Y-46543829D01*
X113840934Y-46536100D01*
X114038954Y-46476032D01*
X114221450Y-46378485D01*
X114381410Y-46247210D01*
X114412310Y-46209557D01*
X114460313Y-46181140D01*
X114515352Y-46190227D01*
X114551673Y-46232565D01*
X114556900Y-46261292D01*
X114556900Y-47280307D01*
X114537821Y-47332726D01*
X114489511Y-47360618D01*
X114434575Y-47350931D01*
X114412311Y-47332042D01*
X114381413Y-47294393D01*
X114381406Y-47294386D01*
X114221453Y-47163117D01*
X114221451Y-47163116D01*
X114221450Y-47163115D01*
X114038954Y-47065568D01*
X114038951Y-47065567D01*
X114038949Y-47065566D01*
X113951149Y-47038933D01*
X113840934Y-47005500D01*
X113840930Y-47005499D01*
X113840922Y-47005498D01*
X113635003Y-46985217D01*
X113634997Y-46985217D01*
X113429077Y-47005498D01*
X113429067Y-47005499D01*
X113429066Y-47005500D01*
X113373958Y-47022216D01*
X113231050Y-47065566D01*
X113048546Y-47163117D01*
X112888593Y-47294386D01*
X112888586Y-47294393D01*
X112757317Y-47454346D01*
X112659766Y-47636850D01*
X112599700Y-47834867D01*
X112599698Y-47834877D01*
X112579417Y-48040796D01*
X112579417Y-48040803D01*
X112599698Y-48246722D01*
X112599699Y-48246730D01*
X112599700Y-48246734D01*
X112659768Y-48444754D01*
X112713100Y-48544530D01*
X112757317Y-48627253D01*
X112888586Y-48787206D01*
X112888593Y-48787213D01*
X113048546Y-48918482D01*
X113048550Y-48918485D01*
X113231046Y-49016032D01*
X113429066Y-49076100D01*
X113474413Y-49080566D01*
X113634997Y-49096383D01*
X113635000Y-49096383D01*
X113635003Y-49096383D01*
X113762455Y-49083829D01*
X113840934Y-49076100D01*
X114038954Y-49016032D01*
X114221450Y-48918485D01*
X114381410Y-48787210D01*
X114412310Y-48749557D01*
X114460313Y-48721140D01*
X114515352Y-48730227D01*
X114551673Y-48772565D01*
X114556900Y-48801292D01*
X114556900Y-49820307D01*
X114537821Y-49872726D01*
X114489511Y-49900618D01*
X114434575Y-49890931D01*
X114412311Y-49872042D01*
X114381413Y-49834393D01*
X114381406Y-49834386D01*
X114221453Y-49703117D01*
X114221451Y-49703116D01*
X114221450Y-49703115D01*
X114038954Y-49605568D01*
X114038951Y-49605567D01*
X114038949Y-49605566D01*
X113951149Y-49578933D01*
X113840934Y-49545500D01*
X113840930Y-49545499D01*
X113840922Y-49545498D01*
X113635003Y-49525217D01*
X113634997Y-49525217D01*
X113429077Y-49545498D01*
X113429067Y-49545499D01*
X113429066Y-49545500D01*
X113373958Y-49562216D01*
X113231050Y-49605566D01*
X113231046Y-49605567D01*
X113231046Y-49605568D01*
X113176919Y-49634500D01*
X113048546Y-49703117D01*
X112888593Y-49834386D01*
X112888586Y-49834393D01*
X112757317Y-49994346D01*
X112659766Y-50176850D01*
X112599700Y-50374867D01*
X112599698Y-50374877D01*
X112579417Y-50580796D01*
X112579417Y-50580803D01*
X112599698Y-50786722D01*
X112599699Y-50786730D01*
X112599700Y-50786734D01*
X112607380Y-50812051D01*
X112650592Y-50954507D01*
X112659768Y-50984754D01*
X112741207Y-51137114D01*
X112757317Y-51167253D01*
X112888586Y-51327206D01*
X112888593Y-51327213D01*
X112994905Y-51414460D01*
X113048550Y-51458485D01*
X113231046Y-51556032D01*
X113429066Y-51616100D01*
X113474413Y-51620566D01*
X113634997Y-51636383D01*
X113635000Y-51636383D01*
X113635003Y-51636383D01*
X113762455Y-51623829D01*
X113840934Y-51616100D01*
X114038954Y-51556032D01*
X114221450Y-51458485D01*
X114381410Y-51327210D01*
X114412310Y-51289557D01*
X114460313Y-51261140D01*
X114515352Y-51270227D01*
X114551673Y-51312565D01*
X114556900Y-51341292D01*
X114556900Y-52360307D01*
X114537821Y-52412726D01*
X114489511Y-52440618D01*
X114434575Y-52430931D01*
X114412311Y-52412042D01*
X114381413Y-52374393D01*
X114381406Y-52374386D01*
X114221453Y-52243117D01*
X114221451Y-52243116D01*
X114221450Y-52243115D01*
X114038954Y-52145568D01*
X114038951Y-52145567D01*
X114038949Y-52145566D01*
X113951149Y-52118933D01*
X113840934Y-52085500D01*
X113840930Y-52085499D01*
X113840922Y-52085498D01*
X113635003Y-52065217D01*
X113634997Y-52065217D01*
X113429077Y-52085498D01*
X113429067Y-52085499D01*
X113429066Y-52085500D01*
X113373958Y-52102216D01*
X113231050Y-52145566D01*
X113048546Y-52243117D01*
X112888593Y-52374386D01*
X112888586Y-52374393D01*
X112757317Y-52534346D01*
X112659766Y-52716850D01*
X112599700Y-52914867D01*
X112599698Y-52914877D01*
X112579417Y-53120796D01*
X112579417Y-53120803D01*
X112599698Y-53326722D01*
X112599699Y-53326730D01*
X112599700Y-53326734D01*
X112659768Y-53524754D01*
X112757315Y-53707250D01*
X112757317Y-53707253D01*
X112888586Y-53867206D01*
X112888593Y-53867213D01*
X113048546Y-53998482D01*
X113048550Y-53998485D01*
X113231046Y-54096032D01*
X113429066Y-54156100D01*
X113474413Y-54160566D01*
X113634997Y-54176383D01*
X113635000Y-54176383D01*
X113635003Y-54176383D01*
X113764177Y-54163660D01*
X113840934Y-54156100D01*
X114038954Y-54096032D01*
X114221450Y-53998485D01*
X114381410Y-53867210D01*
X114412310Y-53829557D01*
X114460313Y-53801140D01*
X114515352Y-53810227D01*
X114551673Y-53852565D01*
X114556900Y-53881292D01*
X114556900Y-54900307D01*
X114537821Y-54952726D01*
X114489511Y-54980618D01*
X114434575Y-54970931D01*
X114412311Y-54952042D01*
X114381413Y-54914393D01*
X114381406Y-54914386D01*
X114221453Y-54783117D01*
X114221451Y-54783116D01*
X114221450Y-54783115D01*
X114038954Y-54685568D01*
X114038951Y-54685567D01*
X114038949Y-54685566D01*
X113951149Y-54658933D01*
X113840934Y-54625500D01*
X113840930Y-54625499D01*
X113840922Y-54625498D01*
X113635003Y-54605217D01*
X113634997Y-54605217D01*
X113429077Y-54625498D01*
X113429067Y-54625499D01*
X113429066Y-54625500D01*
X113373958Y-54642216D01*
X113231050Y-54685566D01*
X113048546Y-54783117D01*
X112888593Y-54914386D01*
X112888586Y-54914393D01*
X112757317Y-55074346D01*
X112659766Y-55256850D01*
X112599700Y-55454867D01*
X112599698Y-55454877D01*
X112579417Y-55660796D01*
X112579417Y-55660803D01*
X112599698Y-55866722D01*
X112599699Y-55866730D01*
X112599700Y-55866734D01*
X112659768Y-56064754D01*
X112726791Y-56190144D01*
X112757317Y-56247253D01*
X112888586Y-56407206D01*
X112888593Y-56407213D01*
X113010794Y-56507500D01*
X113048550Y-56538485D01*
X113231046Y-56636032D01*
X113429066Y-56696100D01*
X113474413Y-56700566D01*
X113634997Y-56716383D01*
X113635000Y-56716383D01*
X113635003Y-56716383D01*
X113762455Y-56703829D01*
X113840934Y-56696100D01*
X114038954Y-56636032D01*
X114221450Y-56538485D01*
X114381410Y-56407210D01*
X114412310Y-56369557D01*
X114460313Y-56341140D01*
X114515352Y-56350227D01*
X114551673Y-56392565D01*
X114556900Y-56421292D01*
X114556900Y-57440307D01*
X114537821Y-57492726D01*
X114489511Y-57520618D01*
X114434575Y-57510931D01*
X114412311Y-57492042D01*
X114381413Y-57454393D01*
X114381406Y-57454386D01*
X114221453Y-57323117D01*
X114221451Y-57323116D01*
X114221450Y-57323115D01*
X114038954Y-57225568D01*
X114038951Y-57225567D01*
X114038949Y-57225566D01*
X113951149Y-57198933D01*
X113840934Y-57165500D01*
X113840930Y-57165499D01*
X113840922Y-57165498D01*
X113635003Y-57145217D01*
X113634997Y-57145217D01*
X113429077Y-57165498D01*
X113429067Y-57165499D01*
X113429066Y-57165500D01*
X113373958Y-57182216D01*
X113231050Y-57225566D01*
X113048546Y-57323117D01*
X112888593Y-57454386D01*
X112888586Y-57454393D01*
X112757317Y-57614346D01*
X112659766Y-57796850D01*
X112599700Y-57994867D01*
X112599698Y-57994877D01*
X112579417Y-58200796D01*
X112579417Y-58200803D01*
X112599698Y-58406722D01*
X112599699Y-58406730D01*
X112599700Y-58406734D01*
X112659768Y-58604754D01*
X112713100Y-58704530D01*
X112757317Y-58787253D01*
X112888586Y-58947206D01*
X112888593Y-58947213D01*
X113048546Y-59078482D01*
X113048550Y-59078485D01*
X113231046Y-59176032D01*
X113429066Y-59236100D01*
X113474413Y-59240566D01*
X113634997Y-59256383D01*
X113635000Y-59256383D01*
X113635003Y-59256383D01*
X113762455Y-59243829D01*
X113840934Y-59236100D01*
X114038954Y-59176032D01*
X114221450Y-59078485D01*
X114381410Y-58947210D01*
X114412310Y-58909557D01*
X114460313Y-58881140D01*
X114515352Y-58890227D01*
X114551673Y-58932565D01*
X114556900Y-58961292D01*
X114556900Y-59980307D01*
X114537821Y-60032726D01*
X114489511Y-60060618D01*
X114434575Y-60050931D01*
X114412311Y-60032042D01*
X114381413Y-59994393D01*
X114381406Y-59994386D01*
X114221453Y-59863117D01*
X114221451Y-59863116D01*
X114221450Y-59863115D01*
X114038954Y-59765568D01*
X114038951Y-59765567D01*
X114038949Y-59765566D01*
X113951149Y-59738933D01*
X113840934Y-59705500D01*
X113840930Y-59705499D01*
X113840922Y-59705498D01*
X113635003Y-59685217D01*
X113634997Y-59685217D01*
X113429077Y-59705498D01*
X113429067Y-59705499D01*
X113429066Y-59705500D01*
X113373958Y-59722216D01*
X113231050Y-59765566D01*
X113048546Y-59863117D01*
X112888593Y-59994386D01*
X112888586Y-59994393D01*
X112757317Y-60154346D01*
X112659766Y-60336850D01*
X112599700Y-60534867D01*
X112599698Y-60534877D01*
X112579417Y-60740796D01*
X112579417Y-60740803D01*
X112599698Y-60946722D01*
X112599699Y-60946730D01*
X112599700Y-60946734D01*
X112659768Y-61144754D01*
X112713100Y-61244530D01*
X112757317Y-61327253D01*
X112888586Y-61487206D01*
X112888593Y-61487213D01*
X113048546Y-61618482D01*
X113048550Y-61618485D01*
X113231046Y-61716032D01*
X113429066Y-61776100D01*
X113474413Y-61780566D01*
X113634997Y-61796383D01*
X113635000Y-61796383D01*
X113635003Y-61796383D01*
X113762455Y-61783829D01*
X113840934Y-61776100D01*
X114038954Y-61716032D01*
X114221450Y-61618485D01*
X114381410Y-61487210D01*
X114412310Y-61449557D01*
X114460313Y-61421140D01*
X114515352Y-61430227D01*
X114551673Y-61472565D01*
X114556900Y-61501292D01*
X114556900Y-62520307D01*
X114537821Y-62572726D01*
X114489511Y-62600618D01*
X114434575Y-62590931D01*
X114412311Y-62572042D01*
X114381413Y-62534393D01*
X114381406Y-62534386D01*
X114221453Y-62403117D01*
X114221451Y-62403116D01*
X114221450Y-62403115D01*
X114038954Y-62305568D01*
X114038951Y-62305567D01*
X114038949Y-62305566D01*
X113951149Y-62278933D01*
X113840934Y-62245500D01*
X113840930Y-62245499D01*
X113840922Y-62245498D01*
X113635003Y-62225217D01*
X113634997Y-62225217D01*
X113429077Y-62245498D01*
X113429067Y-62245499D01*
X113429066Y-62245500D01*
X113373958Y-62262216D01*
X113231050Y-62305566D01*
X113048546Y-62403117D01*
X112888593Y-62534386D01*
X112888586Y-62534393D01*
X112757317Y-62694346D01*
X112659766Y-62876850D01*
X112599700Y-63074867D01*
X112599698Y-63074877D01*
X112579417Y-63280796D01*
X112579417Y-63280803D01*
X112599698Y-63486722D01*
X112599699Y-63486730D01*
X112599700Y-63486734D01*
X112630394Y-63587919D01*
X112657978Y-63678855D01*
X112659768Y-63684754D01*
X112726593Y-63809773D01*
X112757317Y-63867253D01*
X112888586Y-64027206D01*
X112888593Y-64027213D01*
X113048546Y-64158482D01*
X113048550Y-64158485D01*
X113231046Y-64256032D01*
X113429066Y-64316100D01*
X113474413Y-64320566D01*
X113634997Y-64336383D01*
X113635000Y-64336383D01*
X113635003Y-64336383D01*
X113762455Y-64323829D01*
X113840934Y-64316100D01*
X114038954Y-64256032D01*
X114221450Y-64158485D01*
X114381410Y-64027210D01*
X114412310Y-63989557D01*
X114460313Y-63961140D01*
X114515352Y-63970227D01*
X114551673Y-64012565D01*
X114556900Y-64041292D01*
X114556900Y-65060307D01*
X114537821Y-65112726D01*
X114489511Y-65140618D01*
X114434575Y-65130931D01*
X114412311Y-65112042D01*
X114381413Y-65074393D01*
X114381406Y-65074386D01*
X114221453Y-64943117D01*
X114221451Y-64943116D01*
X114221450Y-64943115D01*
X114038954Y-64845568D01*
X114038951Y-64845567D01*
X114038949Y-64845566D01*
X113951149Y-64818933D01*
X113840934Y-64785500D01*
X113840930Y-64785499D01*
X113840922Y-64785498D01*
X113635003Y-64765217D01*
X113634997Y-64765217D01*
X113429077Y-64785498D01*
X113429067Y-64785499D01*
X113429066Y-64785500D01*
X113373958Y-64802216D01*
X113231050Y-64845566D01*
X113048546Y-64943117D01*
X112888593Y-65074386D01*
X112888586Y-65074393D01*
X112757317Y-65234346D01*
X112659766Y-65416850D01*
X112616416Y-65559758D01*
X112607808Y-65588139D01*
X112599700Y-65614867D01*
X112599698Y-65614877D01*
X112579417Y-65820796D01*
X112579417Y-65820803D01*
X112599698Y-66026722D01*
X112599699Y-66026730D01*
X112599700Y-66026734D01*
X112659768Y-66224754D01*
X112724204Y-66345304D01*
X112757317Y-66407253D01*
X112888586Y-66567206D01*
X112888593Y-66567213D01*
X112951299Y-66618674D01*
X113048550Y-66698485D01*
X113231046Y-66796032D01*
X113429066Y-66856100D01*
X113474413Y-66860566D01*
X113634997Y-66876383D01*
X113635000Y-66876383D01*
X113635003Y-66876383D01*
X113762455Y-66863829D01*
X113840934Y-66856100D01*
X114038954Y-66796032D01*
X114221450Y-66698485D01*
X114381410Y-66567210D01*
X114412310Y-66529557D01*
X114460313Y-66501140D01*
X114515352Y-66510227D01*
X114551673Y-66552565D01*
X114556900Y-66581292D01*
X114556900Y-67600307D01*
X114537821Y-67652726D01*
X114489511Y-67680618D01*
X114434575Y-67670931D01*
X114412311Y-67652042D01*
X114381413Y-67614393D01*
X114381406Y-67614386D01*
X114221453Y-67483117D01*
X114221451Y-67483116D01*
X114221450Y-67483115D01*
X114038954Y-67385568D01*
X114038951Y-67385567D01*
X114038949Y-67385566D01*
X113951149Y-67358933D01*
X113840934Y-67325500D01*
X113840930Y-67325499D01*
X113840922Y-67325498D01*
X113635003Y-67305217D01*
X113634997Y-67305217D01*
X113429077Y-67325498D01*
X113429067Y-67325499D01*
X113429066Y-67325500D01*
X113373958Y-67342216D01*
X113231050Y-67385566D01*
X113231046Y-67385567D01*
X113231046Y-67385568D01*
X113139798Y-67434341D01*
X113048546Y-67483117D01*
X112888593Y-67614386D01*
X112888586Y-67614393D01*
X112757317Y-67774346D01*
X112659766Y-67956850D01*
X112642477Y-68013847D01*
X112603551Y-68142173D01*
X112599700Y-68154867D01*
X112599698Y-68154877D01*
X112579417Y-68360796D01*
X112579417Y-68360803D01*
X112599698Y-68566722D01*
X112599699Y-68566730D01*
X112599700Y-68566734D01*
X112633133Y-68676949D01*
X112654434Y-68747172D01*
X112659768Y-68764754D01*
X112750101Y-68933753D01*
X112757317Y-68947253D01*
X112888586Y-69107206D01*
X112888593Y-69107213D01*
X113048546Y-69238482D01*
X113048550Y-69238485D01*
X113231046Y-69336032D01*
X113429066Y-69396100D01*
X113474413Y-69400566D01*
X113634997Y-69416383D01*
X113635000Y-69416383D01*
X113635003Y-69416383D01*
X113762455Y-69403829D01*
X113840934Y-69396100D01*
X114038954Y-69336032D01*
X114221450Y-69238485D01*
X114381410Y-69107210D01*
X114412310Y-69069557D01*
X114460313Y-69041140D01*
X114515352Y-69050227D01*
X114551673Y-69092565D01*
X114556900Y-69121292D01*
X114556900Y-70140307D01*
X114537821Y-70192726D01*
X114489511Y-70220618D01*
X114434575Y-70210931D01*
X114412311Y-70192042D01*
X114381413Y-70154393D01*
X114381406Y-70154386D01*
X114221453Y-70023117D01*
X114221451Y-70023116D01*
X114221450Y-70023115D01*
X114038954Y-69925568D01*
X114038951Y-69925567D01*
X114038949Y-69925566D01*
X113951149Y-69898933D01*
X113840934Y-69865500D01*
X113840930Y-69865499D01*
X113840922Y-69865498D01*
X113635003Y-69845217D01*
X113634997Y-69845217D01*
X113429077Y-69865498D01*
X113429067Y-69865499D01*
X113429066Y-69865500D01*
X113373958Y-69882216D01*
X113231050Y-69925566D01*
X113048546Y-70023117D01*
X112888593Y-70154386D01*
X112888586Y-70154393D01*
X112757317Y-70314346D01*
X112659766Y-70496850D01*
X112599700Y-70694867D01*
X112599698Y-70694877D01*
X112579417Y-70900796D01*
X112579417Y-70900803D01*
X112599698Y-71106722D01*
X112599699Y-71106727D01*
X112599700Y-71106734D01*
X112623614Y-71185569D01*
X112656609Y-71294343D01*
X112659768Y-71304754D01*
X112695794Y-71372153D01*
X112757317Y-71487253D01*
X112888586Y-71647206D01*
X112888593Y-71647213D01*
X112959775Y-71705630D01*
X113048550Y-71778485D01*
X113231046Y-71876032D01*
X113429066Y-71936100D01*
X113474413Y-71940566D01*
X113634997Y-71956383D01*
X113635000Y-71956383D01*
X113635003Y-71956383D01*
X113762455Y-71943829D01*
X113840934Y-71936100D01*
X114038954Y-71876032D01*
X114221450Y-71778485D01*
X114381410Y-71647210D01*
X114412310Y-71609557D01*
X114460313Y-71581140D01*
X114515352Y-71590227D01*
X114551673Y-71632565D01*
X114556900Y-71661292D01*
X114556900Y-72680307D01*
X114537821Y-72732726D01*
X114489511Y-72760618D01*
X114434575Y-72750931D01*
X114412311Y-72732042D01*
X114381413Y-72694393D01*
X114381406Y-72694386D01*
X114221453Y-72563117D01*
X114221451Y-72563116D01*
X114221450Y-72563115D01*
X114038954Y-72465568D01*
X114038951Y-72465567D01*
X114038949Y-72465566D01*
X113951149Y-72438933D01*
X113840934Y-72405500D01*
X113840930Y-72405499D01*
X113840922Y-72405498D01*
X113635003Y-72385217D01*
X113634997Y-72385217D01*
X113429077Y-72405498D01*
X113429067Y-72405499D01*
X113429066Y-72405500D01*
X113373958Y-72422216D01*
X113231050Y-72465566D01*
X113048546Y-72563117D01*
X112888593Y-72694386D01*
X112888586Y-72694393D01*
X112757317Y-72854346D01*
X112659766Y-73036850D01*
X112599700Y-73234867D01*
X112599698Y-73234877D01*
X112579417Y-73440796D01*
X112579417Y-73440803D01*
X112599698Y-73646722D01*
X112599699Y-73646727D01*
X112599700Y-73646734D01*
X112623614Y-73725569D01*
X112656609Y-73834343D01*
X112659768Y-73844754D01*
X112695794Y-73912153D01*
X112757317Y-74027253D01*
X112888586Y-74187206D01*
X112888593Y-74187213D01*
X113048546Y-74318482D01*
X113048550Y-74318485D01*
X113231046Y-74416032D01*
X113429066Y-74476100D01*
X113474413Y-74480566D01*
X113634997Y-74496383D01*
X113635000Y-74496383D01*
X113635003Y-74496383D01*
X113762455Y-74483829D01*
X113840934Y-74476100D01*
X114038954Y-74416032D01*
X114221450Y-74318485D01*
X114381410Y-74187210D01*
X114412310Y-74149557D01*
X114460313Y-74121140D01*
X114515352Y-74130227D01*
X114551673Y-74172565D01*
X114556900Y-74201292D01*
X114556900Y-75220307D01*
X114537821Y-75272726D01*
X114489511Y-75300618D01*
X114434575Y-75290931D01*
X114412311Y-75272042D01*
X114381413Y-75234393D01*
X114381406Y-75234386D01*
X114221453Y-75103117D01*
X114221451Y-75103116D01*
X114221450Y-75103115D01*
X114038954Y-75005568D01*
X114038951Y-75005567D01*
X114038949Y-75005566D01*
X113951149Y-74978933D01*
X113840934Y-74945500D01*
X113840930Y-74945499D01*
X113840922Y-74945498D01*
X113635003Y-74925217D01*
X113634997Y-74925217D01*
X113429077Y-74945498D01*
X113429067Y-74945499D01*
X113429066Y-74945500D01*
X113373958Y-74962216D01*
X113231050Y-75005566D01*
X113048546Y-75103117D01*
X112888593Y-75234386D01*
X112888586Y-75234393D01*
X112757317Y-75394346D01*
X112659766Y-75576850D01*
X112599700Y-75774867D01*
X112599698Y-75774877D01*
X112579417Y-75980796D01*
X112579417Y-75980803D01*
X112599698Y-76186722D01*
X112599699Y-76186730D01*
X112599700Y-76186734D01*
X112619195Y-76251000D01*
X112655096Y-76369355D01*
X112659768Y-76384754D01*
X112750101Y-76553753D01*
X112757317Y-76567253D01*
X112888586Y-76727206D01*
X112888593Y-76727213D01*
X113048546Y-76858482D01*
X113048550Y-76858485D01*
X113231046Y-76956032D01*
X113429066Y-77016100D01*
X113474413Y-77020566D01*
X113634997Y-77036383D01*
X113635000Y-77036383D01*
X113635003Y-77036383D01*
X113762455Y-77023829D01*
X113840934Y-77016100D01*
X114038954Y-76956032D01*
X114221450Y-76858485D01*
X114381410Y-76727210D01*
X114412310Y-76689557D01*
X114460313Y-76661140D01*
X114515352Y-76670227D01*
X114551673Y-76712565D01*
X114556900Y-76741292D01*
X114556900Y-77760307D01*
X114537821Y-77812726D01*
X114489511Y-77840618D01*
X114434575Y-77830931D01*
X114412311Y-77812042D01*
X114381413Y-77774393D01*
X114381406Y-77774386D01*
X114221453Y-77643117D01*
X114221451Y-77643116D01*
X114221450Y-77643115D01*
X114038954Y-77545568D01*
X114038951Y-77545567D01*
X114038949Y-77545566D01*
X113951149Y-77518933D01*
X113840934Y-77485500D01*
X113840930Y-77485499D01*
X113840922Y-77485498D01*
X113635003Y-77465217D01*
X113634997Y-77465217D01*
X113429077Y-77485498D01*
X113429067Y-77485499D01*
X113429066Y-77485500D01*
X113373958Y-77502216D01*
X113231050Y-77545566D01*
X113048546Y-77643117D01*
X112888593Y-77774386D01*
X112888586Y-77774393D01*
X112757317Y-77934346D01*
X112757315Y-77934350D01*
X112678127Y-78082500D01*
X112659766Y-78116850D01*
X112634284Y-78200855D01*
X112601289Y-78309630D01*
X112599700Y-78314867D01*
X112599698Y-78314877D01*
X112579417Y-78520796D01*
X112579417Y-78520803D01*
X112599698Y-78726722D01*
X112599699Y-78726730D01*
X112599700Y-78726734D01*
X112659768Y-78924754D01*
X112757315Y-79107250D01*
X112757317Y-79107253D01*
X112888586Y-79267206D01*
X112888593Y-79267213D01*
X113048546Y-79398482D01*
X113048550Y-79398485D01*
X113231046Y-79496032D01*
X113429066Y-79556100D01*
X113474413Y-79560566D01*
X113634997Y-79576383D01*
X113635000Y-79576383D01*
X113635003Y-79576383D01*
X113762455Y-79563829D01*
X113840934Y-79556100D01*
X114038954Y-79496032D01*
X114221450Y-79398485D01*
X114381410Y-79267210D01*
X114412310Y-79229557D01*
X114460313Y-79201140D01*
X114515352Y-79210227D01*
X114551673Y-79252565D01*
X114556900Y-79281292D01*
X114556900Y-80300307D01*
X114537821Y-80352726D01*
X114489511Y-80380618D01*
X114434575Y-80370931D01*
X114412311Y-80352042D01*
X114381413Y-80314393D01*
X114381406Y-80314386D01*
X114221453Y-80183117D01*
X114221451Y-80183116D01*
X114221450Y-80183115D01*
X114038954Y-80085568D01*
X114038951Y-80085567D01*
X114038949Y-80085566D01*
X113951149Y-80058933D01*
X113840934Y-80025500D01*
X113840930Y-80025499D01*
X113840922Y-80025498D01*
X113635003Y-80005217D01*
X113634997Y-80005217D01*
X113429077Y-80025498D01*
X113429067Y-80025499D01*
X113429066Y-80025500D01*
X113373958Y-80042216D01*
X113231050Y-80085566D01*
X113048546Y-80183117D01*
X112888593Y-80314386D01*
X112888586Y-80314393D01*
X112757317Y-80474346D01*
X112659766Y-80656850D01*
X112599700Y-80854867D01*
X112599698Y-80854877D01*
X112579417Y-81060796D01*
X112579417Y-81060803D01*
X112599698Y-81266722D01*
X112599699Y-81266730D01*
X112599700Y-81266734D01*
X112623614Y-81345569D01*
X112656609Y-81454343D01*
X112659768Y-81464754D01*
X112695794Y-81532153D01*
X112757317Y-81647253D01*
X112888586Y-81807206D01*
X112888593Y-81807213D01*
X113048546Y-81938482D01*
X113048550Y-81938485D01*
X113231046Y-82036032D01*
X113429066Y-82096100D01*
X113474413Y-82100566D01*
X113634997Y-82116383D01*
X113635000Y-82116383D01*
X113635003Y-82116383D01*
X113762455Y-82103829D01*
X113840934Y-82096100D01*
X114038954Y-82036032D01*
X114221450Y-81938485D01*
X114381410Y-81807210D01*
X114412310Y-81769557D01*
X114460313Y-81741140D01*
X114515352Y-81750227D01*
X114551673Y-81792565D01*
X114556900Y-81821292D01*
X114556900Y-82840307D01*
X114537821Y-82892726D01*
X114489511Y-82920618D01*
X114434575Y-82910931D01*
X114412311Y-82892042D01*
X114381413Y-82854393D01*
X114381406Y-82854386D01*
X114221453Y-82723117D01*
X114221451Y-82723116D01*
X114221450Y-82723115D01*
X114038954Y-82625568D01*
X114038951Y-82625567D01*
X114038949Y-82625566D01*
X113951149Y-82598933D01*
X113840934Y-82565500D01*
X113840930Y-82565499D01*
X113840922Y-82565498D01*
X113635003Y-82545217D01*
X113634997Y-82545217D01*
X113429077Y-82565498D01*
X113429067Y-82565499D01*
X113429066Y-82565500D01*
X113373958Y-82582216D01*
X113231050Y-82625566D01*
X113231046Y-82625567D01*
X113231046Y-82625568D01*
X113176919Y-82654500D01*
X113048546Y-82723117D01*
X112888593Y-82854386D01*
X112888586Y-82854393D01*
X112757317Y-83014346D01*
X112659766Y-83196850D01*
X112628449Y-83300092D01*
X112603511Y-83382305D01*
X112599700Y-83394867D01*
X112599698Y-83394877D01*
X112579417Y-83600796D01*
X112579417Y-83600803D01*
X112599698Y-83806722D01*
X112599699Y-83806730D01*
X112599700Y-83806734D01*
X112659768Y-84004754D01*
X112713100Y-84104530D01*
X112757317Y-84187253D01*
X112888586Y-84347206D01*
X112888593Y-84347213D01*
X113048546Y-84478482D01*
X113048550Y-84478485D01*
X113231046Y-84576032D01*
X113429066Y-84636100D01*
X113474413Y-84640566D01*
X113634997Y-84656383D01*
X113635000Y-84656383D01*
X113635003Y-84656383D01*
X113762455Y-84643829D01*
X113840934Y-84636100D01*
X114038954Y-84576032D01*
X114221450Y-84478485D01*
X114381410Y-84347210D01*
X114412310Y-84309557D01*
X114460313Y-84281140D01*
X114515352Y-84290227D01*
X114551673Y-84332565D01*
X114556900Y-84361292D01*
X114556900Y-85380307D01*
X114537821Y-85432726D01*
X114489511Y-85460618D01*
X114434575Y-85450931D01*
X114412311Y-85432042D01*
X114381413Y-85394393D01*
X114381406Y-85394386D01*
X114221453Y-85263117D01*
X114221451Y-85263116D01*
X114221450Y-85263115D01*
X114038954Y-85165568D01*
X114038951Y-85165567D01*
X114038949Y-85165566D01*
X113951149Y-85138933D01*
X113840934Y-85105500D01*
X113840930Y-85105499D01*
X113840922Y-85105498D01*
X113635003Y-85085217D01*
X113634997Y-85085217D01*
X113429077Y-85105498D01*
X113429067Y-85105499D01*
X113429066Y-85105500D01*
X113373958Y-85122216D01*
X113231050Y-85165566D01*
X113231046Y-85165567D01*
X113231046Y-85165568D01*
X113197616Y-85183437D01*
X113048546Y-85263117D01*
X112888593Y-85394386D01*
X112888586Y-85394393D01*
X112757317Y-85554346D01*
X112713100Y-85637069D01*
X112668912Y-85719740D01*
X112659766Y-85736850D01*
X112621699Y-85862344D01*
X112607508Y-85909128D01*
X112599700Y-85934867D01*
X112599698Y-85934877D01*
X112579417Y-86140796D01*
X112579417Y-86140803D01*
X112599698Y-86346722D01*
X112599699Y-86346730D01*
X112599700Y-86346734D01*
X112659768Y-86544754D01*
X112713100Y-86644530D01*
X112757317Y-86727253D01*
X112888586Y-86887206D01*
X112888593Y-86887213D01*
X113048546Y-87018482D01*
X113048550Y-87018485D01*
X113231046Y-87116032D01*
X113429066Y-87176100D01*
X113474413Y-87180566D01*
X113634997Y-87196383D01*
X113635000Y-87196383D01*
X113635003Y-87196383D01*
X113762455Y-87183829D01*
X113840934Y-87176100D01*
X114038954Y-87116032D01*
X114221450Y-87018485D01*
X114381410Y-86887210D01*
X114412310Y-86849557D01*
X114460313Y-86821140D01*
X114515352Y-86830227D01*
X114551673Y-86872565D01*
X114556900Y-86901292D01*
X114556900Y-87920307D01*
X114537821Y-87972726D01*
X114489511Y-88000618D01*
X114434575Y-87990931D01*
X114412311Y-87972042D01*
X114381413Y-87934393D01*
X114381406Y-87934386D01*
X114221453Y-87803117D01*
X114221451Y-87803116D01*
X114221450Y-87803115D01*
X114038954Y-87705568D01*
X114038951Y-87705567D01*
X114038949Y-87705566D01*
X113951149Y-87678933D01*
X113840934Y-87645500D01*
X113840930Y-87645499D01*
X113840922Y-87645498D01*
X113635003Y-87625217D01*
X113634997Y-87625217D01*
X113429077Y-87645498D01*
X113429067Y-87645499D01*
X113429066Y-87645500D01*
X113373958Y-87662216D01*
X113231050Y-87705566D01*
X113048546Y-87803117D01*
X112888593Y-87934386D01*
X112888586Y-87934393D01*
X112757317Y-88094346D01*
X112659766Y-88276850D01*
X112599700Y-88474867D01*
X112599698Y-88474877D01*
X112579417Y-88680796D01*
X112579417Y-88680803D01*
X112599698Y-88886722D01*
X112599699Y-88886730D01*
X112599700Y-88886734D01*
X112659768Y-89084754D01*
X112713100Y-89184530D01*
X112757317Y-89267253D01*
X112888586Y-89427206D01*
X112888593Y-89427213D01*
X113048546Y-89558482D01*
X113048550Y-89558485D01*
X113231046Y-89656032D01*
X113429066Y-89716100D01*
X113474413Y-89720566D01*
X113634997Y-89736383D01*
X113635000Y-89736383D01*
X113635003Y-89736383D01*
X113762455Y-89723829D01*
X113840934Y-89716100D01*
X114038954Y-89656032D01*
X114221450Y-89558485D01*
X114381410Y-89427210D01*
X114412310Y-89389557D01*
X114460313Y-89361140D01*
X114515352Y-89370227D01*
X114551673Y-89412565D01*
X114556900Y-89441292D01*
X114556900Y-91123350D01*
X114537821Y-91175769D01*
X114489511Y-91203661D01*
X114475350Y-91204900D01*
X89934650Y-91204900D01*
X89882231Y-91185821D01*
X89854339Y-91137511D01*
X89853100Y-91123350D01*
X89853100Y-86901292D01*
X89872179Y-86848873D01*
X89920489Y-86820981D01*
X89975425Y-86830668D01*
X89997690Y-86849558D01*
X90028587Y-86887207D01*
X90028593Y-86887213D01*
X90188546Y-87018482D01*
X90188550Y-87018485D01*
X90371046Y-87116032D01*
X90569066Y-87176100D01*
X90614413Y-87180566D01*
X90774997Y-87196383D01*
X90775000Y-87196383D01*
X90775003Y-87196383D01*
X90902455Y-87183829D01*
X90980934Y-87176100D01*
X91178954Y-87116032D01*
X91361450Y-87018485D01*
X91521410Y-86887210D01*
X91652685Y-86727250D01*
X91750232Y-86544754D01*
X91788990Y-86416980D01*
X91809362Y-86382991D01*
X92827526Y-85364828D01*
X99172350Y-85364828D01*
X99172350Y-85516371D01*
X99211567Y-85662732D01*
X99211569Y-85662737D01*
X99287332Y-85793961D01*
X99287333Y-85793962D01*
X99287335Y-85793965D01*
X99394485Y-85901115D01*
X99394487Y-85901116D01*
X99394488Y-85901117D01*
X99525712Y-85976880D01*
X99525717Y-85976882D01*
X99672078Y-86016099D01*
X99672082Y-86016099D01*
X99672084Y-86016100D01*
X99672085Y-86016100D01*
X99823615Y-86016100D01*
X99823616Y-86016100D01*
X99823617Y-86016099D01*
X99823621Y-86016099D01*
X99969982Y-85976882D01*
X99969983Y-85976881D01*
X99969985Y-85976881D01*
X99971522Y-85975994D01*
X99989178Y-85965800D01*
X101283367Y-85965800D01*
X101301802Y-86094024D01*
X101301804Y-86094029D01*
X101355616Y-86211859D01*
X101355620Y-86211866D01*
X101364455Y-86222062D01*
X101440451Y-86309767D01*
X101549431Y-86379804D01*
X101673728Y-86416300D01*
X101803272Y-86416300D01*
X101927569Y-86379804D01*
X102036549Y-86309767D01*
X102121382Y-86211863D01*
X102175197Y-86094026D01*
X102193633Y-85965800D01*
X102193633Y-85965798D01*
X102193633Y-85961547D01*
X102212712Y-85909128D01*
X102261022Y-85881236D01*
X102275183Y-85879997D01*
X102370074Y-85879997D01*
X102442245Y-85858806D01*
X102497915Y-85862344D01*
X102538287Y-85900840D01*
X102545939Y-85948658D01*
X102545652Y-85950655D01*
X102542009Y-85975996D01*
X102545104Y-85997526D01*
X102560444Y-86104220D01*
X102560446Y-86104225D01*
X102614258Y-86222055D01*
X102614262Y-86222062D01*
X102690258Y-86309767D01*
X102699093Y-86319963D01*
X102808073Y-86390000D01*
X102932370Y-86426496D01*
X103061914Y-86426496D01*
X103186211Y-86390000D01*
X103295191Y-86319963D01*
X103380024Y-86222059D01*
X103433839Y-86104222D01*
X103452275Y-85975996D01*
X103448632Y-85950655D01*
X103460057Y-85896054D01*
X103503907Y-85861571D01*
X103529352Y-85857500D01*
X103581272Y-85857500D01*
X103705569Y-85821004D01*
X103814549Y-85750967D01*
X103899382Y-85653063D01*
X103953197Y-85535226D01*
X103971633Y-85407000D01*
X103965570Y-85364828D01*
X104952350Y-85364828D01*
X104952350Y-85516371D01*
X104991567Y-85662732D01*
X104991569Y-85662737D01*
X105067332Y-85793961D01*
X105067333Y-85793962D01*
X105067335Y-85793965D01*
X105174485Y-85901115D01*
X105174487Y-85901116D01*
X105174488Y-85901117D01*
X105305712Y-85976880D01*
X105305717Y-85976882D01*
X105452078Y-86016099D01*
X105452082Y-86016099D01*
X105452084Y-86016100D01*
X105452085Y-86016100D01*
X105603615Y-86016100D01*
X105603616Y-86016100D01*
X105603617Y-86016099D01*
X105603621Y-86016099D01*
X105749982Y-85976882D01*
X105749983Y-85976881D01*
X105749985Y-85976881D01*
X105751522Y-85975994D01*
X105867336Y-85909128D01*
X105881215Y-85901115D01*
X105988365Y-85793965D01*
X106064131Y-85662735D01*
X106075091Y-85621832D01*
X106103349Y-85516371D01*
X106103350Y-85516364D01*
X106103350Y-85364835D01*
X106103349Y-85364828D01*
X106064132Y-85218467D01*
X106064130Y-85218462D01*
X105988367Y-85087238D01*
X105988366Y-85087237D01*
X105988365Y-85087235D01*
X105881215Y-84980085D01*
X105881212Y-84980083D01*
X105881211Y-84980082D01*
X105749987Y-84904319D01*
X105749982Y-84904317D01*
X105603621Y-84865100D01*
X105603616Y-84865100D01*
X105452084Y-84865100D01*
X105452078Y-84865100D01*
X105305717Y-84904317D01*
X105305712Y-84904319D01*
X105174488Y-84980082D01*
X105067332Y-85087238D01*
X104991569Y-85218462D01*
X104991567Y-85218467D01*
X104952350Y-85364828D01*
X103965570Y-85364828D01*
X103953197Y-85278774D01*
X103899382Y-85160937D01*
X103814549Y-85063033D01*
X103814548Y-85063032D01*
X103705569Y-84992996D01*
X103705570Y-84992996D01*
X103581272Y-84956500D01*
X103451728Y-84956500D01*
X103327429Y-84992996D01*
X103218451Y-85063032D01*
X103218450Y-85063032D01*
X103133620Y-85160933D01*
X103133616Y-85160940D01*
X103079804Y-85278770D01*
X103079802Y-85278775D01*
X103061367Y-85407000D01*
X103061367Y-85407001D01*
X103065010Y-85432342D01*
X103053584Y-85486942D01*
X103009735Y-85521425D01*
X102984290Y-85525496D01*
X102932369Y-85525496D01*
X102860198Y-85546686D01*
X102804527Y-85543147D01*
X102764155Y-85504651D01*
X102756504Y-85456834D01*
X102760435Y-85429497D01*
X102741999Y-85301271D01*
X102688184Y-85183434D01*
X102672703Y-85165568D01*
X102603350Y-85085529D01*
X102494371Y-85015493D01*
X102494372Y-85015493D01*
X102370074Y-84978997D01*
X102240530Y-84978997D01*
X102116231Y-85015493D01*
X102007253Y-85085529D01*
X102007252Y-85085529D01*
X101922422Y-85183430D01*
X101922418Y-85183437D01*
X101868606Y-85301267D01*
X101868604Y-85301272D01*
X101850169Y-85429497D01*
X101850169Y-85433750D01*
X101831090Y-85486169D01*
X101782780Y-85514061D01*
X101768619Y-85515300D01*
X101673728Y-85515300D01*
X101549429Y-85551796D01*
X101440451Y-85621832D01*
X101440450Y-85621832D01*
X101355620Y-85719733D01*
X101355616Y-85719740D01*
X101301804Y-85837570D01*
X101301802Y-85837575D01*
X101283367Y-85965800D01*
X99989178Y-85965800D01*
X100087336Y-85909128D01*
X100101215Y-85901115D01*
X100208365Y-85793965D01*
X100284131Y-85662735D01*
X100295091Y-85621832D01*
X100323349Y-85516371D01*
X100323350Y-85516364D01*
X100323350Y-85364835D01*
X100323349Y-85364828D01*
X100284132Y-85218467D01*
X100284130Y-85218462D01*
X100208367Y-85087238D01*
X100208366Y-85087237D01*
X100208365Y-85087235D01*
X100101215Y-84980085D01*
X100101212Y-84980083D01*
X100101211Y-84980082D01*
X99969987Y-84904319D01*
X99969982Y-84904317D01*
X99823621Y-84865100D01*
X99823616Y-84865100D01*
X99672084Y-84865100D01*
X99672078Y-84865100D01*
X99525717Y-84904317D01*
X99525712Y-84904319D01*
X99394488Y-84980082D01*
X99287332Y-85087238D01*
X99211569Y-85218462D01*
X99211567Y-85218467D01*
X99172350Y-85364828D01*
X92827526Y-85364828D01*
X94685970Y-83506385D01*
X94736527Y-83482810D01*
X94743635Y-83482500D01*
X98832081Y-83482500D01*
X98884500Y-83501579D01*
X98893709Y-83510642D01*
X98916672Y-83537143D01*
X99037747Y-83614953D01*
X99175839Y-83655500D01*
X99319761Y-83655500D01*
X99457853Y-83614953D01*
X99578928Y-83537143D01*
X99645906Y-83459845D01*
X99694652Y-83432724D01*
X99707537Y-83431700D01*
X101118081Y-83431700D01*
X101170500Y-83450779D01*
X101179709Y-83459842D01*
X101202672Y-83486343D01*
X101323747Y-83564153D01*
X101461839Y-83604700D01*
X101605761Y-83604700D01*
X101743853Y-83564153D01*
X101864928Y-83486343D01*
X101887888Y-83459845D01*
X101936633Y-83432724D01*
X101949519Y-83431700D01*
X105240014Y-83431700D01*
X105292433Y-83450779D01*
X105301645Y-83459846D01*
X105370906Y-83539777D01*
X105370907Y-83539778D01*
X105491982Y-83617588D01*
X105630074Y-83658135D01*
X105773996Y-83658135D01*
X105912088Y-83617588D01*
X106033163Y-83539778D01*
X106127412Y-83431008D01*
X106187200Y-83300092D01*
X106207682Y-83157635D01*
X106187200Y-83015178D01*
X106127412Y-82884262D01*
X106033163Y-82775492D01*
X105912088Y-82697682D01*
X105912089Y-82697682D01*
X105773996Y-82657135D01*
X105630074Y-82657135D01*
X105491980Y-82697682D01*
X105389171Y-82763754D01*
X105345082Y-82776700D01*
X101949519Y-82776700D01*
X101897100Y-82757621D01*
X101887890Y-82748557D01*
X101864928Y-82722057D01*
X101743853Y-82644247D01*
X101743854Y-82644247D01*
X101605761Y-82603700D01*
X101461839Y-82603700D01*
X101323745Y-82644247D01*
X101202674Y-82722055D01*
X101202672Y-82722056D01*
X101202672Y-82722057D01*
X101179711Y-82748554D01*
X101130967Y-82775676D01*
X101118081Y-82776700D01*
X99608853Y-82776700D01*
X99564764Y-82763754D01*
X99457853Y-82695047D01*
X99457854Y-82695047D01*
X99319761Y-82654500D01*
X99175839Y-82654500D01*
X99037745Y-82695047D01*
X98916674Y-82772855D01*
X98916672Y-82772856D01*
X98916672Y-82772857D01*
X98893711Y-82799354D01*
X98844967Y-82826476D01*
X98832081Y-82827500D01*
X94531078Y-82827500D01*
X94447793Y-82849817D01*
X94373111Y-82892934D01*
X91742907Y-85523136D01*
X91692350Y-85546711D01*
X91638467Y-85532273D01*
X91622203Y-85517206D01*
X91521413Y-85394393D01*
X91521406Y-85394386D01*
X91361453Y-85263117D01*
X91361451Y-85263116D01*
X91361450Y-85263115D01*
X91178954Y-85165568D01*
X91178951Y-85165567D01*
X91178949Y-85165566D01*
X91091149Y-85138933D01*
X90980934Y-85105500D01*
X90980930Y-85105499D01*
X90980922Y-85105498D01*
X90775003Y-85085217D01*
X90774997Y-85085217D01*
X90569077Y-85105498D01*
X90569067Y-85105499D01*
X90569066Y-85105500D01*
X90513958Y-85122216D01*
X90371050Y-85165566D01*
X90371046Y-85165567D01*
X90371046Y-85165568D01*
X90337616Y-85183437D01*
X90188546Y-85263117D01*
X90028593Y-85394386D01*
X90028586Y-85394393D01*
X89997689Y-85432042D01*
X89949686Y-85460459D01*
X89894648Y-85451372D01*
X89858327Y-85409033D01*
X89853100Y-85380307D01*
X89853100Y-84361292D01*
X89872179Y-84308873D01*
X89920489Y-84280981D01*
X89975425Y-84290668D01*
X89997690Y-84309558D01*
X90028587Y-84347207D01*
X90028593Y-84347213D01*
X90188546Y-84478482D01*
X90188550Y-84478485D01*
X90371046Y-84576032D01*
X90569066Y-84636100D01*
X90614413Y-84640566D01*
X90774997Y-84656383D01*
X90775000Y-84656383D01*
X90775003Y-84656383D01*
X90902455Y-84643829D01*
X90980934Y-84636100D01*
X91178954Y-84576032D01*
X91361450Y-84478485D01*
X91521410Y-84347210D01*
X91652685Y-84187250D01*
X91750232Y-84004754D01*
X91804090Y-83827204D01*
X91837562Y-83782584D01*
X91891888Y-83769916D01*
X91941647Y-83795132D01*
X91956306Y-83816999D01*
X91964423Y-83834773D01*
X92058672Y-83943543D01*
X92179747Y-84021353D01*
X92317839Y-84061900D01*
X92461761Y-84061900D01*
X92599853Y-84021353D01*
X92720928Y-83943543D01*
X92815177Y-83834773D01*
X92874965Y-83703857D01*
X92895447Y-83561400D01*
X92874965Y-83418943D01*
X92815177Y-83288027D01*
X92720928Y-83179257D01*
X92687283Y-83157635D01*
X92599853Y-83101447D01*
X92599854Y-83101447D01*
X92461761Y-83060900D01*
X92317839Y-83060900D01*
X92179745Y-83101447D01*
X92058674Y-83179255D01*
X91964423Y-83288026D01*
X91941944Y-83337248D01*
X91902812Y-83377003D01*
X91847281Y-83382305D01*
X91801334Y-83350671D01*
X91789726Y-83327045D01*
X91750232Y-83196846D01*
X91652685Y-83014350D01*
X91575762Y-82920618D01*
X91521413Y-82854393D01*
X91521406Y-82854386D01*
X91361453Y-82723117D01*
X91361451Y-82723116D01*
X91361450Y-82723115D01*
X91178954Y-82625568D01*
X91178951Y-82625567D01*
X91178949Y-82625566D01*
X91091149Y-82598933D01*
X90980934Y-82565500D01*
X90980930Y-82565499D01*
X90980922Y-82565498D01*
X90775003Y-82545217D01*
X90774997Y-82545217D01*
X90569077Y-82565498D01*
X90569067Y-82565499D01*
X90569066Y-82565500D01*
X90513958Y-82582216D01*
X90371050Y-82625566D01*
X90371046Y-82625567D01*
X90371046Y-82625568D01*
X90316919Y-82654500D01*
X90188546Y-82723117D01*
X90028593Y-82854386D01*
X90028586Y-82854393D01*
X89997689Y-82892042D01*
X89949686Y-82920459D01*
X89894648Y-82911372D01*
X89858327Y-82869033D01*
X89853100Y-82840307D01*
X89853100Y-81821292D01*
X89872179Y-81768873D01*
X89920489Y-81740981D01*
X89975425Y-81750668D01*
X89997690Y-81769558D01*
X90028587Y-81807207D01*
X90028593Y-81807213D01*
X90188546Y-81938482D01*
X90188550Y-81938485D01*
X90371046Y-82036032D01*
X90569066Y-82096100D01*
X90614413Y-82100566D01*
X90774997Y-82116383D01*
X90775000Y-82116383D01*
X90775003Y-82116383D01*
X90902455Y-82103829D01*
X90980934Y-82096100D01*
X91178954Y-82036032D01*
X91361450Y-81938485D01*
X91521410Y-81807210D01*
X91652685Y-81647250D01*
X91750232Y-81464754D01*
X91794830Y-81317731D01*
X91828303Y-81273109D01*
X91882629Y-81260441D01*
X91932388Y-81285658D01*
X91947048Y-81307528D01*
X91964423Y-81345573D01*
X92058672Y-81454343D01*
X92179747Y-81532153D01*
X92317839Y-81572700D01*
X92461761Y-81572700D01*
X92599853Y-81532153D01*
X92720928Y-81454343D01*
X92815177Y-81345573D01*
X92874965Y-81214657D01*
X92895447Y-81072200D01*
X92874965Y-80929743D01*
X92815177Y-80798827D01*
X92720928Y-80690057D01*
X92599853Y-80612247D01*
X92599854Y-80612247D01*
X92461761Y-80571700D01*
X92317839Y-80571700D01*
X92179745Y-80612247D01*
X92058674Y-80690055D01*
X91964423Y-80798827D01*
X91964421Y-80798829D01*
X91951202Y-80827774D01*
X91912070Y-80867529D01*
X91856539Y-80872829D01*
X91810593Y-80841195D01*
X91798987Y-80817572D01*
X91750232Y-80656846D01*
X91652685Y-80474350D01*
X91575762Y-80380618D01*
X91521413Y-80314393D01*
X91521406Y-80314386D01*
X91361453Y-80183117D01*
X91361451Y-80183116D01*
X91361450Y-80183115D01*
X91178954Y-80085568D01*
X91178951Y-80085567D01*
X91178949Y-80085566D01*
X91091149Y-80058933D01*
X90980934Y-80025500D01*
X90980930Y-80025499D01*
X90980922Y-80025498D01*
X90775003Y-80005217D01*
X90774997Y-80005217D01*
X90569077Y-80025498D01*
X90569067Y-80025499D01*
X90569066Y-80025500D01*
X90513958Y-80042216D01*
X90371050Y-80085566D01*
X90188546Y-80183117D01*
X90028593Y-80314386D01*
X90028586Y-80314393D01*
X89997689Y-80352042D01*
X89949686Y-80380459D01*
X89894648Y-80371372D01*
X89858327Y-80329033D01*
X89853100Y-80300307D01*
X89853100Y-79281292D01*
X89872179Y-79228873D01*
X89920489Y-79200981D01*
X89975425Y-79210668D01*
X89997690Y-79229558D01*
X90028587Y-79267207D01*
X90028593Y-79267213D01*
X90188546Y-79398482D01*
X90188550Y-79398485D01*
X90371046Y-79496032D01*
X90569066Y-79556100D01*
X90614413Y-79560566D01*
X90774997Y-79576383D01*
X90775000Y-79576383D01*
X90775003Y-79576383D01*
X90902455Y-79563829D01*
X90980934Y-79556100D01*
X91178954Y-79496032D01*
X91361450Y-79398485D01*
X91521410Y-79267210D01*
X91652685Y-79107250D01*
X91750232Y-78924754D01*
X91805846Y-78741414D01*
X91839318Y-78696794D01*
X91893644Y-78684126D01*
X91943403Y-78709342D01*
X91958063Y-78731212D01*
X92015222Y-78856372D01*
X92015223Y-78856373D01*
X92109472Y-78965143D01*
X92230547Y-79042953D01*
X92368639Y-79083500D01*
X92512561Y-79083500D01*
X92650653Y-79042953D01*
X92771728Y-78965143D01*
X92865977Y-78856373D01*
X92925765Y-78725457D01*
X92946247Y-78583000D01*
X92925765Y-78440543D01*
X92865977Y-78309627D01*
X92771728Y-78200857D01*
X92650653Y-78123047D01*
X92650654Y-78123047D01*
X92512561Y-78082500D01*
X92368639Y-78082500D01*
X92230545Y-78123047D01*
X92109474Y-78200855D01*
X92015223Y-78309627D01*
X92015222Y-78309628D01*
X91971912Y-78404462D01*
X91932781Y-78444218D01*
X91877250Y-78449520D01*
X91831303Y-78417887D01*
X91816575Y-78378577D01*
X91810301Y-78314877D01*
X91810300Y-78314866D01*
X91750232Y-78116846D01*
X91652685Y-77934350D01*
X91575762Y-77840618D01*
X91521413Y-77774393D01*
X91521406Y-77774386D01*
X91361453Y-77643117D01*
X91361451Y-77643116D01*
X91361450Y-77643115D01*
X91178954Y-77545568D01*
X91178951Y-77545567D01*
X91178949Y-77545566D01*
X91091149Y-77518933D01*
X90980934Y-77485500D01*
X90980930Y-77485499D01*
X90980922Y-77485498D01*
X90775003Y-77465217D01*
X90774997Y-77465217D01*
X90569077Y-77485498D01*
X90569067Y-77485499D01*
X90569066Y-77485500D01*
X90513958Y-77502216D01*
X90371050Y-77545566D01*
X90188546Y-77643117D01*
X90028593Y-77774386D01*
X90028586Y-77774393D01*
X89997689Y-77812042D01*
X89949686Y-77840459D01*
X89894648Y-77831372D01*
X89858327Y-77789033D01*
X89853100Y-77760307D01*
X89853100Y-76741292D01*
X89872179Y-76688873D01*
X89920489Y-76660981D01*
X89975425Y-76670668D01*
X89997690Y-76689558D01*
X90028587Y-76727207D01*
X90028593Y-76727213D01*
X90188546Y-76858482D01*
X90188550Y-76858485D01*
X90371046Y-76956032D01*
X90569066Y-77016100D01*
X90614413Y-77020566D01*
X90774997Y-77036383D01*
X90775000Y-77036383D01*
X90775003Y-77036383D01*
X90902455Y-77023829D01*
X90980934Y-77016100D01*
X91178954Y-76956032D01*
X91361450Y-76858485D01*
X91521410Y-76727210D01*
X91652685Y-76567250D01*
X91750232Y-76384754D01*
X91797404Y-76229246D01*
X91830877Y-76184624D01*
X91885203Y-76171956D01*
X91934962Y-76197173D01*
X91951384Y-76231364D01*
X91953791Y-76230658D01*
X91955435Y-76236255D01*
X91955435Y-76236257D01*
X92015223Y-76367173D01*
X92109472Y-76475943D01*
X92230547Y-76553753D01*
X92368639Y-76594300D01*
X92512561Y-76594300D01*
X92650653Y-76553753D01*
X92771728Y-76475943D01*
X92865977Y-76367173D01*
X92925765Y-76236257D01*
X92946247Y-76093800D01*
X92925765Y-75951343D01*
X92865977Y-75820427D01*
X92771728Y-75711657D01*
X92650653Y-75633847D01*
X92650654Y-75633847D01*
X92512561Y-75593300D01*
X92368639Y-75593300D01*
X92230545Y-75633847D01*
X92109474Y-75711655D01*
X92015223Y-75820427D01*
X92015222Y-75820427D01*
X91976028Y-75906250D01*
X91936897Y-75946006D01*
X91881366Y-75951308D01*
X91835419Y-75919675D01*
X91820691Y-75880365D01*
X91810301Y-75774877D01*
X91810300Y-75774866D01*
X91750232Y-75576846D01*
X91652685Y-75394350D01*
X91575762Y-75300618D01*
X91521413Y-75234393D01*
X91521406Y-75234386D01*
X91361453Y-75103117D01*
X91361451Y-75103116D01*
X91361450Y-75103115D01*
X91178954Y-75005568D01*
X91178951Y-75005567D01*
X91178949Y-75005566D01*
X91091149Y-74978933D01*
X90980934Y-74945500D01*
X90980930Y-74945499D01*
X90980922Y-74945498D01*
X90775003Y-74925217D01*
X90774997Y-74925217D01*
X90569077Y-74945498D01*
X90569067Y-74945499D01*
X90569066Y-74945500D01*
X90513958Y-74962216D01*
X90371050Y-75005566D01*
X90188546Y-75103117D01*
X90028593Y-75234386D01*
X90028586Y-75234393D01*
X89997689Y-75272042D01*
X89949686Y-75300459D01*
X89894648Y-75291372D01*
X89858327Y-75249033D01*
X89853100Y-75220307D01*
X89853100Y-74201292D01*
X89872179Y-74148873D01*
X89920489Y-74120981D01*
X89975425Y-74130668D01*
X89997690Y-74149558D01*
X90028587Y-74187207D01*
X90028593Y-74187213D01*
X90188546Y-74318482D01*
X90188550Y-74318485D01*
X90371046Y-74416032D01*
X90569066Y-74476100D01*
X90614413Y-74480566D01*
X90774997Y-74496383D01*
X90775000Y-74496383D01*
X90775003Y-74496383D01*
X90902455Y-74483829D01*
X90980934Y-74476100D01*
X91178954Y-74416032D01*
X91361450Y-74318485D01*
X91521410Y-74187210D01*
X91652685Y-74027250D01*
X91750232Y-73844754D01*
X91810300Y-73646734D01*
X91810611Y-73643573D01*
X91834730Y-73593274D01*
X91885539Y-73570246D01*
X91939263Y-73585265D01*
X91965949Y-73617680D01*
X92015222Y-73725572D01*
X92015223Y-73725573D01*
X92109472Y-73834343D01*
X92230547Y-73912153D01*
X92368639Y-73952700D01*
X92512561Y-73952700D01*
X92650653Y-73912153D01*
X92771728Y-73834343D01*
X92865977Y-73725573D01*
X92925765Y-73594657D01*
X92946247Y-73452200D01*
X92925765Y-73309743D01*
X92865977Y-73178827D01*
X92771728Y-73070057D01*
X92650653Y-72992247D01*
X92650654Y-72992247D01*
X92512561Y-72951700D01*
X92368639Y-72951700D01*
X92230545Y-72992247D01*
X92109474Y-73070055D01*
X92015223Y-73178827D01*
X92015222Y-73178828D01*
X91967796Y-73282674D01*
X91928665Y-73322430D01*
X91873134Y-73327732D01*
X91827187Y-73296099D01*
X91812459Y-73256789D01*
X91810300Y-73234866D01*
X91750232Y-73036846D01*
X91652685Y-72854350D01*
X91575762Y-72760618D01*
X91521413Y-72694393D01*
X91521406Y-72694386D01*
X91361453Y-72563117D01*
X91361451Y-72563116D01*
X91361450Y-72563115D01*
X91178954Y-72465568D01*
X91178951Y-72465567D01*
X91178949Y-72465566D01*
X91091149Y-72438933D01*
X90980934Y-72405500D01*
X90980930Y-72405499D01*
X90980922Y-72405498D01*
X90775003Y-72385217D01*
X90774997Y-72385217D01*
X90569077Y-72405498D01*
X90569067Y-72405499D01*
X90569066Y-72405500D01*
X90513958Y-72422216D01*
X90371050Y-72465566D01*
X90188546Y-72563117D01*
X90028593Y-72694386D01*
X90028586Y-72694393D01*
X89997689Y-72732042D01*
X89949686Y-72760459D01*
X89894648Y-72751372D01*
X89858327Y-72709033D01*
X89853100Y-72680307D01*
X89853100Y-71661292D01*
X89872179Y-71608873D01*
X89920489Y-71580981D01*
X89975425Y-71590668D01*
X89997690Y-71609558D01*
X90028587Y-71647207D01*
X90028593Y-71647213D01*
X90099775Y-71705630D01*
X90188550Y-71778485D01*
X90371046Y-71876032D01*
X90569066Y-71936100D01*
X90614413Y-71940566D01*
X90774997Y-71956383D01*
X90775000Y-71956383D01*
X90775003Y-71956383D01*
X90902455Y-71943829D01*
X90980934Y-71936100D01*
X91178954Y-71876032D01*
X91361450Y-71778485D01*
X91521410Y-71647210D01*
X91652685Y-71487250D01*
X91750232Y-71304754D01*
X91810300Y-71106734D01*
X91810611Y-71103573D01*
X91834730Y-71053274D01*
X91885539Y-71030246D01*
X91939263Y-71045265D01*
X91965949Y-71077680D01*
X92015222Y-71185572D01*
X92015223Y-71185573D01*
X92109472Y-71294343D01*
X92230547Y-71372153D01*
X92368639Y-71412700D01*
X92512561Y-71412700D01*
X92650653Y-71372153D01*
X92771728Y-71294343D01*
X92865977Y-71185573D01*
X92925765Y-71054657D01*
X92946247Y-70912200D01*
X92925765Y-70769743D01*
X92865977Y-70638827D01*
X92771728Y-70530057D01*
X92650653Y-70452247D01*
X92650654Y-70452247D01*
X92512561Y-70411700D01*
X92368639Y-70411700D01*
X92230545Y-70452247D01*
X92109474Y-70530055D01*
X92015223Y-70638827D01*
X92015222Y-70638828D01*
X91967796Y-70742674D01*
X91928665Y-70782430D01*
X91873134Y-70787732D01*
X91827187Y-70756099D01*
X91812459Y-70716789D01*
X91810300Y-70694866D01*
X91750232Y-70496846D01*
X91652685Y-70314350D01*
X91652682Y-70314346D01*
X91521413Y-70154393D01*
X91521406Y-70154386D01*
X91361453Y-70023117D01*
X91361451Y-70023116D01*
X91361450Y-70023115D01*
X91178954Y-69925568D01*
X91178951Y-69925567D01*
X91178949Y-69925566D01*
X91091149Y-69898933D01*
X90980934Y-69865500D01*
X90980930Y-69865499D01*
X90980922Y-69865498D01*
X90775003Y-69845217D01*
X90774997Y-69845217D01*
X90569077Y-69865498D01*
X90569067Y-69865499D01*
X90569066Y-69865500D01*
X90513958Y-69882216D01*
X90371050Y-69925566D01*
X90188546Y-70023117D01*
X90028593Y-70154386D01*
X90028586Y-70154393D01*
X89997689Y-70192042D01*
X89949686Y-70220459D01*
X89894648Y-70211372D01*
X89858327Y-70169033D01*
X89853100Y-70140307D01*
X89853100Y-69121292D01*
X89872179Y-69068873D01*
X89920489Y-69040981D01*
X89975425Y-69050668D01*
X89997690Y-69069558D01*
X90028587Y-69107207D01*
X90028593Y-69107213D01*
X90188546Y-69238482D01*
X90188550Y-69238485D01*
X90371046Y-69336032D01*
X90569066Y-69396100D01*
X90614413Y-69400566D01*
X90774997Y-69416383D01*
X90775000Y-69416383D01*
X90775003Y-69416383D01*
X90902455Y-69403829D01*
X90980934Y-69396100D01*
X91178954Y-69336032D01*
X91361450Y-69238485D01*
X91521410Y-69107210D01*
X91652685Y-68947250D01*
X91750232Y-68764754D01*
X91810300Y-68566734D01*
X91819453Y-68473800D01*
X91985753Y-68473800D01*
X92006234Y-68616255D01*
X92006235Y-68616257D01*
X92066023Y-68747173D01*
X92160272Y-68855943D01*
X92281347Y-68933753D01*
X92419439Y-68974300D01*
X92563361Y-68974300D01*
X92701453Y-68933753D01*
X92822528Y-68855943D01*
X92916777Y-68747173D01*
X92976565Y-68616257D01*
X92997047Y-68473800D01*
X92976565Y-68331343D01*
X92916777Y-68200427D01*
X92822528Y-68091657D01*
X92701453Y-68013847D01*
X92701454Y-68013847D01*
X92563361Y-67973300D01*
X92419439Y-67973300D01*
X92281345Y-68013847D01*
X92160274Y-68091655D01*
X92160272Y-68091656D01*
X92160272Y-68091657D01*
X92116501Y-68142172D01*
X92066023Y-68200427D01*
X92066021Y-68200430D01*
X92006236Y-68331339D01*
X92006234Y-68331344D01*
X91985753Y-68473800D01*
X91819453Y-68473800D01*
X91830583Y-68360800D01*
X91827681Y-68331339D01*
X91810301Y-68154877D01*
X91810300Y-68154866D01*
X91750232Y-67956846D01*
X91652685Y-67774350D01*
X91575762Y-67680618D01*
X91521413Y-67614393D01*
X91521406Y-67614386D01*
X91361453Y-67483117D01*
X91361451Y-67483116D01*
X91361450Y-67483115D01*
X91178954Y-67385568D01*
X91178951Y-67385567D01*
X91178949Y-67385566D01*
X91091149Y-67358933D01*
X90980934Y-67325500D01*
X90980930Y-67325499D01*
X90980922Y-67325498D01*
X90775003Y-67305217D01*
X90774997Y-67305217D01*
X90569077Y-67325498D01*
X90569067Y-67325499D01*
X90569066Y-67325500D01*
X90513958Y-67342216D01*
X90371050Y-67385566D01*
X90371046Y-67385567D01*
X90371046Y-67385568D01*
X90279798Y-67434341D01*
X90188546Y-67483117D01*
X90028593Y-67614386D01*
X90028586Y-67614393D01*
X89997689Y-67652042D01*
X89949686Y-67680459D01*
X89894648Y-67671372D01*
X89858327Y-67629033D01*
X89853100Y-67600307D01*
X89853100Y-66581292D01*
X89872179Y-66528873D01*
X89920489Y-66500981D01*
X89975425Y-66510668D01*
X89997690Y-66529558D01*
X90028587Y-66567207D01*
X90028593Y-66567213D01*
X90091299Y-66618674D01*
X90188550Y-66698485D01*
X90371046Y-66796032D01*
X90569066Y-66856100D01*
X90614413Y-66860566D01*
X90774997Y-66876383D01*
X90775000Y-66876383D01*
X90775003Y-66876383D01*
X90902455Y-66863829D01*
X90980934Y-66856100D01*
X91178954Y-66796032D01*
X91361450Y-66698485D01*
X91513867Y-66573400D01*
X92077353Y-66573400D01*
X92097834Y-66715855D01*
X92097836Y-66715860D01*
X92157621Y-66846769D01*
X92157623Y-66846773D01*
X92251872Y-66955543D01*
X92372947Y-67033353D01*
X92511039Y-67073900D01*
X92654961Y-67073900D01*
X92793053Y-67033353D01*
X92914128Y-66955543D01*
X93008377Y-66846773D01*
X93068165Y-66715857D01*
X93088647Y-66573400D01*
X93068165Y-66430943D01*
X93008377Y-66300027D01*
X92914128Y-66191257D01*
X92793053Y-66113447D01*
X92793054Y-66113447D01*
X92654961Y-66072900D01*
X92511039Y-66072900D01*
X92372945Y-66113447D01*
X92251874Y-66191255D01*
X92157623Y-66300027D01*
X92157621Y-66300030D01*
X92097836Y-66430939D01*
X92097834Y-66430944D01*
X92077353Y-66573400D01*
X91513867Y-66573400D01*
X91521410Y-66567210D01*
X91652685Y-66407250D01*
X91750232Y-66224754D01*
X91810300Y-66026734D01*
X91830583Y-65820800D01*
X91821699Y-65730600D01*
X99453353Y-65730600D01*
X99473834Y-65873055D01*
X99473835Y-65873057D01*
X99533623Y-66003973D01*
X99627872Y-66112743D01*
X99748947Y-66190553D01*
X99887039Y-66231100D01*
X100030961Y-66231100D01*
X100169053Y-66190553D01*
X100290128Y-66112743D01*
X100384377Y-66003973D01*
X100444165Y-65873057D01*
X100464647Y-65730600D01*
X100444165Y-65588143D01*
X100384377Y-65457227D01*
X100290128Y-65348457D01*
X100169053Y-65270647D01*
X100169054Y-65270647D01*
X100030961Y-65230100D01*
X99887039Y-65230100D01*
X99748945Y-65270647D01*
X99627874Y-65348455D01*
X99533623Y-65457227D01*
X99533621Y-65457230D01*
X99473836Y-65588139D01*
X99473834Y-65588144D01*
X99453353Y-65730600D01*
X91821699Y-65730600D01*
X91810300Y-65614866D01*
X91750232Y-65416846D01*
X91652685Y-65234350D01*
X91575762Y-65140618D01*
X91521413Y-65074393D01*
X91521406Y-65074386D01*
X91361453Y-64943117D01*
X91361451Y-64943116D01*
X91361450Y-64943115D01*
X91178954Y-64845568D01*
X91178951Y-64845567D01*
X91178949Y-64845566D01*
X91091149Y-64818933D01*
X90980934Y-64785500D01*
X90980930Y-64785499D01*
X90980922Y-64785498D01*
X90775003Y-64765217D01*
X90774997Y-64765217D01*
X90569077Y-64785498D01*
X90569067Y-64785499D01*
X90569066Y-64785500D01*
X90513958Y-64802216D01*
X90371050Y-64845566D01*
X90188546Y-64943117D01*
X90028593Y-65074386D01*
X90028586Y-65074393D01*
X89997689Y-65112042D01*
X89949686Y-65140459D01*
X89894648Y-65131372D01*
X89858327Y-65089033D01*
X89853100Y-65060307D01*
X89853100Y-64041292D01*
X89872179Y-63988873D01*
X89920489Y-63960981D01*
X89975425Y-63970668D01*
X89997690Y-63989558D01*
X90028587Y-64027207D01*
X90028593Y-64027213D01*
X90188546Y-64158482D01*
X90188550Y-64158485D01*
X90371046Y-64256032D01*
X90569066Y-64316100D01*
X90614413Y-64320566D01*
X90774997Y-64336383D01*
X90775000Y-64336383D01*
X90775003Y-64336383D01*
X90902455Y-64323829D01*
X90980934Y-64316100D01*
X91178954Y-64256032D01*
X91361450Y-64158485D01*
X91521410Y-64027210D01*
X91652685Y-63867250D01*
X91750232Y-63684754D01*
X91795234Y-63536400D01*
X97066353Y-63536400D01*
X97086834Y-63678855D01*
X97086836Y-63678860D01*
X97089528Y-63684754D01*
X97146623Y-63809773D01*
X97240872Y-63918543D01*
X97361947Y-63996353D01*
X97500039Y-64036900D01*
X97643961Y-64036900D01*
X97782053Y-63996353D01*
X97903128Y-63918543D01*
X97997377Y-63809773D01*
X98057165Y-63678857D01*
X98077647Y-63536400D01*
X98057165Y-63393943D01*
X97997377Y-63263027D01*
X97903128Y-63154257D01*
X97782053Y-63076447D01*
X97782054Y-63076447D01*
X97643961Y-63035900D01*
X97500039Y-63035900D01*
X97361945Y-63076447D01*
X97240874Y-63154255D01*
X97240872Y-63154256D01*
X97240872Y-63154257D01*
X97205295Y-63195315D01*
X97146623Y-63263027D01*
X97146621Y-63263030D01*
X97086836Y-63393939D01*
X97086834Y-63393944D01*
X97066353Y-63536400D01*
X91795234Y-63536400D01*
X91810300Y-63486734D01*
X91819520Y-63393124D01*
X91830583Y-63280803D01*
X91830583Y-63280796D01*
X91810301Y-63074877D01*
X91810300Y-63074866D01*
X91750232Y-62876846D01*
X91652685Y-62694350D01*
X91606748Y-62638375D01*
X91538817Y-62555600D01*
X100494753Y-62555600D01*
X100515234Y-62698055D01*
X100515235Y-62698057D01*
X100575023Y-62828973D01*
X100669272Y-62937743D01*
X100790347Y-63015553D01*
X100928439Y-63056100D01*
X101020063Y-63056100D01*
X101072482Y-63075179D01*
X101100374Y-63123489D01*
X101090687Y-63178425D01*
X101077731Y-63195310D01*
X101068521Y-63204520D01*
X101068521Y-63204521D01*
X101017045Y-63293681D01*
X100990400Y-63393118D01*
X100990400Y-80169937D01*
X100971321Y-80222356D01*
X100970483Y-80223339D01*
X100956022Y-80240028D01*
X100896234Y-80370945D01*
X100875753Y-80513400D01*
X100896234Y-80655855D01*
X100896236Y-80655860D01*
X100956021Y-80786769D01*
X100956023Y-80786773D01*
X101050272Y-80895543D01*
X101171347Y-80973353D01*
X101309439Y-81013900D01*
X101453361Y-81013900D01*
X101591453Y-80973353D01*
X101712528Y-80895543D01*
X101806777Y-80786773D01*
X101866565Y-80655857D01*
X101887047Y-80513400D01*
X101866565Y-80370943D01*
X101806777Y-80240027D01*
X101792316Y-80223338D01*
X101772410Y-80171229D01*
X101772400Y-80169937D01*
X101772400Y-76751500D01*
X103463853Y-76751500D01*
X103484334Y-76893955D01*
X103484335Y-76893957D01*
X103544123Y-77024873D01*
X103638372Y-77133643D01*
X103759447Y-77211453D01*
X103897539Y-77252000D01*
X104041461Y-77252000D01*
X104179553Y-77211453D01*
X104300628Y-77133643D01*
X104394877Y-77024873D01*
X104454665Y-76893957D01*
X104475147Y-76751500D01*
X104454665Y-76609043D01*
X104394877Y-76478127D01*
X104300628Y-76369357D01*
X104297223Y-76367169D01*
X104179553Y-76291547D01*
X104179554Y-76291547D01*
X104041461Y-76251000D01*
X103897539Y-76251000D01*
X103759445Y-76291547D01*
X103638374Y-76369355D01*
X103544123Y-76478127D01*
X103544121Y-76478130D01*
X103484336Y-76609039D01*
X103484334Y-76609044D01*
X103463853Y-76751500D01*
X101772400Y-76751500D01*
X101772400Y-71979000D01*
X110375353Y-71979000D01*
X110395834Y-72121455D01*
X110395835Y-72121457D01*
X110455623Y-72252373D01*
X110549872Y-72361143D01*
X110670947Y-72438953D01*
X110809039Y-72479500D01*
X110952961Y-72479500D01*
X111091053Y-72438953D01*
X111212128Y-72361143D01*
X111306377Y-72252373D01*
X111366165Y-72121457D01*
X111386647Y-71979000D01*
X111366165Y-71836543D01*
X111306377Y-71705627D01*
X111212128Y-71596857D01*
X111201811Y-71590227D01*
X111091053Y-71519047D01*
X111091054Y-71519047D01*
X110952961Y-71478500D01*
X110809039Y-71478500D01*
X110670945Y-71519047D01*
X110549874Y-71596855D01*
X110455623Y-71705627D01*
X110455621Y-71705630D01*
X110395836Y-71836539D01*
X110395834Y-71836544D01*
X110375353Y-71979000D01*
X101772400Y-71979000D01*
X101772400Y-70099400D01*
X111086553Y-70099400D01*
X111107034Y-70241855D01*
X111107035Y-70241857D01*
X111166823Y-70372773D01*
X111261072Y-70481543D01*
X111382147Y-70559353D01*
X111520239Y-70599900D01*
X111664161Y-70599900D01*
X111802253Y-70559353D01*
X111923328Y-70481543D01*
X112017577Y-70372773D01*
X112077365Y-70241857D01*
X112097847Y-70099400D01*
X112077365Y-69956943D01*
X112017577Y-69826027D01*
X111923328Y-69717257D01*
X111802253Y-69639447D01*
X111802254Y-69639447D01*
X111664161Y-69598900D01*
X111520239Y-69598900D01*
X111382145Y-69639447D01*
X111261074Y-69717255D01*
X111166823Y-69826027D01*
X111166821Y-69826030D01*
X111107036Y-69956939D01*
X111107034Y-69956944D01*
X111086553Y-70099400D01*
X101772400Y-70099400D01*
X101772400Y-67868800D01*
X111076553Y-67868800D01*
X111097034Y-68011255D01*
X111097036Y-68011260D01*
X111133752Y-68091655D01*
X111156823Y-68142173D01*
X111251072Y-68250943D01*
X111372147Y-68328753D01*
X111510239Y-68369300D01*
X111654161Y-68369300D01*
X111792253Y-68328753D01*
X111913328Y-68250943D01*
X112007577Y-68142173D01*
X112067365Y-68011257D01*
X112087847Y-67868800D01*
X112067365Y-67726343D01*
X112007577Y-67595427D01*
X111913328Y-67486657D01*
X111792253Y-67408847D01*
X111792254Y-67408847D01*
X111654161Y-67368300D01*
X111510239Y-67368300D01*
X111372145Y-67408847D01*
X111251074Y-67486655D01*
X111156823Y-67595427D01*
X111156821Y-67595430D01*
X111097036Y-67726339D01*
X111097034Y-67726344D01*
X111076553Y-67868800D01*
X101772400Y-67868800D01*
X101772400Y-66618674D01*
X111031279Y-66618674D01*
X111051760Y-66761129D01*
X111051761Y-66761131D01*
X111111549Y-66892047D01*
X111205798Y-67000817D01*
X111326873Y-67078627D01*
X111464965Y-67119174D01*
X111608887Y-67119174D01*
X111746979Y-67078627D01*
X111868054Y-67000817D01*
X111962303Y-66892047D01*
X112022091Y-66761131D01*
X112042573Y-66618674D01*
X112022091Y-66476217D01*
X111962303Y-66345301D01*
X111868054Y-66236531D01*
X111746979Y-66158721D01*
X111746980Y-66158721D01*
X111608887Y-66118174D01*
X111464965Y-66118174D01*
X111326871Y-66158721D01*
X111205800Y-66236529D01*
X111111549Y-66345301D01*
X111111547Y-66345304D01*
X111051762Y-66476213D01*
X111051760Y-66476218D01*
X111031279Y-66618674D01*
X101772400Y-66618674D01*
X101772400Y-63640338D01*
X101791479Y-63587919D01*
X101796285Y-63582673D01*
X105141889Y-60237069D01*
X108523392Y-56855565D01*
X108560435Y-56837027D01*
X108559765Y-56834743D01*
X108565361Y-56833100D01*
X108703453Y-56792553D01*
X108824528Y-56714743D01*
X108918777Y-56605973D01*
X108978565Y-56475057D01*
X108999047Y-56332600D01*
X108978565Y-56190143D01*
X108918777Y-56059227D01*
X108824528Y-55950457D01*
X108703453Y-55872647D01*
X108703454Y-55872647D01*
X108565361Y-55832100D01*
X108421439Y-55832100D01*
X108283345Y-55872647D01*
X108162274Y-55950455D01*
X108068023Y-56059227D01*
X108068021Y-56059230D01*
X108008236Y-56190139D01*
X108008234Y-56190144D01*
X107999559Y-56250478D01*
X107976504Y-56296536D01*
X101643803Y-62629238D01*
X101593246Y-62652813D01*
X101539363Y-62638375D01*
X101507367Y-62592680D01*
X101505419Y-62559965D01*
X101506047Y-62555600D01*
X101485565Y-62413143D01*
X101425777Y-62282227D01*
X101331528Y-62173457D01*
X101210453Y-62095647D01*
X101210454Y-62095647D01*
X101072361Y-62055100D01*
X100928439Y-62055100D01*
X100790345Y-62095647D01*
X100669274Y-62173455D01*
X100575023Y-62282227D01*
X100575021Y-62282230D01*
X100515236Y-62413139D01*
X100515234Y-62413144D01*
X100494753Y-62555600D01*
X91538817Y-62555600D01*
X91521413Y-62534393D01*
X91521406Y-62534386D01*
X91361453Y-62403117D01*
X91361451Y-62403116D01*
X91361450Y-62403115D01*
X91178954Y-62305568D01*
X91178951Y-62305567D01*
X91178949Y-62305566D01*
X91091149Y-62278933D01*
X90980934Y-62245500D01*
X90980930Y-62245499D01*
X90980922Y-62245498D01*
X90775003Y-62225217D01*
X90774997Y-62225217D01*
X90569077Y-62245498D01*
X90569067Y-62245499D01*
X90569066Y-62245500D01*
X90513958Y-62262216D01*
X90371050Y-62305566D01*
X90188546Y-62403117D01*
X90028593Y-62534386D01*
X90028586Y-62534393D01*
X89997689Y-62572042D01*
X89949686Y-62600459D01*
X89894648Y-62591372D01*
X89858327Y-62549033D01*
X89853100Y-62520307D01*
X89853100Y-61501292D01*
X89872179Y-61448873D01*
X89920489Y-61420981D01*
X89975425Y-61430668D01*
X89997690Y-61449558D01*
X90028587Y-61487207D01*
X90028593Y-61487213D01*
X90188546Y-61618482D01*
X90188550Y-61618485D01*
X90371046Y-61716032D01*
X90569066Y-61776100D01*
X90614413Y-61780566D01*
X90774997Y-61796383D01*
X90775000Y-61796383D01*
X90775003Y-61796383D01*
X90902455Y-61783829D01*
X90980934Y-61776100D01*
X91178954Y-61716032D01*
X91361450Y-61618485D01*
X91521410Y-61487210D01*
X91652685Y-61327250D01*
X91750232Y-61144754D01*
X91810300Y-60946734D01*
X91830583Y-60740800D01*
X91810300Y-60534866D01*
X91750232Y-60336846D01*
X91652685Y-60154350D01*
X91575762Y-60060618D01*
X91521413Y-59994393D01*
X91521406Y-59994386D01*
X91361453Y-59863117D01*
X91361451Y-59863116D01*
X91361450Y-59863115D01*
X91178954Y-59765568D01*
X91178951Y-59765567D01*
X91178949Y-59765566D01*
X91091149Y-59738933D01*
X90980934Y-59705500D01*
X90980930Y-59705499D01*
X90980922Y-59705498D01*
X90775003Y-59685217D01*
X90774997Y-59685217D01*
X90569077Y-59705498D01*
X90569067Y-59705499D01*
X90569066Y-59705500D01*
X90513958Y-59722216D01*
X90371050Y-59765566D01*
X90188546Y-59863117D01*
X90028593Y-59994386D01*
X90028586Y-59994393D01*
X89997689Y-60032042D01*
X89949686Y-60060459D01*
X89894648Y-60051372D01*
X89858327Y-60009033D01*
X89853100Y-59980307D01*
X89853100Y-58961292D01*
X89872179Y-58908873D01*
X89920489Y-58880981D01*
X89975425Y-58890668D01*
X89997690Y-58909558D01*
X90028587Y-58947207D01*
X90028593Y-58947213D01*
X90188546Y-59078482D01*
X90188550Y-59078485D01*
X90371046Y-59176032D01*
X90569066Y-59236100D01*
X90614413Y-59240566D01*
X90774997Y-59256383D01*
X90775000Y-59256383D01*
X90775003Y-59256383D01*
X90902455Y-59243829D01*
X90980934Y-59236100D01*
X91178954Y-59176032D01*
X91361450Y-59078485D01*
X91521410Y-58947210D01*
X91652685Y-58787250D01*
X91750232Y-58604754D01*
X91810300Y-58406734D01*
X91830583Y-58200800D01*
X91810300Y-57994866D01*
X91750232Y-57796846D01*
X91652685Y-57614350D01*
X91575762Y-57520618D01*
X91521413Y-57454393D01*
X91521406Y-57454386D01*
X91361453Y-57323117D01*
X91361451Y-57323116D01*
X91361450Y-57323115D01*
X91178954Y-57225568D01*
X91178951Y-57225567D01*
X91178949Y-57225566D01*
X91091149Y-57198933D01*
X90980934Y-57165500D01*
X90980930Y-57165499D01*
X90980922Y-57165498D01*
X90775003Y-57145217D01*
X90774997Y-57145217D01*
X90569077Y-57165498D01*
X90569067Y-57165499D01*
X90569066Y-57165500D01*
X90513958Y-57182216D01*
X90371050Y-57225566D01*
X90188546Y-57323117D01*
X90028593Y-57454386D01*
X90028586Y-57454393D01*
X89997689Y-57492042D01*
X89949686Y-57520459D01*
X89894648Y-57511372D01*
X89858327Y-57469033D01*
X89853100Y-57440307D01*
X89853100Y-56421292D01*
X89872179Y-56368873D01*
X89920489Y-56340981D01*
X89975425Y-56350668D01*
X89997690Y-56369558D01*
X90028587Y-56407207D01*
X90028593Y-56407213D01*
X90150794Y-56507500D01*
X90188550Y-56538485D01*
X90371046Y-56636032D01*
X90569066Y-56696100D01*
X90614413Y-56700566D01*
X90774997Y-56716383D01*
X90775000Y-56716383D01*
X90775003Y-56716383D01*
X90902455Y-56703829D01*
X90980934Y-56696100D01*
X91178954Y-56636032D01*
X91361450Y-56538485D01*
X91521410Y-56407210D01*
X91652685Y-56247250D01*
X91750232Y-56064754D01*
X91810300Y-55866734D01*
X91830583Y-55660800D01*
X91829822Y-55653075D01*
X91810301Y-55454877D01*
X91810300Y-55454866D01*
X91750232Y-55256846D01*
X91652685Y-55074350D01*
X91575762Y-54980618D01*
X91521413Y-54914393D01*
X91521406Y-54914386D01*
X91361453Y-54783117D01*
X91361451Y-54783116D01*
X91361450Y-54783115D01*
X91178954Y-54685568D01*
X91178951Y-54685567D01*
X91178949Y-54685566D01*
X91091149Y-54658933D01*
X90980934Y-54625500D01*
X90980930Y-54625499D01*
X90980922Y-54625498D01*
X90775003Y-54605217D01*
X90774997Y-54605217D01*
X90569077Y-54625498D01*
X90569067Y-54625499D01*
X90569066Y-54625500D01*
X90513958Y-54642216D01*
X90371050Y-54685566D01*
X90188546Y-54783117D01*
X90028593Y-54914386D01*
X90028586Y-54914393D01*
X89997689Y-54952042D01*
X89949686Y-54980459D01*
X89894648Y-54971372D01*
X89858327Y-54929033D01*
X89853100Y-54900307D01*
X89853100Y-53881292D01*
X89872179Y-53828873D01*
X89920489Y-53800981D01*
X89975425Y-53810668D01*
X89997690Y-53829558D01*
X90028587Y-53867207D01*
X90028593Y-53867213D01*
X90188546Y-53998482D01*
X90188550Y-53998485D01*
X90371046Y-54096032D01*
X90569066Y-54156100D01*
X90614413Y-54160566D01*
X90774997Y-54176383D01*
X90775000Y-54176383D01*
X90775003Y-54176383D01*
X90904177Y-54163660D01*
X90980934Y-54156100D01*
X91178954Y-54096032D01*
X91361450Y-53998485D01*
X91521410Y-53867210D01*
X91652685Y-53707250D01*
X91750232Y-53524754D01*
X91810300Y-53326734D01*
X91830583Y-53120800D01*
X91810300Y-52914866D01*
X91750232Y-52716846D01*
X91652685Y-52534350D01*
X91575762Y-52440618D01*
X91521413Y-52374393D01*
X91521406Y-52374386D01*
X91361453Y-52243117D01*
X91361451Y-52243116D01*
X91361450Y-52243115D01*
X91178954Y-52145568D01*
X91178951Y-52145567D01*
X91178949Y-52145566D01*
X91091149Y-52118933D01*
X90980934Y-52085500D01*
X90980930Y-52085499D01*
X90980922Y-52085498D01*
X90775003Y-52065217D01*
X90774997Y-52065217D01*
X90569077Y-52085498D01*
X90569067Y-52085499D01*
X90569066Y-52085500D01*
X90513958Y-52102216D01*
X90371050Y-52145566D01*
X90188546Y-52243117D01*
X90028593Y-52374386D01*
X90028586Y-52374393D01*
X89997689Y-52412042D01*
X89949686Y-52440459D01*
X89894648Y-52431372D01*
X89858327Y-52389033D01*
X89853100Y-52360307D01*
X89853100Y-51341292D01*
X89872179Y-51288873D01*
X89920489Y-51260981D01*
X89975425Y-51270668D01*
X89997690Y-51289558D01*
X90028587Y-51327207D01*
X90028593Y-51327213D01*
X90134905Y-51414460D01*
X90188550Y-51458485D01*
X90371046Y-51556032D01*
X90569066Y-51616100D01*
X90614413Y-51620566D01*
X90774997Y-51636383D01*
X90775000Y-51636383D01*
X90775003Y-51636383D01*
X90902455Y-51623829D01*
X90980934Y-51616100D01*
X91178954Y-51556032D01*
X91361450Y-51458485D01*
X91521410Y-51327210D01*
X91652685Y-51167250D01*
X91750232Y-50984754D01*
X91810300Y-50786734D01*
X91821361Y-50674430D01*
X91830583Y-50580803D01*
X91830583Y-50580796D01*
X91810301Y-50374877D01*
X91810300Y-50374866D01*
X91750232Y-50176846D01*
X91652685Y-49994350D01*
X91652682Y-49994346D01*
X91521413Y-49834393D01*
X91521406Y-49834386D01*
X91361453Y-49703117D01*
X91361451Y-49703116D01*
X91361450Y-49703115D01*
X91178954Y-49605568D01*
X91178951Y-49605567D01*
X91178949Y-49605566D01*
X91091149Y-49578933D01*
X90980934Y-49545500D01*
X90980930Y-49545499D01*
X90980922Y-49545498D01*
X90775003Y-49525217D01*
X90774997Y-49525217D01*
X90569077Y-49545498D01*
X90569067Y-49545499D01*
X90569066Y-49545500D01*
X90513958Y-49562216D01*
X90371050Y-49605566D01*
X90371046Y-49605567D01*
X90371046Y-49605568D01*
X90316919Y-49634500D01*
X90188546Y-49703117D01*
X90028593Y-49834386D01*
X90028586Y-49834393D01*
X89997689Y-49872042D01*
X89949686Y-49900459D01*
X89894648Y-49891372D01*
X89858327Y-49849033D01*
X89853100Y-49820307D01*
X89853100Y-48801292D01*
X89872179Y-48748873D01*
X89920489Y-48720981D01*
X89975425Y-48730668D01*
X89997690Y-48749558D01*
X90028587Y-48787207D01*
X90028593Y-48787213D01*
X90188546Y-48918482D01*
X90188550Y-48918485D01*
X90371046Y-49016032D01*
X90569066Y-49076100D01*
X90614413Y-49080566D01*
X90774997Y-49096383D01*
X90775000Y-49096383D01*
X90775003Y-49096383D01*
X90902455Y-49083829D01*
X90980934Y-49076100D01*
X91178954Y-49016032D01*
X91361450Y-48918485D01*
X91521410Y-48787210D01*
X91652685Y-48627250D01*
X91750232Y-48444754D01*
X91810300Y-48246734D01*
X91826234Y-48084953D01*
X91830583Y-48040803D01*
X91830583Y-48040796D01*
X91810301Y-47834877D01*
X91810300Y-47834866D01*
X91750232Y-47636846D01*
X91652685Y-47454350D01*
X91575762Y-47360618D01*
X91521413Y-47294393D01*
X91521406Y-47294386D01*
X91361453Y-47163117D01*
X91361451Y-47163116D01*
X91361450Y-47163115D01*
X91178954Y-47065568D01*
X91178951Y-47065567D01*
X91178949Y-47065566D01*
X91091149Y-47038933D01*
X90980934Y-47005500D01*
X90980930Y-47005499D01*
X90980922Y-47005498D01*
X90775003Y-46985217D01*
X90774997Y-46985217D01*
X90569077Y-47005498D01*
X90569067Y-47005499D01*
X90569066Y-47005500D01*
X90513958Y-47022216D01*
X90371050Y-47065566D01*
X90188546Y-47163117D01*
X90028593Y-47294386D01*
X90028586Y-47294393D01*
X89997689Y-47332042D01*
X89949686Y-47360459D01*
X89894648Y-47351372D01*
X89858327Y-47309033D01*
X89853100Y-47280307D01*
X89853100Y-46261292D01*
X89872179Y-46208873D01*
X89920489Y-46180981D01*
X89975425Y-46190668D01*
X89997690Y-46209558D01*
X90028587Y-46247207D01*
X90028593Y-46247213D01*
X90188546Y-46378482D01*
X90188550Y-46378485D01*
X90371046Y-46476032D01*
X90569066Y-46536100D01*
X90614413Y-46540566D01*
X90774997Y-46556383D01*
X90775000Y-46556383D01*
X90775003Y-46556383D01*
X90902455Y-46543829D01*
X90980934Y-46536100D01*
X91178954Y-46476032D01*
X91361450Y-46378485D01*
X91521410Y-46247210D01*
X91652685Y-46087250D01*
X91750232Y-45904754D01*
X91810300Y-45706734D01*
X91830583Y-45500800D01*
X91810300Y-45294866D01*
X91750232Y-45096846D01*
X91652685Y-44914350D01*
X91575762Y-44820618D01*
X91521413Y-44754393D01*
X91521406Y-44754386D01*
X91361453Y-44623117D01*
X91361451Y-44623116D01*
X91361450Y-44623115D01*
X91178954Y-44525568D01*
X91178951Y-44525567D01*
X91178949Y-44525566D01*
X91091149Y-44498933D01*
X90980934Y-44465500D01*
X90980930Y-44465499D01*
X90980922Y-44465498D01*
X90775003Y-44445217D01*
X90774997Y-44445217D01*
X90569077Y-44465498D01*
X90569067Y-44465499D01*
X90569066Y-44465500D01*
X90513958Y-44482216D01*
X90371050Y-44525566D01*
X90188546Y-44623117D01*
X90028593Y-44754386D01*
X90028586Y-44754393D01*
X89997689Y-44792042D01*
X89949686Y-44820459D01*
X89894648Y-44811372D01*
X89858327Y-44769033D01*
X89853100Y-44740307D01*
X89853100Y-43721292D01*
X89872179Y-43668873D01*
X89920489Y-43640981D01*
X89975425Y-43650668D01*
X89997690Y-43669558D01*
X90028587Y-43707207D01*
X90028593Y-43707213D01*
X90188546Y-43838482D01*
X90188550Y-43838485D01*
X90371046Y-43936032D01*
X90569066Y-43996100D01*
X90614413Y-44000566D01*
X90774997Y-44016383D01*
X90775000Y-44016383D01*
X90775003Y-44016383D01*
X90902455Y-44003829D01*
X90980934Y-43996100D01*
X91178954Y-43936032D01*
X91361450Y-43838485D01*
X91521410Y-43707210D01*
X91652685Y-43547250D01*
X91750232Y-43364754D01*
X91810300Y-43166734D01*
X91830583Y-42960800D01*
X91810300Y-42754866D01*
X91750232Y-42556846D01*
X91652685Y-42374350D01*
X91575762Y-42280618D01*
X91521413Y-42214393D01*
X91521406Y-42214386D01*
X91361453Y-42083117D01*
X91361451Y-42083116D01*
X91361450Y-42083115D01*
X91178954Y-41985568D01*
X91178951Y-41985567D01*
X91178949Y-41985566D01*
X91091149Y-41958933D01*
X90980934Y-41925500D01*
X90980930Y-41925499D01*
X90980922Y-41925498D01*
X90775003Y-41905217D01*
X90774997Y-41905217D01*
X90569077Y-41925498D01*
X90569067Y-41925499D01*
X90569066Y-41925500D01*
X90513958Y-41942216D01*
X90371050Y-41985566D01*
X90188546Y-42083117D01*
X90028593Y-42214386D01*
X90028586Y-42214393D01*
X89997689Y-42252042D01*
X89949686Y-42280459D01*
X89894648Y-42271372D01*
X89858327Y-42229033D01*
X89853100Y-42200307D01*
X89853100Y-41181292D01*
X89872179Y-41128873D01*
X89920489Y-41100981D01*
X89975425Y-41110668D01*
X89997690Y-41129558D01*
X90028587Y-41167207D01*
X90028593Y-41167213D01*
X90188546Y-41298482D01*
X90188550Y-41298485D01*
X90371046Y-41396032D01*
X90569066Y-41456100D01*
X90614413Y-41460566D01*
X90774997Y-41476383D01*
X90775000Y-41476383D01*
X90775003Y-41476383D01*
X90902455Y-41463829D01*
X90980934Y-41456100D01*
X91178954Y-41396032D01*
X91361450Y-41298485D01*
X91521410Y-41167210D01*
X91652685Y-41007250D01*
X91750232Y-40824754D01*
X91810300Y-40626734D01*
X91830583Y-40420800D01*
X91810300Y-40214866D01*
X91750232Y-40016846D01*
X91652685Y-39834350D01*
X91575762Y-39740618D01*
X91521413Y-39674393D01*
X91521406Y-39674386D01*
X91361453Y-39543117D01*
X91361451Y-39543116D01*
X91361450Y-39543115D01*
X91178954Y-39445568D01*
X91178951Y-39445567D01*
X91178949Y-39445566D01*
X91091149Y-39418933D01*
X90980934Y-39385500D01*
X90980930Y-39385499D01*
X90980922Y-39385498D01*
X90775003Y-39365217D01*
X90774997Y-39365217D01*
X90569077Y-39385498D01*
X90569067Y-39385499D01*
X90569066Y-39385500D01*
X90513958Y-39402216D01*
X90371050Y-39445566D01*
X90188546Y-39543117D01*
X90028593Y-39674386D01*
X90028586Y-39674393D01*
X89997689Y-39712042D01*
X89949686Y-39740459D01*
X89894648Y-39731372D01*
X89858327Y-39689033D01*
X89853100Y-39660307D01*
X89853100Y-38641292D01*
X89872179Y-38588873D01*
X89920489Y-38560981D01*
X89975425Y-38570668D01*
X89997690Y-38589558D01*
X90028587Y-38627207D01*
X90028593Y-38627213D01*
X90185278Y-38755800D01*
X90188550Y-38758485D01*
X90371046Y-38856032D01*
X90569066Y-38916100D01*
X90614413Y-38920566D01*
X90774997Y-38936383D01*
X90775000Y-38936383D01*
X90775003Y-38936383D01*
X90902455Y-38923829D01*
X90980934Y-38916100D01*
X91178954Y-38856032D01*
X91361450Y-38758485D01*
X91364722Y-38755800D01*
X92036553Y-38755800D01*
X92057034Y-38898255D01*
X92057036Y-38898260D01*
X92082300Y-38953579D01*
X92116823Y-39029173D01*
X92211072Y-39137943D01*
X92332147Y-39215753D01*
X92470239Y-39256300D01*
X92614161Y-39256300D01*
X92752253Y-39215753D01*
X92855809Y-39149202D01*
X92876461Y-39135930D01*
X92930874Y-39123640D01*
X92980456Y-39149202D01*
X93002008Y-39200654D01*
X93002100Y-39204534D01*
X93002100Y-49521065D01*
X93026148Y-49610810D01*
X93026149Y-49610813D01*
X93026150Y-49610814D01*
X93072610Y-49691286D01*
X93783632Y-50402308D01*
X94489573Y-51108249D01*
X94513148Y-51158806D01*
X94512628Y-51177518D01*
X94508203Y-51208298D01*
X94508203Y-51208300D01*
X94528684Y-51350756D01*
X94528686Y-51350761D01*
X94557777Y-51414460D01*
X94588473Y-51481674D01*
X94682722Y-51590444D01*
X94803797Y-51668254D01*
X94941889Y-51708801D01*
X95085811Y-51708801D01*
X95223903Y-51668254D01*
X95344978Y-51590444D01*
X95439227Y-51481674D01*
X95499015Y-51350758D01*
X95499015Y-51350757D01*
X95500104Y-51348373D01*
X95539234Y-51308616D01*
X95574284Y-51300700D01*
X98305844Y-51300700D01*
X98358263Y-51319779D01*
X98363509Y-51324585D01*
X99201215Y-52162291D01*
X99224790Y-52212848D01*
X99225100Y-52219956D01*
X99225100Y-53633766D01*
X99206021Y-53686185D01*
X99205182Y-53687169D01*
X99152625Y-53747823D01*
X99152621Y-53747830D01*
X99092836Y-53878739D01*
X99092834Y-53878744D01*
X99072353Y-54021200D01*
X99092834Y-54163655D01*
X99092836Y-54163660D01*
X99152621Y-54294569D01*
X99152623Y-54294573D01*
X99246872Y-54403343D01*
X99367947Y-54481153D01*
X99506039Y-54521700D01*
X99545644Y-54521700D01*
X99598063Y-54540779D01*
X99603309Y-54545585D01*
X101347114Y-56289390D01*
X101427586Y-56335850D01*
X101427588Y-56335850D01*
X101427589Y-56335851D01*
X101427588Y-56335851D01*
X101517334Y-56359899D01*
X101517338Y-56359899D01*
X101517340Y-56359900D01*
X101610260Y-56359900D01*
X103416090Y-56359900D01*
X103468509Y-56378979D01*
X103477722Y-56388047D01*
X103478672Y-56389143D01*
X103599747Y-56466953D01*
X103737839Y-56507500D01*
X103881761Y-56507500D01*
X104019853Y-56466953D01*
X104140928Y-56389143D01*
X104235177Y-56280373D01*
X104294965Y-56149457D01*
X104315447Y-56007000D01*
X104294965Y-55864543D01*
X104235177Y-55733627D01*
X104140928Y-55624857D01*
X104019853Y-55547047D01*
X104019854Y-55547047D01*
X103881761Y-55506500D01*
X103737839Y-55506500D01*
X103599745Y-55547047D01*
X103478672Y-55624856D01*
X103478671Y-55624856D01*
X103477722Y-55625953D01*
X103476840Y-55626443D01*
X103474263Y-55628677D01*
X103473795Y-55628137D01*
X103428976Y-55653075D01*
X103416090Y-55654100D01*
X101743756Y-55654100D01*
X101691337Y-55635021D01*
X101686091Y-55630215D01*
X100103942Y-54048066D01*
X100080887Y-54002006D01*
X100080380Y-53998482D01*
X100063165Y-53878743D01*
X100003377Y-53747827D01*
X100003374Y-53747823D01*
X99950818Y-53687169D01*
X99930910Y-53635059D01*
X99930900Y-53633766D01*
X99930900Y-51993541D01*
X99930899Y-51993534D01*
X99906851Y-51903789D01*
X99906850Y-51903788D01*
X99906850Y-51903786D01*
X99860390Y-51823314D01*
X99860388Y-51823312D01*
X99794686Y-51757609D01*
X99794686Y-51757610D01*
X99543676Y-51506600D01*
X100756603Y-51506600D01*
X100777084Y-51649055D01*
X100777086Y-51649060D01*
X100826660Y-51757610D01*
X100836873Y-51779973D01*
X100931122Y-51888743D01*
X101052197Y-51966553D01*
X101190289Y-52007100D01*
X101334211Y-52007100D01*
X101472303Y-51966553D01*
X101593378Y-51888743D01*
X101687627Y-51779973D01*
X101747415Y-51649057D01*
X101767897Y-51506600D01*
X101747415Y-51364143D01*
X101687627Y-51233227D01*
X101593378Y-51124457D01*
X101472303Y-51046647D01*
X101472304Y-51046647D01*
X101334211Y-51006100D01*
X101190289Y-51006100D01*
X101052195Y-51046647D01*
X100931124Y-51124455D01*
X100931122Y-51124456D01*
X100931122Y-51124457D01*
X100885145Y-51177518D01*
X100836873Y-51233227D01*
X100836871Y-51233230D01*
X100777086Y-51364139D01*
X100777084Y-51364144D01*
X100756603Y-51506600D01*
X99543676Y-51506600D01*
X98991583Y-50954507D01*
X103279353Y-50954507D01*
X103299834Y-51096962D01*
X103299836Y-51096967D01*
X103356560Y-51221173D01*
X103359623Y-51227880D01*
X103453872Y-51336650D01*
X103574947Y-51414460D01*
X103713039Y-51455007D01*
X103856961Y-51455007D01*
X103995053Y-51414460D01*
X104116128Y-51336650D01*
X104210377Y-51227880D01*
X104270165Y-51096964D01*
X104290647Y-50954507D01*
X104270165Y-50812050D01*
X104210377Y-50681134D01*
X104204565Y-50674427D01*
X104167539Y-50631696D01*
X104147630Y-50579586D01*
X104165875Y-50526871D01*
X104185075Y-50509692D01*
X104252528Y-50466343D01*
X104291568Y-50421287D01*
X104340314Y-50394165D01*
X104395090Y-50404722D01*
X104414831Y-50421287D01*
X104453872Y-50466343D01*
X104574947Y-50544153D01*
X104713039Y-50584700D01*
X104856961Y-50584700D01*
X104995053Y-50544153D01*
X105082667Y-50487847D01*
X105116127Y-50466344D01*
X105121670Y-50459947D01*
X105129767Y-50450601D01*
X105178513Y-50423479D01*
X105233289Y-50434034D01*
X105253033Y-50450602D01*
X105266672Y-50466344D01*
X105345720Y-50517144D01*
X105387747Y-50544153D01*
X105525839Y-50584700D01*
X105669761Y-50584700D01*
X105807853Y-50544153D01*
X105895467Y-50487847D01*
X105928927Y-50466344D01*
X105934470Y-50459947D01*
X105942567Y-50450601D01*
X105991313Y-50423479D01*
X106046089Y-50434034D01*
X106065833Y-50450602D01*
X106079472Y-50466344D01*
X106158520Y-50517144D01*
X106200547Y-50544153D01*
X106338639Y-50584700D01*
X106482561Y-50584700D01*
X106620653Y-50544153D01*
X106683866Y-50503528D01*
X106738276Y-50491239D01*
X106787858Y-50516800D01*
X106809411Y-50568252D01*
X106792848Y-50621520D01*
X106789586Y-50625536D01*
X106747223Y-50674427D01*
X106747221Y-50674430D01*
X106687436Y-50805339D01*
X106687434Y-50805344D01*
X106666953Y-50947800D01*
X106687434Y-51090255D01*
X106687436Y-51090260D01*
X106722597Y-51167250D01*
X106747223Y-51221173D01*
X106841472Y-51329943D01*
X106962547Y-51407753D01*
X107100639Y-51448300D01*
X107244561Y-51448300D01*
X107382653Y-51407753D01*
X107503728Y-51329943D01*
X107597977Y-51221173D01*
X107657765Y-51090257D01*
X107678247Y-50947800D01*
X107657765Y-50805343D01*
X107597977Y-50674427D01*
X107594379Y-50670275D01*
X107564595Y-50635902D01*
X107544686Y-50583792D01*
X107562931Y-50531077D01*
X107582137Y-50513894D01*
X107601575Y-50501402D01*
X107656128Y-50466343D01*
X107750377Y-50357573D01*
X107810165Y-50226657D01*
X107830647Y-50084200D01*
X107810165Y-49941743D01*
X107750377Y-49810827D01*
X107656128Y-49702057D01*
X107535053Y-49624247D01*
X107535054Y-49624247D01*
X107396961Y-49583700D01*
X107253039Y-49583700D01*
X107114945Y-49624247D01*
X106993872Y-49702056D01*
X106993871Y-49702057D01*
X106929431Y-49776425D01*
X106880685Y-49803547D01*
X106825910Y-49792989D01*
X106806169Y-49776425D01*
X106741728Y-49702057D01*
X106741727Y-49702056D01*
X106620653Y-49624247D01*
X106620654Y-49624247D01*
X106482561Y-49583700D01*
X106338639Y-49583700D01*
X106200545Y-49624247D01*
X106079472Y-49702056D01*
X106079469Y-49702058D01*
X106065830Y-49717799D01*
X106017083Y-49744920D01*
X105962308Y-49734362D01*
X105942570Y-49717799D01*
X105928930Y-49702058D01*
X105928927Y-49702056D01*
X105807853Y-49624247D01*
X105807854Y-49624247D01*
X105669761Y-49583700D01*
X105525839Y-49583700D01*
X105387745Y-49624247D01*
X105266672Y-49702056D01*
X105266669Y-49702058D01*
X105253030Y-49717799D01*
X105204283Y-49744920D01*
X105149508Y-49734362D01*
X105129770Y-49717799D01*
X105116130Y-49702058D01*
X105116127Y-49702056D01*
X104995053Y-49624247D01*
X104995054Y-49624247D01*
X104856961Y-49583700D01*
X104713039Y-49583700D01*
X104574945Y-49624247D01*
X104453872Y-49702056D01*
X104453871Y-49702057D01*
X104414831Y-49747112D01*
X104366085Y-49774234D01*
X104311310Y-49763677D01*
X104291569Y-49747112D01*
X104252528Y-49702057D01*
X104252527Y-49702056D01*
X104131453Y-49624247D01*
X104131454Y-49624247D01*
X103993361Y-49583700D01*
X103849439Y-49583700D01*
X103711345Y-49624247D01*
X103590274Y-49702055D01*
X103590272Y-49702056D01*
X103590272Y-49702057D01*
X103532081Y-49769214D01*
X103496023Y-49810827D01*
X103496021Y-49810830D01*
X103436236Y-49941739D01*
X103436234Y-49941744D01*
X103415753Y-50084200D01*
X103436234Y-50226655D01*
X103436236Y-50226660D01*
X103496021Y-50357569D01*
X103496025Y-50357576D01*
X103538860Y-50407010D01*
X103558769Y-50459120D01*
X103540524Y-50511836D01*
X103521319Y-50529018D01*
X103453872Y-50572363D01*
X103359623Y-50681134D01*
X103359621Y-50681137D01*
X103299836Y-50812046D01*
X103299834Y-50812051D01*
X103279353Y-50954507D01*
X98991583Y-50954507D01*
X98811789Y-50774713D01*
X98788215Y-50724158D01*
X98802653Y-50670275D01*
X98848348Y-50638279D01*
X98869455Y-50635500D01*
X98913361Y-50635500D01*
X99051453Y-50594953D01*
X99130501Y-50544152D01*
X99172527Y-50517144D01*
X99177126Y-50511836D01*
X99186167Y-50501401D01*
X99234913Y-50474279D01*
X99289689Y-50484834D01*
X99309433Y-50501402D01*
X99323072Y-50517144D01*
X99397184Y-50564772D01*
X99444147Y-50594953D01*
X99582239Y-50635500D01*
X99726161Y-50635500D01*
X99864253Y-50594953D01*
X99985328Y-50517143D01*
X99992568Y-50508786D01*
X100041313Y-50481664D01*
X100096089Y-50492219D01*
X100115832Y-50508785D01*
X100123073Y-50517142D01*
X100123075Y-50517143D01*
X100244150Y-50594953D01*
X100382242Y-50635500D01*
X100526164Y-50635500D01*
X100664256Y-50594953D01*
X100785331Y-50517143D01*
X100878179Y-50409989D01*
X100926924Y-50382867D01*
X100981700Y-50393424D01*
X101001439Y-50409987D01*
X101050272Y-50466343D01*
X101171347Y-50544153D01*
X101309439Y-50584700D01*
X101453361Y-50584700D01*
X101591453Y-50544153D01*
X101712528Y-50466343D01*
X101806777Y-50357573D01*
X101866565Y-50226657D01*
X101887047Y-50084200D01*
X101866565Y-49941743D01*
X101806777Y-49810827D01*
X101712528Y-49702057D01*
X101591453Y-49624247D01*
X101591454Y-49624247D01*
X101453361Y-49583700D01*
X101309439Y-49583700D01*
X101171345Y-49624247D01*
X101050272Y-49702056D01*
X101050271Y-49702057D01*
X100957423Y-49809210D01*
X100908677Y-49836332D01*
X100853902Y-49825775D01*
X100834160Y-49809209D01*
X100798971Y-49768599D01*
X100785331Y-49752857D01*
X100785330Y-49752856D01*
X100664256Y-49675047D01*
X100664257Y-49675047D01*
X100526164Y-49634500D01*
X100382242Y-49634500D01*
X100244148Y-49675047D01*
X100123075Y-49752856D01*
X100123074Y-49752856D01*
X100115830Y-49761217D01*
X100067082Y-49788336D01*
X100012307Y-49777777D01*
X99992570Y-49761214D01*
X99985329Y-49752857D01*
X99985327Y-49752856D01*
X99864253Y-49675047D01*
X99864254Y-49675047D01*
X99726161Y-49634500D01*
X99582239Y-49634500D01*
X99444145Y-49675047D01*
X99323072Y-49752856D01*
X99323069Y-49752858D01*
X99309430Y-49768599D01*
X99260683Y-49795720D01*
X99205908Y-49785162D01*
X99186170Y-49768599D01*
X99172530Y-49752858D01*
X99172527Y-49752856D01*
X99051453Y-49675047D01*
X99051454Y-49675047D01*
X98913361Y-49634500D01*
X98769439Y-49634500D01*
X98631345Y-49675047D01*
X98510272Y-49752856D01*
X98510271Y-49752857D01*
X98435966Y-49838610D01*
X98387220Y-49865732D01*
X98332445Y-49855175D01*
X98312706Y-49838612D01*
X98245331Y-49760857D01*
X98220532Y-49744920D01*
X98124256Y-49683047D01*
X98124257Y-49683047D01*
X97986164Y-49642500D01*
X97842242Y-49642500D01*
X97704148Y-49683047D01*
X97583075Y-49760856D01*
X97583074Y-49760856D01*
X97575830Y-49769217D01*
X97527082Y-49796336D01*
X97472307Y-49785777D01*
X97452570Y-49769214D01*
X97445329Y-49760857D01*
X97445327Y-49760856D01*
X97324253Y-49683047D01*
X97324254Y-49683047D01*
X97186161Y-49642500D01*
X97042239Y-49642500D01*
X96904145Y-49683047D01*
X96783072Y-49760856D01*
X96783071Y-49760857D01*
X96744031Y-49805912D01*
X96695285Y-49833034D01*
X96640510Y-49822477D01*
X96620769Y-49805912D01*
X96581728Y-49760857D01*
X96581727Y-49760856D01*
X96460653Y-49683047D01*
X96460654Y-49683047D01*
X96322561Y-49642500D01*
X96178639Y-49642500D01*
X96040545Y-49683047D01*
X95919474Y-49760855D01*
X95919472Y-49760856D01*
X95919472Y-49760857D01*
X95863987Y-49824891D01*
X95825223Y-49869627D01*
X95825221Y-49869630D01*
X95765436Y-50000539D01*
X95765434Y-50000544D01*
X95744953Y-50143000D01*
X95765434Y-50285455D01*
X95765436Y-50285460D01*
X95825221Y-50416369D01*
X95825225Y-50416376D01*
X95862979Y-50459947D01*
X95882887Y-50512057D01*
X95864641Y-50564772D01*
X95816780Y-50593426D01*
X95801347Y-50594900D01*
X95227885Y-50594900D01*
X95138139Y-50618948D01*
X95138137Y-50618949D01*
X95103755Y-50638800D01*
X95048819Y-50648486D01*
X95005316Y-50625840D01*
X93731785Y-49352309D01*
X93708210Y-49301752D01*
X93707900Y-49294644D01*
X93707900Y-47625000D01*
X107545953Y-47625000D01*
X107566434Y-47767455D01*
X107566435Y-47767457D01*
X107626223Y-47898373D01*
X107720472Y-48007143D01*
X107841547Y-48084953D01*
X107979639Y-48125500D01*
X108123561Y-48125500D01*
X108261653Y-48084953D01*
X108382728Y-48007143D01*
X108476977Y-47898373D01*
X108536765Y-47767457D01*
X108557247Y-47625000D01*
X108536765Y-47482543D01*
X108476977Y-47351627D01*
X108382728Y-47242857D01*
X108261653Y-47165047D01*
X108261654Y-47165047D01*
X108123561Y-47124500D01*
X107979639Y-47124500D01*
X107841545Y-47165047D01*
X107720474Y-47242855D01*
X107626223Y-47351627D01*
X107626221Y-47351630D01*
X107566436Y-47482539D01*
X107566434Y-47482544D01*
X107545953Y-47625000D01*
X93707900Y-47625000D01*
X93707900Y-38258832D01*
X93726979Y-38206413D01*
X93727819Y-38205428D01*
X93780374Y-38144776D01*
X93780377Y-38144773D01*
X93840165Y-38013857D01*
X93860647Y-37871400D01*
X93840165Y-37728943D01*
X93780377Y-37598027D01*
X93686128Y-37489257D01*
X93565053Y-37411447D01*
X93565054Y-37411447D01*
X93426961Y-37370900D01*
X93283039Y-37370900D01*
X93144945Y-37411447D01*
X93023874Y-37489255D01*
X92929623Y-37598027D01*
X92929621Y-37598030D01*
X92869836Y-37728939D01*
X92869834Y-37728944D01*
X92849353Y-37871400D01*
X92869834Y-38013855D01*
X92869836Y-38013860D01*
X92929621Y-38144769D01*
X92929625Y-38144776D01*
X92982181Y-38205428D01*
X93002090Y-38257538D01*
X93002100Y-38258832D01*
X93002100Y-38307065D01*
X92983021Y-38359484D01*
X92934711Y-38387376D01*
X92879775Y-38377689D01*
X92876461Y-38375670D01*
X92800300Y-38326725D01*
X92752253Y-38295847D01*
X92752252Y-38295846D01*
X92752251Y-38295846D01*
X92614161Y-38255300D01*
X92470239Y-38255300D01*
X92332145Y-38295847D01*
X92211074Y-38373655D01*
X92211072Y-38373656D01*
X92211072Y-38373657D01*
X92201651Y-38384530D01*
X92116823Y-38482427D01*
X92116821Y-38482430D01*
X92057036Y-38613339D01*
X92057034Y-38613344D01*
X92036553Y-38755800D01*
X91364722Y-38755800D01*
X91521410Y-38627210D01*
X91652685Y-38467250D01*
X91750232Y-38284754D01*
X91810300Y-38086734D01*
X91830583Y-37880800D01*
X91829657Y-37871400D01*
X91810301Y-37674877D01*
X91810300Y-37674866D01*
X91750232Y-37476846D01*
X91652685Y-37294350D01*
X91632669Y-37269960D01*
X91521413Y-37134393D01*
X91521406Y-37134386D01*
X91513015Y-37127500D01*
X111388653Y-37127500D01*
X111409134Y-37269955D01*
X111409136Y-37269960D01*
X111458052Y-37377069D01*
X111468923Y-37400873D01*
X111563172Y-37509643D01*
X111684247Y-37587453D01*
X111822339Y-37628000D01*
X111966261Y-37628000D01*
X112104353Y-37587453D01*
X112225428Y-37509643D01*
X112319677Y-37400873D01*
X112379465Y-37269957D01*
X112399947Y-37127500D01*
X112379465Y-36985043D01*
X112319677Y-36854127D01*
X112225428Y-36745357D01*
X112104353Y-36667547D01*
X112104354Y-36667547D01*
X111966261Y-36627000D01*
X111822339Y-36627000D01*
X111684245Y-36667547D01*
X111563174Y-36745355D01*
X111563172Y-36745356D01*
X111563172Y-36745357D01*
X111476400Y-36845498D01*
X111468923Y-36854127D01*
X111468921Y-36854130D01*
X111409136Y-36985039D01*
X111409134Y-36985044D01*
X111388653Y-37127500D01*
X91513015Y-37127500D01*
X91361453Y-37003117D01*
X91361451Y-37003116D01*
X91361450Y-37003115D01*
X91178954Y-36905568D01*
X91178951Y-36905567D01*
X91178949Y-36905566D01*
X91091149Y-36878933D01*
X90980934Y-36845500D01*
X90980930Y-36845499D01*
X90980922Y-36845498D01*
X90775003Y-36825217D01*
X90774997Y-36825217D01*
X90569077Y-36845498D01*
X90569067Y-36845499D01*
X90569066Y-36845500D01*
X90513958Y-36862216D01*
X90371050Y-36905566D01*
X90188546Y-37003117D01*
X90028593Y-37134386D01*
X90028586Y-37134393D01*
X89997689Y-37172042D01*
X89949686Y-37200459D01*
X89894648Y-37191372D01*
X89858327Y-37149033D01*
X89853100Y-37120307D01*
X89853100Y-36472850D01*
X89872179Y-36420431D01*
X89920489Y-36392539D01*
X89934650Y-36391300D01*
X91644746Y-36391300D01*
X91644748Y-36391300D01*
X91703231Y-36379667D01*
X91769552Y-36335352D01*
X91813867Y-36269031D01*
X91825500Y-36210548D01*
X91825500Y-34600507D01*
X91844579Y-34548088D01*
X91892889Y-34520196D01*
X91907201Y-34518957D01*
X114475512Y-34563825D01*
G37*
%TD.AperFunction*%
%TD*%
M02*
