%TF.GenerationSoftware,KiCad,Pcbnew,8.0.6*%
%TF.CreationDate,2025-02-05T21:25:15+00:00*%
%TF.ProjectId,custom-esp32,63757374-6f6d-42d6-9573-7033322e6b69,0.1*%
%TF.SameCoordinates,Original*%
%TF.FileFunction,Copper,L4,Bot*%
%TF.FilePolarity,Positive*%
%FSLAX46Y46*%
G04 Gerber Fmt 4.6, Leading zero omitted, Abs format (unit mm)*
G04 Created by KiCad (PCBNEW 8.0.6) date 2025-02-05 21:25:15*
%MOMM*%
%LPD*%
G01*
G04 APERTURE LIST*
%TA.AperFunction,ComponentPad*%
%ADD10R,1.700000X1.700000*%
%TD*%
%TA.AperFunction,ComponentPad*%
%ADD11O,1.700000X1.700000*%
%TD*%
%TA.AperFunction,ComponentPad*%
%ADD12O,1.000000X2.100000*%
%TD*%
%TA.AperFunction,ComponentPad*%
%ADD13O,1.000000X1.800000*%
%TD*%
%TA.AperFunction,ViaPad*%
%ADD14C,0.600000*%
%TD*%
%TA.AperFunction,ViaPad*%
%ADD15C,0.500000*%
%TD*%
%TA.AperFunction,Conductor*%
%ADD16C,0.165100*%
%TD*%
%TA.AperFunction,Conductor*%
%ADD17C,0.200000*%
%TD*%
%TA.AperFunction,Conductor*%
%ADD18C,0.262799*%
%TD*%
G04 APERTURE END LIST*
D10*
%TO.P,J1,1,Pin_1*%
%TO.N,3V3*%
X90775000Y-35340800D03*
D11*
%TO.P,J1,2,Pin_2*%
%TO.N,GPIO0*%
X90775000Y-37880800D03*
%TO.P,J1,3,Pin_3*%
%TO.N,GPIO1*%
X90775000Y-40420800D03*
%TO.P,J1,4,Pin_4*%
%TO.N,GPIO2*%
X90775000Y-42960800D03*
%TO.P,J1,5,Pin_5*%
%TO.N,GPIO3*%
X90775000Y-45500800D03*
%TO.P,J1,6,Pin_6*%
%TO.N,GPIO4*%
X90775000Y-48040800D03*
%TO.P,J1,7,Pin_7*%
%TO.N,GPIO5*%
X90775000Y-50580800D03*
%TO.P,J1,8,Pin_8*%
%TO.N,GPIO6*%
X90775000Y-53120800D03*
%TO.P,J1,9,Pin_9*%
%TO.N,GPIO7*%
X90775000Y-55660800D03*
%TO.P,J1,10,Pin_10*%
%TO.N,GPIO8*%
X90775000Y-58200800D03*
%TO.P,J1,11,Pin_11*%
%TO.N,GPIO9*%
X90775000Y-60740800D03*
%TO.P,J1,12,Pin_12*%
%TO.N,GPIO10*%
X90775000Y-63280800D03*
%TO.P,J1,13,Pin_13*%
%TO.N,GPIO11*%
X90775000Y-65820800D03*
%TO.P,J1,14,Pin_14*%
%TO.N,GPIO12*%
X90775000Y-68360800D03*
%TO.P,J1,15,Pin_15*%
%TO.N,GPIO13*%
X90775000Y-70900800D03*
%TO.P,J1,16,Pin_16*%
%TO.N,GPIO14*%
X90775000Y-73440800D03*
%TO.P,J1,17,Pin_17*%
%TO.N,GPIO15*%
X90775000Y-75980800D03*
%TO.P,J1,18,Pin_18*%
%TO.N,GPIO16*%
X90775000Y-78520800D03*
%TO.P,J1,19,Pin_19*%
%TO.N,I2C_SCL*%
X90775000Y-81060800D03*
%TO.P,J1,20,Pin_20*%
%TO.N,I2C_SDA*%
X90775000Y-83600800D03*
%TO.P,J1,21,Pin_21*%
%TO.N,5VUSB*%
X90775000Y-86140800D03*
%TO.P,J1,22,Pin_22*%
%TO.N,GND*%
X90775000Y-88680800D03*
%TD*%
D10*
%TO.P,J2,1,Pin_1*%
%TO.N,GND*%
X113635000Y-35340800D03*
D11*
%TO.P,J2,2,Pin_2*%
%TO.N,ESP32_EN*%
X113635000Y-37880800D03*
%TO.P,J2,3,Pin_3*%
%TO.N,GPIO46*%
X113635000Y-40420800D03*
%TO.P,J2,4,Pin_4*%
%TO.N,GPIO45*%
X113635000Y-42960800D03*
%TO.P,J2,5,Pin_5*%
%TO.N,RXD*%
X113635000Y-45500800D03*
%TO.P,J2,6,Pin_6*%
%TO.N,TXD*%
X113635000Y-48040800D03*
%TO.P,J2,7,Pin_7*%
%TO.N,GPIO42*%
X113635000Y-50580800D03*
%TO.P,J2,8,Pin_8*%
%TO.N,GPIO41*%
X113635000Y-53120800D03*
%TO.P,J2,9,Pin_9*%
%TO.N,GPIO40*%
X113635000Y-55660800D03*
%TO.P,J2,10,Pin_10*%
%TO.N,GPIO39*%
X113635000Y-58200800D03*
%TO.P,J2,11,Pin_11*%
%TO.N,GPIO38*%
X113635000Y-60740800D03*
%TO.P,J2,12,Pin_12*%
%TO.N,GPIO37*%
X113635000Y-63280800D03*
%TO.P,J2,13,Pin_13*%
%TO.N,GPIO36*%
X113635000Y-65820800D03*
%TO.P,J2,14,Pin_14*%
%TO.N,GPIO35*%
X113635000Y-68360800D03*
%TO.P,J2,15,Pin_15*%
%TO.N,GPIO34*%
X113635000Y-70900800D03*
%TO.P,J2,16,Pin_16*%
%TO.N,GPIO33*%
X113635000Y-73440800D03*
%TO.P,J2,17,Pin_17*%
%TO.N,GPIO26*%
X113635000Y-75980800D03*
%TO.P,J2,18,Pin_18*%
%TO.N,GPIO21*%
X113635000Y-78520800D03*
%TO.P,J2,19,Pin_19*%
%TO.N,unconnected-(J2-Pin_19-Pad19)*%
X113635000Y-81060800D03*
%TO.P,J2,20,Pin_20*%
%TO.N,unconnected-(J2-Pin_20-Pad20)*%
X113635000Y-83600800D03*
%TO.P,J2,21,Pin_21*%
%TO.N,GPIO48*%
X113635000Y-86140800D03*
%TO.P,J2,22,Pin_22*%
%TO.N,GPIO47*%
X113635000Y-88680800D03*
%TD*%
D12*
%TO.P,J3,S1,SHIELD*%
%TO.N,GND*%
X98317850Y-84940600D03*
D13*
X98317850Y-89120600D03*
D12*
X106957850Y-84940600D03*
D13*
X106957850Y-89120600D03*
%TD*%
D14*
%TO.N,GND*%
X97977800Y-35758600D03*
X96961800Y-84374200D03*
X101330600Y-35758600D03*
X99552600Y-78176600D03*
X102194200Y-35758600D03*
X105054400Y-42367200D03*
X102565200Y-39014400D03*
X108290200Y-85288600D03*
X103921400Y-35758600D03*
X106807000Y-60553600D03*
X98689000Y-52624200D03*
X111947800Y-35555400D03*
X108290200Y-89505000D03*
X96199800Y-47798200D03*
X100152200Y-44805600D03*
X108290200Y-84374200D03*
X104785000Y-35758600D03*
X94007400Y-36774600D03*
X98384200Y-60599800D03*
X101701600Y-39014400D03*
X110169800Y-37638200D03*
X109204600Y-50084200D03*
X107325000Y-35758600D03*
X99390200Y-43281600D03*
X103606600Y-44754800D03*
X102717600Y-44754800D03*
X98841400Y-35758600D03*
X106258200Y-57348600D03*
X99364800Y-41554400D03*
X97063400Y-89454200D03*
X95183800Y-50135000D03*
X106461400Y-35758600D03*
X99339400Y-39801800D03*
X105079800Y-43230800D03*
X99654200Y-35758600D03*
X96250600Y-35758600D03*
X110972600Y-74193400D03*
X99999800Y-39065200D03*
X97419000Y-60549000D03*
X99654200Y-60498200D03*
X100990400Y-44780200D03*
X103057800Y-35758600D03*
X100613874Y-74219726D03*
X105054400Y-40614600D03*
X98739800Y-53640200D03*
X109204600Y-52522600D03*
X97063400Y-88438200D03*
X101854000Y-44754800D03*
X94167800Y-74214200D03*
X105054400Y-41503600D03*
X107772200Y-81026000D03*
X99364800Y-40665400D03*
X107457800Y-54128599D03*
X104317800Y-74244200D03*
X96961800Y-85339400D03*
X105648600Y-35758600D03*
X92593000Y-88285800D03*
X99364800Y-42418000D03*
X99415600Y-44119800D03*
X106705400Y-59613800D03*
X103454200Y-39014400D03*
X105029000Y-39751000D03*
X100838000Y-39039800D03*
X110169800Y-38451000D03*
X105105200Y-44069000D03*
X104470200Y-44729400D03*
X103829400Y-52730400D03*
X92593000Y-89301800D03*
X104317800Y-38989000D03*
X100517800Y-35758600D03*
X108290200Y-88641400D03*
X110896400Y-78105000D03*
X108137800Y-35758600D03*
X93964600Y-34895000D03*
X94879000Y-64155800D03*
X110169800Y-34844200D03*
X111947800Y-34844200D03*
X97266600Y-81072200D03*
X97114200Y-35758600D03*
%TO.N,ESP32_EN*%
X111536926Y-66618674D03*
X111894300Y-37127500D03*
%TO.N,GPIO0*%
X92542200Y-38755800D03*
X92583000Y-66573400D03*
%TO.N,3V3*%
X99578000Y-54021200D03*
X93355000Y-37871400D03*
X103969500Y-76751500D03*
X103809800Y-56007000D03*
X95013850Y-51208301D03*
X99959000Y-65730600D03*
%TO.N,5VUSB*%
X108493400Y-56332600D03*
X99247800Y-83155000D03*
X101381400Y-80513400D03*
X101533800Y-83104200D03*
X105702035Y-83157635D03*
%TO.N,GPIO48*%
X107172600Y-50947800D03*
X101262250Y-51506600D03*
X103785000Y-50954507D03*
X111592200Y-70099400D03*
%TO.N,GPIO15*%
X92440600Y-76093800D03*
X98841400Y-50135000D03*
%TO.N,GPIO12*%
X96250600Y-50143000D03*
X92491400Y-68473800D03*
%TO.N,I2C_SDA*%
X92389800Y-83561400D03*
X101000400Y-62555600D03*
X101381400Y-50084200D03*
%TO.N,GPIO13*%
X97114200Y-50143000D03*
X92440600Y-70912200D03*
%TO.N,I2C_SCL*%
X97572000Y-63536400D03*
X92389800Y-81072200D03*
X100454203Y-50135000D03*
%TO.N,GPIO14*%
X92440600Y-73452200D03*
X97914203Y-50143000D03*
%TO.N,GPIO16*%
X92440600Y-78583000D03*
X99654200Y-50135000D03*
%TO.N,GPIO21*%
X103921400Y-50084200D03*
%TO.N,GPIO33*%
X106410600Y-50084200D03*
%TO.N,GPIO47*%
X105597800Y-50084200D03*
X110881000Y-71979000D03*
%TO.N,GPIO35*%
X108051600Y-47625000D03*
X111582200Y-67868800D03*
%TO.N,GPIO26*%
X104785000Y-50084200D03*
%TO.N,GPIO34*%
X107325000Y-50084200D03*
D15*
%TO.N,D-*%
X102997142Y-85975996D03*
X101738500Y-85965800D03*
%TO.N,D+*%
X102305302Y-85429497D03*
X103516500Y-85407000D03*
%TD*%
D16*
%TO.N,ESP32_EN*%
X111125000Y-37896800D02*
X111894300Y-37127500D01*
X111125000Y-66206748D02*
X111125000Y-37896800D01*
X111536926Y-66618674D02*
X111125000Y-66206748D01*
%TO.N,GPIO0*%
X93395800Y-39609400D02*
X92542200Y-38755800D01*
X92583000Y-66573400D02*
X93395800Y-65760600D01*
X93395800Y-65760600D02*
X93395800Y-39609400D01*
%TO.N,3V3*%
X99959000Y-72741000D02*
X99959000Y-65730600D01*
X103969500Y-76751500D02*
X99959000Y-72741000D01*
%TO.N,GPIO48*%
X103785000Y-50954507D02*
X101814343Y-50954507D01*
D17*
X106451400Y-51669000D02*
X107172600Y-50947800D01*
X107417000Y-57658871D02*
X106451400Y-56693271D01*
X111592200Y-70099400D02*
X107417000Y-65924200D01*
D16*
X101814343Y-50954507D02*
X101262250Y-51506600D01*
D17*
X106451400Y-56693271D02*
X106451400Y-51669000D01*
X107417000Y-65924200D02*
X107417000Y-57658871D01*
D16*
%TO.N,GPIO15*%
X92440600Y-76093800D02*
X92440600Y-75117549D01*
X94898000Y-65762400D02*
X96067218Y-64593182D01*
X98841400Y-51131619D02*
X98841400Y-50135000D01*
X94898000Y-72660149D02*
X94898000Y-65762400D01*
X96067218Y-53905801D02*
X98841400Y-51131619D01*
X92440600Y-75117549D02*
X94898000Y-72660149D01*
X96067218Y-64593182D02*
X96067218Y-53905801D01*
%TO.N,GPIO12*%
X92491400Y-68473800D02*
X93802700Y-67162500D01*
X96250600Y-52173429D02*
X96250600Y-50143000D01*
X93802700Y-67162500D02*
X93802700Y-54621329D01*
X93802700Y-54621329D02*
X96250600Y-52173429D01*
%TO.N,I2C_SDA*%
X101035300Y-61312171D02*
X101035300Y-62520700D01*
X101035300Y-62520700D02*
X101000400Y-62555600D01*
X100679700Y-51192300D02*
X100679700Y-60956571D01*
X92389800Y-83561400D02*
X96015600Y-79935600D01*
X96015600Y-67540400D02*
X101000400Y-62555600D01*
X100679700Y-60956571D02*
X101035300Y-61312171D01*
X101381400Y-50084200D02*
X101381400Y-50490600D01*
X101381400Y-50490600D02*
X100679700Y-51192300D01*
X96015600Y-79935600D02*
X96015600Y-67540400D01*
%TO.N,GPIO13*%
X92440600Y-70912200D02*
X94167800Y-69185000D01*
X94167800Y-69185000D02*
X94167800Y-54772559D01*
X97114200Y-51826159D02*
X97114200Y-50143000D01*
X94167800Y-54772559D02*
X97114200Y-51826159D01*
%TO.N,I2C_SCL*%
X97572000Y-64121060D02*
X97572000Y-63536400D01*
X100454203Y-50135000D02*
X100314600Y-50274603D01*
X100314600Y-61514200D02*
X98292400Y-63536400D01*
X95650500Y-77811500D02*
X95650500Y-66042560D01*
X92389800Y-81072200D02*
X95650500Y-77811500D01*
X100314600Y-50274603D02*
X100314600Y-61514200D01*
X95650500Y-66042560D02*
X97572000Y-64121060D01*
X98292400Y-63536400D02*
X97572000Y-63536400D01*
%TO.N,GPIO14*%
X92440600Y-73452200D02*
X94532900Y-71359900D01*
X97914203Y-51542486D02*
X97914203Y-50143000D01*
X95702118Y-53754571D02*
X97914203Y-51542486D01*
X94532900Y-65611170D02*
X95702118Y-64441952D01*
X94532900Y-71359900D02*
X94532900Y-65611170D01*
X95702118Y-64441952D02*
X95702118Y-53754571D01*
%TO.N,GPIO16*%
X92440600Y-78583000D02*
X95285400Y-75738200D01*
X95285400Y-65891330D02*
X96432318Y-64744412D01*
X99654200Y-50835149D02*
X99654200Y-50135000D01*
X96432318Y-64744412D02*
X96432318Y-54057031D01*
X96432318Y-54057031D02*
X99654200Y-50835149D01*
X95285400Y-75738200D02*
X95285400Y-65891330D01*
D17*
%TO.N,GPIO21*%
X104385000Y-50547800D02*
X104385000Y-51977085D01*
X104429400Y-52021485D02*
X104429400Y-69337400D01*
X103921400Y-50084200D02*
X104385000Y-50547800D01*
X104429400Y-69337400D02*
X113624200Y-78532200D01*
X104385000Y-51977085D02*
X104429400Y-52021485D01*
%TO.N,GPIO33*%
X106410600Y-50084200D02*
X106197800Y-50297000D01*
X106197800Y-51344999D02*
X105658200Y-51884599D01*
X105658200Y-51884599D02*
X105658200Y-65435400D01*
X113624200Y-73401400D02*
X113624200Y-73452200D01*
X106197800Y-50297000D02*
X106197800Y-51344999D01*
X105658200Y-65435400D02*
X113624200Y-73401400D01*
%TO.N,GPIO47*%
X110881000Y-71979000D02*
X110881000Y-71775800D01*
X105385000Y-50297000D02*
X105597800Y-50084200D01*
X105385000Y-51592114D02*
X105385000Y-50297000D01*
X105258200Y-51718914D02*
X105385000Y-51592114D01*
X110881000Y-71775800D02*
X105258200Y-66153000D01*
X105258200Y-66153000D02*
X105258200Y-51718914D01*
D16*
%TO.N,GPIO35*%
X111582200Y-67487800D02*
X109601000Y-65506600D01*
X109601000Y-56616349D02*
X108252099Y-55267448D01*
X108252099Y-55267448D02*
X108252099Y-47825499D01*
X108252099Y-47825499D02*
X108051600Y-47625000D01*
X111582200Y-67868800D02*
X111582200Y-67487800D01*
X109601000Y-65506600D02*
X109601000Y-56616349D01*
D17*
%TO.N,GPIO26*%
X104785000Y-51811400D02*
X104858200Y-51884600D01*
X104858200Y-67226200D02*
X113624200Y-75992200D01*
X104785000Y-50084200D02*
X104785000Y-51811400D01*
X104858200Y-51884600D02*
X104858200Y-67226200D01*
%TO.N,GPIO34*%
X107817000Y-65105000D02*
X113624200Y-70912200D01*
X107325000Y-50084200D02*
X107325000Y-50251671D01*
X107772600Y-50699271D02*
X107772600Y-51196329D01*
X107772600Y-51196329D02*
X106857800Y-52111129D01*
X107817000Y-57493185D02*
X107817000Y-65105000D01*
X107325000Y-50251671D02*
X107772600Y-50699271D01*
X106857800Y-56533985D02*
X107817000Y-57493185D01*
X106857800Y-52111129D02*
X106857800Y-56533985D01*
D18*
%TO.N,D-*%
X102997142Y-85975996D02*
X101748696Y-85975996D01*
X101748696Y-85975996D02*
X101738500Y-85965800D01*
%TO.N,D+*%
X103494003Y-85429497D02*
X102305302Y-85429497D01*
X103516500Y-85407000D02*
X103494003Y-85429497D01*
%TD*%
%TA.AperFunction,Conductor*%
%TO.N,GND*%
G36*
X103383184Y-51256636D02*
G01*
X103392393Y-51265699D01*
X103453872Y-51336650D01*
X103574947Y-51414460D01*
X103713039Y-51455007D01*
X103856961Y-51455007D01*
X103979975Y-51418887D01*
X104035646Y-51422425D01*
X104076018Y-51460921D01*
X104084500Y-51497134D01*
X104084500Y-52016652D01*
X104104977Y-52093071D01*
X104104978Y-52093072D01*
X104117974Y-52115581D01*
X104128900Y-52156357D01*
X104128900Y-55470127D01*
X104109821Y-55522546D01*
X104061511Y-55550438D01*
X104024375Y-55548374D01*
X103881761Y-55506500D01*
X103737839Y-55506500D01*
X103599745Y-55547047D01*
X103478674Y-55624855D01*
X103478672Y-55624856D01*
X103478672Y-55624857D01*
X103447525Y-55660803D01*
X103384423Y-55733627D01*
X103384421Y-55733630D01*
X103324636Y-55864539D01*
X103324634Y-55864544D01*
X103304153Y-56007000D01*
X103324634Y-56149455D01*
X103324636Y-56149460D01*
X103343214Y-56190139D01*
X103384423Y-56280373D01*
X103478672Y-56389143D01*
X103599747Y-56466953D01*
X103737839Y-56507500D01*
X103881759Y-56507500D01*
X103881761Y-56507500D01*
X104019853Y-56466953D01*
X104019857Y-56466950D01*
X104024374Y-56465624D01*
X104080046Y-56469162D01*
X104120418Y-56507657D01*
X104128900Y-56543871D01*
X104128900Y-69376967D01*
X104149377Y-69453386D01*
X104149379Y-69453391D01*
X104188937Y-69521907D01*
X104188938Y-69521908D01*
X104188940Y-69521911D01*
X108501372Y-73834343D01*
X112660231Y-77993202D01*
X112683806Y-78043759D01*
X112674487Y-78089309D01*
X112659767Y-78116847D01*
X112599700Y-78314867D01*
X112599698Y-78314877D01*
X112579417Y-78520796D01*
X112579417Y-78520803D01*
X112599698Y-78726722D01*
X112599699Y-78726730D01*
X112599700Y-78726734D01*
X112659768Y-78924754D01*
X112757315Y-79107250D01*
X112757317Y-79107253D01*
X112888586Y-79267206D01*
X112888593Y-79267213D01*
X113048546Y-79398482D01*
X113048550Y-79398485D01*
X113231046Y-79496032D01*
X113429066Y-79556100D01*
X113474413Y-79560566D01*
X113634997Y-79576383D01*
X113635000Y-79576383D01*
X113635003Y-79576383D01*
X113762455Y-79563829D01*
X113840934Y-79556100D01*
X114038954Y-79496032D01*
X114221450Y-79398485D01*
X114381410Y-79267210D01*
X114412310Y-79229557D01*
X114460313Y-79201140D01*
X114515352Y-79210227D01*
X114551673Y-79252565D01*
X114556900Y-79281292D01*
X114556900Y-80300307D01*
X114537821Y-80352726D01*
X114489511Y-80380618D01*
X114434575Y-80370931D01*
X114412311Y-80352042D01*
X114381413Y-80314393D01*
X114381406Y-80314386D01*
X114221453Y-80183117D01*
X114221451Y-80183116D01*
X114221450Y-80183115D01*
X114038954Y-80085568D01*
X114038951Y-80085567D01*
X114038949Y-80085566D01*
X113933064Y-80053447D01*
X113840934Y-80025500D01*
X113840930Y-80025499D01*
X113840922Y-80025498D01*
X113635003Y-80005217D01*
X113634997Y-80005217D01*
X113429077Y-80025498D01*
X113429067Y-80025499D01*
X113429066Y-80025500D01*
X113373958Y-80042216D01*
X113231050Y-80085566D01*
X113231046Y-80085567D01*
X113231046Y-80085568D01*
X113145572Y-80131255D01*
X113048546Y-80183117D01*
X112888593Y-80314386D01*
X112888586Y-80314393D01*
X112757317Y-80474346D01*
X112659766Y-80656850D01*
X112599700Y-80854867D01*
X112599698Y-80854877D01*
X112579417Y-81060796D01*
X112579417Y-81060803D01*
X112599698Y-81266722D01*
X112599699Y-81266730D01*
X112599700Y-81266734D01*
X112623614Y-81345569D01*
X112656609Y-81454343D01*
X112659768Y-81464754D01*
X112695794Y-81532153D01*
X112757317Y-81647253D01*
X112888586Y-81807206D01*
X112888593Y-81807213D01*
X113048546Y-81938482D01*
X113048550Y-81938485D01*
X113231046Y-82036032D01*
X113429066Y-82096100D01*
X113474413Y-82100566D01*
X113634997Y-82116383D01*
X113635000Y-82116383D01*
X113635003Y-82116383D01*
X113762455Y-82103829D01*
X113840934Y-82096100D01*
X114038954Y-82036032D01*
X114221450Y-81938485D01*
X114381410Y-81807210D01*
X114412310Y-81769557D01*
X114460313Y-81741140D01*
X114515352Y-81750227D01*
X114551673Y-81792565D01*
X114556900Y-81821292D01*
X114556900Y-82840307D01*
X114537821Y-82892726D01*
X114489511Y-82920618D01*
X114434575Y-82910931D01*
X114412311Y-82892042D01*
X114381413Y-82854393D01*
X114381406Y-82854386D01*
X114221453Y-82723117D01*
X114221451Y-82723116D01*
X114221450Y-82723115D01*
X114038954Y-82625568D01*
X114038951Y-82625567D01*
X114038949Y-82625566D01*
X113951149Y-82598933D01*
X113840934Y-82565500D01*
X113840930Y-82565499D01*
X113840922Y-82565498D01*
X113635003Y-82545217D01*
X113634997Y-82545217D01*
X113429077Y-82565498D01*
X113429067Y-82565499D01*
X113429066Y-82565500D01*
X113373958Y-82582216D01*
X113231050Y-82625566D01*
X113231046Y-82625567D01*
X113231046Y-82625568D01*
X113176919Y-82654500D01*
X113048546Y-82723117D01*
X112888593Y-82854386D01*
X112888586Y-82854393D01*
X112757317Y-83014346D01*
X112659766Y-83196850D01*
X112628449Y-83300092D01*
X112603511Y-83382305D01*
X112599700Y-83394867D01*
X112599698Y-83394877D01*
X112579417Y-83600796D01*
X112579417Y-83600803D01*
X112599698Y-83806722D01*
X112599699Y-83806730D01*
X112599700Y-83806734D01*
X112659768Y-84004754D01*
X112713100Y-84104530D01*
X112757317Y-84187253D01*
X112888586Y-84347206D01*
X112888593Y-84347213D01*
X113048546Y-84478482D01*
X113048550Y-84478485D01*
X113231046Y-84576032D01*
X113429066Y-84636100D01*
X113474413Y-84640566D01*
X113634997Y-84656383D01*
X113635000Y-84656383D01*
X113635003Y-84656383D01*
X113762455Y-84643829D01*
X113840934Y-84636100D01*
X114038954Y-84576032D01*
X114221450Y-84478485D01*
X114381410Y-84347210D01*
X114412310Y-84309557D01*
X114460313Y-84281140D01*
X114515352Y-84290227D01*
X114551673Y-84332565D01*
X114556900Y-84361292D01*
X114556900Y-85380307D01*
X114537821Y-85432726D01*
X114489511Y-85460618D01*
X114434575Y-85450931D01*
X114412311Y-85432042D01*
X114381413Y-85394393D01*
X114381406Y-85394386D01*
X114221453Y-85263117D01*
X114221451Y-85263116D01*
X114221450Y-85263115D01*
X114038954Y-85165568D01*
X114038951Y-85165567D01*
X114038949Y-85165566D01*
X113951149Y-85138933D01*
X113840934Y-85105500D01*
X113840930Y-85105499D01*
X113840922Y-85105498D01*
X113635003Y-85085217D01*
X113634997Y-85085217D01*
X113429077Y-85105498D01*
X113429067Y-85105499D01*
X113429066Y-85105500D01*
X113373958Y-85122216D01*
X113231050Y-85165566D01*
X113231046Y-85165567D01*
X113231046Y-85165568D01*
X113197616Y-85183437D01*
X113048546Y-85263117D01*
X112888593Y-85394386D01*
X112888586Y-85394393D01*
X112757317Y-85554346D01*
X112757315Y-85554350D01*
X112668912Y-85719740D01*
X112659766Y-85736850D01*
X112599700Y-85934867D01*
X112599698Y-85934877D01*
X112579417Y-86140796D01*
X112579417Y-86140803D01*
X112599698Y-86346722D01*
X112599699Y-86346730D01*
X112599700Y-86346734D01*
X112659768Y-86544754D01*
X112713100Y-86644530D01*
X112757317Y-86727253D01*
X112888586Y-86887206D01*
X112888593Y-86887213D01*
X113048546Y-87018482D01*
X113048550Y-87018485D01*
X113231046Y-87116032D01*
X113429066Y-87176100D01*
X113474413Y-87180566D01*
X113634997Y-87196383D01*
X113635000Y-87196383D01*
X113635003Y-87196383D01*
X113762455Y-87183829D01*
X113840934Y-87176100D01*
X114038954Y-87116032D01*
X114221450Y-87018485D01*
X114381410Y-86887210D01*
X114412310Y-86849557D01*
X114460313Y-86821140D01*
X114515352Y-86830227D01*
X114551673Y-86872565D01*
X114556900Y-86901292D01*
X114556900Y-87920307D01*
X114537821Y-87972726D01*
X114489511Y-88000618D01*
X114434575Y-87990931D01*
X114412311Y-87972042D01*
X114381413Y-87934393D01*
X114381406Y-87934386D01*
X114221453Y-87803117D01*
X114221451Y-87803116D01*
X114221450Y-87803115D01*
X114038954Y-87705568D01*
X114038951Y-87705567D01*
X114038949Y-87705566D01*
X113951149Y-87678933D01*
X113840934Y-87645500D01*
X113840930Y-87645499D01*
X113840922Y-87645498D01*
X113635003Y-87625217D01*
X113634997Y-87625217D01*
X113429077Y-87645498D01*
X113429067Y-87645499D01*
X113429066Y-87645500D01*
X113373958Y-87662216D01*
X113231050Y-87705566D01*
X113048546Y-87803117D01*
X112888593Y-87934386D01*
X112888586Y-87934393D01*
X112757317Y-88094346D01*
X112659766Y-88276850D01*
X112599700Y-88474867D01*
X112599698Y-88474877D01*
X112579417Y-88680796D01*
X112579417Y-88680803D01*
X112599698Y-88886722D01*
X112599699Y-88886730D01*
X112599700Y-88886734D01*
X112659768Y-89084754D01*
X112713100Y-89184530D01*
X112757317Y-89267253D01*
X112888586Y-89427206D01*
X112888593Y-89427213D01*
X113048546Y-89558482D01*
X113048550Y-89558485D01*
X113231046Y-89656032D01*
X113429066Y-89716100D01*
X113474413Y-89720566D01*
X113634997Y-89736383D01*
X113635000Y-89736383D01*
X113635003Y-89736383D01*
X113762455Y-89723829D01*
X113840934Y-89716100D01*
X114038954Y-89656032D01*
X114221450Y-89558485D01*
X114381410Y-89427210D01*
X114412310Y-89389557D01*
X114460313Y-89361140D01*
X114515352Y-89370227D01*
X114551673Y-89412565D01*
X114556900Y-89441292D01*
X114556900Y-91123350D01*
X114537821Y-91175769D01*
X114489511Y-91203661D01*
X114475350Y-91204900D01*
X89934650Y-91204900D01*
X89882231Y-91185821D01*
X89854339Y-91137511D01*
X89853100Y-91123350D01*
X89853100Y-86901292D01*
X89872179Y-86848873D01*
X89920489Y-86820981D01*
X89975425Y-86830668D01*
X89997690Y-86849558D01*
X90028587Y-86887207D01*
X90028593Y-86887213D01*
X90188546Y-87018482D01*
X90188550Y-87018485D01*
X90371046Y-87116032D01*
X90569066Y-87176100D01*
X90614413Y-87180566D01*
X90774997Y-87196383D01*
X90775000Y-87196383D01*
X90775003Y-87196383D01*
X90902455Y-87183829D01*
X90980934Y-87176100D01*
X91178954Y-87116032D01*
X91361450Y-87018485D01*
X91521410Y-86887210D01*
X91652685Y-86727250D01*
X91750232Y-86544754D01*
X91810300Y-86346734D01*
X91830583Y-86140800D01*
X91826980Y-86104222D01*
X91810301Y-85934877D01*
X91810300Y-85934866D01*
X91750232Y-85736846D01*
X91652685Y-85554350D01*
X91636993Y-85535229D01*
X91521413Y-85394393D01*
X91521406Y-85394386D01*
X91485389Y-85364828D01*
X99172350Y-85364828D01*
X99172350Y-85516371D01*
X99211567Y-85662732D01*
X99211569Y-85662737D01*
X99287332Y-85793961D01*
X99287333Y-85793962D01*
X99287335Y-85793965D01*
X99394485Y-85901115D01*
X99394487Y-85901116D01*
X99394488Y-85901117D01*
X99525712Y-85976880D01*
X99525717Y-85976882D01*
X99672078Y-86016099D01*
X99672082Y-86016099D01*
X99672084Y-86016100D01*
X99672085Y-86016100D01*
X99823615Y-86016100D01*
X99823616Y-86016100D01*
X99823617Y-86016099D01*
X99823621Y-86016099D01*
X99969982Y-85976882D01*
X99969983Y-85976881D01*
X99969985Y-85976881D01*
X99971522Y-85975994D01*
X99989178Y-85965800D01*
X101283367Y-85965800D01*
X101301802Y-86094024D01*
X101301804Y-86094029D01*
X101355616Y-86211859D01*
X101355620Y-86211866D01*
X101364455Y-86222062D01*
X101440451Y-86309767D01*
X101549431Y-86379804D01*
X101673728Y-86416300D01*
X101803272Y-86416300D01*
X101927569Y-86379804D01*
X101979046Y-86346722D01*
X102019318Y-86320841D01*
X102063407Y-86307895D01*
X102656369Y-86307895D01*
X102700458Y-86320841D01*
X102773966Y-86368081D01*
X102808073Y-86390000D01*
X102932370Y-86426496D01*
X103061914Y-86426496D01*
X103186211Y-86390000D01*
X103295191Y-86319963D01*
X103380024Y-86222059D01*
X103433839Y-86104222D01*
X103452275Y-85975996D01*
X103448632Y-85950655D01*
X103460057Y-85896054D01*
X103503907Y-85861571D01*
X103529352Y-85857500D01*
X103581272Y-85857500D01*
X103705569Y-85821004D01*
X103814549Y-85750967D01*
X103899382Y-85653063D01*
X103953197Y-85535226D01*
X103971633Y-85407000D01*
X103965570Y-85364828D01*
X104952350Y-85364828D01*
X104952350Y-85516371D01*
X104991567Y-85662732D01*
X104991569Y-85662737D01*
X105067332Y-85793961D01*
X105067333Y-85793962D01*
X105067335Y-85793965D01*
X105174485Y-85901115D01*
X105174487Y-85901116D01*
X105174488Y-85901117D01*
X105305712Y-85976880D01*
X105305717Y-85976882D01*
X105452078Y-86016099D01*
X105452082Y-86016099D01*
X105452084Y-86016100D01*
X105452085Y-86016100D01*
X105603615Y-86016100D01*
X105603616Y-86016100D01*
X105603617Y-86016099D01*
X105603621Y-86016099D01*
X105749982Y-85976882D01*
X105749983Y-85976881D01*
X105749985Y-85976881D01*
X105751522Y-85975994D01*
X105822757Y-85934866D01*
X105881215Y-85901115D01*
X105988365Y-85793965D01*
X106064131Y-85662735D01*
X106075091Y-85621832D01*
X106103349Y-85516371D01*
X106103350Y-85516364D01*
X106103350Y-85364835D01*
X106103349Y-85364828D01*
X106064132Y-85218467D01*
X106064130Y-85218462D01*
X105988367Y-85087238D01*
X105988366Y-85087237D01*
X105988365Y-85087235D01*
X105881215Y-84980085D01*
X105881212Y-84980083D01*
X105881211Y-84980082D01*
X105749987Y-84904319D01*
X105749982Y-84904317D01*
X105603621Y-84865100D01*
X105603616Y-84865100D01*
X105452084Y-84865100D01*
X105452078Y-84865100D01*
X105305717Y-84904317D01*
X105305712Y-84904319D01*
X105174488Y-84980082D01*
X105067332Y-85087238D01*
X104991569Y-85218462D01*
X104991567Y-85218467D01*
X104952350Y-85364828D01*
X103965570Y-85364828D01*
X103953197Y-85278774D01*
X103899382Y-85160937D01*
X103814549Y-85063033D01*
X103814548Y-85063032D01*
X103705569Y-84992996D01*
X103705570Y-84992996D01*
X103581272Y-84956500D01*
X103451728Y-84956500D01*
X103327429Y-84992996D01*
X103218454Y-85063030D01*
X103218451Y-85063032D01*
X103218451Y-85063033D01*
X103212887Y-85069453D01*
X103164142Y-85096574D01*
X103151258Y-85097598D01*
X102646075Y-85097598D01*
X102601986Y-85084652D01*
X102494371Y-85015493D01*
X102494372Y-85015493D01*
X102370074Y-84978997D01*
X102240530Y-84978997D01*
X102116231Y-85015493D01*
X102007253Y-85085529D01*
X102007252Y-85085529D01*
X101922422Y-85183430D01*
X101922418Y-85183437D01*
X101868606Y-85301267D01*
X101868604Y-85301272D01*
X101850169Y-85429497D01*
X101850169Y-85433750D01*
X101831090Y-85486169D01*
X101782780Y-85514061D01*
X101768619Y-85515300D01*
X101673728Y-85515300D01*
X101549429Y-85551796D01*
X101440451Y-85621832D01*
X101440450Y-85621832D01*
X101355620Y-85719733D01*
X101355616Y-85719740D01*
X101301804Y-85837570D01*
X101301802Y-85837575D01*
X101283367Y-85965800D01*
X99989178Y-85965800D01*
X100042757Y-85934866D01*
X100101215Y-85901115D01*
X100208365Y-85793965D01*
X100284131Y-85662735D01*
X100295091Y-85621832D01*
X100323349Y-85516371D01*
X100323350Y-85516364D01*
X100323350Y-85364835D01*
X100323349Y-85364828D01*
X100284132Y-85218467D01*
X100284130Y-85218462D01*
X100208367Y-85087238D01*
X100208366Y-85087237D01*
X100208365Y-85087235D01*
X100101215Y-84980085D01*
X100101212Y-84980083D01*
X100101211Y-84980082D01*
X99969987Y-84904319D01*
X99969982Y-84904317D01*
X99823621Y-84865100D01*
X99823616Y-84865100D01*
X99672084Y-84865100D01*
X99672078Y-84865100D01*
X99525717Y-84904317D01*
X99525712Y-84904319D01*
X99394488Y-84980082D01*
X99287332Y-85087238D01*
X99211569Y-85218462D01*
X99211567Y-85218467D01*
X99172350Y-85364828D01*
X91485389Y-85364828D01*
X91361453Y-85263117D01*
X91361451Y-85263116D01*
X91361450Y-85263115D01*
X91178954Y-85165568D01*
X91178951Y-85165567D01*
X91178949Y-85165566D01*
X91091149Y-85138933D01*
X90980934Y-85105500D01*
X90980930Y-85105499D01*
X90980922Y-85105498D01*
X90775003Y-85085217D01*
X90774997Y-85085217D01*
X90569077Y-85105498D01*
X90569067Y-85105499D01*
X90569066Y-85105500D01*
X90513958Y-85122216D01*
X90371050Y-85165566D01*
X90371046Y-85165567D01*
X90371046Y-85165568D01*
X90337616Y-85183437D01*
X90188546Y-85263117D01*
X90028593Y-85394386D01*
X90028586Y-85394393D01*
X89997689Y-85432042D01*
X89949686Y-85460459D01*
X89894648Y-85451372D01*
X89858327Y-85409033D01*
X89853100Y-85380307D01*
X89853100Y-84361292D01*
X89872179Y-84308873D01*
X89920489Y-84280981D01*
X89975425Y-84290668D01*
X89997690Y-84309558D01*
X90028587Y-84347207D01*
X90028593Y-84347213D01*
X90188546Y-84478482D01*
X90188550Y-84478485D01*
X90371046Y-84576032D01*
X90569066Y-84636100D01*
X90614413Y-84640566D01*
X90774997Y-84656383D01*
X90775000Y-84656383D01*
X90775003Y-84656383D01*
X90902455Y-84643829D01*
X90980934Y-84636100D01*
X91178954Y-84576032D01*
X91361450Y-84478485D01*
X91521410Y-84347210D01*
X91652685Y-84187250D01*
X91750232Y-84004754D01*
X91804090Y-83827204D01*
X91837562Y-83782584D01*
X91891888Y-83769916D01*
X91941647Y-83795132D01*
X91956306Y-83816999D01*
X91964423Y-83834773D01*
X92058672Y-83943543D01*
X92179747Y-84021353D01*
X92317839Y-84061900D01*
X92461761Y-84061900D01*
X92599853Y-84021353D01*
X92720928Y-83943543D01*
X92815177Y-83834773D01*
X92874965Y-83703857D01*
X92895447Y-83561400D01*
X92888012Y-83509693D01*
X92899436Y-83455095D01*
X92911063Y-83440428D01*
X93196491Y-83155000D01*
X98742153Y-83155000D01*
X98762634Y-83297455D01*
X98762636Y-83297460D01*
X98818116Y-83418943D01*
X98822423Y-83428373D01*
X98916672Y-83537143D01*
X99037747Y-83614953D01*
X99175839Y-83655500D01*
X99319761Y-83655500D01*
X99457853Y-83614953D01*
X99578928Y-83537143D01*
X99673177Y-83428373D01*
X99732965Y-83297457D01*
X99753447Y-83155000D01*
X99746143Y-83104200D01*
X101028153Y-83104200D01*
X101048634Y-83246655D01*
X101048636Y-83246660D01*
X101090007Y-83337248D01*
X101108423Y-83377573D01*
X101202672Y-83486343D01*
X101323747Y-83564153D01*
X101461839Y-83604700D01*
X101605761Y-83604700D01*
X101743853Y-83564153D01*
X101864928Y-83486343D01*
X101959177Y-83377573D01*
X102018965Y-83246657D01*
X102031764Y-83157635D01*
X105196388Y-83157635D01*
X105216869Y-83300090D01*
X105216871Y-83300095D01*
X105276656Y-83431004D01*
X105276658Y-83431008D01*
X105370907Y-83539778D01*
X105491982Y-83617588D01*
X105630074Y-83658135D01*
X105773996Y-83658135D01*
X105912088Y-83617588D01*
X106033163Y-83539778D01*
X106127412Y-83431008D01*
X106187200Y-83300092D01*
X106207682Y-83157635D01*
X106187200Y-83015178D01*
X106127412Y-82884262D01*
X106033163Y-82775492D01*
X105912088Y-82697682D01*
X105912089Y-82697682D01*
X105773996Y-82657135D01*
X105630074Y-82657135D01*
X105491980Y-82697682D01*
X105370909Y-82775490D01*
X105370907Y-82775491D01*
X105370907Y-82775492D01*
X105289854Y-82869033D01*
X105276658Y-82884262D01*
X105276656Y-82884265D01*
X105216871Y-83015174D01*
X105216869Y-83015179D01*
X105196388Y-83157635D01*
X102031764Y-83157635D01*
X102039447Y-83104200D01*
X102018965Y-82961743D01*
X101959177Y-82830827D01*
X101864928Y-82722057D01*
X101743853Y-82644247D01*
X101743854Y-82644247D01*
X101605761Y-82603700D01*
X101461839Y-82603700D01*
X101323745Y-82644247D01*
X101202674Y-82722055D01*
X101202672Y-82722056D01*
X101202672Y-82722057D01*
X101156371Y-82775492D01*
X101108423Y-82830827D01*
X101108421Y-82830830D01*
X101048636Y-82961739D01*
X101048634Y-82961744D01*
X101028153Y-83104200D01*
X99746143Y-83104200D01*
X99732965Y-83012543D01*
X99673177Y-82881627D01*
X99578928Y-82772857D01*
X99499881Y-82722057D01*
X99457853Y-82695047D01*
X99457854Y-82695047D01*
X99319761Y-82654500D01*
X99175839Y-82654500D01*
X99037745Y-82695047D01*
X98916674Y-82772855D01*
X98822423Y-82881627D01*
X98822421Y-82881630D01*
X98762636Y-83012539D01*
X98762634Y-83012544D01*
X98742153Y-83155000D01*
X93196491Y-83155000D01*
X95838094Y-80513400D01*
X100875753Y-80513400D01*
X100896234Y-80655855D01*
X100896236Y-80655860D01*
X100956021Y-80786769D01*
X100956023Y-80786773D01*
X101050272Y-80895543D01*
X101171347Y-80973353D01*
X101309439Y-81013900D01*
X101453361Y-81013900D01*
X101591453Y-80973353D01*
X101712528Y-80895543D01*
X101806777Y-80786773D01*
X101866565Y-80655857D01*
X101887047Y-80513400D01*
X101866565Y-80370943D01*
X101806777Y-80240027D01*
X101712528Y-80131257D01*
X101591453Y-80053447D01*
X101591454Y-80053447D01*
X101453361Y-80012900D01*
X101309439Y-80012900D01*
X101171345Y-80053447D01*
X101050274Y-80131255D01*
X101050272Y-80131256D01*
X101050272Y-80131257D01*
X100956023Y-80240027D01*
X100956021Y-80240030D01*
X100896236Y-80370939D01*
X100896234Y-80370944D01*
X100875753Y-80513400D01*
X95838094Y-80513400D01*
X96242097Y-80109397D01*
X96279360Y-80044853D01*
X96298650Y-79972863D01*
X96298650Y-79898336D01*
X96298650Y-67691422D01*
X96317729Y-67639003D01*
X96322524Y-67633768D01*
X98225692Y-65730600D01*
X99453353Y-65730600D01*
X99473834Y-65873055D01*
X99473836Y-65873060D01*
X99533621Y-66003969D01*
X99533623Y-66003973D01*
X99627872Y-66112743D01*
X99638487Y-66119564D01*
X99672271Y-66163951D01*
X99675950Y-66188169D01*
X99675950Y-72778269D01*
X99695238Y-72850249D01*
X99695239Y-72850252D01*
X99695240Y-72850253D01*
X99732504Y-72914797D01*
X101708759Y-74891052D01*
X103448231Y-76630524D01*
X103471806Y-76681081D01*
X103471286Y-76699793D01*
X103463853Y-76751498D01*
X103463853Y-76751499D01*
X103484334Y-76893955D01*
X103484335Y-76893957D01*
X103544123Y-77024873D01*
X103638372Y-77133643D01*
X103759447Y-77211453D01*
X103897539Y-77252000D01*
X104041461Y-77252000D01*
X104179553Y-77211453D01*
X104300628Y-77133643D01*
X104394877Y-77024873D01*
X104454665Y-76893957D01*
X104475147Y-76751500D01*
X104454665Y-76609043D01*
X104394877Y-76478127D01*
X104300628Y-76369357D01*
X104297223Y-76367169D01*
X104179553Y-76291547D01*
X104179554Y-76291547D01*
X104041461Y-76251000D01*
X103903073Y-76251000D01*
X103850654Y-76231921D01*
X103845408Y-76227115D01*
X100265935Y-72647642D01*
X100242360Y-72597085D01*
X100242050Y-72589977D01*
X100242050Y-66188169D01*
X100261129Y-66135750D01*
X100279509Y-66119566D01*
X100290128Y-66112743D01*
X100384377Y-66003973D01*
X100444165Y-65873057D01*
X100464647Y-65730600D01*
X100444165Y-65588143D01*
X100384377Y-65457227D01*
X100290128Y-65348457D01*
X100169053Y-65270647D01*
X100169054Y-65270647D01*
X100030961Y-65230100D01*
X99887039Y-65230100D01*
X99748945Y-65270647D01*
X99627874Y-65348455D01*
X99627872Y-65348456D01*
X99627872Y-65348457D01*
X99592432Y-65389357D01*
X99533623Y-65457227D01*
X99533621Y-65457230D01*
X99473836Y-65588139D01*
X99473834Y-65588144D01*
X99453353Y-65730600D01*
X98225692Y-65730600D01*
X100876307Y-63079984D01*
X100926864Y-63056410D01*
X100933972Y-63056100D01*
X101072361Y-63056100D01*
X101210453Y-63015553D01*
X101331528Y-62937743D01*
X101425777Y-62828973D01*
X101485565Y-62698057D01*
X101506047Y-62555600D01*
X101485565Y-62413143D01*
X101425777Y-62282227D01*
X101425774Y-62282223D01*
X101338268Y-62181234D01*
X101318360Y-62129124D01*
X101318350Y-62127831D01*
X101318350Y-61274908D01*
X101318349Y-61274901D01*
X101299061Y-61202921D01*
X101299060Y-61202920D01*
X101299060Y-61202918D01*
X101261796Y-61138374D01*
X101261794Y-61138372D01*
X101209097Y-61085674D01*
X101209097Y-61085675D01*
X100986635Y-60863213D01*
X100963060Y-60812656D01*
X100962750Y-60805548D01*
X100962750Y-52049227D01*
X100981829Y-51996808D01*
X101030139Y-51968916D01*
X101067273Y-51970979D01*
X101190289Y-52007100D01*
X101334211Y-52007100D01*
X101472303Y-51966553D01*
X101593378Y-51888743D01*
X101687627Y-51779973D01*
X101747415Y-51649057D01*
X101767897Y-51506600D01*
X101760462Y-51454893D01*
X101771886Y-51400294D01*
X101783513Y-51385628D01*
X101907701Y-51261442D01*
X101958258Y-51237867D01*
X101965365Y-51237557D01*
X103330765Y-51237557D01*
X103383184Y-51256636D01*
G37*
%TD.AperFunction*%
%TA.AperFunction,Conductor*%
G36*
X94967575Y-73086170D02*
G01*
X94999571Y-73131865D01*
X95002350Y-73152972D01*
X95002350Y-75587176D01*
X94983271Y-75639595D01*
X94978465Y-75644841D01*
X92564691Y-78058615D01*
X92514134Y-78082190D01*
X92507026Y-78082500D01*
X92368639Y-78082500D01*
X92230545Y-78123047D01*
X92109474Y-78200855D01*
X92109472Y-78200856D01*
X92109472Y-78200857D01*
X92018786Y-78305515D01*
X92015223Y-78309627D01*
X92015222Y-78309628D01*
X91971912Y-78404462D01*
X91932781Y-78444218D01*
X91877250Y-78449520D01*
X91831303Y-78417887D01*
X91816575Y-78378577D01*
X91810301Y-78314877D01*
X91810300Y-78314866D01*
X91750232Y-78116846D01*
X91652685Y-77934350D01*
X91575762Y-77840618D01*
X91521413Y-77774393D01*
X91521406Y-77774386D01*
X91361453Y-77643117D01*
X91361451Y-77643116D01*
X91361450Y-77643115D01*
X91178954Y-77545568D01*
X91178951Y-77545567D01*
X91178949Y-77545566D01*
X91091149Y-77518933D01*
X90980934Y-77485500D01*
X90980930Y-77485499D01*
X90980922Y-77485498D01*
X90775003Y-77465217D01*
X90774997Y-77465217D01*
X90569077Y-77485498D01*
X90569067Y-77485499D01*
X90569066Y-77485500D01*
X90513958Y-77502216D01*
X90371050Y-77545566D01*
X90188546Y-77643117D01*
X90028593Y-77774386D01*
X90028586Y-77774393D01*
X89997689Y-77812042D01*
X89949686Y-77840459D01*
X89894648Y-77831372D01*
X89858327Y-77789033D01*
X89853100Y-77760307D01*
X89853100Y-76741292D01*
X89872179Y-76688873D01*
X89920489Y-76660981D01*
X89975425Y-76670668D01*
X89997690Y-76689558D01*
X90028587Y-76727207D01*
X90028593Y-76727213D01*
X90188546Y-76858482D01*
X90188550Y-76858485D01*
X90371046Y-76956032D01*
X90569066Y-77016100D01*
X90614413Y-77020566D01*
X90774997Y-77036383D01*
X90775000Y-77036383D01*
X90775003Y-77036383D01*
X90902455Y-77023829D01*
X90980934Y-77016100D01*
X91178954Y-76956032D01*
X91361450Y-76858485D01*
X91521410Y-76727210D01*
X91652685Y-76567250D01*
X91750232Y-76384754D01*
X91797404Y-76229246D01*
X91830877Y-76184624D01*
X91885203Y-76171956D01*
X91934962Y-76197173D01*
X91951384Y-76231364D01*
X91953791Y-76230658D01*
X91955436Y-76236260D01*
X91980685Y-76291547D01*
X92015223Y-76367173D01*
X92109472Y-76475943D01*
X92230547Y-76553753D01*
X92368639Y-76594300D01*
X92512561Y-76594300D01*
X92650653Y-76553753D01*
X92771728Y-76475943D01*
X92865977Y-76367173D01*
X92925765Y-76236257D01*
X92946247Y-76093800D01*
X92925765Y-75951343D01*
X92865977Y-75820427D01*
X92771728Y-75711657D01*
X92761110Y-75704833D01*
X92727327Y-75660442D01*
X92723650Y-75636229D01*
X92723650Y-75268572D01*
X92742729Y-75216153D01*
X92747535Y-75210907D01*
X94863135Y-73095307D01*
X94913692Y-73071732D01*
X94967575Y-73086170D01*
G37*
%TD.AperFunction*%
%TA.AperFunction,Conductor*%
G36*
X104852225Y-67649127D02*
G01*
X104869115Y-67662086D01*
X112660231Y-75453202D01*
X112683806Y-75503759D01*
X112674487Y-75549309D01*
X112659767Y-75576847D01*
X112599700Y-75774867D01*
X112599698Y-75774877D01*
X112579417Y-75980796D01*
X112579417Y-75980803D01*
X112599698Y-76186722D01*
X112599699Y-76186730D01*
X112599700Y-76186734D01*
X112631494Y-76291547D01*
X112655096Y-76369355D01*
X112659768Y-76384754D01*
X112750101Y-76553753D01*
X112757317Y-76567253D01*
X112888586Y-76727206D01*
X112888593Y-76727213D01*
X113048546Y-76858482D01*
X113048550Y-76858485D01*
X113231046Y-76956032D01*
X113429066Y-77016100D01*
X113474413Y-77020566D01*
X113634997Y-77036383D01*
X113635000Y-77036383D01*
X113635003Y-77036383D01*
X113762455Y-77023829D01*
X113840934Y-77016100D01*
X114038954Y-76956032D01*
X114221450Y-76858485D01*
X114381410Y-76727210D01*
X114412310Y-76689557D01*
X114460313Y-76661140D01*
X114515352Y-76670227D01*
X114551673Y-76712565D01*
X114556900Y-76741292D01*
X114556900Y-77760307D01*
X114537821Y-77812726D01*
X114489511Y-77840618D01*
X114434575Y-77830931D01*
X114412311Y-77812042D01*
X114381413Y-77774393D01*
X114381406Y-77774386D01*
X114221453Y-77643117D01*
X114221451Y-77643116D01*
X114221450Y-77643115D01*
X114038954Y-77545568D01*
X114038951Y-77545567D01*
X114038949Y-77545566D01*
X113951149Y-77518933D01*
X113840934Y-77485500D01*
X113840930Y-77485499D01*
X113840922Y-77485498D01*
X113635003Y-77465217D01*
X113634997Y-77465217D01*
X113429077Y-77485498D01*
X113429067Y-77485499D01*
X113429066Y-77485500D01*
X113330056Y-77515534D01*
X113231045Y-77545568D01*
X113174573Y-77575752D01*
X113119349Y-77583635D01*
X113078467Y-77561496D01*
X104753785Y-69236814D01*
X104730210Y-69186257D01*
X104729900Y-69179149D01*
X104729900Y-67719751D01*
X104748979Y-67667332D01*
X104797289Y-67639440D01*
X104852225Y-67649127D01*
G37*
%TD.AperFunction*%
%TA.AperFunction,Conductor*%
G36*
X114531799Y-34563937D02*
G01*
X114555703Y-34605627D01*
X114556900Y-34619548D01*
X114556900Y-37120307D01*
X114537821Y-37172726D01*
X114489511Y-37200618D01*
X114434575Y-37190931D01*
X114412311Y-37172042D01*
X114381413Y-37134393D01*
X114381406Y-37134386D01*
X114221453Y-37003117D01*
X114221451Y-37003116D01*
X114221450Y-37003115D01*
X114038954Y-36905568D01*
X114038951Y-36905567D01*
X114038949Y-36905566D01*
X113951149Y-36878933D01*
X113840934Y-36845500D01*
X113840930Y-36845499D01*
X113840922Y-36845498D01*
X113635003Y-36825217D01*
X113634997Y-36825217D01*
X113429077Y-36845498D01*
X113429067Y-36845499D01*
X113429066Y-36845500D01*
X113373958Y-36862216D01*
X113231050Y-36905566D01*
X113048546Y-37003117D01*
X112888593Y-37134386D01*
X112888586Y-37134393D01*
X112757317Y-37294346D01*
X112659766Y-37476850D01*
X112623008Y-37598030D01*
X112613917Y-37628000D01*
X112599700Y-37674867D01*
X112599698Y-37674877D01*
X112579417Y-37880796D01*
X112579417Y-37880803D01*
X112599698Y-38086722D01*
X112599699Y-38086730D01*
X112599700Y-38086734D01*
X112617306Y-38144773D01*
X112650300Y-38253544D01*
X112659768Y-38284754D01*
X112713100Y-38384530D01*
X112757317Y-38467253D01*
X112888586Y-38627206D01*
X112888593Y-38627213D01*
X113045277Y-38755799D01*
X113048550Y-38758485D01*
X113231046Y-38856032D01*
X113429066Y-38916100D01*
X113474413Y-38920566D01*
X113634997Y-38936383D01*
X113635000Y-38936383D01*
X113635003Y-38936383D01*
X113762455Y-38923829D01*
X113840934Y-38916100D01*
X114038954Y-38856032D01*
X114221450Y-38758485D01*
X114381410Y-38627210D01*
X114412310Y-38589557D01*
X114460313Y-38561140D01*
X114515352Y-38570227D01*
X114551673Y-38612565D01*
X114556900Y-38641292D01*
X114556900Y-39660307D01*
X114537821Y-39712726D01*
X114489511Y-39740618D01*
X114434575Y-39730931D01*
X114412311Y-39712042D01*
X114381413Y-39674393D01*
X114381406Y-39674386D01*
X114221453Y-39543117D01*
X114221451Y-39543116D01*
X114221450Y-39543115D01*
X114038954Y-39445568D01*
X114038951Y-39445567D01*
X114038949Y-39445566D01*
X113951149Y-39418933D01*
X113840934Y-39385500D01*
X113840930Y-39385499D01*
X113840922Y-39385498D01*
X113635003Y-39365217D01*
X113634997Y-39365217D01*
X113429077Y-39385498D01*
X113429067Y-39385499D01*
X113429066Y-39385500D01*
X113373958Y-39402216D01*
X113231050Y-39445566D01*
X113048546Y-39543117D01*
X112888593Y-39674386D01*
X112888586Y-39674393D01*
X112757317Y-39834346D01*
X112659766Y-40016850D01*
X112599700Y-40214867D01*
X112599698Y-40214877D01*
X112579417Y-40420796D01*
X112579417Y-40420803D01*
X112599698Y-40626722D01*
X112599699Y-40626730D01*
X112599700Y-40626734D01*
X112659768Y-40824754D01*
X112713100Y-40924530D01*
X112757317Y-41007253D01*
X112888586Y-41167206D01*
X112888593Y-41167213D01*
X113048546Y-41298482D01*
X113048550Y-41298485D01*
X113231046Y-41396032D01*
X113429066Y-41456100D01*
X113474413Y-41460566D01*
X113634997Y-41476383D01*
X113635000Y-41476383D01*
X113635003Y-41476383D01*
X113762455Y-41463829D01*
X113840934Y-41456100D01*
X114038954Y-41396032D01*
X114221450Y-41298485D01*
X114381410Y-41167210D01*
X114412310Y-41129557D01*
X114460313Y-41101140D01*
X114515352Y-41110227D01*
X114551673Y-41152565D01*
X114556900Y-41181292D01*
X114556900Y-42200307D01*
X114537821Y-42252726D01*
X114489511Y-42280618D01*
X114434575Y-42270931D01*
X114412311Y-42252042D01*
X114381413Y-42214393D01*
X114381406Y-42214386D01*
X114221453Y-42083117D01*
X114221451Y-42083116D01*
X114221450Y-42083115D01*
X114038954Y-41985568D01*
X114038951Y-41985567D01*
X114038949Y-41985566D01*
X113951149Y-41958933D01*
X113840934Y-41925500D01*
X113840930Y-41925499D01*
X113840922Y-41925498D01*
X113635003Y-41905217D01*
X113634997Y-41905217D01*
X113429077Y-41925498D01*
X113429067Y-41925499D01*
X113429066Y-41925500D01*
X113373958Y-41942216D01*
X113231050Y-41985566D01*
X113048546Y-42083117D01*
X112888593Y-42214386D01*
X112888586Y-42214393D01*
X112757317Y-42374346D01*
X112659766Y-42556850D01*
X112599700Y-42754867D01*
X112599698Y-42754877D01*
X112579417Y-42960796D01*
X112579417Y-42960803D01*
X112599698Y-43166722D01*
X112599699Y-43166730D01*
X112599700Y-43166734D01*
X112659768Y-43364754D01*
X112713100Y-43464530D01*
X112757317Y-43547253D01*
X112888586Y-43707206D01*
X112888593Y-43707213D01*
X113048546Y-43838482D01*
X113048550Y-43838485D01*
X113231046Y-43936032D01*
X113429066Y-43996100D01*
X113474413Y-44000566D01*
X113634997Y-44016383D01*
X113635000Y-44016383D01*
X113635003Y-44016383D01*
X113762455Y-44003829D01*
X113840934Y-43996100D01*
X114038954Y-43936032D01*
X114221450Y-43838485D01*
X114381410Y-43707210D01*
X114412310Y-43669557D01*
X114460313Y-43641140D01*
X114515352Y-43650227D01*
X114551673Y-43692565D01*
X114556900Y-43721292D01*
X114556900Y-44740307D01*
X114537821Y-44792726D01*
X114489511Y-44820618D01*
X114434575Y-44810931D01*
X114412311Y-44792042D01*
X114381413Y-44754393D01*
X114381406Y-44754386D01*
X114221453Y-44623117D01*
X114221451Y-44623116D01*
X114221450Y-44623115D01*
X114038954Y-44525568D01*
X114038951Y-44525567D01*
X114038949Y-44525566D01*
X113951149Y-44498933D01*
X113840934Y-44465500D01*
X113840930Y-44465499D01*
X113840922Y-44465498D01*
X113635003Y-44445217D01*
X113634997Y-44445217D01*
X113429077Y-44465498D01*
X113429067Y-44465499D01*
X113429066Y-44465500D01*
X113373958Y-44482216D01*
X113231050Y-44525566D01*
X113048546Y-44623117D01*
X112888593Y-44754386D01*
X112888586Y-44754393D01*
X112757317Y-44914346D01*
X112659766Y-45096850D01*
X112599700Y-45294867D01*
X112599698Y-45294877D01*
X112579417Y-45500796D01*
X112579417Y-45500803D01*
X112599698Y-45706722D01*
X112599699Y-45706730D01*
X112599700Y-45706734D01*
X112659768Y-45904754D01*
X112713100Y-46004530D01*
X112757317Y-46087253D01*
X112888586Y-46247206D01*
X112888593Y-46247213D01*
X113048546Y-46378482D01*
X113048550Y-46378485D01*
X113231046Y-46476032D01*
X113429066Y-46536100D01*
X113474413Y-46540566D01*
X113634997Y-46556383D01*
X113635000Y-46556383D01*
X113635003Y-46556383D01*
X113762455Y-46543829D01*
X113840934Y-46536100D01*
X114038954Y-46476032D01*
X114221450Y-46378485D01*
X114381410Y-46247210D01*
X114412310Y-46209557D01*
X114460313Y-46181140D01*
X114515352Y-46190227D01*
X114551673Y-46232565D01*
X114556900Y-46261292D01*
X114556900Y-47280307D01*
X114537821Y-47332726D01*
X114489511Y-47360618D01*
X114434575Y-47350931D01*
X114412311Y-47332042D01*
X114381413Y-47294393D01*
X114381406Y-47294386D01*
X114221453Y-47163117D01*
X114221451Y-47163116D01*
X114221450Y-47163115D01*
X114038954Y-47065568D01*
X114038951Y-47065567D01*
X114038949Y-47065566D01*
X113951149Y-47038933D01*
X113840934Y-47005500D01*
X113840930Y-47005499D01*
X113840922Y-47005498D01*
X113635003Y-46985217D01*
X113634997Y-46985217D01*
X113429077Y-47005498D01*
X113429067Y-47005499D01*
X113429066Y-47005500D01*
X113373958Y-47022216D01*
X113231050Y-47065566D01*
X113048546Y-47163117D01*
X112888593Y-47294386D01*
X112888586Y-47294393D01*
X112757317Y-47454346D01*
X112659766Y-47636850D01*
X112599700Y-47834867D01*
X112599698Y-47834877D01*
X112579417Y-48040796D01*
X112579417Y-48040803D01*
X112599698Y-48246722D01*
X112599699Y-48246730D01*
X112599700Y-48246734D01*
X112659768Y-48444754D01*
X112713100Y-48544530D01*
X112757317Y-48627253D01*
X112888586Y-48787206D01*
X112888593Y-48787213D01*
X113048546Y-48918482D01*
X113048550Y-48918485D01*
X113231046Y-49016032D01*
X113429066Y-49076100D01*
X113474413Y-49080566D01*
X113634997Y-49096383D01*
X113635000Y-49096383D01*
X113635003Y-49096383D01*
X113762455Y-49083829D01*
X113840934Y-49076100D01*
X114038954Y-49016032D01*
X114221450Y-48918485D01*
X114381410Y-48787210D01*
X114412310Y-48749557D01*
X114460313Y-48721140D01*
X114515352Y-48730227D01*
X114551673Y-48772565D01*
X114556900Y-48801292D01*
X114556900Y-49820307D01*
X114537821Y-49872726D01*
X114489511Y-49900618D01*
X114434575Y-49890931D01*
X114412311Y-49872042D01*
X114381413Y-49834393D01*
X114381406Y-49834386D01*
X114221453Y-49703117D01*
X114221451Y-49703116D01*
X114221450Y-49703115D01*
X114038954Y-49605568D01*
X114038951Y-49605567D01*
X114038949Y-49605566D01*
X113951149Y-49578933D01*
X113840934Y-49545500D01*
X113840930Y-49545499D01*
X113840922Y-49545498D01*
X113635003Y-49525217D01*
X113634997Y-49525217D01*
X113429077Y-49545498D01*
X113429067Y-49545499D01*
X113429066Y-49545500D01*
X113373958Y-49562216D01*
X113231050Y-49605566D01*
X113231046Y-49605567D01*
X113231046Y-49605568D01*
X113176919Y-49634500D01*
X113048546Y-49703117D01*
X112888593Y-49834386D01*
X112888586Y-49834393D01*
X112757317Y-49994346D01*
X112659766Y-50176850D01*
X112599700Y-50374867D01*
X112599698Y-50374877D01*
X112579417Y-50580796D01*
X112579417Y-50580803D01*
X112599698Y-50786722D01*
X112599699Y-50786730D01*
X112599700Y-50786734D01*
X112611659Y-50826158D01*
X112658506Y-50980596D01*
X112659768Y-50984754D01*
X112711474Y-51081488D01*
X112757317Y-51167253D01*
X112888586Y-51327206D01*
X112888593Y-51327213D01*
X113044312Y-51455007D01*
X113048550Y-51458485D01*
X113231046Y-51556032D01*
X113429066Y-51616100D01*
X113474413Y-51620566D01*
X113634997Y-51636383D01*
X113635000Y-51636383D01*
X113635003Y-51636383D01*
X113783762Y-51621731D01*
X113840934Y-51616100D01*
X114038954Y-51556032D01*
X114221450Y-51458485D01*
X114381410Y-51327210D01*
X114412310Y-51289557D01*
X114460313Y-51261140D01*
X114515352Y-51270227D01*
X114551673Y-51312565D01*
X114556900Y-51341292D01*
X114556900Y-52360307D01*
X114537821Y-52412726D01*
X114489511Y-52440618D01*
X114434575Y-52430931D01*
X114412311Y-52412042D01*
X114381413Y-52374393D01*
X114381406Y-52374386D01*
X114221453Y-52243117D01*
X114221451Y-52243116D01*
X114221450Y-52243115D01*
X114038954Y-52145568D01*
X114038951Y-52145567D01*
X114038949Y-52145566D01*
X113940099Y-52115581D01*
X113840934Y-52085500D01*
X113840930Y-52085499D01*
X113840922Y-52085498D01*
X113635003Y-52065217D01*
X113634997Y-52065217D01*
X113429077Y-52085498D01*
X113429067Y-52085499D01*
X113429066Y-52085500D01*
X113404098Y-52093074D01*
X113231050Y-52145566D01*
X113231046Y-52145567D01*
X113231046Y-52145568D01*
X113139798Y-52194341D01*
X113048546Y-52243117D01*
X112888593Y-52374386D01*
X112888586Y-52374393D01*
X112757317Y-52534346D01*
X112659766Y-52716850D01*
X112599700Y-52914867D01*
X112599698Y-52914877D01*
X112579417Y-53120796D01*
X112579417Y-53120803D01*
X112599698Y-53326722D01*
X112599699Y-53326730D01*
X112599700Y-53326734D01*
X112659768Y-53524754D01*
X112720864Y-53639055D01*
X112757317Y-53707253D01*
X112888586Y-53867206D01*
X112888593Y-53867213D01*
X112954845Y-53921584D01*
X113048550Y-53998485D01*
X113231046Y-54096032D01*
X113429066Y-54156100D01*
X113474413Y-54160566D01*
X113634997Y-54176383D01*
X113635000Y-54176383D01*
X113635003Y-54176383D01*
X113764177Y-54163660D01*
X113840934Y-54156100D01*
X114038954Y-54096032D01*
X114221450Y-53998485D01*
X114381410Y-53867210D01*
X114412310Y-53829557D01*
X114460313Y-53801140D01*
X114515352Y-53810227D01*
X114551673Y-53852565D01*
X114556900Y-53881292D01*
X114556900Y-54900307D01*
X114537821Y-54952726D01*
X114489511Y-54980618D01*
X114434575Y-54970931D01*
X114412311Y-54952042D01*
X114381413Y-54914393D01*
X114381406Y-54914386D01*
X114221453Y-54783117D01*
X114221451Y-54783116D01*
X114221450Y-54783115D01*
X114038954Y-54685568D01*
X114038951Y-54685567D01*
X114038949Y-54685566D01*
X113951149Y-54658933D01*
X113840934Y-54625500D01*
X113840930Y-54625499D01*
X113840922Y-54625498D01*
X113635003Y-54605217D01*
X113634997Y-54605217D01*
X113429077Y-54625498D01*
X113429067Y-54625499D01*
X113429066Y-54625500D01*
X113373958Y-54642216D01*
X113231050Y-54685566D01*
X113048546Y-54783117D01*
X112888593Y-54914386D01*
X112888586Y-54914393D01*
X112757317Y-55074346D01*
X112659766Y-55256850D01*
X112599700Y-55454867D01*
X112599698Y-55454877D01*
X112579417Y-55660796D01*
X112579417Y-55660803D01*
X112599698Y-55866722D01*
X112599699Y-55866730D01*
X112599700Y-55866734D01*
X112659768Y-56064754D01*
X112726791Y-56190144D01*
X112757317Y-56247253D01*
X112888586Y-56407206D01*
X112888593Y-56407213D01*
X113033817Y-56526394D01*
X113048550Y-56538485D01*
X113231046Y-56636032D01*
X113429066Y-56696100D01*
X113474413Y-56700566D01*
X113634997Y-56716383D01*
X113635000Y-56716383D01*
X113635003Y-56716383D01*
X113762455Y-56703829D01*
X113840934Y-56696100D01*
X114038954Y-56636032D01*
X114221450Y-56538485D01*
X114381410Y-56407210D01*
X114412310Y-56369557D01*
X114460313Y-56341140D01*
X114515352Y-56350227D01*
X114551673Y-56392565D01*
X114556900Y-56421292D01*
X114556900Y-57440307D01*
X114537821Y-57492726D01*
X114489511Y-57520618D01*
X114434575Y-57510931D01*
X114412311Y-57492042D01*
X114381413Y-57454393D01*
X114381406Y-57454386D01*
X114221453Y-57323117D01*
X114221451Y-57323116D01*
X114221450Y-57323115D01*
X114038954Y-57225568D01*
X114038951Y-57225567D01*
X114038949Y-57225566D01*
X113951149Y-57198933D01*
X113840934Y-57165500D01*
X113840930Y-57165499D01*
X113840922Y-57165498D01*
X113635003Y-57145217D01*
X113634997Y-57145217D01*
X113429077Y-57165498D01*
X113429067Y-57165499D01*
X113429066Y-57165500D01*
X113373958Y-57182216D01*
X113231050Y-57225566D01*
X113048546Y-57323117D01*
X112888593Y-57454386D01*
X112888586Y-57454393D01*
X112757317Y-57614346D01*
X112659766Y-57796850D01*
X112599700Y-57994867D01*
X112599698Y-57994877D01*
X112579417Y-58200796D01*
X112579417Y-58200803D01*
X112599698Y-58406722D01*
X112599699Y-58406730D01*
X112599700Y-58406734D01*
X112659768Y-58604754D01*
X112713100Y-58704530D01*
X112757317Y-58787253D01*
X112888586Y-58947206D01*
X112888593Y-58947213D01*
X113048546Y-59078482D01*
X113048550Y-59078485D01*
X113231046Y-59176032D01*
X113429066Y-59236100D01*
X113474413Y-59240566D01*
X113634997Y-59256383D01*
X113635000Y-59256383D01*
X113635003Y-59256383D01*
X113762455Y-59243829D01*
X113840934Y-59236100D01*
X114038954Y-59176032D01*
X114221450Y-59078485D01*
X114381410Y-58947210D01*
X114412310Y-58909557D01*
X114460313Y-58881140D01*
X114515352Y-58890227D01*
X114551673Y-58932565D01*
X114556900Y-58961292D01*
X114556900Y-59980307D01*
X114537821Y-60032726D01*
X114489511Y-60060618D01*
X114434575Y-60050931D01*
X114412311Y-60032042D01*
X114381413Y-59994393D01*
X114381406Y-59994386D01*
X114221453Y-59863117D01*
X114221451Y-59863116D01*
X114221450Y-59863115D01*
X114038954Y-59765568D01*
X114038951Y-59765567D01*
X114038949Y-59765566D01*
X113951149Y-59738933D01*
X113840934Y-59705500D01*
X113840930Y-59705499D01*
X113840922Y-59705498D01*
X113635003Y-59685217D01*
X113634997Y-59685217D01*
X113429077Y-59705498D01*
X113429067Y-59705499D01*
X113429066Y-59705500D01*
X113373958Y-59722216D01*
X113231050Y-59765566D01*
X113048546Y-59863117D01*
X112888593Y-59994386D01*
X112888586Y-59994393D01*
X112757317Y-60154346D01*
X112659766Y-60336850D01*
X112599700Y-60534867D01*
X112599698Y-60534877D01*
X112579417Y-60740796D01*
X112579417Y-60740803D01*
X112599698Y-60946722D01*
X112599699Y-60946730D01*
X112599700Y-60946734D01*
X112633133Y-61056949D01*
X112657832Y-61138374D01*
X112659768Y-61144754D01*
X112757315Y-61327250D01*
X112757317Y-61327253D01*
X112888586Y-61487206D01*
X112888593Y-61487213D01*
X113009961Y-61586816D01*
X113048550Y-61618485D01*
X113231046Y-61716032D01*
X113429066Y-61776100D01*
X113474413Y-61780566D01*
X113634997Y-61796383D01*
X113635000Y-61796383D01*
X113635003Y-61796383D01*
X113762455Y-61783829D01*
X113840934Y-61776100D01*
X114038954Y-61716032D01*
X114221450Y-61618485D01*
X114381410Y-61487210D01*
X114412310Y-61449557D01*
X114460313Y-61421140D01*
X114515352Y-61430227D01*
X114551673Y-61472565D01*
X114556900Y-61501292D01*
X114556900Y-62520307D01*
X114537821Y-62572726D01*
X114489511Y-62600618D01*
X114434575Y-62590931D01*
X114412311Y-62572042D01*
X114381413Y-62534393D01*
X114381406Y-62534386D01*
X114221453Y-62403117D01*
X114221451Y-62403116D01*
X114221450Y-62403115D01*
X114038954Y-62305568D01*
X114038951Y-62305567D01*
X114038949Y-62305566D01*
X113951149Y-62278933D01*
X113840934Y-62245500D01*
X113840930Y-62245499D01*
X113840922Y-62245498D01*
X113635003Y-62225217D01*
X113634997Y-62225217D01*
X113429077Y-62245498D01*
X113429067Y-62245499D01*
X113429066Y-62245500D01*
X113373958Y-62262216D01*
X113231050Y-62305566D01*
X113048546Y-62403117D01*
X112888593Y-62534386D01*
X112888586Y-62534393D01*
X112757317Y-62694346D01*
X112659766Y-62876850D01*
X112599700Y-63074867D01*
X112599698Y-63074877D01*
X112579417Y-63280796D01*
X112579417Y-63280803D01*
X112599698Y-63486722D01*
X112599699Y-63486730D01*
X112599700Y-63486734D01*
X112614766Y-63536400D01*
X112657978Y-63678855D01*
X112659768Y-63684754D01*
X112746810Y-63847596D01*
X112757317Y-63867253D01*
X112888586Y-64027206D01*
X112888593Y-64027213D01*
X113048360Y-64158329D01*
X113048550Y-64158485D01*
X113231046Y-64256032D01*
X113429066Y-64316100D01*
X113474413Y-64320566D01*
X113634997Y-64336383D01*
X113635000Y-64336383D01*
X113635003Y-64336383D01*
X113762455Y-64323829D01*
X113840934Y-64316100D01*
X114038954Y-64256032D01*
X114221450Y-64158485D01*
X114381410Y-64027210D01*
X114412310Y-63989557D01*
X114460313Y-63961140D01*
X114515352Y-63970227D01*
X114551673Y-64012565D01*
X114556900Y-64041292D01*
X114556900Y-65060307D01*
X114537821Y-65112726D01*
X114489511Y-65140618D01*
X114434575Y-65130931D01*
X114412311Y-65112042D01*
X114381413Y-65074393D01*
X114381406Y-65074386D01*
X114221453Y-64943117D01*
X114221451Y-64943116D01*
X114221450Y-64943115D01*
X114038954Y-64845568D01*
X114038951Y-64845567D01*
X114038949Y-64845566D01*
X113951149Y-64818933D01*
X113840934Y-64785500D01*
X113840930Y-64785499D01*
X113840922Y-64785498D01*
X113635003Y-64765217D01*
X113634997Y-64765217D01*
X113429077Y-64785498D01*
X113429067Y-64785499D01*
X113429066Y-64785500D01*
X113373958Y-64802216D01*
X113231050Y-64845566D01*
X113048546Y-64943117D01*
X112888593Y-65074386D01*
X112888586Y-65074393D01*
X112757317Y-65234346D01*
X112757315Y-65234350D01*
X112661695Y-65413242D01*
X112659766Y-65416850D01*
X112617336Y-65556727D01*
X112601305Y-65609577D01*
X112599700Y-65614867D01*
X112599698Y-65614877D01*
X112579417Y-65820796D01*
X112579417Y-65820803D01*
X112599698Y-66026722D01*
X112599699Y-66026730D01*
X112599700Y-66026734D01*
X112606459Y-66049015D01*
X112658629Y-66221001D01*
X112659768Y-66224754D01*
X112724204Y-66345304D01*
X112757317Y-66407253D01*
X112888586Y-66567206D01*
X112888593Y-66567213D01*
X113020361Y-66675351D01*
X113048550Y-66698485D01*
X113231046Y-66796032D01*
X113429066Y-66856100D01*
X113474413Y-66860566D01*
X113634997Y-66876383D01*
X113635000Y-66876383D01*
X113635003Y-66876383D01*
X113762455Y-66863829D01*
X113840934Y-66856100D01*
X114038954Y-66796032D01*
X114221450Y-66698485D01*
X114381410Y-66567210D01*
X114412310Y-66529557D01*
X114460313Y-66501140D01*
X114515352Y-66510227D01*
X114551673Y-66552565D01*
X114556900Y-66581292D01*
X114556900Y-67600307D01*
X114537821Y-67652726D01*
X114489511Y-67680618D01*
X114434575Y-67670931D01*
X114412311Y-67652042D01*
X114381413Y-67614393D01*
X114381406Y-67614386D01*
X114221453Y-67483117D01*
X114221451Y-67483116D01*
X114221450Y-67483115D01*
X114038954Y-67385568D01*
X114038951Y-67385567D01*
X114038949Y-67385566D01*
X113951149Y-67358933D01*
X113840934Y-67325500D01*
X113840930Y-67325499D01*
X113840922Y-67325498D01*
X113635003Y-67305217D01*
X113634997Y-67305217D01*
X113429077Y-67325498D01*
X113429067Y-67325499D01*
X113429066Y-67325500D01*
X113373958Y-67342216D01*
X113231050Y-67385566D01*
X113231046Y-67385567D01*
X113231046Y-67385568D01*
X113148856Y-67429500D01*
X113048546Y-67483117D01*
X112888593Y-67614386D01*
X112888586Y-67614393D01*
X112757317Y-67774346D01*
X112659766Y-67956850D01*
X112642477Y-68013847D01*
X112603551Y-68142173D01*
X112599700Y-68154867D01*
X112599698Y-68154877D01*
X112579417Y-68360796D01*
X112579417Y-68360803D01*
X112599698Y-68566722D01*
X112599699Y-68566730D01*
X112599700Y-68566734D01*
X112633133Y-68676949D01*
X112654434Y-68747172D01*
X112659768Y-68764754D01*
X112750101Y-68933753D01*
X112757317Y-68947253D01*
X112888586Y-69107206D01*
X112888593Y-69107213D01*
X113046514Y-69236814D01*
X113048550Y-69238485D01*
X113231046Y-69336032D01*
X113429066Y-69396100D01*
X113474413Y-69400566D01*
X113634997Y-69416383D01*
X113635000Y-69416383D01*
X113635003Y-69416383D01*
X113762455Y-69403829D01*
X113840934Y-69396100D01*
X114038954Y-69336032D01*
X114221450Y-69238485D01*
X114381410Y-69107210D01*
X114412310Y-69069557D01*
X114460313Y-69041140D01*
X114515352Y-69050227D01*
X114551673Y-69092565D01*
X114556900Y-69121292D01*
X114556900Y-70140307D01*
X114537821Y-70192726D01*
X114489511Y-70220618D01*
X114434575Y-70210931D01*
X114412311Y-70192042D01*
X114381413Y-70154393D01*
X114381406Y-70154386D01*
X114221453Y-70023117D01*
X114221451Y-70023116D01*
X114221450Y-70023115D01*
X114038954Y-69925568D01*
X114038951Y-69925567D01*
X114038949Y-69925566D01*
X113951149Y-69898933D01*
X113840934Y-69865500D01*
X113840930Y-69865499D01*
X113840922Y-69865498D01*
X113635003Y-69845217D01*
X113634997Y-69845217D01*
X113429077Y-69865498D01*
X113429067Y-69865499D01*
X113429066Y-69865500D01*
X113330056Y-69895534D01*
X113231045Y-69925568D01*
X113174573Y-69955752D01*
X113119349Y-69963635D01*
X113078467Y-69941496D01*
X111637027Y-68500056D01*
X111613452Y-68449499D01*
X111627890Y-68395616D01*
X111671715Y-68364145D01*
X111792253Y-68328753D01*
X111913328Y-68250943D01*
X112007577Y-68142173D01*
X112067365Y-68011257D01*
X112087847Y-67868800D01*
X112067365Y-67726343D01*
X112007577Y-67595427D01*
X111913328Y-67486657D01*
X111904126Y-67480743D01*
X111893463Y-67473890D01*
X111859680Y-67429500D01*
X111858781Y-67426393D01*
X111845961Y-67378550D01*
X111845960Y-67378549D01*
X111845960Y-67378547D01*
X111808696Y-67314003D01*
X111799910Y-67305217D01*
X111755997Y-67261303D01*
X111755997Y-67261304D01*
X111709925Y-67215232D01*
X111686350Y-67164675D01*
X111700788Y-67110792D01*
X111741805Y-67081342D01*
X111741672Y-67081051D01*
X111743152Y-67080374D01*
X111744623Y-67079318D01*
X111746979Y-67078627D01*
X111868054Y-67000817D01*
X111962303Y-66892047D01*
X112022091Y-66761131D01*
X112042573Y-66618674D01*
X112022091Y-66476217D01*
X111962303Y-66345301D01*
X111868054Y-66236531D01*
X111746979Y-66158721D01*
X111746980Y-66158721D01*
X111608887Y-66118174D01*
X111489600Y-66118174D01*
X111437181Y-66099095D01*
X111409289Y-66050785D01*
X111408050Y-66036624D01*
X111408050Y-38047821D01*
X111427129Y-37995402D01*
X111431913Y-37990179D01*
X111770208Y-37651884D01*
X111820763Y-37628310D01*
X111827871Y-37628000D01*
X111966261Y-37628000D01*
X112104353Y-37587453D01*
X112225428Y-37509643D01*
X112319677Y-37400873D01*
X112379465Y-37269957D01*
X112399947Y-37127500D01*
X112379465Y-36985043D01*
X112319677Y-36854127D01*
X112225428Y-36745357D01*
X112104353Y-36667547D01*
X112104354Y-36667547D01*
X111966261Y-36627000D01*
X111822339Y-36627000D01*
X111684245Y-36667547D01*
X111563174Y-36745355D01*
X111563172Y-36745356D01*
X111563172Y-36745357D01*
X111476400Y-36845498D01*
X111468923Y-36854127D01*
X111468921Y-36854130D01*
X111409136Y-36985039D01*
X111409134Y-36985044D01*
X111388653Y-37127500D01*
X111388653Y-37127501D01*
X111396086Y-37179206D01*
X111384660Y-37233807D01*
X111373031Y-37248474D01*
X110951203Y-37670303D01*
X110898505Y-37723001D01*
X110861238Y-37787550D01*
X110841950Y-37859530D01*
X110841950Y-66150377D01*
X110822871Y-66202796D01*
X110774561Y-66230688D01*
X110719625Y-66221001D01*
X110702735Y-66208042D01*
X109907935Y-65413242D01*
X109884360Y-65362685D01*
X109884050Y-65355577D01*
X109884050Y-56579086D01*
X109884049Y-56579079D01*
X109864761Y-56507099D01*
X109864760Y-56507098D01*
X109864760Y-56507096D01*
X109827496Y-56442552D01*
X109806236Y-56421292D01*
X109774797Y-56389852D01*
X109774797Y-56389853D01*
X108559034Y-55174090D01*
X108535459Y-55123533D01*
X108535149Y-55116425D01*
X108535149Y-47784530D01*
X108535979Y-47772924D01*
X108536765Y-47767455D01*
X108557247Y-47625000D01*
X108536765Y-47482543D01*
X108476977Y-47351627D01*
X108382728Y-47242857D01*
X108261653Y-47165047D01*
X108261654Y-47165047D01*
X108123561Y-47124500D01*
X107979639Y-47124500D01*
X107841545Y-47165047D01*
X107720474Y-47242855D01*
X107626223Y-47351627D01*
X107626221Y-47351630D01*
X107566436Y-47482539D01*
X107566434Y-47482544D01*
X107545953Y-47625000D01*
X107566434Y-47767455D01*
X107566436Y-47767460D01*
X107570962Y-47777370D01*
X107626223Y-47898373D01*
X107720472Y-48007143D01*
X107841547Y-48084953D01*
X107910473Y-48105191D01*
X107955395Y-48138265D01*
X107969049Y-48183438D01*
X107969049Y-49915660D01*
X107949970Y-49968079D01*
X107901660Y-49995971D01*
X107846724Y-49986284D01*
X107813464Y-49946647D01*
X107812588Y-49947048D01*
X107811139Y-49943877D01*
X107810867Y-49943552D01*
X107810548Y-49942582D01*
X107798253Y-49915660D01*
X107750377Y-49810827D01*
X107656128Y-49702057D01*
X107535053Y-49624247D01*
X107535054Y-49624247D01*
X107396961Y-49583700D01*
X107253039Y-49583700D01*
X107114945Y-49624247D01*
X106993872Y-49702056D01*
X106993871Y-49702057D01*
X106929431Y-49776425D01*
X106880685Y-49803547D01*
X106825910Y-49792989D01*
X106806169Y-49776425D01*
X106741728Y-49702057D01*
X106741727Y-49702056D01*
X106620653Y-49624247D01*
X106620654Y-49624247D01*
X106482561Y-49583700D01*
X106338639Y-49583700D01*
X106200545Y-49624247D01*
X106079472Y-49702056D01*
X106079469Y-49702058D01*
X106065830Y-49717799D01*
X106017083Y-49744920D01*
X105962308Y-49734362D01*
X105942570Y-49717799D01*
X105928930Y-49702058D01*
X105928927Y-49702056D01*
X105807853Y-49624247D01*
X105807854Y-49624247D01*
X105669761Y-49583700D01*
X105525839Y-49583700D01*
X105387745Y-49624247D01*
X105266672Y-49702056D01*
X105266669Y-49702058D01*
X105253030Y-49717799D01*
X105204283Y-49744920D01*
X105149508Y-49734362D01*
X105129770Y-49717799D01*
X105116130Y-49702058D01*
X105116127Y-49702056D01*
X104995053Y-49624247D01*
X104995054Y-49624247D01*
X104856961Y-49583700D01*
X104713039Y-49583700D01*
X104574945Y-49624247D01*
X104453872Y-49702056D01*
X104453871Y-49702057D01*
X104414831Y-49747112D01*
X104366085Y-49774234D01*
X104311310Y-49763677D01*
X104291569Y-49747112D01*
X104252528Y-49702057D01*
X104252527Y-49702056D01*
X104131453Y-49624247D01*
X104131454Y-49624247D01*
X103993361Y-49583700D01*
X103849439Y-49583700D01*
X103711345Y-49624247D01*
X103590274Y-49702055D01*
X103590272Y-49702056D01*
X103590272Y-49702057D01*
X103532081Y-49769214D01*
X103496023Y-49810827D01*
X103496021Y-49810830D01*
X103436236Y-49941739D01*
X103436234Y-49941744D01*
X103415753Y-50084200D01*
X103436234Y-50226655D01*
X103436236Y-50226660D01*
X103496021Y-50357569D01*
X103496025Y-50357576D01*
X103538860Y-50407010D01*
X103558769Y-50459120D01*
X103540524Y-50511836D01*
X103521319Y-50529018D01*
X103453872Y-50572363D01*
X103415313Y-50616862D01*
X103392396Y-50643311D01*
X103343650Y-50670433D01*
X103330765Y-50671457D01*
X101777075Y-50671457D01*
X101750720Y-50678519D01*
X101695149Y-50673656D01*
X101655705Y-50634210D01*
X101650844Y-50578639D01*
X101651458Y-50576351D01*
X101664450Y-50527864D01*
X101665834Y-50522700D01*
X101668365Y-50523378D01*
X101689660Y-50482448D01*
X101700674Y-50473960D01*
X101712528Y-50466343D01*
X101806777Y-50357573D01*
X101866565Y-50226657D01*
X101887047Y-50084200D01*
X101866565Y-49941743D01*
X101806777Y-49810827D01*
X101712528Y-49702057D01*
X101591453Y-49624247D01*
X101591454Y-49624247D01*
X101453361Y-49583700D01*
X101309439Y-49583700D01*
X101171345Y-49624247D01*
X101050272Y-49702056D01*
X101050271Y-49702057D01*
X100957423Y-49809210D01*
X100908677Y-49836332D01*
X100853902Y-49825775D01*
X100834160Y-49809209D01*
X100798971Y-49768599D01*
X100785331Y-49752857D01*
X100785330Y-49752856D01*
X100664256Y-49675047D01*
X100664257Y-49675047D01*
X100526164Y-49634500D01*
X100382242Y-49634500D01*
X100244148Y-49675047D01*
X100123075Y-49752856D01*
X100123074Y-49752856D01*
X100115830Y-49761217D01*
X100067082Y-49788336D01*
X100012307Y-49777777D01*
X99992570Y-49761214D01*
X99985329Y-49752857D01*
X99985327Y-49752856D01*
X99864253Y-49675047D01*
X99864254Y-49675047D01*
X99726161Y-49634500D01*
X99582239Y-49634500D01*
X99444145Y-49675047D01*
X99323072Y-49752856D01*
X99323069Y-49752858D01*
X99309430Y-49768599D01*
X99260683Y-49795720D01*
X99205908Y-49785162D01*
X99186170Y-49768599D01*
X99172530Y-49752858D01*
X99172527Y-49752856D01*
X99051453Y-49675047D01*
X99051454Y-49675047D01*
X98913361Y-49634500D01*
X98769439Y-49634500D01*
X98631345Y-49675047D01*
X98510272Y-49752856D01*
X98510271Y-49752857D01*
X98435966Y-49838610D01*
X98387220Y-49865732D01*
X98332445Y-49855175D01*
X98312706Y-49838612D01*
X98245331Y-49760857D01*
X98220532Y-49744920D01*
X98124256Y-49683047D01*
X98124257Y-49683047D01*
X97986164Y-49642500D01*
X97842242Y-49642500D01*
X97704148Y-49683047D01*
X97583075Y-49760856D01*
X97583074Y-49760856D01*
X97575830Y-49769217D01*
X97527082Y-49796336D01*
X97472307Y-49785777D01*
X97452570Y-49769214D01*
X97445329Y-49760857D01*
X97445327Y-49760856D01*
X97324253Y-49683047D01*
X97324254Y-49683047D01*
X97186161Y-49642500D01*
X97042239Y-49642500D01*
X96904145Y-49683047D01*
X96783072Y-49760856D01*
X96783071Y-49760857D01*
X96744031Y-49805912D01*
X96695285Y-49833034D01*
X96640510Y-49822477D01*
X96620769Y-49805912D01*
X96581728Y-49760857D01*
X96581727Y-49760856D01*
X96460653Y-49683047D01*
X96460654Y-49683047D01*
X96322561Y-49642500D01*
X96178639Y-49642500D01*
X96040545Y-49683047D01*
X95919474Y-49760855D01*
X95919472Y-49760856D01*
X95919472Y-49760857D01*
X95863987Y-49824891D01*
X95825223Y-49869627D01*
X95825221Y-49869630D01*
X95765436Y-50000539D01*
X95765434Y-50000544D01*
X95744953Y-50143000D01*
X95765434Y-50285455D01*
X95765436Y-50285460D01*
X95820947Y-50407010D01*
X95825223Y-50416373D01*
X95919472Y-50525143D01*
X95930087Y-50531964D01*
X95963871Y-50576351D01*
X95967550Y-50600569D01*
X95967550Y-52022406D01*
X95948471Y-52074825D01*
X95943665Y-52080071D01*
X93818065Y-54205671D01*
X93767508Y-54229246D01*
X93713625Y-54214808D01*
X93681629Y-54169113D01*
X93678850Y-54148006D01*
X93678850Y-51208301D01*
X94508203Y-51208301D01*
X94528684Y-51350756D01*
X94528686Y-51350761D01*
X94588471Y-51481670D01*
X94588473Y-51481674D01*
X94682722Y-51590444D01*
X94803797Y-51668254D01*
X94941889Y-51708801D01*
X95085811Y-51708801D01*
X95223903Y-51668254D01*
X95344978Y-51590444D01*
X95439227Y-51481674D01*
X95499015Y-51350758D01*
X95519497Y-51208301D01*
X95499015Y-51065844D01*
X95439227Y-50934928D01*
X95344978Y-50826158D01*
X95223903Y-50748348D01*
X95223904Y-50748348D01*
X95085811Y-50707801D01*
X94941889Y-50707801D01*
X94803795Y-50748348D01*
X94682724Y-50826156D01*
X94682722Y-50826157D01*
X94682722Y-50826158D01*
X94662959Y-50848966D01*
X94588473Y-50934928D01*
X94588471Y-50934931D01*
X94528686Y-51065840D01*
X94528684Y-51065845D01*
X94508203Y-51208301D01*
X93678850Y-51208301D01*
X93678850Y-39572137D01*
X93678849Y-39572130D01*
X93659561Y-39500150D01*
X93659560Y-39500149D01*
X93659560Y-39500147D01*
X93622296Y-39435603D01*
X93622294Y-39435601D01*
X93569597Y-39382903D01*
X93569597Y-39382904D01*
X93063467Y-38876774D01*
X93039892Y-38826217D01*
X93040411Y-38807511D01*
X93047847Y-38755800D01*
X93027365Y-38613343D01*
X92967577Y-38482427D01*
X92873328Y-38373657D01*
X92752253Y-38295847D01*
X92752254Y-38295847D01*
X92614161Y-38255300D01*
X92470239Y-38255300D01*
X92332145Y-38295847D01*
X92211074Y-38373655D01*
X92116823Y-38482427D01*
X92116821Y-38482430D01*
X92057036Y-38613339D01*
X92057034Y-38613344D01*
X92036553Y-38755800D01*
X92057034Y-38898255D01*
X92057036Y-38898260D01*
X92116821Y-39029169D01*
X92116823Y-39029173D01*
X92211072Y-39137943D01*
X92332147Y-39215753D01*
X92470239Y-39256300D01*
X92608627Y-39256300D01*
X92661046Y-39275379D01*
X92666292Y-39280185D01*
X93088865Y-39702758D01*
X93112440Y-39753315D01*
X93112750Y-39760423D01*
X93112750Y-65609577D01*
X93093671Y-65661996D01*
X93088865Y-65667241D01*
X92707090Y-66049015D01*
X92656535Y-66072590D01*
X92649427Y-66072900D01*
X92511039Y-66072900D01*
X92372945Y-66113447D01*
X92251874Y-66191255D01*
X92251872Y-66191256D01*
X92251872Y-66191257D01*
X92237328Y-66208042D01*
X92157623Y-66300027D01*
X92157621Y-66300030D01*
X92097836Y-66430939D01*
X92097834Y-66430944D01*
X92077353Y-66573400D01*
X92097834Y-66715855D01*
X92097836Y-66715860D01*
X92157621Y-66846769D01*
X92157623Y-66846773D01*
X92251872Y-66955543D01*
X92372947Y-67033353D01*
X92511039Y-67073900D01*
X92654961Y-67073900D01*
X92793053Y-67033353D01*
X92914128Y-66955543D01*
X93008377Y-66846773D01*
X93068165Y-66715857D01*
X93088647Y-66573400D01*
X93081212Y-66521693D01*
X93092636Y-66467094D01*
X93104263Y-66452428D01*
X93380437Y-66176255D01*
X93430993Y-66152681D01*
X93484875Y-66167119D01*
X93516871Y-66212814D01*
X93519650Y-66233921D01*
X93519650Y-67011476D01*
X93500571Y-67063895D01*
X93495765Y-67069141D01*
X92615491Y-67949415D01*
X92564934Y-67972990D01*
X92557826Y-67973300D01*
X92419439Y-67973300D01*
X92281345Y-68013847D01*
X92160274Y-68091655D01*
X92160272Y-68091656D01*
X92160272Y-68091657D01*
X92116501Y-68142172D01*
X92066023Y-68200427D01*
X92066021Y-68200430D01*
X92006236Y-68331339D01*
X92006234Y-68331344D01*
X91985753Y-68473800D01*
X92006234Y-68616255D01*
X92006235Y-68616257D01*
X92066023Y-68747173D01*
X92160272Y-68855943D01*
X92281347Y-68933753D01*
X92419439Y-68974300D01*
X92563361Y-68974300D01*
X92701453Y-68933753D01*
X92822528Y-68855943D01*
X92916777Y-68747173D01*
X92976565Y-68616257D01*
X92997047Y-68473800D01*
X92989612Y-68422093D01*
X93001036Y-68367495D01*
X93012663Y-68352828D01*
X93745536Y-67619956D01*
X93796093Y-67596382D01*
X93849975Y-67610820D01*
X93881971Y-67656515D01*
X93884750Y-67677622D01*
X93884750Y-69033976D01*
X93865671Y-69086395D01*
X93860865Y-69091641D01*
X92564691Y-70387815D01*
X92514134Y-70411390D01*
X92507026Y-70411700D01*
X92368639Y-70411700D01*
X92230545Y-70452247D01*
X92109474Y-70530055D01*
X92015223Y-70638827D01*
X92015222Y-70638828D01*
X91967796Y-70742674D01*
X91928665Y-70782430D01*
X91873134Y-70787732D01*
X91827187Y-70756099D01*
X91812459Y-70716789D01*
X91810300Y-70694866D01*
X91750232Y-70496846D01*
X91652685Y-70314350D01*
X91597930Y-70247630D01*
X91521413Y-70154393D01*
X91521406Y-70154386D01*
X91361453Y-70023117D01*
X91361451Y-70023116D01*
X91361450Y-70023115D01*
X91178954Y-69925568D01*
X91178951Y-69925567D01*
X91178949Y-69925566D01*
X91091149Y-69898933D01*
X90980934Y-69865500D01*
X90980930Y-69865499D01*
X90980922Y-69865498D01*
X90775003Y-69845217D01*
X90774997Y-69845217D01*
X90569077Y-69865498D01*
X90569067Y-69865499D01*
X90569066Y-69865500D01*
X90513958Y-69882216D01*
X90371050Y-69925566D01*
X90188546Y-70023117D01*
X90028593Y-70154386D01*
X90028586Y-70154393D01*
X89997689Y-70192042D01*
X89949686Y-70220459D01*
X89894648Y-70211372D01*
X89858327Y-70169033D01*
X89853100Y-70140307D01*
X89853100Y-69121292D01*
X89872179Y-69068873D01*
X89920489Y-69040981D01*
X89975425Y-69050668D01*
X89997690Y-69069558D01*
X90028587Y-69107207D01*
X90028593Y-69107213D01*
X90186514Y-69236814D01*
X90188550Y-69238485D01*
X90371046Y-69336032D01*
X90569066Y-69396100D01*
X90614413Y-69400566D01*
X90774997Y-69416383D01*
X90775000Y-69416383D01*
X90775003Y-69416383D01*
X90902455Y-69403829D01*
X90980934Y-69396100D01*
X91178954Y-69336032D01*
X91361450Y-69238485D01*
X91521410Y-69107210D01*
X91652685Y-68947250D01*
X91750232Y-68764754D01*
X91810300Y-68566734D01*
X91829746Y-68369300D01*
X91830583Y-68360803D01*
X91830583Y-68360796D01*
X91810301Y-68154877D01*
X91810300Y-68154866D01*
X91750232Y-67956846D01*
X91652685Y-67774350D01*
X91607877Y-67719751D01*
X91521413Y-67614393D01*
X91521406Y-67614386D01*
X91361453Y-67483117D01*
X91361451Y-67483116D01*
X91361450Y-67483115D01*
X91178954Y-67385568D01*
X91178951Y-67385567D01*
X91178949Y-67385566D01*
X91091149Y-67358933D01*
X90980934Y-67325500D01*
X90980930Y-67325499D01*
X90980922Y-67325498D01*
X90775003Y-67305217D01*
X90774997Y-67305217D01*
X90569077Y-67325498D01*
X90569067Y-67325499D01*
X90569066Y-67325500D01*
X90513958Y-67342216D01*
X90371050Y-67385566D01*
X90371046Y-67385567D01*
X90371046Y-67385568D01*
X90288856Y-67429500D01*
X90188546Y-67483117D01*
X90028593Y-67614386D01*
X90028586Y-67614393D01*
X89997689Y-67652042D01*
X89949686Y-67680459D01*
X89894648Y-67671372D01*
X89858327Y-67629033D01*
X89853100Y-67600307D01*
X89853100Y-66581292D01*
X89872179Y-66528873D01*
X89920489Y-66500981D01*
X89975425Y-66510668D01*
X89997690Y-66529558D01*
X90028587Y-66567207D01*
X90028593Y-66567213D01*
X90160361Y-66675351D01*
X90188550Y-66698485D01*
X90371046Y-66796032D01*
X90569066Y-66856100D01*
X90614413Y-66860566D01*
X90774997Y-66876383D01*
X90775000Y-66876383D01*
X90775003Y-66876383D01*
X90902455Y-66863829D01*
X90980934Y-66856100D01*
X91178954Y-66796032D01*
X91361450Y-66698485D01*
X91521410Y-66567210D01*
X91652685Y-66407250D01*
X91750232Y-66224754D01*
X91810300Y-66026734D01*
X91824050Y-65887127D01*
X91830583Y-65820803D01*
X91830583Y-65820796D01*
X91810301Y-65614877D01*
X91810300Y-65614866D01*
X91750232Y-65416846D01*
X91652685Y-65234350D01*
X91594006Y-65162849D01*
X91521413Y-65074393D01*
X91521406Y-65074386D01*
X91361453Y-64943117D01*
X91361451Y-64943116D01*
X91361450Y-64943115D01*
X91178954Y-64845568D01*
X91178951Y-64845567D01*
X91178949Y-64845566D01*
X91091149Y-64818933D01*
X90980934Y-64785500D01*
X90980930Y-64785499D01*
X90980922Y-64785498D01*
X90775003Y-64765217D01*
X90774997Y-64765217D01*
X90569077Y-64785498D01*
X90569067Y-64785499D01*
X90569066Y-64785500D01*
X90513958Y-64802216D01*
X90371050Y-64845566D01*
X90188546Y-64943117D01*
X90028593Y-65074386D01*
X90028586Y-65074393D01*
X89997689Y-65112042D01*
X89949686Y-65140459D01*
X89894648Y-65131372D01*
X89858327Y-65089033D01*
X89853100Y-65060307D01*
X89853100Y-64041292D01*
X89872179Y-63988873D01*
X89920489Y-63960981D01*
X89975425Y-63970668D01*
X89997690Y-63989558D01*
X90028587Y-64027207D01*
X90028593Y-64027213D01*
X90188360Y-64158329D01*
X90188550Y-64158485D01*
X90371046Y-64256032D01*
X90569066Y-64316100D01*
X90614413Y-64320566D01*
X90774997Y-64336383D01*
X90775000Y-64336383D01*
X90775003Y-64336383D01*
X90902455Y-64323829D01*
X90980934Y-64316100D01*
X91178954Y-64256032D01*
X91361450Y-64158485D01*
X91521410Y-64027210D01*
X91652685Y-63867250D01*
X91750232Y-63684754D01*
X91810300Y-63486734D01*
X91830583Y-63280800D01*
X91828832Y-63263027D01*
X91810301Y-63074877D01*
X91810300Y-63074866D01*
X91750232Y-62876846D01*
X91652685Y-62694350D01*
X91638097Y-62676574D01*
X91521413Y-62534393D01*
X91521406Y-62534386D01*
X91361453Y-62403117D01*
X91361451Y-62403116D01*
X91361450Y-62403115D01*
X91178954Y-62305568D01*
X91178951Y-62305567D01*
X91178949Y-62305566D01*
X91091149Y-62278933D01*
X90980934Y-62245500D01*
X90980930Y-62245499D01*
X90980922Y-62245498D01*
X90775003Y-62225217D01*
X90774997Y-62225217D01*
X90569077Y-62245498D01*
X90569067Y-62245499D01*
X90569066Y-62245500D01*
X90513958Y-62262216D01*
X90371050Y-62305566D01*
X90188546Y-62403117D01*
X90028593Y-62534386D01*
X90028586Y-62534393D01*
X89997689Y-62572042D01*
X89949686Y-62600459D01*
X89894648Y-62591372D01*
X89858327Y-62549033D01*
X89853100Y-62520307D01*
X89853100Y-61501292D01*
X89872179Y-61448873D01*
X89920489Y-61420981D01*
X89975425Y-61430668D01*
X89997690Y-61449558D01*
X90028587Y-61487207D01*
X90028593Y-61487213D01*
X90149961Y-61586816D01*
X90188550Y-61618485D01*
X90371046Y-61716032D01*
X90569066Y-61776100D01*
X90614413Y-61780566D01*
X90774997Y-61796383D01*
X90775000Y-61796383D01*
X90775003Y-61796383D01*
X90902455Y-61783829D01*
X90980934Y-61776100D01*
X91178954Y-61716032D01*
X91361450Y-61618485D01*
X91521410Y-61487210D01*
X91652685Y-61327250D01*
X91750232Y-61144754D01*
X91810300Y-60946734D01*
X91830583Y-60740800D01*
X91810300Y-60534866D01*
X91750232Y-60336846D01*
X91652685Y-60154350D01*
X91575762Y-60060618D01*
X91521413Y-59994393D01*
X91521406Y-59994386D01*
X91361453Y-59863117D01*
X91361451Y-59863116D01*
X91361450Y-59863115D01*
X91178954Y-59765568D01*
X91178951Y-59765567D01*
X91178949Y-59765566D01*
X91091149Y-59738933D01*
X90980934Y-59705500D01*
X90980930Y-59705499D01*
X90980922Y-59705498D01*
X90775003Y-59685217D01*
X90774997Y-59685217D01*
X90569077Y-59705498D01*
X90569067Y-59705499D01*
X90569066Y-59705500D01*
X90513958Y-59722216D01*
X90371050Y-59765566D01*
X90188546Y-59863117D01*
X90028593Y-59994386D01*
X90028586Y-59994393D01*
X89997689Y-60032042D01*
X89949686Y-60060459D01*
X89894648Y-60051372D01*
X89858327Y-60009033D01*
X89853100Y-59980307D01*
X89853100Y-58961292D01*
X89872179Y-58908873D01*
X89920489Y-58880981D01*
X89975425Y-58890668D01*
X89997690Y-58909558D01*
X90028587Y-58947207D01*
X90028593Y-58947213D01*
X90188546Y-59078482D01*
X90188550Y-59078485D01*
X90371046Y-59176032D01*
X90569066Y-59236100D01*
X90614413Y-59240566D01*
X90774997Y-59256383D01*
X90775000Y-59256383D01*
X90775003Y-59256383D01*
X90902455Y-59243829D01*
X90980934Y-59236100D01*
X91178954Y-59176032D01*
X91361450Y-59078485D01*
X91521410Y-58947210D01*
X91652685Y-58787250D01*
X91750232Y-58604754D01*
X91810300Y-58406734D01*
X91830583Y-58200800D01*
X91810300Y-57994866D01*
X91750232Y-57796846D01*
X91652685Y-57614350D01*
X91575762Y-57520618D01*
X91521413Y-57454393D01*
X91521406Y-57454386D01*
X91361453Y-57323117D01*
X91361451Y-57323116D01*
X91361450Y-57323115D01*
X91178954Y-57225568D01*
X91178951Y-57225567D01*
X91178949Y-57225566D01*
X91091149Y-57198933D01*
X90980934Y-57165500D01*
X90980930Y-57165499D01*
X90980922Y-57165498D01*
X90775003Y-57145217D01*
X90774997Y-57145217D01*
X90569077Y-57165498D01*
X90569067Y-57165499D01*
X90569066Y-57165500D01*
X90513958Y-57182216D01*
X90371050Y-57225566D01*
X90188546Y-57323117D01*
X90028593Y-57454386D01*
X90028586Y-57454393D01*
X89997689Y-57492042D01*
X89949686Y-57520459D01*
X89894648Y-57511372D01*
X89858327Y-57469033D01*
X89853100Y-57440307D01*
X89853100Y-56421292D01*
X89872179Y-56368873D01*
X89920489Y-56340981D01*
X89975425Y-56350668D01*
X89997690Y-56369558D01*
X90028587Y-56407207D01*
X90028593Y-56407213D01*
X90173817Y-56526394D01*
X90188550Y-56538485D01*
X90371046Y-56636032D01*
X90569066Y-56696100D01*
X90614413Y-56700566D01*
X90774997Y-56716383D01*
X90775000Y-56716383D01*
X90775003Y-56716383D01*
X90902455Y-56703829D01*
X90980934Y-56696100D01*
X91178954Y-56636032D01*
X91361450Y-56538485D01*
X91521410Y-56407210D01*
X91652685Y-56247250D01*
X91750232Y-56064754D01*
X91810300Y-55866734D01*
X91830583Y-55660800D01*
X91810300Y-55454866D01*
X91750232Y-55256846D01*
X91652685Y-55074350D01*
X91575762Y-54980618D01*
X91521413Y-54914393D01*
X91521406Y-54914386D01*
X91361453Y-54783117D01*
X91361451Y-54783116D01*
X91361450Y-54783115D01*
X91178954Y-54685568D01*
X91178951Y-54685567D01*
X91178949Y-54685566D01*
X91091149Y-54658933D01*
X90980934Y-54625500D01*
X90980930Y-54625499D01*
X90980922Y-54625498D01*
X90775003Y-54605217D01*
X90774997Y-54605217D01*
X90569077Y-54625498D01*
X90569067Y-54625499D01*
X90569066Y-54625500D01*
X90513958Y-54642216D01*
X90371050Y-54685566D01*
X90188546Y-54783117D01*
X90028593Y-54914386D01*
X90028586Y-54914393D01*
X89997689Y-54952042D01*
X89949686Y-54980459D01*
X89894648Y-54971372D01*
X89858327Y-54929033D01*
X89853100Y-54900307D01*
X89853100Y-53881292D01*
X89872179Y-53828873D01*
X89920489Y-53800981D01*
X89975425Y-53810668D01*
X89997690Y-53829558D01*
X90028587Y-53867207D01*
X90028593Y-53867213D01*
X90094845Y-53921584D01*
X90188550Y-53998485D01*
X90371046Y-54096032D01*
X90569066Y-54156100D01*
X90614413Y-54160566D01*
X90774997Y-54176383D01*
X90775000Y-54176383D01*
X90775003Y-54176383D01*
X90904177Y-54163660D01*
X90980934Y-54156100D01*
X91178954Y-54096032D01*
X91361450Y-53998485D01*
X91521410Y-53867210D01*
X91652685Y-53707250D01*
X91750232Y-53524754D01*
X91810300Y-53326734D01*
X91830583Y-53120800D01*
X91810300Y-52914866D01*
X91750232Y-52716846D01*
X91652685Y-52534350D01*
X91575762Y-52440618D01*
X91521413Y-52374393D01*
X91521406Y-52374386D01*
X91361453Y-52243117D01*
X91361451Y-52243116D01*
X91361450Y-52243115D01*
X91178954Y-52145568D01*
X91178951Y-52145567D01*
X91178949Y-52145566D01*
X91080099Y-52115581D01*
X90980934Y-52085500D01*
X90980930Y-52085499D01*
X90980922Y-52085498D01*
X90775003Y-52065217D01*
X90774997Y-52065217D01*
X90569077Y-52085498D01*
X90569067Y-52085499D01*
X90569066Y-52085500D01*
X90544098Y-52093074D01*
X90371050Y-52145566D01*
X90371046Y-52145567D01*
X90371046Y-52145568D01*
X90279798Y-52194341D01*
X90188546Y-52243117D01*
X90028593Y-52374386D01*
X90028586Y-52374393D01*
X89997689Y-52412042D01*
X89949686Y-52440459D01*
X89894648Y-52431372D01*
X89858327Y-52389033D01*
X89853100Y-52360307D01*
X89853100Y-51341292D01*
X89872179Y-51288873D01*
X89920489Y-51260981D01*
X89975425Y-51270668D01*
X89997690Y-51289558D01*
X90028587Y-51327207D01*
X90028593Y-51327213D01*
X90184312Y-51455007D01*
X90188550Y-51458485D01*
X90371046Y-51556032D01*
X90569066Y-51616100D01*
X90614413Y-51620566D01*
X90774997Y-51636383D01*
X90775000Y-51636383D01*
X90775003Y-51636383D01*
X90923762Y-51621731D01*
X90980934Y-51616100D01*
X91178954Y-51556032D01*
X91361450Y-51458485D01*
X91521410Y-51327210D01*
X91652685Y-51167250D01*
X91750232Y-50984754D01*
X91810300Y-50786734D01*
X91821361Y-50674430D01*
X91830583Y-50580803D01*
X91830583Y-50580796D01*
X91810301Y-50374877D01*
X91810300Y-50374866D01*
X91750232Y-50176846D01*
X91652685Y-49994350D01*
X91652682Y-49994346D01*
X91521413Y-49834393D01*
X91521406Y-49834386D01*
X91361453Y-49703117D01*
X91361451Y-49703116D01*
X91361450Y-49703115D01*
X91178954Y-49605568D01*
X91178951Y-49605567D01*
X91178949Y-49605566D01*
X91091149Y-49578933D01*
X90980934Y-49545500D01*
X90980930Y-49545499D01*
X90980922Y-49545498D01*
X90775003Y-49525217D01*
X90774997Y-49525217D01*
X90569077Y-49545498D01*
X90569067Y-49545499D01*
X90569066Y-49545500D01*
X90513958Y-49562216D01*
X90371050Y-49605566D01*
X90371046Y-49605567D01*
X90371046Y-49605568D01*
X90316919Y-49634500D01*
X90188546Y-49703117D01*
X90028593Y-49834386D01*
X90028586Y-49834393D01*
X89997689Y-49872042D01*
X89949686Y-49900459D01*
X89894648Y-49891372D01*
X89858327Y-49849033D01*
X89853100Y-49820307D01*
X89853100Y-48801292D01*
X89872179Y-48748873D01*
X89920489Y-48720981D01*
X89975425Y-48730668D01*
X89997690Y-48749558D01*
X90028587Y-48787207D01*
X90028593Y-48787213D01*
X90188546Y-48918482D01*
X90188550Y-48918485D01*
X90371046Y-49016032D01*
X90569066Y-49076100D01*
X90614413Y-49080566D01*
X90774997Y-49096383D01*
X90775000Y-49096383D01*
X90775003Y-49096383D01*
X90902455Y-49083829D01*
X90980934Y-49076100D01*
X91178954Y-49016032D01*
X91361450Y-48918485D01*
X91521410Y-48787210D01*
X91652685Y-48627250D01*
X91750232Y-48444754D01*
X91810300Y-48246734D01*
X91826234Y-48084953D01*
X91830583Y-48040803D01*
X91830583Y-48040796D01*
X91810301Y-47834877D01*
X91810300Y-47834866D01*
X91750232Y-47636846D01*
X91652685Y-47454350D01*
X91575762Y-47360618D01*
X91521413Y-47294393D01*
X91521406Y-47294386D01*
X91361453Y-47163117D01*
X91361451Y-47163116D01*
X91361450Y-47163115D01*
X91178954Y-47065568D01*
X91178951Y-47065567D01*
X91178949Y-47065566D01*
X91091149Y-47038933D01*
X90980934Y-47005500D01*
X90980930Y-47005499D01*
X90980922Y-47005498D01*
X90775003Y-46985217D01*
X90774997Y-46985217D01*
X90569077Y-47005498D01*
X90569067Y-47005499D01*
X90569066Y-47005500D01*
X90513958Y-47022216D01*
X90371050Y-47065566D01*
X90188546Y-47163117D01*
X90028593Y-47294386D01*
X90028586Y-47294393D01*
X89997689Y-47332042D01*
X89949686Y-47360459D01*
X89894648Y-47351372D01*
X89858327Y-47309033D01*
X89853100Y-47280307D01*
X89853100Y-46261292D01*
X89872179Y-46208873D01*
X89920489Y-46180981D01*
X89975425Y-46190668D01*
X89997690Y-46209558D01*
X90028587Y-46247207D01*
X90028593Y-46247213D01*
X90188546Y-46378482D01*
X90188550Y-46378485D01*
X90371046Y-46476032D01*
X90569066Y-46536100D01*
X90614413Y-46540566D01*
X90774997Y-46556383D01*
X90775000Y-46556383D01*
X90775003Y-46556383D01*
X90902455Y-46543829D01*
X90980934Y-46536100D01*
X91178954Y-46476032D01*
X91361450Y-46378485D01*
X91521410Y-46247210D01*
X91652685Y-46087250D01*
X91750232Y-45904754D01*
X91810300Y-45706734D01*
X91830583Y-45500800D01*
X91810300Y-45294866D01*
X91750232Y-45096846D01*
X91652685Y-44914350D01*
X91575762Y-44820618D01*
X91521413Y-44754393D01*
X91521406Y-44754386D01*
X91361453Y-44623117D01*
X91361451Y-44623116D01*
X91361450Y-44623115D01*
X91178954Y-44525568D01*
X91178951Y-44525567D01*
X91178949Y-44525566D01*
X91091149Y-44498933D01*
X90980934Y-44465500D01*
X90980930Y-44465499D01*
X90980922Y-44465498D01*
X90775003Y-44445217D01*
X90774997Y-44445217D01*
X90569077Y-44465498D01*
X90569067Y-44465499D01*
X90569066Y-44465500D01*
X90513958Y-44482216D01*
X90371050Y-44525566D01*
X90188546Y-44623117D01*
X90028593Y-44754386D01*
X90028586Y-44754393D01*
X89997689Y-44792042D01*
X89949686Y-44820459D01*
X89894648Y-44811372D01*
X89858327Y-44769033D01*
X89853100Y-44740307D01*
X89853100Y-43721292D01*
X89872179Y-43668873D01*
X89920489Y-43640981D01*
X89975425Y-43650668D01*
X89997690Y-43669558D01*
X90028587Y-43707207D01*
X90028593Y-43707213D01*
X90188546Y-43838482D01*
X90188550Y-43838485D01*
X90371046Y-43936032D01*
X90569066Y-43996100D01*
X90614413Y-44000566D01*
X90774997Y-44016383D01*
X90775000Y-44016383D01*
X90775003Y-44016383D01*
X90902455Y-44003829D01*
X90980934Y-43996100D01*
X91178954Y-43936032D01*
X91361450Y-43838485D01*
X91521410Y-43707210D01*
X91652685Y-43547250D01*
X91750232Y-43364754D01*
X91810300Y-43166734D01*
X91830583Y-42960800D01*
X91810300Y-42754866D01*
X91750232Y-42556846D01*
X91652685Y-42374350D01*
X91575762Y-42280618D01*
X91521413Y-42214393D01*
X91521406Y-42214386D01*
X91361453Y-42083117D01*
X91361451Y-42083116D01*
X91361450Y-42083115D01*
X91178954Y-41985568D01*
X91178951Y-41985567D01*
X91178949Y-41985566D01*
X91091149Y-41958933D01*
X90980934Y-41925500D01*
X90980930Y-41925499D01*
X90980922Y-41925498D01*
X90775003Y-41905217D01*
X90774997Y-41905217D01*
X90569077Y-41925498D01*
X90569067Y-41925499D01*
X90569066Y-41925500D01*
X90513958Y-41942216D01*
X90371050Y-41985566D01*
X90188546Y-42083117D01*
X90028593Y-42214386D01*
X90028586Y-42214393D01*
X89997689Y-42252042D01*
X89949686Y-42280459D01*
X89894648Y-42271372D01*
X89858327Y-42229033D01*
X89853100Y-42200307D01*
X89853100Y-41181292D01*
X89872179Y-41128873D01*
X89920489Y-41100981D01*
X89975425Y-41110668D01*
X89997690Y-41129558D01*
X90028587Y-41167207D01*
X90028593Y-41167213D01*
X90188546Y-41298482D01*
X90188550Y-41298485D01*
X90371046Y-41396032D01*
X90569066Y-41456100D01*
X90614413Y-41460566D01*
X90774997Y-41476383D01*
X90775000Y-41476383D01*
X90775003Y-41476383D01*
X90902455Y-41463829D01*
X90980934Y-41456100D01*
X91178954Y-41396032D01*
X91361450Y-41298485D01*
X91521410Y-41167210D01*
X91652685Y-41007250D01*
X91750232Y-40824754D01*
X91810300Y-40626734D01*
X91830583Y-40420800D01*
X91810300Y-40214866D01*
X91750232Y-40016846D01*
X91652685Y-39834350D01*
X91575762Y-39740618D01*
X91521413Y-39674393D01*
X91521406Y-39674386D01*
X91361453Y-39543117D01*
X91361451Y-39543116D01*
X91361450Y-39543115D01*
X91178954Y-39445568D01*
X91178951Y-39445567D01*
X91178949Y-39445566D01*
X91091149Y-39418933D01*
X90980934Y-39385500D01*
X90980930Y-39385499D01*
X90980922Y-39385498D01*
X90775003Y-39365217D01*
X90774997Y-39365217D01*
X90569077Y-39385498D01*
X90569067Y-39385499D01*
X90569066Y-39385500D01*
X90513958Y-39402216D01*
X90371050Y-39445566D01*
X90188546Y-39543117D01*
X90028593Y-39674386D01*
X90028586Y-39674393D01*
X89997689Y-39712042D01*
X89949686Y-39740459D01*
X89894648Y-39731372D01*
X89858327Y-39689033D01*
X89853100Y-39660307D01*
X89853100Y-38641292D01*
X89872179Y-38588873D01*
X89920489Y-38560981D01*
X89975425Y-38570668D01*
X89997690Y-38589558D01*
X90028587Y-38627207D01*
X90028593Y-38627213D01*
X90185277Y-38755799D01*
X90188550Y-38758485D01*
X90371046Y-38856032D01*
X90569066Y-38916100D01*
X90614413Y-38920566D01*
X90774997Y-38936383D01*
X90775000Y-38936383D01*
X90775003Y-38936383D01*
X90902455Y-38923829D01*
X90980934Y-38916100D01*
X91178954Y-38856032D01*
X91361450Y-38758485D01*
X91521410Y-38627210D01*
X91652685Y-38467250D01*
X91750232Y-38284754D01*
X91810300Y-38086734D01*
X91830583Y-37880800D01*
X91829657Y-37871400D01*
X92849353Y-37871400D01*
X92869834Y-38013855D01*
X92869836Y-38013860D01*
X92903116Y-38086732D01*
X92929623Y-38144773D01*
X93023872Y-38253543D01*
X93144947Y-38331353D01*
X93283039Y-38371900D01*
X93426961Y-38371900D01*
X93565053Y-38331353D01*
X93686128Y-38253543D01*
X93780377Y-38144773D01*
X93840165Y-38013857D01*
X93860647Y-37871400D01*
X93840165Y-37728943D01*
X93780377Y-37598027D01*
X93686128Y-37489257D01*
X93565053Y-37411447D01*
X93565054Y-37411447D01*
X93426961Y-37370900D01*
X93283039Y-37370900D01*
X93144945Y-37411447D01*
X93023874Y-37489255D01*
X92929623Y-37598027D01*
X92929621Y-37598030D01*
X92869836Y-37728939D01*
X92869834Y-37728944D01*
X92849353Y-37871400D01*
X91829657Y-37871400D01*
X91810301Y-37674877D01*
X91810300Y-37674866D01*
X91750232Y-37476846D01*
X91652685Y-37294350D01*
X91632669Y-37269960D01*
X91521413Y-37134393D01*
X91521406Y-37134386D01*
X91361453Y-37003117D01*
X91361451Y-37003116D01*
X91361450Y-37003115D01*
X91178954Y-36905568D01*
X91178951Y-36905567D01*
X91178949Y-36905566D01*
X91091149Y-36878933D01*
X90980934Y-36845500D01*
X90980930Y-36845499D01*
X90980922Y-36845498D01*
X90775003Y-36825217D01*
X90774997Y-36825217D01*
X90569077Y-36845498D01*
X90569067Y-36845499D01*
X90569066Y-36845500D01*
X90513958Y-36862216D01*
X90371050Y-36905566D01*
X90188546Y-37003117D01*
X90028593Y-37134386D01*
X90028586Y-37134393D01*
X89997689Y-37172042D01*
X89949686Y-37200459D01*
X89894648Y-37191372D01*
X89858327Y-37149033D01*
X89853100Y-37120307D01*
X89853100Y-36472850D01*
X89872179Y-36420431D01*
X89920489Y-36392539D01*
X89934650Y-36391300D01*
X91644746Y-36391300D01*
X91644748Y-36391300D01*
X91703231Y-36379667D01*
X91769552Y-36335352D01*
X91813867Y-36269031D01*
X91825500Y-36210548D01*
X91825500Y-34552180D01*
X91837642Y-34518819D01*
X114531799Y-34563937D01*
G37*
%TD.AperFunction*%
%TA.AperFunction,Conductor*%
G36*
X106116125Y-51946948D02*
G01*
X106148121Y-51992643D01*
X106150900Y-52013750D01*
X106150900Y-56732838D01*
X106171377Y-56809257D01*
X106171379Y-56809262D01*
X106210937Y-56877778D01*
X106210938Y-56877779D01*
X106210940Y-56877782D01*
X107092615Y-57759457D01*
X107116190Y-57810013D01*
X107116500Y-57817121D01*
X107116500Y-65963767D01*
X107136977Y-66040186D01*
X107136979Y-66040191D01*
X107176537Y-66108707D01*
X107176538Y-66108708D01*
X107176540Y-66108711D01*
X109159484Y-68091655D01*
X111067829Y-70000000D01*
X111091404Y-70050557D01*
X111090884Y-70069268D01*
X111086553Y-70099397D01*
X111086553Y-70099399D01*
X111107035Y-70241859D01*
X111107391Y-70243071D01*
X111107335Y-70243946D01*
X111107865Y-70247630D01*
X111107093Y-70247740D01*
X111103850Y-70298742D01*
X111065352Y-70339112D01*
X111009912Y-70345292D01*
X110971478Y-70323707D01*
X105982585Y-65334814D01*
X105959010Y-65284257D01*
X105958700Y-65277149D01*
X105958700Y-52042850D01*
X105977779Y-51990431D01*
X105982585Y-51985185D01*
X106011685Y-51956085D01*
X106062242Y-51932510D01*
X106116125Y-51946948D01*
G37*
%TD.AperFunction*%
%TA.AperFunction,Conductor*%
G36*
X107934274Y-51554929D02*
G01*
X107966270Y-51600624D01*
X107969049Y-51621731D01*
X107969049Y-55304717D01*
X107988337Y-55376697D01*
X108025604Y-55441246D01*
X108320399Y-55736042D01*
X108343974Y-55786599D01*
X108329536Y-55840481D01*
X108288516Y-55869940D01*
X108288647Y-55870227D01*
X108287194Y-55870890D01*
X108285719Y-55871950D01*
X108283348Y-55872646D01*
X108283341Y-55872649D01*
X108162274Y-55950455D01*
X108068023Y-56059227D01*
X108068021Y-56059230D01*
X108008236Y-56190139D01*
X108008234Y-56190144D01*
X107987753Y-56332600D01*
X108008234Y-56475055D01*
X108008236Y-56475060D01*
X108055744Y-56579086D01*
X108068023Y-56605973D01*
X108162272Y-56714743D01*
X108283347Y-56792553D01*
X108421439Y-56833100D01*
X108565361Y-56833100D01*
X108703453Y-56792553D01*
X108824528Y-56714743D01*
X108918777Y-56605973D01*
X108955121Y-56526390D01*
X108994249Y-56486638D01*
X109049780Y-56481335D01*
X109086964Y-56502606D01*
X109294065Y-56709707D01*
X109317640Y-56760264D01*
X109317950Y-56767372D01*
X109317950Y-65543869D01*
X109337238Y-65615849D01*
X109337239Y-65615852D01*
X109337240Y-65615853D01*
X109374504Y-65680397D01*
X110275399Y-66581292D01*
X111164745Y-67470638D01*
X111188320Y-67521195D01*
X111173882Y-67575078D01*
X111168713Y-67581705D01*
X111156822Y-67595428D01*
X111097034Y-67726345D01*
X111090840Y-67769426D01*
X111064494Y-67818596D01*
X111012706Y-67839328D01*
X110959708Y-67821921D01*
X110952455Y-67815484D01*
X108141385Y-65004414D01*
X108117810Y-64953857D01*
X108117500Y-64946749D01*
X108117500Y-57453624D01*
X108117499Y-57453619D01*
X108108065Y-57418412D01*
X108108065Y-57418410D01*
X108097023Y-57377201D01*
X108097022Y-57377197D01*
X108057460Y-57308674D01*
X107182185Y-56433399D01*
X107158610Y-56382842D01*
X107158300Y-56375734D01*
X107158300Y-52269380D01*
X107177379Y-52216961D01*
X107182185Y-52211715D01*
X107829834Y-51564066D01*
X107880391Y-51540491D01*
X107934274Y-51554929D01*
G37*
%TD.AperFunction*%
%TA.AperFunction,Conductor*%
G36*
X95384293Y-54051662D02*
G01*
X95416289Y-54097357D01*
X95419068Y-54118464D01*
X95419068Y-64290929D01*
X95399989Y-64343348D01*
X95395183Y-64348594D01*
X94590065Y-65153712D01*
X94539508Y-65177287D01*
X94485625Y-65162849D01*
X94453629Y-65117154D01*
X94450850Y-65096047D01*
X94450850Y-54923582D01*
X94469929Y-54871163D01*
X94474735Y-54865917D01*
X95279853Y-54060799D01*
X95330410Y-54037224D01*
X95384293Y-54051662D01*
G37*
%TD.AperFunction*%
%TA.AperFunction,Conductor*%
G36*
X100020622Y-51011230D02*
G01*
X100031550Y-51052008D01*
X100031550Y-53568385D01*
X100012471Y-53620804D01*
X99964161Y-53648696D01*
X99909225Y-53639009D01*
X99905911Y-53636989D01*
X99788053Y-53561247D01*
X99788054Y-53561247D01*
X99649961Y-53520700D01*
X99506039Y-53520700D01*
X99367945Y-53561247D01*
X99246874Y-53639055D01*
X99152623Y-53747827D01*
X99152621Y-53747830D01*
X99092836Y-53878739D01*
X99092834Y-53878744D01*
X99072353Y-54021200D01*
X99092834Y-54163655D01*
X99092836Y-54163660D01*
X99112022Y-54205671D01*
X99152623Y-54294573D01*
X99246872Y-54403343D01*
X99367947Y-54481153D01*
X99506039Y-54521700D01*
X99649961Y-54521700D01*
X99788053Y-54481153D01*
X99905912Y-54405409D01*
X99960323Y-54393120D01*
X100009906Y-54418681D01*
X100031458Y-54470133D01*
X100031550Y-54474014D01*
X100031550Y-61363177D01*
X100012471Y-61415596D01*
X100007665Y-61420842D01*
X98199042Y-63229465D01*
X98148485Y-63253040D01*
X98141377Y-63253350D01*
X98026235Y-63253350D01*
X97973816Y-63234271D01*
X97964606Y-63225207D01*
X97903128Y-63154257D01*
X97782053Y-63076447D01*
X97782054Y-63076447D01*
X97643961Y-63035900D01*
X97500039Y-63035900D01*
X97361945Y-63076447D01*
X97240874Y-63154255D01*
X97146623Y-63263027D01*
X97146621Y-63263030D01*
X97086836Y-63393939D01*
X97086834Y-63393944D01*
X97066353Y-63536400D01*
X97086834Y-63678855D01*
X97086836Y-63678860D01*
X97089528Y-63684754D01*
X97146623Y-63809773D01*
X97240872Y-63918543D01*
X97240876Y-63918545D01*
X97245277Y-63922359D01*
X97243399Y-63924526D01*
X97270694Y-63960366D01*
X97268059Y-64016087D01*
X97250495Y-64042270D01*
X96854583Y-64438183D01*
X96804026Y-64461759D01*
X96750143Y-64447321D01*
X96718147Y-64401626D01*
X96715368Y-64380519D01*
X96715368Y-54208053D01*
X96734447Y-54155634D01*
X96739242Y-54150399D01*
X99880696Y-51008946D01*
X99880699Y-51008940D01*
X99883951Y-51004704D01*
X99885625Y-51005989D01*
X99922104Y-50975377D01*
X99977888Y-50975375D01*
X100020622Y-51011230D01*
G37*
%TD.AperFunction*%
%TD*%
%TA.AperFunction,Conductor*%
%TO.N,GND*%
G36*
X103383184Y-51256636D02*
G01*
X103392393Y-51265699D01*
X103453872Y-51336650D01*
X103574947Y-51414460D01*
X103713039Y-51455007D01*
X103856961Y-51455007D01*
X103979975Y-51418887D01*
X104035646Y-51422425D01*
X104076018Y-51460921D01*
X104084500Y-51497134D01*
X104084500Y-52016652D01*
X104104977Y-52093071D01*
X104104978Y-52093072D01*
X104117974Y-52115581D01*
X104128900Y-52156357D01*
X104128900Y-55470127D01*
X104109821Y-55522546D01*
X104061511Y-55550438D01*
X104024375Y-55548374D01*
X103881761Y-55506500D01*
X103737839Y-55506500D01*
X103599745Y-55547047D01*
X103478674Y-55624855D01*
X103478672Y-55624856D01*
X103478672Y-55624857D01*
X103447525Y-55660803D01*
X103384423Y-55733627D01*
X103384421Y-55733630D01*
X103324636Y-55864539D01*
X103324634Y-55864544D01*
X103304153Y-56007000D01*
X103324634Y-56149455D01*
X103324636Y-56149460D01*
X103343214Y-56190139D01*
X103384423Y-56280373D01*
X103478672Y-56389143D01*
X103599747Y-56466953D01*
X103737839Y-56507500D01*
X103881759Y-56507500D01*
X103881761Y-56507500D01*
X104019853Y-56466953D01*
X104019857Y-56466950D01*
X104024374Y-56465624D01*
X104080046Y-56469162D01*
X104120418Y-56507657D01*
X104128900Y-56543871D01*
X104128900Y-69376967D01*
X104149377Y-69453386D01*
X104149379Y-69453391D01*
X104188937Y-69521907D01*
X104188938Y-69521908D01*
X104188940Y-69521911D01*
X108501372Y-73834343D01*
X112660231Y-77993202D01*
X112683806Y-78043759D01*
X112674487Y-78089309D01*
X112659767Y-78116847D01*
X112599700Y-78314867D01*
X112599698Y-78314877D01*
X112579417Y-78520796D01*
X112579417Y-78520803D01*
X112599698Y-78726722D01*
X112599699Y-78726730D01*
X112599700Y-78726734D01*
X112659768Y-78924754D01*
X112757315Y-79107250D01*
X112757317Y-79107253D01*
X112888586Y-79267206D01*
X112888593Y-79267213D01*
X113048546Y-79398482D01*
X113048550Y-79398485D01*
X113231046Y-79496032D01*
X113429066Y-79556100D01*
X113474413Y-79560566D01*
X113634997Y-79576383D01*
X113635000Y-79576383D01*
X113635003Y-79576383D01*
X113762455Y-79563829D01*
X113840934Y-79556100D01*
X114038954Y-79496032D01*
X114221450Y-79398485D01*
X114381410Y-79267210D01*
X114412310Y-79229557D01*
X114460313Y-79201140D01*
X114515352Y-79210227D01*
X114551673Y-79252565D01*
X114556900Y-79281292D01*
X114556900Y-80300307D01*
X114537821Y-80352726D01*
X114489511Y-80380618D01*
X114434575Y-80370931D01*
X114412311Y-80352042D01*
X114381413Y-80314393D01*
X114381406Y-80314386D01*
X114221453Y-80183117D01*
X114221451Y-80183116D01*
X114221450Y-80183115D01*
X114038954Y-80085568D01*
X114038951Y-80085567D01*
X114038949Y-80085566D01*
X113933064Y-80053447D01*
X113840934Y-80025500D01*
X113840930Y-80025499D01*
X113840922Y-80025498D01*
X113635003Y-80005217D01*
X113634997Y-80005217D01*
X113429077Y-80025498D01*
X113429067Y-80025499D01*
X113429066Y-80025500D01*
X113373958Y-80042216D01*
X113231050Y-80085566D01*
X113231046Y-80085567D01*
X113231046Y-80085568D01*
X113145572Y-80131255D01*
X113048546Y-80183117D01*
X112888593Y-80314386D01*
X112888586Y-80314393D01*
X112757317Y-80474346D01*
X112659766Y-80656850D01*
X112599700Y-80854867D01*
X112599698Y-80854877D01*
X112579417Y-81060796D01*
X112579417Y-81060803D01*
X112599698Y-81266722D01*
X112599699Y-81266730D01*
X112599700Y-81266734D01*
X112623614Y-81345569D01*
X112656609Y-81454343D01*
X112659768Y-81464754D01*
X112695794Y-81532153D01*
X112757317Y-81647253D01*
X112888586Y-81807206D01*
X112888593Y-81807213D01*
X113048546Y-81938482D01*
X113048550Y-81938485D01*
X113231046Y-82036032D01*
X113429066Y-82096100D01*
X113474413Y-82100566D01*
X113634997Y-82116383D01*
X113635000Y-82116383D01*
X113635003Y-82116383D01*
X113762455Y-82103829D01*
X113840934Y-82096100D01*
X114038954Y-82036032D01*
X114221450Y-81938485D01*
X114381410Y-81807210D01*
X114412310Y-81769557D01*
X114460313Y-81741140D01*
X114515352Y-81750227D01*
X114551673Y-81792565D01*
X114556900Y-81821292D01*
X114556900Y-82840307D01*
X114537821Y-82892726D01*
X114489511Y-82920618D01*
X114434575Y-82910931D01*
X114412311Y-82892042D01*
X114381413Y-82854393D01*
X114381406Y-82854386D01*
X114221453Y-82723117D01*
X114221451Y-82723116D01*
X114221450Y-82723115D01*
X114038954Y-82625568D01*
X114038951Y-82625567D01*
X114038949Y-82625566D01*
X113951149Y-82598933D01*
X113840934Y-82565500D01*
X113840930Y-82565499D01*
X113840922Y-82565498D01*
X113635003Y-82545217D01*
X113634997Y-82545217D01*
X113429077Y-82565498D01*
X113429067Y-82565499D01*
X113429066Y-82565500D01*
X113373958Y-82582216D01*
X113231050Y-82625566D01*
X113231046Y-82625567D01*
X113231046Y-82625568D01*
X113176919Y-82654500D01*
X113048546Y-82723117D01*
X112888593Y-82854386D01*
X112888586Y-82854393D01*
X112757317Y-83014346D01*
X112659766Y-83196850D01*
X112628449Y-83300092D01*
X112603511Y-83382305D01*
X112599700Y-83394867D01*
X112599698Y-83394877D01*
X112579417Y-83600796D01*
X112579417Y-83600803D01*
X112599698Y-83806722D01*
X112599699Y-83806730D01*
X112599700Y-83806734D01*
X112659768Y-84004754D01*
X112713100Y-84104530D01*
X112757317Y-84187253D01*
X112888586Y-84347206D01*
X112888593Y-84347213D01*
X113048546Y-84478482D01*
X113048550Y-84478485D01*
X113231046Y-84576032D01*
X113429066Y-84636100D01*
X113474413Y-84640566D01*
X113634997Y-84656383D01*
X113635000Y-84656383D01*
X113635003Y-84656383D01*
X113762455Y-84643829D01*
X113840934Y-84636100D01*
X114038954Y-84576032D01*
X114221450Y-84478485D01*
X114381410Y-84347210D01*
X114412310Y-84309557D01*
X114460313Y-84281140D01*
X114515352Y-84290227D01*
X114551673Y-84332565D01*
X114556900Y-84361292D01*
X114556900Y-85380307D01*
X114537821Y-85432726D01*
X114489511Y-85460618D01*
X114434575Y-85450931D01*
X114412311Y-85432042D01*
X114381413Y-85394393D01*
X114381406Y-85394386D01*
X114221453Y-85263117D01*
X114221451Y-85263116D01*
X114221450Y-85263115D01*
X114038954Y-85165568D01*
X114038951Y-85165567D01*
X114038949Y-85165566D01*
X113951149Y-85138933D01*
X113840934Y-85105500D01*
X113840930Y-85105499D01*
X113840922Y-85105498D01*
X113635003Y-85085217D01*
X113634997Y-85085217D01*
X113429077Y-85105498D01*
X113429067Y-85105499D01*
X113429066Y-85105500D01*
X113373958Y-85122216D01*
X113231050Y-85165566D01*
X113231046Y-85165567D01*
X113231046Y-85165568D01*
X113197616Y-85183437D01*
X113048546Y-85263117D01*
X112888593Y-85394386D01*
X112888586Y-85394393D01*
X112757317Y-85554346D01*
X112757315Y-85554350D01*
X112668912Y-85719740D01*
X112659766Y-85736850D01*
X112599700Y-85934867D01*
X112599698Y-85934877D01*
X112579417Y-86140796D01*
X112579417Y-86140803D01*
X112599698Y-86346722D01*
X112599699Y-86346730D01*
X112599700Y-86346734D01*
X112659768Y-86544754D01*
X112713100Y-86644530D01*
X112757317Y-86727253D01*
X112888586Y-86887206D01*
X112888593Y-86887213D01*
X113048546Y-87018482D01*
X113048550Y-87018485D01*
X113231046Y-87116032D01*
X113429066Y-87176100D01*
X113474413Y-87180566D01*
X113634997Y-87196383D01*
X113635000Y-87196383D01*
X113635003Y-87196383D01*
X113762455Y-87183829D01*
X113840934Y-87176100D01*
X114038954Y-87116032D01*
X114221450Y-87018485D01*
X114381410Y-86887210D01*
X114412310Y-86849557D01*
X114460313Y-86821140D01*
X114515352Y-86830227D01*
X114551673Y-86872565D01*
X114556900Y-86901292D01*
X114556900Y-87920307D01*
X114537821Y-87972726D01*
X114489511Y-88000618D01*
X114434575Y-87990931D01*
X114412311Y-87972042D01*
X114381413Y-87934393D01*
X114381406Y-87934386D01*
X114221453Y-87803117D01*
X114221451Y-87803116D01*
X114221450Y-87803115D01*
X114038954Y-87705568D01*
X114038951Y-87705567D01*
X114038949Y-87705566D01*
X113951149Y-87678933D01*
X113840934Y-87645500D01*
X113840930Y-87645499D01*
X113840922Y-87645498D01*
X113635003Y-87625217D01*
X113634997Y-87625217D01*
X113429077Y-87645498D01*
X113429067Y-87645499D01*
X113429066Y-87645500D01*
X113373958Y-87662216D01*
X113231050Y-87705566D01*
X113048546Y-87803117D01*
X112888593Y-87934386D01*
X112888586Y-87934393D01*
X112757317Y-88094346D01*
X112659766Y-88276850D01*
X112599700Y-88474867D01*
X112599698Y-88474877D01*
X112579417Y-88680796D01*
X112579417Y-88680803D01*
X112599698Y-88886722D01*
X112599699Y-88886730D01*
X112599700Y-88886734D01*
X112659768Y-89084754D01*
X112713100Y-89184530D01*
X112757317Y-89267253D01*
X112888586Y-89427206D01*
X112888593Y-89427213D01*
X113048546Y-89558482D01*
X113048550Y-89558485D01*
X113231046Y-89656032D01*
X113429066Y-89716100D01*
X113474413Y-89720566D01*
X113634997Y-89736383D01*
X113635000Y-89736383D01*
X113635003Y-89736383D01*
X113762455Y-89723829D01*
X113840934Y-89716100D01*
X114038954Y-89656032D01*
X114221450Y-89558485D01*
X114381410Y-89427210D01*
X114412310Y-89389557D01*
X114460313Y-89361140D01*
X114515352Y-89370227D01*
X114551673Y-89412565D01*
X114556900Y-89441292D01*
X114556900Y-91123350D01*
X114537821Y-91175769D01*
X114489511Y-91203661D01*
X114475350Y-91204900D01*
X89934650Y-91204900D01*
X89882231Y-91185821D01*
X89854339Y-91137511D01*
X89853100Y-91123350D01*
X89853100Y-86901292D01*
X89872179Y-86848873D01*
X89920489Y-86820981D01*
X89975425Y-86830668D01*
X89997690Y-86849558D01*
X90028587Y-86887207D01*
X90028593Y-86887213D01*
X90188546Y-87018482D01*
X90188550Y-87018485D01*
X90371046Y-87116032D01*
X90569066Y-87176100D01*
X90614413Y-87180566D01*
X90774997Y-87196383D01*
X90775000Y-87196383D01*
X90775003Y-87196383D01*
X90902455Y-87183829D01*
X90980934Y-87176100D01*
X91178954Y-87116032D01*
X91361450Y-87018485D01*
X91521410Y-86887210D01*
X91652685Y-86727250D01*
X91750232Y-86544754D01*
X91810300Y-86346734D01*
X91830583Y-86140800D01*
X91826980Y-86104222D01*
X91810301Y-85934877D01*
X91810300Y-85934866D01*
X91750232Y-85736846D01*
X91652685Y-85554350D01*
X91636993Y-85535229D01*
X91521413Y-85394393D01*
X91521406Y-85394386D01*
X91485389Y-85364828D01*
X99172350Y-85364828D01*
X99172350Y-85516371D01*
X99211567Y-85662732D01*
X99211569Y-85662737D01*
X99287332Y-85793961D01*
X99287333Y-85793962D01*
X99287335Y-85793965D01*
X99394485Y-85901115D01*
X99394487Y-85901116D01*
X99394488Y-85901117D01*
X99525712Y-85976880D01*
X99525717Y-85976882D01*
X99672078Y-86016099D01*
X99672082Y-86016099D01*
X99672084Y-86016100D01*
X99672085Y-86016100D01*
X99823615Y-86016100D01*
X99823616Y-86016100D01*
X99823617Y-86016099D01*
X99823621Y-86016099D01*
X99969982Y-85976882D01*
X99969983Y-85976881D01*
X99969985Y-85976881D01*
X99971522Y-85975994D01*
X99989178Y-85965800D01*
X101283367Y-85965800D01*
X101301802Y-86094024D01*
X101301804Y-86094029D01*
X101355616Y-86211859D01*
X101355620Y-86211866D01*
X101364455Y-86222062D01*
X101440451Y-86309767D01*
X101549431Y-86379804D01*
X101673728Y-86416300D01*
X101803272Y-86416300D01*
X101927569Y-86379804D01*
X101979046Y-86346722D01*
X102019318Y-86320841D01*
X102063407Y-86307895D01*
X102656369Y-86307895D01*
X102700458Y-86320841D01*
X102773966Y-86368081D01*
X102808073Y-86390000D01*
X102932370Y-86426496D01*
X103061914Y-86426496D01*
X103186211Y-86390000D01*
X103295191Y-86319963D01*
X103380024Y-86222059D01*
X103433839Y-86104222D01*
X103452275Y-85975996D01*
X103448632Y-85950655D01*
X103460057Y-85896054D01*
X103503907Y-85861571D01*
X103529352Y-85857500D01*
X103581272Y-85857500D01*
X103705569Y-85821004D01*
X103814549Y-85750967D01*
X103899382Y-85653063D01*
X103953197Y-85535226D01*
X103971633Y-85407000D01*
X103965570Y-85364828D01*
X104952350Y-85364828D01*
X104952350Y-85516371D01*
X104991567Y-85662732D01*
X104991569Y-85662737D01*
X105067332Y-85793961D01*
X105067333Y-85793962D01*
X105067335Y-85793965D01*
X105174485Y-85901115D01*
X105174487Y-85901116D01*
X105174488Y-85901117D01*
X105305712Y-85976880D01*
X105305717Y-85976882D01*
X105452078Y-86016099D01*
X105452082Y-86016099D01*
X105452084Y-86016100D01*
X105452085Y-86016100D01*
X105603615Y-86016100D01*
X105603616Y-86016100D01*
X105603617Y-86016099D01*
X105603621Y-86016099D01*
X105749982Y-85976882D01*
X105749983Y-85976881D01*
X105749985Y-85976881D01*
X105751522Y-85975994D01*
X105822757Y-85934866D01*
X105881215Y-85901115D01*
X105988365Y-85793965D01*
X106064131Y-85662735D01*
X106075091Y-85621832D01*
X106103349Y-85516371D01*
X106103350Y-85516364D01*
X106103350Y-85364835D01*
X106103349Y-85364828D01*
X106064132Y-85218467D01*
X106064130Y-85218462D01*
X105988367Y-85087238D01*
X105988366Y-85087237D01*
X105988365Y-85087235D01*
X105881215Y-84980085D01*
X105881212Y-84980083D01*
X105881211Y-84980082D01*
X105749987Y-84904319D01*
X105749982Y-84904317D01*
X105603621Y-84865100D01*
X105603616Y-84865100D01*
X105452084Y-84865100D01*
X105452078Y-84865100D01*
X105305717Y-84904317D01*
X105305712Y-84904319D01*
X105174488Y-84980082D01*
X105067332Y-85087238D01*
X104991569Y-85218462D01*
X104991567Y-85218467D01*
X104952350Y-85364828D01*
X103965570Y-85364828D01*
X103953197Y-85278774D01*
X103899382Y-85160937D01*
X103814549Y-85063033D01*
X103814548Y-85063032D01*
X103705569Y-84992996D01*
X103705570Y-84992996D01*
X103581272Y-84956500D01*
X103451728Y-84956500D01*
X103327429Y-84992996D01*
X103218454Y-85063030D01*
X103218451Y-85063032D01*
X103218451Y-85063033D01*
X103212887Y-85069453D01*
X103164142Y-85096574D01*
X103151258Y-85097598D01*
X102646075Y-85097598D01*
X102601986Y-85084652D01*
X102494371Y-85015493D01*
X102494372Y-85015493D01*
X102370074Y-84978997D01*
X102240530Y-84978997D01*
X102116231Y-85015493D01*
X102007253Y-85085529D01*
X102007252Y-85085529D01*
X101922422Y-85183430D01*
X101922418Y-85183437D01*
X101868606Y-85301267D01*
X101868604Y-85301272D01*
X101850169Y-85429497D01*
X101850169Y-85433750D01*
X101831090Y-85486169D01*
X101782780Y-85514061D01*
X101768619Y-85515300D01*
X101673728Y-85515300D01*
X101549429Y-85551796D01*
X101440451Y-85621832D01*
X101440450Y-85621832D01*
X101355620Y-85719733D01*
X101355616Y-85719740D01*
X101301804Y-85837570D01*
X101301802Y-85837575D01*
X101283367Y-85965800D01*
X99989178Y-85965800D01*
X100042757Y-85934866D01*
X100101215Y-85901115D01*
X100208365Y-85793965D01*
X100284131Y-85662735D01*
X100295091Y-85621832D01*
X100323349Y-85516371D01*
X100323350Y-85516364D01*
X100323350Y-85364835D01*
X100323349Y-85364828D01*
X100284132Y-85218467D01*
X100284130Y-85218462D01*
X100208367Y-85087238D01*
X100208366Y-85087237D01*
X100208365Y-85087235D01*
X100101215Y-84980085D01*
X100101212Y-84980083D01*
X100101211Y-84980082D01*
X99969987Y-84904319D01*
X99969982Y-84904317D01*
X99823621Y-84865100D01*
X99823616Y-84865100D01*
X99672084Y-84865100D01*
X99672078Y-84865100D01*
X99525717Y-84904317D01*
X99525712Y-84904319D01*
X99394488Y-84980082D01*
X99287332Y-85087238D01*
X99211569Y-85218462D01*
X99211567Y-85218467D01*
X99172350Y-85364828D01*
X91485389Y-85364828D01*
X91361453Y-85263117D01*
X91361451Y-85263116D01*
X91361450Y-85263115D01*
X91178954Y-85165568D01*
X91178951Y-85165567D01*
X91178949Y-85165566D01*
X91091149Y-85138933D01*
X90980934Y-85105500D01*
X90980930Y-85105499D01*
X90980922Y-85105498D01*
X90775003Y-85085217D01*
X90774997Y-85085217D01*
X90569077Y-85105498D01*
X90569067Y-85105499D01*
X90569066Y-85105500D01*
X90513958Y-85122216D01*
X90371050Y-85165566D01*
X90371046Y-85165567D01*
X90371046Y-85165568D01*
X90337616Y-85183437D01*
X90188546Y-85263117D01*
X90028593Y-85394386D01*
X90028586Y-85394393D01*
X89997689Y-85432042D01*
X89949686Y-85460459D01*
X89894648Y-85451372D01*
X89858327Y-85409033D01*
X89853100Y-85380307D01*
X89853100Y-84361292D01*
X89872179Y-84308873D01*
X89920489Y-84280981D01*
X89975425Y-84290668D01*
X89997690Y-84309558D01*
X90028587Y-84347207D01*
X90028593Y-84347213D01*
X90188546Y-84478482D01*
X90188550Y-84478485D01*
X90371046Y-84576032D01*
X90569066Y-84636100D01*
X90614413Y-84640566D01*
X90774997Y-84656383D01*
X90775000Y-84656383D01*
X90775003Y-84656383D01*
X90902455Y-84643829D01*
X90980934Y-84636100D01*
X91178954Y-84576032D01*
X91361450Y-84478485D01*
X91521410Y-84347210D01*
X91652685Y-84187250D01*
X91750232Y-84004754D01*
X91804090Y-83827204D01*
X91837562Y-83782584D01*
X91891888Y-83769916D01*
X91941647Y-83795132D01*
X91956306Y-83816999D01*
X91964423Y-83834773D01*
X92058672Y-83943543D01*
X92179747Y-84021353D01*
X92317839Y-84061900D01*
X92461761Y-84061900D01*
X92599853Y-84021353D01*
X92720928Y-83943543D01*
X92815177Y-83834773D01*
X92874965Y-83703857D01*
X92895447Y-83561400D01*
X92888012Y-83509693D01*
X92899436Y-83455095D01*
X92911063Y-83440428D01*
X93196491Y-83155000D01*
X98742153Y-83155000D01*
X98762634Y-83297455D01*
X98762636Y-83297460D01*
X98818116Y-83418943D01*
X98822423Y-83428373D01*
X98916672Y-83537143D01*
X99037747Y-83614953D01*
X99175839Y-83655500D01*
X99319761Y-83655500D01*
X99457853Y-83614953D01*
X99578928Y-83537143D01*
X99673177Y-83428373D01*
X99732965Y-83297457D01*
X99753447Y-83155000D01*
X99746143Y-83104200D01*
X101028153Y-83104200D01*
X101048634Y-83246655D01*
X101048636Y-83246660D01*
X101090007Y-83337248D01*
X101108423Y-83377573D01*
X101202672Y-83486343D01*
X101323747Y-83564153D01*
X101461839Y-83604700D01*
X101605761Y-83604700D01*
X101743853Y-83564153D01*
X101864928Y-83486343D01*
X101959177Y-83377573D01*
X102018965Y-83246657D01*
X102031764Y-83157635D01*
X105196388Y-83157635D01*
X105216869Y-83300090D01*
X105216871Y-83300095D01*
X105276656Y-83431004D01*
X105276658Y-83431008D01*
X105370907Y-83539778D01*
X105491982Y-83617588D01*
X105630074Y-83658135D01*
X105773996Y-83658135D01*
X105912088Y-83617588D01*
X106033163Y-83539778D01*
X106127412Y-83431008D01*
X106187200Y-83300092D01*
X106207682Y-83157635D01*
X106187200Y-83015178D01*
X106127412Y-82884262D01*
X106033163Y-82775492D01*
X105912088Y-82697682D01*
X105912089Y-82697682D01*
X105773996Y-82657135D01*
X105630074Y-82657135D01*
X105491980Y-82697682D01*
X105370909Y-82775490D01*
X105370907Y-82775491D01*
X105370907Y-82775492D01*
X105289854Y-82869033D01*
X105276658Y-82884262D01*
X105276656Y-82884265D01*
X105216871Y-83015174D01*
X105216869Y-83015179D01*
X105196388Y-83157635D01*
X102031764Y-83157635D01*
X102039447Y-83104200D01*
X102018965Y-82961743D01*
X101959177Y-82830827D01*
X101864928Y-82722057D01*
X101743853Y-82644247D01*
X101743854Y-82644247D01*
X101605761Y-82603700D01*
X101461839Y-82603700D01*
X101323745Y-82644247D01*
X101202674Y-82722055D01*
X101202672Y-82722056D01*
X101202672Y-82722057D01*
X101156371Y-82775492D01*
X101108423Y-82830827D01*
X101108421Y-82830830D01*
X101048636Y-82961739D01*
X101048634Y-82961744D01*
X101028153Y-83104200D01*
X99746143Y-83104200D01*
X99732965Y-83012543D01*
X99673177Y-82881627D01*
X99578928Y-82772857D01*
X99499881Y-82722057D01*
X99457853Y-82695047D01*
X99457854Y-82695047D01*
X99319761Y-82654500D01*
X99175839Y-82654500D01*
X99037745Y-82695047D01*
X98916674Y-82772855D01*
X98822423Y-82881627D01*
X98822421Y-82881630D01*
X98762636Y-83012539D01*
X98762634Y-83012544D01*
X98742153Y-83155000D01*
X93196491Y-83155000D01*
X95838094Y-80513400D01*
X100875753Y-80513400D01*
X100896234Y-80655855D01*
X100896236Y-80655860D01*
X100956021Y-80786769D01*
X100956023Y-80786773D01*
X101050272Y-80895543D01*
X101171347Y-80973353D01*
X101309439Y-81013900D01*
X101453361Y-81013900D01*
X101591453Y-80973353D01*
X101712528Y-80895543D01*
X101806777Y-80786773D01*
X101866565Y-80655857D01*
X101887047Y-80513400D01*
X101866565Y-80370943D01*
X101806777Y-80240027D01*
X101712528Y-80131257D01*
X101591453Y-80053447D01*
X101591454Y-80053447D01*
X101453361Y-80012900D01*
X101309439Y-80012900D01*
X101171345Y-80053447D01*
X101050274Y-80131255D01*
X101050272Y-80131256D01*
X101050272Y-80131257D01*
X100956023Y-80240027D01*
X100956021Y-80240030D01*
X100896236Y-80370939D01*
X100896234Y-80370944D01*
X100875753Y-80513400D01*
X95838094Y-80513400D01*
X96242097Y-80109397D01*
X96279360Y-80044853D01*
X96298650Y-79972863D01*
X96298650Y-79898336D01*
X96298650Y-67691422D01*
X96317729Y-67639003D01*
X96322524Y-67633768D01*
X98225692Y-65730600D01*
X99453353Y-65730600D01*
X99473834Y-65873055D01*
X99473836Y-65873060D01*
X99533621Y-66003969D01*
X99533623Y-66003973D01*
X99627872Y-66112743D01*
X99638487Y-66119564D01*
X99672271Y-66163951D01*
X99675950Y-66188169D01*
X99675950Y-72778269D01*
X99695238Y-72850249D01*
X99695239Y-72850252D01*
X99695240Y-72850253D01*
X99732504Y-72914797D01*
X101708759Y-74891052D01*
X103448231Y-76630524D01*
X103471806Y-76681081D01*
X103471286Y-76699793D01*
X103463853Y-76751498D01*
X103463853Y-76751499D01*
X103484334Y-76893955D01*
X103484335Y-76893957D01*
X103544123Y-77024873D01*
X103638372Y-77133643D01*
X103759447Y-77211453D01*
X103897539Y-77252000D01*
X104041461Y-77252000D01*
X104179553Y-77211453D01*
X104300628Y-77133643D01*
X104394877Y-77024873D01*
X104454665Y-76893957D01*
X104475147Y-76751500D01*
X104454665Y-76609043D01*
X104394877Y-76478127D01*
X104300628Y-76369357D01*
X104297223Y-76367169D01*
X104179553Y-76291547D01*
X104179554Y-76291547D01*
X104041461Y-76251000D01*
X103903073Y-76251000D01*
X103850654Y-76231921D01*
X103845408Y-76227115D01*
X100265935Y-72647642D01*
X100242360Y-72597085D01*
X100242050Y-72589977D01*
X100242050Y-66188169D01*
X100261129Y-66135750D01*
X100279509Y-66119566D01*
X100290128Y-66112743D01*
X100384377Y-66003973D01*
X100444165Y-65873057D01*
X100464647Y-65730600D01*
X100444165Y-65588143D01*
X100384377Y-65457227D01*
X100290128Y-65348457D01*
X100169053Y-65270647D01*
X100169054Y-65270647D01*
X100030961Y-65230100D01*
X99887039Y-65230100D01*
X99748945Y-65270647D01*
X99627874Y-65348455D01*
X99627872Y-65348456D01*
X99627872Y-65348457D01*
X99592432Y-65389357D01*
X99533623Y-65457227D01*
X99533621Y-65457230D01*
X99473836Y-65588139D01*
X99473834Y-65588144D01*
X99453353Y-65730600D01*
X98225692Y-65730600D01*
X100876307Y-63079984D01*
X100926864Y-63056410D01*
X100933972Y-63056100D01*
X101072361Y-63056100D01*
X101210453Y-63015553D01*
X101331528Y-62937743D01*
X101425777Y-62828973D01*
X101485565Y-62698057D01*
X101506047Y-62555600D01*
X101485565Y-62413143D01*
X101425777Y-62282227D01*
X101425774Y-62282223D01*
X101338268Y-62181234D01*
X101318360Y-62129124D01*
X101318350Y-62127831D01*
X101318350Y-61274908D01*
X101318349Y-61274901D01*
X101299061Y-61202921D01*
X101299060Y-61202920D01*
X101299060Y-61202918D01*
X101261796Y-61138374D01*
X101261794Y-61138372D01*
X101209097Y-61085674D01*
X101209097Y-61085675D01*
X100986635Y-60863213D01*
X100963060Y-60812656D01*
X100962750Y-60805548D01*
X100962750Y-52049227D01*
X100981829Y-51996808D01*
X101030139Y-51968916D01*
X101067273Y-51970979D01*
X101190289Y-52007100D01*
X101334211Y-52007100D01*
X101472303Y-51966553D01*
X101593378Y-51888743D01*
X101687627Y-51779973D01*
X101747415Y-51649057D01*
X101767897Y-51506600D01*
X101760462Y-51454893D01*
X101771886Y-51400294D01*
X101783513Y-51385628D01*
X101907701Y-51261442D01*
X101958258Y-51237867D01*
X101965365Y-51237557D01*
X103330765Y-51237557D01*
X103383184Y-51256636D01*
G37*
%TD.AperFunction*%
%TA.AperFunction,Conductor*%
G36*
X94967575Y-73086170D02*
G01*
X94999571Y-73131865D01*
X95002350Y-73152972D01*
X95002350Y-75587176D01*
X94983271Y-75639595D01*
X94978465Y-75644841D01*
X92564691Y-78058615D01*
X92514134Y-78082190D01*
X92507026Y-78082500D01*
X92368639Y-78082500D01*
X92230545Y-78123047D01*
X92109474Y-78200855D01*
X92109472Y-78200856D01*
X92109472Y-78200857D01*
X92018786Y-78305515D01*
X92015223Y-78309627D01*
X92015222Y-78309628D01*
X91971912Y-78404462D01*
X91932781Y-78444218D01*
X91877250Y-78449520D01*
X91831303Y-78417887D01*
X91816575Y-78378577D01*
X91810301Y-78314877D01*
X91810300Y-78314866D01*
X91750232Y-78116846D01*
X91652685Y-77934350D01*
X91575762Y-77840618D01*
X91521413Y-77774393D01*
X91521406Y-77774386D01*
X91361453Y-77643117D01*
X91361451Y-77643116D01*
X91361450Y-77643115D01*
X91178954Y-77545568D01*
X91178951Y-77545567D01*
X91178949Y-77545566D01*
X91091149Y-77518933D01*
X90980934Y-77485500D01*
X90980930Y-77485499D01*
X90980922Y-77485498D01*
X90775003Y-77465217D01*
X90774997Y-77465217D01*
X90569077Y-77485498D01*
X90569067Y-77485499D01*
X90569066Y-77485500D01*
X90513958Y-77502216D01*
X90371050Y-77545566D01*
X90188546Y-77643117D01*
X90028593Y-77774386D01*
X90028586Y-77774393D01*
X89997689Y-77812042D01*
X89949686Y-77840459D01*
X89894648Y-77831372D01*
X89858327Y-77789033D01*
X89853100Y-77760307D01*
X89853100Y-76741292D01*
X89872179Y-76688873D01*
X89920489Y-76660981D01*
X89975425Y-76670668D01*
X89997690Y-76689558D01*
X90028587Y-76727207D01*
X90028593Y-76727213D01*
X90188546Y-76858482D01*
X90188550Y-76858485D01*
X90371046Y-76956032D01*
X90569066Y-77016100D01*
X90614413Y-77020566D01*
X90774997Y-77036383D01*
X90775000Y-77036383D01*
X90775003Y-77036383D01*
X90902455Y-77023829D01*
X90980934Y-77016100D01*
X91178954Y-76956032D01*
X91361450Y-76858485D01*
X91521410Y-76727210D01*
X91652685Y-76567250D01*
X91750232Y-76384754D01*
X91797404Y-76229246D01*
X91830877Y-76184624D01*
X91885203Y-76171956D01*
X91934962Y-76197173D01*
X91951384Y-76231364D01*
X91953791Y-76230658D01*
X91955436Y-76236260D01*
X91980685Y-76291547D01*
X92015223Y-76367173D01*
X92109472Y-76475943D01*
X92230547Y-76553753D01*
X92368639Y-76594300D01*
X92512561Y-76594300D01*
X92650653Y-76553753D01*
X92771728Y-76475943D01*
X92865977Y-76367173D01*
X92925765Y-76236257D01*
X92946247Y-76093800D01*
X92925765Y-75951343D01*
X92865977Y-75820427D01*
X92771728Y-75711657D01*
X92761110Y-75704833D01*
X92727327Y-75660442D01*
X92723650Y-75636229D01*
X92723650Y-75268572D01*
X92742729Y-75216153D01*
X92747535Y-75210907D01*
X94863135Y-73095307D01*
X94913692Y-73071732D01*
X94967575Y-73086170D01*
G37*
%TD.AperFunction*%
%TA.AperFunction,Conductor*%
G36*
X104852225Y-67649127D02*
G01*
X104869115Y-67662086D01*
X112660231Y-75453202D01*
X112683806Y-75503759D01*
X112674487Y-75549309D01*
X112659767Y-75576847D01*
X112599700Y-75774867D01*
X112599698Y-75774877D01*
X112579417Y-75980796D01*
X112579417Y-75980803D01*
X112599698Y-76186722D01*
X112599699Y-76186730D01*
X112599700Y-76186734D01*
X112631494Y-76291547D01*
X112655096Y-76369355D01*
X112659768Y-76384754D01*
X112750101Y-76553753D01*
X112757317Y-76567253D01*
X112888586Y-76727206D01*
X112888593Y-76727213D01*
X113048546Y-76858482D01*
X113048550Y-76858485D01*
X113231046Y-76956032D01*
X113429066Y-77016100D01*
X113474413Y-77020566D01*
X113634997Y-77036383D01*
X113635000Y-77036383D01*
X113635003Y-77036383D01*
X113762455Y-77023829D01*
X113840934Y-77016100D01*
X114038954Y-76956032D01*
X114221450Y-76858485D01*
X114381410Y-76727210D01*
X114412310Y-76689557D01*
X114460313Y-76661140D01*
X114515352Y-76670227D01*
X114551673Y-76712565D01*
X114556900Y-76741292D01*
X114556900Y-77760307D01*
X114537821Y-77812726D01*
X114489511Y-77840618D01*
X114434575Y-77830931D01*
X114412311Y-77812042D01*
X114381413Y-77774393D01*
X114381406Y-77774386D01*
X114221453Y-77643117D01*
X114221451Y-77643116D01*
X114221450Y-77643115D01*
X114038954Y-77545568D01*
X114038951Y-77545567D01*
X114038949Y-77545566D01*
X113951149Y-77518933D01*
X113840934Y-77485500D01*
X113840930Y-77485499D01*
X113840922Y-77485498D01*
X113635003Y-77465217D01*
X113634997Y-77465217D01*
X113429077Y-77485498D01*
X113429067Y-77485499D01*
X113429066Y-77485500D01*
X113330056Y-77515534D01*
X113231045Y-77545568D01*
X113174573Y-77575752D01*
X113119349Y-77583635D01*
X113078467Y-77561496D01*
X104753785Y-69236814D01*
X104730210Y-69186257D01*
X104729900Y-69179149D01*
X104729900Y-67719751D01*
X104748979Y-67667332D01*
X104797289Y-67639440D01*
X104852225Y-67649127D01*
G37*
%TD.AperFunction*%
%TA.AperFunction,Conductor*%
G36*
X114475595Y-34537998D02*
G01*
X114527956Y-34557234D01*
X114555703Y-34605627D01*
X114556900Y-34619548D01*
X114556900Y-37120307D01*
X114537821Y-37172726D01*
X114489511Y-37200618D01*
X114434575Y-37190931D01*
X114412311Y-37172042D01*
X114381413Y-37134393D01*
X114381406Y-37134386D01*
X114221453Y-37003117D01*
X114221451Y-37003116D01*
X114221450Y-37003115D01*
X114038954Y-36905568D01*
X114038951Y-36905567D01*
X114038949Y-36905566D01*
X113951149Y-36878933D01*
X113840934Y-36845500D01*
X113840930Y-36845499D01*
X113840922Y-36845498D01*
X113635003Y-36825217D01*
X113634997Y-36825217D01*
X113429077Y-36845498D01*
X113429067Y-36845499D01*
X113429066Y-36845500D01*
X113373958Y-36862216D01*
X113231050Y-36905566D01*
X113048546Y-37003117D01*
X112888593Y-37134386D01*
X112888586Y-37134393D01*
X112757317Y-37294346D01*
X112659766Y-37476850D01*
X112623008Y-37598030D01*
X112613917Y-37628000D01*
X112599700Y-37674867D01*
X112599698Y-37674877D01*
X112579417Y-37880796D01*
X112579417Y-37880803D01*
X112599698Y-38086722D01*
X112599699Y-38086730D01*
X112599700Y-38086734D01*
X112617306Y-38144773D01*
X112650300Y-38253544D01*
X112659768Y-38284754D01*
X112713100Y-38384530D01*
X112757317Y-38467253D01*
X112888586Y-38627206D01*
X112888593Y-38627213D01*
X113045277Y-38755799D01*
X113048550Y-38758485D01*
X113231046Y-38856032D01*
X113429066Y-38916100D01*
X113474413Y-38920566D01*
X113634997Y-38936383D01*
X113635000Y-38936383D01*
X113635003Y-38936383D01*
X113762455Y-38923829D01*
X113840934Y-38916100D01*
X114038954Y-38856032D01*
X114221450Y-38758485D01*
X114381410Y-38627210D01*
X114412310Y-38589557D01*
X114460313Y-38561140D01*
X114515352Y-38570227D01*
X114551673Y-38612565D01*
X114556900Y-38641292D01*
X114556900Y-39660307D01*
X114537821Y-39712726D01*
X114489511Y-39740618D01*
X114434575Y-39730931D01*
X114412311Y-39712042D01*
X114381413Y-39674393D01*
X114381406Y-39674386D01*
X114221453Y-39543117D01*
X114221451Y-39543116D01*
X114221450Y-39543115D01*
X114038954Y-39445568D01*
X114038951Y-39445567D01*
X114038949Y-39445566D01*
X113951149Y-39418933D01*
X113840934Y-39385500D01*
X113840930Y-39385499D01*
X113840922Y-39385498D01*
X113635003Y-39365217D01*
X113634997Y-39365217D01*
X113429077Y-39385498D01*
X113429067Y-39385499D01*
X113429066Y-39385500D01*
X113373958Y-39402216D01*
X113231050Y-39445566D01*
X113048546Y-39543117D01*
X112888593Y-39674386D01*
X112888586Y-39674393D01*
X112757317Y-39834346D01*
X112659766Y-40016850D01*
X112599700Y-40214867D01*
X112599698Y-40214877D01*
X112579417Y-40420796D01*
X112579417Y-40420803D01*
X112599698Y-40626722D01*
X112599699Y-40626730D01*
X112599700Y-40626734D01*
X112659768Y-40824754D01*
X112713100Y-40924530D01*
X112757317Y-41007253D01*
X112888586Y-41167206D01*
X112888593Y-41167213D01*
X113048546Y-41298482D01*
X113048550Y-41298485D01*
X113231046Y-41396032D01*
X113429066Y-41456100D01*
X113474413Y-41460566D01*
X113634997Y-41476383D01*
X113635000Y-41476383D01*
X113635003Y-41476383D01*
X113762455Y-41463829D01*
X113840934Y-41456100D01*
X114038954Y-41396032D01*
X114221450Y-41298485D01*
X114381410Y-41167210D01*
X114412310Y-41129557D01*
X114460313Y-41101140D01*
X114515352Y-41110227D01*
X114551673Y-41152565D01*
X114556900Y-41181292D01*
X114556900Y-42200307D01*
X114537821Y-42252726D01*
X114489511Y-42280618D01*
X114434575Y-42270931D01*
X114412311Y-42252042D01*
X114381413Y-42214393D01*
X114381406Y-42214386D01*
X114221453Y-42083117D01*
X114221451Y-42083116D01*
X114221450Y-42083115D01*
X114038954Y-41985568D01*
X114038951Y-41985567D01*
X114038949Y-41985566D01*
X113951149Y-41958933D01*
X113840934Y-41925500D01*
X113840930Y-41925499D01*
X113840922Y-41925498D01*
X113635003Y-41905217D01*
X113634997Y-41905217D01*
X113429077Y-41925498D01*
X113429067Y-41925499D01*
X113429066Y-41925500D01*
X113373958Y-41942216D01*
X113231050Y-41985566D01*
X113048546Y-42083117D01*
X112888593Y-42214386D01*
X112888586Y-42214393D01*
X112757317Y-42374346D01*
X112659766Y-42556850D01*
X112599700Y-42754867D01*
X112599698Y-42754877D01*
X112579417Y-42960796D01*
X112579417Y-42960803D01*
X112599698Y-43166722D01*
X112599699Y-43166730D01*
X112599700Y-43166734D01*
X112659768Y-43364754D01*
X112713100Y-43464530D01*
X112757317Y-43547253D01*
X112888586Y-43707206D01*
X112888593Y-43707213D01*
X113048546Y-43838482D01*
X113048550Y-43838485D01*
X113231046Y-43936032D01*
X113429066Y-43996100D01*
X113474413Y-44000566D01*
X113634997Y-44016383D01*
X113635000Y-44016383D01*
X113635003Y-44016383D01*
X113762455Y-44003829D01*
X113840934Y-43996100D01*
X114038954Y-43936032D01*
X114221450Y-43838485D01*
X114381410Y-43707210D01*
X114412310Y-43669557D01*
X114460313Y-43641140D01*
X114515352Y-43650227D01*
X114551673Y-43692565D01*
X114556900Y-43721292D01*
X114556900Y-44740307D01*
X114537821Y-44792726D01*
X114489511Y-44820618D01*
X114434575Y-44810931D01*
X114412311Y-44792042D01*
X114381413Y-44754393D01*
X114381406Y-44754386D01*
X114221453Y-44623117D01*
X114221451Y-44623116D01*
X114221450Y-44623115D01*
X114038954Y-44525568D01*
X114038951Y-44525567D01*
X114038949Y-44525566D01*
X113951149Y-44498933D01*
X113840934Y-44465500D01*
X113840930Y-44465499D01*
X113840922Y-44465498D01*
X113635003Y-44445217D01*
X113634997Y-44445217D01*
X113429077Y-44465498D01*
X113429067Y-44465499D01*
X113429066Y-44465500D01*
X113373958Y-44482216D01*
X113231050Y-44525566D01*
X113048546Y-44623117D01*
X112888593Y-44754386D01*
X112888586Y-44754393D01*
X112757317Y-44914346D01*
X112659766Y-45096850D01*
X112599700Y-45294867D01*
X112599698Y-45294877D01*
X112579417Y-45500796D01*
X112579417Y-45500803D01*
X112599698Y-45706722D01*
X112599699Y-45706730D01*
X112599700Y-45706734D01*
X112659768Y-45904754D01*
X112713100Y-46004530D01*
X112757317Y-46087253D01*
X112888586Y-46247206D01*
X112888593Y-46247213D01*
X113048546Y-46378482D01*
X113048550Y-46378485D01*
X113231046Y-46476032D01*
X113429066Y-46536100D01*
X113474413Y-46540566D01*
X113634997Y-46556383D01*
X113635000Y-46556383D01*
X113635003Y-46556383D01*
X113762455Y-46543829D01*
X113840934Y-46536100D01*
X114038954Y-46476032D01*
X114221450Y-46378485D01*
X114381410Y-46247210D01*
X114412310Y-46209557D01*
X114460313Y-46181140D01*
X114515352Y-46190227D01*
X114551673Y-46232565D01*
X114556900Y-46261292D01*
X114556900Y-47280307D01*
X114537821Y-47332726D01*
X114489511Y-47360618D01*
X114434575Y-47350931D01*
X114412311Y-47332042D01*
X114381413Y-47294393D01*
X114381406Y-47294386D01*
X114221453Y-47163117D01*
X114221451Y-47163116D01*
X114221450Y-47163115D01*
X114038954Y-47065568D01*
X114038951Y-47065567D01*
X114038949Y-47065566D01*
X113951149Y-47038933D01*
X113840934Y-47005500D01*
X113840930Y-47005499D01*
X113840922Y-47005498D01*
X113635003Y-46985217D01*
X113634997Y-46985217D01*
X113429077Y-47005498D01*
X113429067Y-47005499D01*
X113429066Y-47005500D01*
X113373958Y-47022216D01*
X113231050Y-47065566D01*
X113048546Y-47163117D01*
X112888593Y-47294386D01*
X112888586Y-47294393D01*
X112757317Y-47454346D01*
X112659766Y-47636850D01*
X112599700Y-47834867D01*
X112599698Y-47834877D01*
X112579417Y-48040796D01*
X112579417Y-48040803D01*
X112599698Y-48246722D01*
X112599699Y-48246730D01*
X112599700Y-48246734D01*
X112659768Y-48444754D01*
X112713100Y-48544530D01*
X112757317Y-48627253D01*
X112888586Y-48787206D01*
X112888593Y-48787213D01*
X113048546Y-48918482D01*
X113048550Y-48918485D01*
X113231046Y-49016032D01*
X113429066Y-49076100D01*
X113474413Y-49080566D01*
X113634997Y-49096383D01*
X113635000Y-49096383D01*
X113635003Y-49096383D01*
X113762455Y-49083829D01*
X113840934Y-49076100D01*
X114038954Y-49016032D01*
X114221450Y-48918485D01*
X114381410Y-48787210D01*
X114412310Y-48749557D01*
X114460313Y-48721140D01*
X114515352Y-48730227D01*
X114551673Y-48772565D01*
X114556900Y-48801292D01*
X114556900Y-49820307D01*
X114537821Y-49872726D01*
X114489511Y-49900618D01*
X114434575Y-49890931D01*
X114412311Y-49872042D01*
X114381413Y-49834393D01*
X114381406Y-49834386D01*
X114221453Y-49703117D01*
X114221451Y-49703116D01*
X114221450Y-49703115D01*
X114038954Y-49605568D01*
X114038951Y-49605567D01*
X114038949Y-49605566D01*
X113951149Y-49578933D01*
X113840934Y-49545500D01*
X113840930Y-49545499D01*
X113840922Y-49545498D01*
X113635003Y-49525217D01*
X113634997Y-49525217D01*
X113429077Y-49545498D01*
X113429067Y-49545499D01*
X113429066Y-49545500D01*
X113373958Y-49562216D01*
X113231050Y-49605566D01*
X113231046Y-49605567D01*
X113231046Y-49605568D01*
X113176919Y-49634500D01*
X113048546Y-49703117D01*
X112888593Y-49834386D01*
X112888586Y-49834393D01*
X112757317Y-49994346D01*
X112659766Y-50176850D01*
X112599700Y-50374867D01*
X112599698Y-50374877D01*
X112579417Y-50580796D01*
X112579417Y-50580803D01*
X112599698Y-50786722D01*
X112599699Y-50786730D01*
X112599700Y-50786734D01*
X112611659Y-50826158D01*
X112658506Y-50980596D01*
X112659768Y-50984754D01*
X112711474Y-51081488D01*
X112757317Y-51167253D01*
X112888586Y-51327206D01*
X112888593Y-51327213D01*
X113044312Y-51455007D01*
X113048550Y-51458485D01*
X113231046Y-51556032D01*
X113429066Y-51616100D01*
X113474413Y-51620566D01*
X113634997Y-51636383D01*
X113635000Y-51636383D01*
X113635003Y-51636383D01*
X113783762Y-51621731D01*
X113840934Y-51616100D01*
X114038954Y-51556032D01*
X114221450Y-51458485D01*
X114381410Y-51327210D01*
X114412310Y-51289557D01*
X114460313Y-51261140D01*
X114515352Y-51270227D01*
X114551673Y-51312565D01*
X114556900Y-51341292D01*
X114556900Y-52360307D01*
X114537821Y-52412726D01*
X114489511Y-52440618D01*
X114434575Y-52430931D01*
X114412311Y-52412042D01*
X114381413Y-52374393D01*
X114381406Y-52374386D01*
X114221453Y-52243117D01*
X114221451Y-52243116D01*
X114221450Y-52243115D01*
X114038954Y-52145568D01*
X114038951Y-52145567D01*
X114038949Y-52145566D01*
X113940099Y-52115581D01*
X113840934Y-52085500D01*
X113840930Y-52085499D01*
X113840922Y-52085498D01*
X113635003Y-52065217D01*
X113634997Y-52065217D01*
X113429077Y-52085498D01*
X113429067Y-52085499D01*
X113429066Y-52085500D01*
X113404098Y-52093074D01*
X113231050Y-52145566D01*
X113231046Y-52145567D01*
X113231046Y-52145568D01*
X113139798Y-52194341D01*
X113048546Y-52243117D01*
X112888593Y-52374386D01*
X112888586Y-52374393D01*
X112757317Y-52534346D01*
X112659766Y-52716850D01*
X112599700Y-52914867D01*
X112599698Y-52914877D01*
X112579417Y-53120796D01*
X112579417Y-53120803D01*
X112599698Y-53326722D01*
X112599699Y-53326730D01*
X112599700Y-53326734D01*
X112659768Y-53524754D01*
X112720864Y-53639055D01*
X112757317Y-53707253D01*
X112888586Y-53867206D01*
X112888593Y-53867213D01*
X112954845Y-53921584D01*
X113048550Y-53998485D01*
X113231046Y-54096032D01*
X113429066Y-54156100D01*
X113474413Y-54160566D01*
X113634997Y-54176383D01*
X113635000Y-54176383D01*
X113635003Y-54176383D01*
X113764177Y-54163660D01*
X113840934Y-54156100D01*
X114038954Y-54096032D01*
X114221450Y-53998485D01*
X114381410Y-53867210D01*
X114412310Y-53829557D01*
X114460313Y-53801140D01*
X114515352Y-53810227D01*
X114551673Y-53852565D01*
X114556900Y-53881292D01*
X114556900Y-54900307D01*
X114537821Y-54952726D01*
X114489511Y-54980618D01*
X114434575Y-54970931D01*
X114412311Y-54952042D01*
X114381413Y-54914393D01*
X114381406Y-54914386D01*
X114221453Y-54783117D01*
X114221451Y-54783116D01*
X114221450Y-54783115D01*
X114038954Y-54685568D01*
X114038951Y-54685567D01*
X114038949Y-54685566D01*
X113951149Y-54658933D01*
X113840934Y-54625500D01*
X113840930Y-54625499D01*
X113840922Y-54625498D01*
X113635003Y-54605217D01*
X113634997Y-54605217D01*
X113429077Y-54625498D01*
X113429067Y-54625499D01*
X113429066Y-54625500D01*
X113373958Y-54642216D01*
X113231050Y-54685566D01*
X113048546Y-54783117D01*
X112888593Y-54914386D01*
X112888586Y-54914393D01*
X112757317Y-55074346D01*
X112659766Y-55256850D01*
X112599700Y-55454867D01*
X112599698Y-55454877D01*
X112579417Y-55660796D01*
X112579417Y-55660803D01*
X112599698Y-55866722D01*
X112599699Y-55866730D01*
X112599700Y-55866734D01*
X112659768Y-56064754D01*
X112726791Y-56190144D01*
X112757317Y-56247253D01*
X112888586Y-56407206D01*
X112888593Y-56407213D01*
X113033817Y-56526394D01*
X113048550Y-56538485D01*
X113231046Y-56636032D01*
X113429066Y-56696100D01*
X113474413Y-56700566D01*
X113634997Y-56716383D01*
X113635000Y-56716383D01*
X113635003Y-56716383D01*
X113762455Y-56703829D01*
X113840934Y-56696100D01*
X114038954Y-56636032D01*
X114221450Y-56538485D01*
X114381410Y-56407210D01*
X114412310Y-56369557D01*
X114460313Y-56341140D01*
X114515352Y-56350227D01*
X114551673Y-56392565D01*
X114556900Y-56421292D01*
X114556900Y-57440307D01*
X114537821Y-57492726D01*
X114489511Y-57520618D01*
X114434575Y-57510931D01*
X114412311Y-57492042D01*
X114381413Y-57454393D01*
X114381406Y-57454386D01*
X114221453Y-57323117D01*
X114221451Y-57323116D01*
X114221450Y-57323115D01*
X114038954Y-57225568D01*
X114038951Y-57225567D01*
X114038949Y-57225566D01*
X113951149Y-57198933D01*
X113840934Y-57165500D01*
X113840930Y-57165499D01*
X113840922Y-57165498D01*
X113635003Y-57145217D01*
X113634997Y-57145217D01*
X113429077Y-57165498D01*
X113429067Y-57165499D01*
X113429066Y-57165500D01*
X113373958Y-57182216D01*
X113231050Y-57225566D01*
X113048546Y-57323117D01*
X112888593Y-57454386D01*
X112888586Y-57454393D01*
X112757317Y-57614346D01*
X112659766Y-57796850D01*
X112599700Y-57994867D01*
X112599698Y-57994877D01*
X112579417Y-58200796D01*
X112579417Y-58200803D01*
X112599698Y-58406722D01*
X112599699Y-58406730D01*
X112599700Y-58406734D01*
X112659768Y-58604754D01*
X112713100Y-58704530D01*
X112757317Y-58787253D01*
X112888586Y-58947206D01*
X112888593Y-58947213D01*
X113048546Y-59078482D01*
X113048550Y-59078485D01*
X113231046Y-59176032D01*
X113429066Y-59236100D01*
X113474413Y-59240566D01*
X113634997Y-59256383D01*
X113635000Y-59256383D01*
X113635003Y-59256383D01*
X113762455Y-59243829D01*
X113840934Y-59236100D01*
X114038954Y-59176032D01*
X114221450Y-59078485D01*
X114381410Y-58947210D01*
X114412310Y-58909557D01*
X114460313Y-58881140D01*
X114515352Y-58890227D01*
X114551673Y-58932565D01*
X114556900Y-58961292D01*
X114556900Y-59980307D01*
X114537821Y-60032726D01*
X114489511Y-60060618D01*
X114434575Y-60050931D01*
X114412311Y-60032042D01*
X114381413Y-59994393D01*
X114381406Y-59994386D01*
X114221453Y-59863117D01*
X114221451Y-59863116D01*
X114221450Y-59863115D01*
X114038954Y-59765568D01*
X114038951Y-59765567D01*
X114038949Y-59765566D01*
X113951149Y-59738933D01*
X113840934Y-59705500D01*
X113840930Y-59705499D01*
X113840922Y-59705498D01*
X113635003Y-59685217D01*
X113634997Y-59685217D01*
X113429077Y-59705498D01*
X113429067Y-59705499D01*
X113429066Y-59705500D01*
X113373958Y-59722216D01*
X113231050Y-59765566D01*
X113048546Y-59863117D01*
X112888593Y-59994386D01*
X112888586Y-59994393D01*
X112757317Y-60154346D01*
X112659766Y-60336850D01*
X112599700Y-60534867D01*
X112599698Y-60534877D01*
X112579417Y-60740796D01*
X112579417Y-60740803D01*
X112599698Y-60946722D01*
X112599699Y-60946730D01*
X112599700Y-60946734D01*
X112633133Y-61056949D01*
X112657832Y-61138374D01*
X112659768Y-61144754D01*
X112757315Y-61327250D01*
X112757317Y-61327253D01*
X112888586Y-61487206D01*
X112888593Y-61487213D01*
X113009961Y-61586816D01*
X113048550Y-61618485D01*
X113231046Y-61716032D01*
X113429066Y-61776100D01*
X113474413Y-61780566D01*
X113634997Y-61796383D01*
X113635000Y-61796383D01*
X113635003Y-61796383D01*
X113762455Y-61783829D01*
X113840934Y-61776100D01*
X114038954Y-61716032D01*
X114221450Y-61618485D01*
X114381410Y-61487210D01*
X114412310Y-61449557D01*
X114460313Y-61421140D01*
X114515352Y-61430227D01*
X114551673Y-61472565D01*
X114556900Y-61501292D01*
X114556900Y-62520307D01*
X114537821Y-62572726D01*
X114489511Y-62600618D01*
X114434575Y-62590931D01*
X114412311Y-62572042D01*
X114381413Y-62534393D01*
X114381406Y-62534386D01*
X114221453Y-62403117D01*
X114221451Y-62403116D01*
X114221450Y-62403115D01*
X114038954Y-62305568D01*
X114038951Y-62305567D01*
X114038949Y-62305566D01*
X113951149Y-62278933D01*
X113840934Y-62245500D01*
X113840930Y-62245499D01*
X113840922Y-62245498D01*
X113635003Y-62225217D01*
X113634997Y-62225217D01*
X113429077Y-62245498D01*
X113429067Y-62245499D01*
X113429066Y-62245500D01*
X113373958Y-62262216D01*
X113231050Y-62305566D01*
X113048546Y-62403117D01*
X112888593Y-62534386D01*
X112888586Y-62534393D01*
X112757317Y-62694346D01*
X112659766Y-62876850D01*
X112599700Y-63074867D01*
X112599698Y-63074877D01*
X112579417Y-63280796D01*
X112579417Y-63280803D01*
X112599698Y-63486722D01*
X112599699Y-63486730D01*
X112599700Y-63486734D01*
X112614766Y-63536400D01*
X112657978Y-63678855D01*
X112659768Y-63684754D01*
X112746810Y-63847596D01*
X112757317Y-63867253D01*
X112888586Y-64027206D01*
X112888593Y-64027213D01*
X113048360Y-64158329D01*
X113048550Y-64158485D01*
X113231046Y-64256032D01*
X113429066Y-64316100D01*
X113474413Y-64320566D01*
X113634997Y-64336383D01*
X113635000Y-64336383D01*
X113635003Y-64336383D01*
X113762455Y-64323829D01*
X113840934Y-64316100D01*
X114038954Y-64256032D01*
X114221450Y-64158485D01*
X114381410Y-64027210D01*
X114412310Y-63989557D01*
X114460313Y-63961140D01*
X114515352Y-63970227D01*
X114551673Y-64012565D01*
X114556900Y-64041292D01*
X114556900Y-65060307D01*
X114537821Y-65112726D01*
X114489511Y-65140618D01*
X114434575Y-65130931D01*
X114412311Y-65112042D01*
X114381413Y-65074393D01*
X114381406Y-65074386D01*
X114221453Y-64943117D01*
X114221451Y-64943116D01*
X114221450Y-64943115D01*
X114038954Y-64845568D01*
X114038951Y-64845567D01*
X114038949Y-64845566D01*
X113951149Y-64818933D01*
X113840934Y-64785500D01*
X113840930Y-64785499D01*
X113840922Y-64785498D01*
X113635003Y-64765217D01*
X113634997Y-64765217D01*
X113429077Y-64785498D01*
X113429067Y-64785499D01*
X113429066Y-64785500D01*
X113373958Y-64802216D01*
X113231050Y-64845566D01*
X113048546Y-64943117D01*
X112888593Y-65074386D01*
X112888586Y-65074393D01*
X112757317Y-65234346D01*
X112757315Y-65234350D01*
X112661695Y-65413242D01*
X112659766Y-65416850D01*
X112617336Y-65556727D01*
X112601305Y-65609577D01*
X112599700Y-65614867D01*
X112599698Y-65614877D01*
X112579417Y-65820796D01*
X112579417Y-65820803D01*
X112599698Y-66026722D01*
X112599699Y-66026730D01*
X112599700Y-66026734D01*
X112606459Y-66049015D01*
X112658629Y-66221001D01*
X112659768Y-66224754D01*
X112724204Y-66345304D01*
X112757317Y-66407253D01*
X112888586Y-66567206D01*
X112888593Y-66567213D01*
X113020361Y-66675351D01*
X113048550Y-66698485D01*
X113231046Y-66796032D01*
X113429066Y-66856100D01*
X113474413Y-66860566D01*
X113634997Y-66876383D01*
X113635000Y-66876383D01*
X113635003Y-66876383D01*
X113762455Y-66863829D01*
X113840934Y-66856100D01*
X114038954Y-66796032D01*
X114221450Y-66698485D01*
X114381410Y-66567210D01*
X114412310Y-66529557D01*
X114460313Y-66501140D01*
X114515352Y-66510227D01*
X114551673Y-66552565D01*
X114556900Y-66581292D01*
X114556900Y-67600307D01*
X114537821Y-67652726D01*
X114489511Y-67680618D01*
X114434575Y-67670931D01*
X114412311Y-67652042D01*
X114381413Y-67614393D01*
X114381406Y-67614386D01*
X114221453Y-67483117D01*
X114221451Y-67483116D01*
X114221450Y-67483115D01*
X114038954Y-67385568D01*
X114038951Y-67385567D01*
X114038949Y-67385566D01*
X113951149Y-67358933D01*
X113840934Y-67325500D01*
X113840930Y-67325499D01*
X113840922Y-67325498D01*
X113635003Y-67305217D01*
X113634997Y-67305217D01*
X113429077Y-67325498D01*
X113429067Y-67325499D01*
X113429066Y-67325500D01*
X113373958Y-67342216D01*
X113231050Y-67385566D01*
X113231046Y-67385567D01*
X113231046Y-67385568D01*
X113148856Y-67429500D01*
X113048546Y-67483117D01*
X112888593Y-67614386D01*
X112888586Y-67614393D01*
X112757317Y-67774346D01*
X112659766Y-67956850D01*
X112642477Y-68013847D01*
X112603551Y-68142173D01*
X112599700Y-68154867D01*
X112599698Y-68154877D01*
X112579417Y-68360796D01*
X112579417Y-68360803D01*
X112599698Y-68566722D01*
X112599699Y-68566730D01*
X112599700Y-68566734D01*
X112633133Y-68676949D01*
X112654434Y-68747172D01*
X112659768Y-68764754D01*
X112750101Y-68933753D01*
X112757317Y-68947253D01*
X112888586Y-69107206D01*
X112888593Y-69107213D01*
X113046514Y-69236814D01*
X113048550Y-69238485D01*
X113231046Y-69336032D01*
X113429066Y-69396100D01*
X113474413Y-69400566D01*
X113634997Y-69416383D01*
X113635000Y-69416383D01*
X113635003Y-69416383D01*
X113762455Y-69403829D01*
X113840934Y-69396100D01*
X114038954Y-69336032D01*
X114221450Y-69238485D01*
X114381410Y-69107210D01*
X114412310Y-69069557D01*
X114460313Y-69041140D01*
X114515352Y-69050227D01*
X114551673Y-69092565D01*
X114556900Y-69121292D01*
X114556900Y-70140307D01*
X114537821Y-70192726D01*
X114489511Y-70220618D01*
X114434575Y-70210931D01*
X114412311Y-70192042D01*
X114381413Y-70154393D01*
X114381406Y-70154386D01*
X114221453Y-70023117D01*
X114221451Y-70023116D01*
X114221450Y-70023115D01*
X114038954Y-69925568D01*
X114038951Y-69925567D01*
X114038949Y-69925566D01*
X113951149Y-69898933D01*
X113840934Y-69865500D01*
X113840930Y-69865499D01*
X113840922Y-69865498D01*
X113635003Y-69845217D01*
X113634997Y-69845217D01*
X113429077Y-69865498D01*
X113429067Y-69865499D01*
X113429066Y-69865500D01*
X113330056Y-69895534D01*
X113231045Y-69925568D01*
X113174573Y-69955752D01*
X113119349Y-69963635D01*
X113078467Y-69941496D01*
X111637027Y-68500056D01*
X111613452Y-68449499D01*
X111627890Y-68395616D01*
X111671715Y-68364145D01*
X111792253Y-68328753D01*
X111913328Y-68250943D01*
X112007577Y-68142173D01*
X112067365Y-68011257D01*
X112087847Y-67868800D01*
X112067365Y-67726343D01*
X112007577Y-67595427D01*
X111913328Y-67486657D01*
X111904126Y-67480743D01*
X111893463Y-67473890D01*
X111859680Y-67429500D01*
X111858781Y-67426393D01*
X111845961Y-67378550D01*
X111845960Y-67378549D01*
X111845960Y-67378547D01*
X111808696Y-67314003D01*
X111799910Y-67305217D01*
X111755997Y-67261303D01*
X111755997Y-67261304D01*
X111709925Y-67215232D01*
X111686350Y-67164675D01*
X111700788Y-67110792D01*
X111741805Y-67081342D01*
X111741672Y-67081051D01*
X111743152Y-67080374D01*
X111744623Y-67079318D01*
X111746979Y-67078627D01*
X111868054Y-67000817D01*
X111962303Y-66892047D01*
X112022091Y-66761131D01*
X112042573Y-66618674D01*
X112022091Y-66476217D01*
X111962303Y-66345301D01*
X111868054Y-66236531D01*
X111746979Y-66158721D01*
X111746980Y-66158721D01*
X111608887Y-66118174D01*
X111489600Y-66118174D01*
X111437181Y-66099095D01*
X111409289Y-66050785D01*
X111408050Y-66036624D01*
X111408050Y-38047821D01*
X111427129Y-37995402D01*
X111431913Y-37990179D01*
X111770208Y-37651884D01*
X111820763Y-37628310D01*
X111827871Y-37628000D01*
X111966261Y-37628000D01*
X112104353Y-37587453D01*
X112225428Y-37509643D01*
X112319677Y-37400873D01*
X112379465Y-37269957D01*
X112399947Y-37127500D01*
X112379465Y-36985043D01*
X112319677Y-36854127D01*
X112225428Y-36745357D01*
X112104353Y-36667547D01*
X112104354Y-36667547D01*
X111966261Y-36627000D01*
X111822339Y-36627000D01*
X111684245Y-36667547D01*
X111563174Y-36745355D01*
X111563172Y-36745356D01*
X111563172Y-36745357D01*
X111476400Y-36845498D01*
X111468923Y-36854127D01*
X111468921Y-36854130D01*
X111409136Y-36985039D01*
X111409134Y-36985044D01*
X111388653Y-37127500D01*
X111388653Y-37127501D01*
X111396086Y-37179206D01*
X111384660Y-37233807D01*
X111373031Y-37248474D01*
X110951203Y-37670303D01*
X110898505Y-37723001D01*
X110861238Y-37787550D01*
X110841950Y-37859530D01*
X110841950Y-66150377D01*
X110822871Y-66202796D01*
X110774561Y-66230688D01*
X110719625Y-66221001D01*
X110702735Y-66208042D01*
X109907935Y-65413242D01*
X109884360Y-65362685D01*
X109884050Y-65355577D01*
X109884050Y-56579086D01*
X109884049Y-56579079D01*
X109864761Y-56507099D01*
X109864760Y-56507098D01*
X109864760Y-56507096D01*
X109827496Y-56442552D01*
X109806236Y-56421292D01*
X109774797Y-56389852D01*
X109774797Y-56389853D01*
X108559034Y-55174090D01*
X108535459Y-55123533D01*
X108535149Y-55116425D01*
X108535149Y-47784530D01*
X108535979Y-47772924D01*
X108536765Y-47767455D01*
X108557247Y-47625000D01*
X108536765Y-47482543D01*
X108476977Y-47351627D01*
X108382728Y-47242857D01*
X108261653Y-47165047D01*
X108261654Y-47165047D01*
X108123561Y-47124500D01*
X107979639Y-47124500D01*
X107841545Y-47165047D01*
X107720474Y-47242855D01*
X107626223Y-47351627D01*
X107626221Y-47351630D01*
X107566436Y-47482539D01*
X107566434Y-47482544D01*
X107545953Y-47625000D01*
X107566434Y-47767455D01*
X107566436Y-47767460D01*
X107570962Y-47777370D01*
X107626223Y-47898373D01*
X107720472Y-48007143D01*
X107841547Y-48084953D01*
X107910473Y-48105191D01*
X107955395Y-48138265D01*
X107969049Y-48183438D01*
X107969049Y-49915660D01*
X107949970Y-49968079D01*
X107901660Y-49995971D01*
X107846724Y-49986284D01*
X107813464Y-49946647D01*
X107812588Y-49947048D01*
X107811139Y-49943877D01*
X107810867Y-49943552D01*
X107810548Y-49942582D01*
X107798253Y-49915660D01*
X107750377Y-49810827D01*
X107656128Y-49702057D01*
X107535053Y-49624247D01*
X107535054Y-49624247D01*
X107396961Y-49583700D01*
X107253039Y-49583700D01*
X107114945Y-49624247D01*
X106993872Y-49702056D01*
X106993871Y-49702057D01*
X106929431Y-49776425D01*
X106880685Y-49803547D01*
X106825910Y-49792989D01*
X106806169Y-49776425D01*
X106741728Y-49702057D01*
X106741727Y-49702056D01*
X106620653Y-49624247D01*
X106620654Y-49624247D01*
X106482561Y-49583700D01*
X106338639Y-49583700D01*
X106200545Y-49624247D01*
X106079472Y-49702056D01*
X106079469Y-49702058D01*
X106065830Y-49717799D01*
X106017083Y-49744920D01*
X105962308Y-49734362D01*
X105942570Y-49717799D01*
X105928930Y-49702058D01*
X105928927Y-49702056D01*
X105807853Y-49624247D01*
X105807854Y-49624247D01*
X105669761Y-49583700D01*
X105525839Y-49583700D01*
X105387745Y-49624247D01*
X105266672Y-49702056D01*
X105266669Y-49702058D01*
X105253030Y-49717799D01*
X105204283Y-49744920D01*
X105149508Y-49734362D01*
X105129770Y-49717799D01*
X105116130Y-49702058D01*
X105116127Y-49702056D01*
X104995053Y-49624247D01*
X104995054Y-49624247D01*
X104856961Y-49583700D01*
X104713039Y-49583700D01*
X104574945Y-49624247D01*
X104453872Y-49702056D01*
X104453871Y-49702057D01*
X104414831Y-49747112D01*
X104366085Y-49774234D01*
X104311310Y-49763677D01*
X104291569Y-49747112D01*
X104252528Y-49702057D01*
X104252527Y-49702056D01*
X104131453Y-49624247D01*
X104131454Y-49624247D01*
X103993361Y-49583700D01*
X103849439Y-49583700D01*
X103711345Y-49624247D01*
X103590274Y-49702055D01*
X103590272Y-49702056D01*
X103590272Y-49702057D01*
X103532081Y-49769214D01*
X103496023Y-49810827D01*
X103496021Y-49810830D01*
X103436236Y-49941739D01*
X103436234Y-49941744D01*
X103415753Y-50084200D01*
X103436234Y-50226655D01*
X103436236Y-50226660D01*
X103496021Y-50357569D01*
X103496025Y-50357576D01*
X103538860Y-50407010D01*
X103558769Y-50459120D01*
X103540524Y-50511836D01*
X103521319Y-50529018D01*
X103453872Y-50572363D01*
X103415313Y-50616862D01*
X103392396Y-50643311D01*
X103343650Y-50670433D01*
X103330765Y-50671457D01*
X101777075Y-50671457D01*
X101750720Y-50678519D01*
X101695149Y-50673656D01*
X101655705Y-50634210D01*
X101650844Y-50578639D01*
X101651458Y-50576351D01*
X101664450Y-50527864D01*
X101665834Y-50522700D01*
X101668365Y-50523378D01*
X101689660Y-50482448D01*
X101700674Y-50473960D01*
X101712528Y-50466343D01*
X101806777Y-50357573D01*
X101866565Y-50226657D01*
X101887047Y-50084200D01*
X101866565Y-49941743D01*
X101806777Y-49810827D01*
X101712528Y-49702057D01*
X101591453Y-49624247D01*
X101591454Y-49624247D01*
X101453361Y-49583700D01*
X101309439Y-49583700D01*
X101171345Y-49624247D01*
X101050272Y-49702056D01*
X101050271Y-49702057D01*
X100957423Y-49809210D01*
X100908677Y-49836332D01*
X100853902Y-49825775D01*
X100834160Y-49809209D01*
X100798971Y-49768599D01*
X100785331Y-49752857D01*
X100785330Y-49752856D01*
X100664256Y-49675047D01*
X100664257Y-49675047D01*
X100526164Y-49634500D01*
X100382242Y-49634500D01*
X100244148Y-49675047D01*
X100123075Y-49752856D01*
X100123074Y-49752856D01*
X100115830Y-49761217D01*
X100067082Y-49788336D01*
X100012307Y-49777777D01*
X99992570Y-49761214D01*
X99985329Y-49752857D01*
X99985327Y-49752856D01*
X99864253Y-49675047D01*
X99864254Y-49675047D01*
X99726161Y-49634500D01*
X99582239Y-49634500D01*
X99444145Y-49675047D01*
X99323072Y-49752856D01*
X99323069Y-49752858D01*
X99309430Y-49768599D01*
X99260683Y-49795720D01*
X99205908Y-49785162D01*
X99186170Y-49768599D01*
X99172530Y-49752858D01*
X99172527Y-49752856D01*
X99051453Y-49675047D01*
X99051454Y-49675047D01*
X98913361Y-49634500D01*
X98769439Y-49634500D01*
X98631345Y-49675047D01*
X98510272Y-49752856D01*
X98510271Y-49752857D01*
X98435966Y-49838610D01*
X98387220Y-49865732D01*
X98332445Y-49855175D01*
X98312706Y-49838612D01*
X98245331Y-49760857D01*
X98220532Y-49744920D01*
X98124256Y-49683047D01*
X98124257Y-49683047D01*
X97986164Y-49642500D01*
X97842242Y-49642500D01*
X97704148Y-49683047D01*
X97583075Y-49760856D01*
X97583074Y-49760856D01*
X97575830Y-49769217D01*
X97527082Y-49796336D01*
X97472307Y-49785777D01*
X97452570Y-49769214D01*
X97445329Y-49760857D01*
X97445327Y-49760856D01*
X97324253Y-49683047D01*
X97324254Y-49683047D01*
X97186161Y-49642500D01*
X97042239Y-49642500D01*
X96904145Y-49683047D01*
X96783072Y-49760856D01*
X96783071Y-49760857D01*
X96744031Y-49805912D01*
X96695285Y-49833034D01*
X96640510Y-49822477D01*
X96620769Y-49805912D01*
X96581728Y-49760857D01*
X96581727Y-49760856D01*
X96460653Y-49683047D01*
X96460654Y-49683047D01*
X96322561Y-49642500D01*
X96178639Y-49642500D01*
X96040545Y-49683047D01*
X95919474Y-49760855D01*
X95919472Y-49760856D01*
X95919472Y-49760857D01*
X95863987Y-49824891D01*
X95825223Y-49869627D01*
X95825221Y-49869630D01*
X95765436Y-50000539D01*
X95765434Y-50000544D01*
X95744953Y-50143000D01*
X95765434Y-50285455D01*
X95765436Y-50285460D01*
X95820947Y-50407010D01*
X95825223Y-50416373D01*
X95919472Y-50525143D01*
X95930087Y-50531964D01*
X95963871Y-50576351D01*
X95967550Y-50600569D01*
X95967550Y-52022406D01*
X95948471Y-52074825D01*
X95943665Y-52080071D01*
X93818065Y-54205671D01*
X93767508Y-54229246D01*
X93713625Y-54214808D01*
X93681629Y-54169113D01*
X93678850Y-54148006D01*
X93678850Y-51208301D01*
X94508203Y-51208301D01*
X94528684Y-51350756D01*
X94528686Y-51350761D01*
X94588471Y-51481670D01*
X94588473Y-51481674D01*
X94682722Y-51590444D01*
X94803797Y-51668254D01*
X94941889Y-51708801D01*
X95085811Y-51708801D01*
X95223903Y-51668254D01*
X95344978Y-51590444D01*
X95439227Y-51481674D01*
X95499015Y-51350758D01*
X95519497Y-51208301D01*
X95499015Y-51065844D01*
X95439227Y-50934928D01*
X95344978Y-50826158D01*
X95223903Y-50748348D01*
X95223904Y-50748348D01*
X95085811Y-50707801D01*
X94941889Y-50707801D01*
X94803795Y-50748348D01*
X94682724Y-50826156D01*
X94682722Y-50826157D01*
X94682722Y-50826158D01*
X94662959Y-50848966D01*
X94588473Y-50934928D01*
X94588471Y-50934931D01*
X94528686Y-51065840D01*
X94528684Y-51065845D01*
X94508203Y-51208301D01*
X93678850Y-51208301D01*
X93678850Y-39572137D01*
X93678849Y-39572130D01*
X93659561Y-39500150D01*
X93659560Y-39500149D01*
X93659560Y-39500147D01*
X93622296Y-39435603D01*
X93622294Y-39435601D01*
X93569597Y-39382903D01*
X93569597Y-39382904D01*
X93063467Y-38876774D01*
X93039892Y-38826217D01*
X93040411Y-38807511D01*
X93047847Y-38755800D01*
X93027365Y-38613343D01*
X92967577Y-38482427D01*
X92873328Y-38373657D01*
X92752253Y-38295847D01*
X92752254Y-38295847D01*
X92614161Y-38255300D01*
X92470239Y-38255300D01*
X92332145Y-38295847D01*
X92211074Y-38373655D01*
X92116823Y-38482427D01*
X92116821Y-38482430D01*
X92057036Y-38613339D01*
X92057034Y-38613344D01*
X92036553Y-38755800D01*
X92057034Y-38898255D01*
X92057036Y-38898260D01*
X92116821Y-39029169D01*
X92116823Y-39029173D01*
X92211072Y-39137943D01*
X92332147Y-39215753D01*
X92470239Y-39256300D01*
X92608627Y-39256300D01*
X92661046Y-39275379D01*
X92666292Y-39280185D01*
X93088865Y-39702758D01*
X93112440Y-39753315D01*
X93112750Y-39760423D01*
X93112750Y-65609577D01*
X93093671Y-65661996D01*
X93088865Y-65667241D01*
X92707090Y-66049015D01*
X92656535Y-66072590D01*
X92649427Y-66072900D01*
X92511039Y-66072900D01*
X92372945Y-66113447D01*
X92251874Y-66191255D01*
X92251872Y-66191256D01*
X92251872Y-66191257D01*
X92237328Y-66208042D01*
X92157623Y-66300027D01*
X92157621Y-66300030D01*
X92097836Y-66430939D01*
X92097834Y-66430944D01*
X92077353Y-66573400D01*
X92097834Y-66715855D01*
X92097836Y-66715860D01*
X92157621Y-66846769D01*
X92157623Y-66846773D01*
X92251872Y-66955543D01*
X92372947Y-67033353D01*
X92511039Y-67073900D01*
X92654961Y-67073900D01*
X92793053Y-67033353D01*
X92914128Y-66955543D01*
X93008377Y-66846773D01*
X93068165Y-66715857D01*
X93088647Y-66573400D01*
X93081212Y-66521693D01*
X93092636Y-66467094D01*
X93104263Y-66452428D01*
X93380437Y-66176255D01*
X93430993Y-66152681D01*
X93484875Y-66167119D01*
X93516871Y-66212814D01*
X93519650Y-66233921D01*
X93519650Y-67011476D01*
X93500571Y-67063895D01*
X93495765Y-67069141D01*
X92615491Y-67949415D01*
X92564934Y-67972990D01*
X92557826Y-67973300D01*
X92419439Y-67973300D01*
X92281345Y-68013847D01*
X92160274Y-68091655D01*
X92160272Y-68091656D01*
X92160272Y-68091657D01*
X92116501Y-68142172D01*
X92066023Y-68200427D01*
X92066021Y-68200430D01*
X92006236Y-68331339D01*
X92006234Y-68331344D01*
X91985753Y-68473800D01*
X92006234Y-68616255D01*
X92006235Y-68616257D01*
X92066023Y-68747173D01*
X92160272Y-68855943D01*
X92281347Y-68933753D01*
X92419439Y-68974300D01*
X92563361Y-68974300D01*
X92701453Y-68933753D01*
X92822528Y-68855943D01*
X92916777Y-68747173D01*
X92976565Y-68616257D01*
X92997047Y-68473800D01*
X92989612Y-68422093D01*
X93001036Y-68367495D01*
X93012663Y-68352828D01*
X93745536Y-67619956D01*
X93796093Y-67596382D01*
X93849975Y-67610820D01*
X93881971Y-67656515D01*
X93884750Y-67677622D01*
X93884750Y-69033976D01*
X93865671Y-69086395D01*
X93860865Y-69091641D01*
X92564691Y-70387815D01*
X92514134Y-70411390D01*
X92507026Y-70411700D01*
X92368639Y-70411700D01*
X92230545Y-70452247D01*
X92109474Y-70530055D01*
X92015223Y-70638827D01*
X92015222Y-70638828D01*
X91967796Y-70742674D01*
X91928665Y-70782430D01*
X91873134Y-70787732D01*
X91827187Y-70756099D01*
X91812459Y-70716789D01*
X91810300Y-70694866D01*
X91750232Y-70496846D01*
X91652685Y-70314350D01*
X91597930Y-70247630D01*
X91521413Y-70154393D01*
X91521406Y-70154386D01*
X91361453Y-70023117D01*
X91361451Y-70023116D01*
X91361450Y-70023115D01*
X91178954Y-69925568D01*
X91178951Y-69925567D01*
X91178949Y-69925566D01*
X91091149Y-69898933D01*
X90980934Y-69865500D01*
X90980930Y-69865499D01*
X90980922Y-69865498D01*
X90775003Y-69845217D01*
X90774997Y-69845217D01*
X90569077Y-69865498D01*
X90569067Y-69865499D01*
X90569066Y-69865500D01*
X90513958Y-69882216D01*
X90371050Y-69925566D01*
X90188546Y-70023117D01*
X90028593Y-70154386D01*
X90028586Y-70154393D01*
X89997689Y-70192042D01*
X89949686Y-70220459D01*
X89894648Y-70211372D01*
X89858327Y-70169033D01*
X89853100Y-70140307D01*
X89853100Y-69121292D01*
X89872179Y-69068873D01*
X89920489Y-69040981D01*
X89975425Y-69050668D01*
X89997690Y-69069558D01*
X90028587Y-69107207D01*
X90028593Y-69107213D01*
X90186514Y-69236814D01*
X90188550Y-69238485D01*
X90371046Y-69336032D01*
X90569066Y-69396100D01*
X90614413Y-69400566D01*
X90774997Y-69416383D01*
X90775000Y-69416383D01*
X90775003Y-69416383D01*
X90902455Y-69403829D01*
X90980934Y-69396100D01*
X91178954Y-69336032D01*
X91361450Y-69238485D01*
X91521410Y-69107210D01*
X91652685Y-68947250D01*
X91750232Y-68764754D01*
X91810300Y-68566734D01*
X91829746Y-68369300D01*
X91830583Y-68360803D01*
X91830583Y-68360796D01*
X91810301Y-68154877D01*
X91810300Y-68154866D01*
X91750232Y-67956846D01*
X91652685Y-67774350D01*
X91607877Y-67719751D01*
X91521413Y-67614393D01*
X91521406Y-67614386D01*
X91361453Y-67483117D01*
X91361451Y-67483116D01*
X91361450Y-67483115D01*
X91178954Y-67385568D01*
X91178951Y-67385567D01*
X91178949Y-67385566D01*
X91091149Y-67358933D01*
X90980934Y-67325500D01*
X90980930Y-67325499D01*
X90980922Y-67325498D01*
X90775003Y-67305217D01*
X90774997Y-67305217D01*
X90569077Y-67325498D01*
X90569067Y-67325499D01*
X90569066Y-67325500D01*
X90513958Y-67342216D01*
X90371050Y-67385566D01*
X90371046Y-67385567D01*
X90371046Y-67385568D01*
X90288856Y-67429500D01*
X90188546Y-67483117D01*
X90028593Y-67614386D01*
X90028586Y-67614393D01*
X89997689Y-67652042D01*
X89949686Y-67680459D01*
X89894648Y-67671372D01*
X89858327Y-67629033D01*
X89853100Y-67600307D01*
X89853100Y-66581292D01*
X89872179Y-66528873D01*
X89920489Y-66500981D01*
X89975425Y-66510668D01*
X89997690Y-66529558D01*
X90028587Y-66567207D01*
X90028593Y-66567213D01*
X90160361Y-66675351D01*
X90188550Y-66698485D01*
X90371046Y-66796032D01*
X90569066Y-66856100D01*
X90614413Y-66860566D01*
X90774997Y-66876383D01*
X90775000Y-66876383D01*
X90775003Y-66876383D01*
X90902455Y-66863829D01*
X90980934Y-66856100D01*
X91178954Y-66796032D01*
X91361450Y-66698485D01*
X91521410Y-66567210D01*
X91652685Y-66407250D01*
X91750232Y-66224754D01*
X91810300Y-66026734D01*
X91824050Y-65887127D01*
X91830583Y-65820803D01*
X91830583Y-65820796D01*
X91810301Y-65614877D01*
X91810300Y-65614866D01*
X91750232Y-65416846D01*
X91652685Y-65234350D01*
X91594006Y-65162849D01*
X91521413Y-65074393D01*
X91521406Y-65074386D01*
X91361453Y-64943117D01*
X91361451Y-64943116D01*
X91361450Y-64943115D01*
X91178954Y-64845568D01*
X91178951Y-64845567D01*
X91178949Y-64845566D01*
X91091149Y-64818933D01*
X90980934Y-64785500D01*
X90980930Y-64785499D01*
X90980922Y-64785498D01*
X90775003Y-64765217D01*
X90774997Y-64765217D01*
X90569077Y-64785498D01*
X90569067Y-64785499D01*
X90569066Y-64785500D01*
X90513958Y-64802216D01*
X90371050Y-64845566D01*
X90188546Y-64943117D01*
X90028593Y-65074386D01*
X90028586Y-65074393D01*
X89997689Y-65112042D01*
X89949686Y-65140459D01*
X89894648Y-65131372D01*
X89858327Y-65089033D01*
X89853100Y-65060307D01*
X89853100Y-64041292D01*
X89872179Y-63988873D01*
X89920489Y-63960981D01*
X89975425Y-63970668D01*
X89997690Y-63989558D01*
X90028587Y-64027207D01*
X90028593Y-64027213D01*
X90188360Y-64158329D01*
X90188550Y-64158485D01*
X90371046Y-64256032D01*
X90569066Y-64316100D01*
X90614413Y-64320566D01*
X90774997Y-64336383D01*
X90775000Y-64336383D01*
X90775003Y-64336383D01*
X90902455Y-64323829D01*
X90980934Y-64316100D01*
X91178954Y-64256032D01*
X91361450Y-64158485D01*
X91521410Y-64027210D01*
X91652685Y-63867250D01*
X91750232Y-63684754D01*
X91810300Y-63486734D01*
X91830583Y-63280800D01*
X91828832Y-63263027D01*
X91810301Y-63074877D01*
X91810300Y-63074866D01*
X91750232Y-62876846D01*
X91652685Y-62694350D01*
X91638097Y-62676574D01*
X91521413Y-62534393D01*
X91521406Y-62534386D01*
X91361453Y-62403117D01*
X91361451Y-62403116D01*
X91361450Y-62403115D01*
X91178954Y-62305568D01*
X91178951Y-62305567D01*
X91178949Y-62305566D01*
X91091149Y-62278933D01*
X90980934Y-62245500D01*
X90980930Y-62245499D01*
X90980922Y-62245498D01*
X90775003Y-62225217D01*
X90774997Y-62225217D01*
X90569077Y-62245498D01*
X90569067Y-62245499D01*
X90569066Y-62245500D01*
X90513958Y-62262216D01*
X90371050Y-62305566D01*
X90188546Y-62403117D01*
X90028593Y-62534386D01*
X90028586Y-62534393D01*
X89997689Y-62572042D01*
X89949686Y-62600459D01*
X89894648Y-62591372D01*
X89858327Y-62549033D01*
X89853100Y-62520307D01*
X89853100Y-61501292D01*
X89872179Y-61448873D01*
X89920489Y-61420981D01*
X89975425Y-61430668D01*
X89997690Y-61449558D01*
X90028587Y-61487207D01*
X90028593Y-61487213D01*
X90149961Y-61586816D01*
X90188550Y-61618485D01*
X90371046Y-61716032D01*
X90569066Y-61776100D01*
X90614413Y-61780566D01*
X90774997Y-61796383D01*
X90775000Y-61796383D01*
X90775003Y-61796383D01*
X90902455Y-61783829D01*
X90980934Y-61776100D01*
X91178954Y-61716032D01*
X91361450Y-61618485D01*
X91521410Y-61487210D01*
X91652685Y-61327250D01*
X91750232Y-61144754D01*
X91810300Y-60946734D01*
X91830583Y-60740800D01*
X91810300Y-60534866D01*
X91750232Y-60336846D01*
X91652685Y-60154350D01*
X91575762Y-60060618D01*
X91521413Y-59994393D01*
X91521406Y-59994386D01*
X91361453Y-59863117D01*
X91361451Y-59863116D01*
X91361450Y-59863115D01*
X91178954Y-59765568D01*
X91178951Y-59765567D01*
X91178949Y-59765566D01*
X91091149Y-59738933D01*
X90980934Y-59705500D01*
X90980930Y-59705499D01*
X90980922Y-59705498D01*
X90775003Y-59685217D01*
X90774997Y-59685217D01*
X90569077Y-59705498D01*
X90569067Y-59705499D01*
X90569066Y-59705500D01*
X90513958Y-59722216D01*
X90371050Y-59765566D01*
X90188546Y-59863117D01*
X90028593Y-59994386D01*
X90028586Y-59994393D01*
X89997689Y-60032042D01*
X89949686Y-60060459D01*
X89894648Y-60051372D01*
X89858327Y-60009033D01*
X89853100Y-59980307D01*
X89853100Y-58961292D01*
X89872179Y-58908873D01*
X89920489Y-58880981D01*
X89975425Y-58890668D01*
X89997690Y-58909558D01*
X90028587Y-58947207D01*
X90028593Y-58947213D01*
X90188546Y-59078482D01*
X90188550Y-59078485D01*
X90371046Y-59176032D01*
X90569066Y-59236100D01*
X90614413Y-59240566D01*
X90774997Y-59256383D01*
X90775000Y-59256383D01*
X90775003Y-59256383D01*
X90902455Y-59243829D01*
X90980934Y-59236100D01*
X91178954Y-59176032D01*
X91361450Y-59078485D01*
X91521410Y-58947210D01*
X91652685Y-58787250D01*
X91750232Y-58604754D01*
X91810300Y-58406734D01*
X91830583Y-58200800D01*
X91810300Y-57994866D01*
X91750232Y-57796846D01*
X91652685Y-57614350D01*
X91575762Y-57520618D01*
X91521413Y-57454393D01*
X91521406Y-57454386D01*
X91361453Y-57323117D01*
X91361451Y-57323116D01*
X91361450Y-57323115D01*
X91178954Y-57225568D01*
X91178951Y-57225567D01*
X91178949Y-57225566D01*
X91091149Y-57198933D01*
X90980934Y-57165500D01*
X90980930Y-57165499D01*
X90980922Y-57165498D01*
X90775003Y-57145217D01*
X90774997Y-57145217D01*
X90569077Y-57165498D01*
X90569067Y-57165499D01*
X90569066Y-57165500D01*
X90513958Y-57182216D01*
X90371050Y-57225566D01*
X90188546Y-57323117D01*
X90028593Y-57454386D01*
X90028586Y-57454393D01*
X89997689Y-57492042D01*
X89949686Y-57520459D01*
X89894648Y-57511372D01*
X89858327Y-57469033D01*
X89853100Y-57440307D01*
X89853100Y-56421292D01*
X89872179Y-56368873D01*
X89920489Y-56340981D01*
X89975425Y-56350668D01*
X89997690Y-56369558D01*
X90028587Y-56407207D01*
X90028593Y-56407213D01*
X90173817Y-56526394D01*
X90188550Y-56538485D01*
X90371046Y-56636032D01*
X90569066Y-56696100D01*
X90614413Y-56700566D01*
X90774997Y-56716383D01*
X90775000Y-56716383D01*
X90775003Y-56716383D01*
X90902455Y-56703829D01*
X90980934Y-56696100D01*
X91178954Y-56636032D01*
X91361450Y-56538485D01*
X91521410Y-56407210D01*
X91652685Y-56247250D01*
X91750232Y-56064754D01*
X91810300Y-55866734D01*
X91830583Y-55660800D01*
X91810300Y-55454866D01*
X91750232Y-55256846D01*
X91652685Y-55074350D01*
X91575762Y-54980618D01*
X91521413Y-54914393D01*
X91521406Y-54914386D01*
X91361453Y-54783117D01*
X91361451Y-54783116D01*
X91361450Y-54783115D01*
X91178954Y-54685568D01*
X91178951Y-54685567D01*
X91178949Y-54685566D01*
X91091149Y-54658933D01*
X90980934Y-54625500D01*
X90980930Y-54625499D01*
X90980922Y-54625498D01*
X90775003Y-54605217D01*
X90774997Y-54605217D01*
X90569077Y-54625498D01*
X90569067Y-54625499D01*
X90569066Y-54625500D01*
X90513958Y-54642216D01*
X90371050Y-54685566D01*
X90188546Y-54783117D01*
X90028593Y-54914386D01*
X90028586Y-54914393D01*
X89997689Y-54952042D01*
X89949686Y-54980459D01*
X89894648Y-54971372D01*
X89858327Y-54929033D01*
X89853100Y-54900307D01*
X89853100Y-53881292D01*
X89872179Y-53828873D01*
X89920489Y-53800981D01*
X89975425Y-53810668D01*
X89997690Y-53829558D01*
X90028587Y-53867207D01*
X90028593Y-53867213D01*
X90094845Y-53921584D01*
X90188550Y-53998485D01*
X90371046Y-54096032D01*
X90569066Y-54156100D01*
X90614413Y-54160566D01*
X90774997Y-54176383D01*
X90775000Y-54176383D01*
X90775003Y-54176383D01*
X90904177Y-54163660D01*
X90980934Y-54156100D01*
X91178954Y-54096032D01*
X91361450Y-53998485D01*
X91521410Y-53867210D01*
X91652685Y-53707250D01*
X91750232Y-53524754D01*
X91810300Y-53326734D01*
X91830583Y-53120800D01*
X91810300Y-52914866D01*
X91750232Y-52716846D01*
X91652685Y-52534350D01*
X91575762Y-52440618D01*
X91521413Y-52374393D01*
X91521406Y-52374386D01*
X91361453Y-52243117D01*
X91361451Y-52243116D01*
X91361450Y-52243115D01*
X91178954Y-52145568D01*
X91178951Y-52145567D01*
X91178949Y-52145566D01*
X91080099Y-52115581D01*
X90980934Y-52085500D01*
X90980930Y-52085499D01*
X90980922Y-52085498D01*
X90775003Y-52065217D01*
X90774997Y-52065217D01*
X90569077Y-52085498D01*
X90569067Y-52085499D01*
X90569066Y-52085500D01*
X90544098Y-52093074D01*
X90371050Y-52145566D01*
X90371046Y-52145567D01*
X90371046Y-52145568D01*
X90279798Y-52194341D01*
X90188546Y-52243117D01*
X90028593Y-52374386D01*
X90028586Y-52374393D01*
X89997689Y-52412042D01*
X89949686Y-52440459D01*
X89894648Y-52431372D01*
X89858327Y-52389033D01*
X89853100Y-52360307D01*
X89853100Y-51341292D01*
X89872179Y-51288873D01*
X89920489Y-51260981D01*
X89975425Y-51270668D01*
X89997690Y-51289558D01*
X90028587Y-51327207D01*
X90028593Y-51327213D01*
X90184312Y-51455007D01*
X90188550Y-51458485D01*
X90371046Y-51556032D01*
X90569066Y-51616100D01*
X90614413Y-51620566D01*
X90774997Y-51636383D01*
X90775000Y-51636383D01*
X90775003Y-51636383D01*
X90923762Y-51621731D01*
X90980934Y-51616100D01*
X91178954Y-51556032D01*
X91361450Y-51458485D01*
X91521410Y-51327210D01*
X91652685Y-51167250D01*
X91750232Y-50984754D01*
X91810300Y-50786734D01*
X91821361Y-50674430D01*
X91830583Y-50580803D01*
X91830583Y-50580796D01*
X91810301Y-50374877D01*
X91810300Y-50374866D01*
X91750232Y-50176846D01*
X91652685Y-49994350D01*
X91652682Y-49994346D01*
X91521413Y-49834393D01*
X91521406Y-49834386D01*
X91361453Y-49703117D01*
X91361451Y-49703116D01*
X91361450Y-49703115D01*
X91178954Y-49605568D01*
X91178951Y-49605567D01*
X91178949Y-49605566D01*
X91091149Y-49578933D01*
X90980934Y-49545500D01*
X90980930Y-49545499D01*
X90980922Y-49545498D01*
X90775003Y-49525217D01*
X90774997Y-49525217D01*
X90569077Y-49545498D01*
X90569067Y-49545499D01*
X90569066Y-49545500D01*
X90513958Y-49562216D01*
X90371050Y-49605566D01*
X90371046Y-49605567D01*
X90371046Y-49605568D01*
X90316919Y-49634500D01*
X90188546Y-49703117D01*
X90028593Y-49834386D01*
X90028586Y-49834393D01*
X89997689Y-49872042D01*
X89949686Y-49900459D01*
X89894648Y-49891372D01*
X89858327Y-49849033D01*
X89853100Y-49820307D01*
X89853100Y-48801292D01*
X89872179Y-48748873D01*
X89920489Y-48720981D01*
X89975425Y-48730668D01*
X89997690Y-48749558D01*
X90028587Y-48787207D01*
X90028593Y-48787213D01*
X90188546Y-48918482D01*
X90188550Y-48918485D01*
X90371046Y-49016032D01*
X90569066Y-49076100D01*
X90614413Y-49080566D01*
X90774997Y-49096383D01*
X90775000Y-49096383D01*
X90775003Y-49096383D01*
X90902455Y-49083829D01*
X90980934Y-49076100D01*
X91178954Y-49016032D01*
X91361450Y-48918485D01*
X91521410Y-48787210D01*
X91652685Y-48627250D01*
X91750232Y-48444754D01*
X91810300Y-48246734D01*
X91826234Y-48084953D01*
X91830583Y-48040803D01*
X91830583Y-48040796D01*
X91810301Y-47834877D01*
X91810300Y-47834866D01*
X91750232Y-47636846D01*
X91652685Y-47454350D01*
X91575762Y-47360618D01*
X91521413Y-47294393D01*
X91521406Y-47294386D01*
X91361453Y-47163117D01*
X91361451Y-47163116D01*
X91361450Y-47163115D01*
X91178954Y-47065568D01*
X91178951Y-47065567D01*
X91178949Y-47065566D01*
X91091149Y-47038933D01*
X90980934Y-47005500D01*
X90980930Y-47005499D01*
X90980922Y-47005498D01*
X90775003Y-46985217D01*
X90774997Y-46985217D01*
X90569077Y-47005498D01*
X90569067Y-47005499D01*
X90569066Y-47005500D01*
X90513958Y-47022216D01*
X90371050Y-47065566D01*
X90188546Y-47163117D01*
X90028593Y-47294386D01*
X90028586Y-47294393D01*
X89997689Y-47332042D01*
X89949686Y-47360459D01*
X89894648Y-47351372D01*
X89858327Y-47309033D01*
X89853100Y-47280307D01*
X89853100Y-46261292D01*
X89872179Y-46208873D01*
X89920489Y-46180981D01*
X89975425Y-46190668D01*
X89997690Y-46209558D01*
X90028587Y-46247207D01*
X90028593Y-46247213D01*
X90188546Y-46378482D01*
X90188550Y-46378485D01*
X90371046Y-46476032D01*
X90569066Y-46536100D01*
X90614413Y-46540566D01*
X90774997Y-46556383D01*
X90775000Y-46556383D01*
X90775003Y-46556383D01*
X90902455Y-46543829D01*
X90980934Y-46536100D01*
X91178954Y-46476032D01*
X91361450Y-46378485D01*
X91521410Y-46247210D01*
X91652685Y-46087250D01*
X91750232Y-45904754D01*
X91810300Y-45706734D01*
X91830583Y-45500800D01*
X91810300Y-45294866D01*
X91750232Y-45096846D01*
X91652685Y-44914350D01*
X91575762Y-44820618D01*
X91521413Y-44754393D01*
X91521406Y-44754386D01*
X91361453Y-44623117D01*
X91361451Y-44623116D01*
X91361450Y-44623115D01*
X91178954Y-44525568D01*
X91178951Y-44525567D01*
X91178949Y-44525566D01*
X91091149Y-44498933D01*
X90980934Y-44465500D01*
X90980930Y-44465499D01*
X90980922Y-44465498D01*
X90775003Y-44445217D01*
X90774997Y-44445217D01*
X90569077Y-44465498D01*
X90569067Y-44465499D01*
X90569066Y-44465500D01*
X90513958Y-44482216D01*
X90371050Y-44525566D01*
X90188546Y-44623117D01*
X90028593Y-44754386D01*
X90028586Y-44754393D01*
X89997689Y-44792042D01*
X89949686Y-44820459D01*
X89894648Y-44811372D01*
X89858327Y-44769033D01*
X89853100Y-44740307D01*
X89853100Y-43721292D01*
X89872179Y-43668873D01*
X89920489Y-43640981D01*
X89975425Y-43650668D01*
X89997690Y-43669558D01*
X90028587Y-43707207D01*
X90028593Y-43707213D01*
X90188546Y-43838482D01*
X90188550Y-43838485D01*
X90371046Y-43936032D01*
X90569066Y-43996100D01*
X90614413Y-44000566D01*
X90774997Y-44016383D01*
X90775000Y-44016383D01*
X90775003Y-44016383D01*
X90902455Y-44003829D01*
X90980934Y-43996100D01*
X91178954Y-43936032D01*
X91361450Y-43838485D01*
X91521410Y-43707210D01*
X91652685Y-43547250D01*
X91750232Y-43364754D01*
X91810300Y-43166734D01*
X91830583Y-42960800D01*
X91810300Y-42754866D01*
X91750232Y-42556846D01*
X91652685Y-42374350D01*
X91575762Y-42280618D01*
X91521413Y-42214393D01*
X91521406Y-42214386D01*
X91361453Y-42083117D01*
X91361451Y-42083116D01*
X91361450Y-42083115D01*
X91178954Y-41985568D01*
X91178951Y-41985567D01*
X91178949Y-41985566D01*
X91091149Y-41958933D01*
X90980934Y-41925500D01*
X90980930Y-41925499D01*
X90980922Y-41925498D01*
X90775003Y-41905217D01*
X90774997Y-41905217D01*
X90569077Y-41925498D01*
X90569067Y-41925499D01*
X90569066Y-41925500D01*
X90513958Y-41942216D01*
X90371050Y-41985566D01*
X90188546Y-42083117D01*
X90028593Y-42214386D01*
X90028586Y-42214393D01*
X89997689Y-42252042D01*
X89949686Y-42280459D01*
X89894648Y-42271372D01*
X89858327Y-42229033D01*
X89853100Y-42200307D01*
X89853100Y-41181292D01*
X89872179Y-41128873D01*
X89920489Y-41100981D01*
X89975425Y-41110668D01*
X89997690Y-41129558D01*
X90028587Y-41167207D01*
X90028593Y-41167213D01*
X90188546Y-41298482D01*
X90188550Y-41298485D01*
X90371046Y-41396032D01*
X90569066Y-41456100D01*
X90614413Y-41460566D01*
X90774997Y-41476383D01*
X90775000Y-41476383D01*
X90775003Y-41476383D01*
X90902455Y-41463829D01*
X90980934Y-41456100D01*
X91178954Y-41396032D01*
X91361450Y-41298485D01*
X91521410Y-41167210D01*
X91652685Y-41007250D01*
X91750232Y-40824754D01*
X91810300Y-40626734D01*
X91830583Y-40420800D01*
X91810300Y-40214866D01*
X91750232Y-40016846D01*
X91652685Y-39834350D01*
X91575762Y-39740618D01*
X91521413Y-39674393D01*
X91521406Y-39674386D01*
X91361453Y-39543117D01*
X91361451Y-39543116D01*
X91361450Y-39543115D01*
X91178954Y-39445568D01*
X91178951Y-39445567D01*
X91178949Y-39445566D01*
X91091149Y-39418933D01*
X90980934Y-39385500D01*
X90980930Y-39385499D01*
X90980922Y-39385498D01*
X90775003Y-39365217D01*
X90774997Y-39365217D01*
X90569077Y-39385498D01*
X90569067Y-39385499D01*
X90569066Y-39385500D01*
X90513958Y-39402216D01*
X90371050Y-39445566D01*
X90188546Y-39543117D01*
X90028593Y-39674386D01*
X90028586Y-39674393D01*
X89997689Y-39712042D01*
X89949686Y-39740459D01*
X89894648Y-39731372D01*
X89858327Y-39689033D01*
X89853100Y-39660307D01*
X89853100Y-38641292D01*
X89872179Y-38588873D01*
X89920489Y-38560981D01*
X89975425Y-38570668D01*
X89997690Y-38589558D01*
X90028587Y-38627207D01*
X90028593Y-38627213D01*
X90185277Y-38755799D01*
X90188550Y-38758485D01*
X90371046Y-38856032D01*
X90569066Y-38916100D01*
X90614413Y-38920566D01*
X90774997Y-38936383D01*
X90775000Y-38936383D01*
X90775003Y-38936383D01*
X90902455Y-38923829D01*
X90980934Y-38916100D01*
X91178954Y-38856032D01*
X91361450Y-38758485D01*
X91521410Y-38627210D01*
X91652685Y-38467250D01*
X91750232Y-38284754D01*
X91810300Y-38086734D01*
X91830583Y-37880800D01*
X91829657Y-37871400D01*
X92849353Y-37871400D01*
X92869834Y-38013855D01*
X92869836Y-38013860D01*
X92903116Y-38086732D01*
X92929623Y-38144773D01*
X93023872Y-38253543D01*
X93144947Y-38331353D01*
X93283039Y-38371900D01*
X93426961Y-38371900D01*
X93565053Y-38331353D01*
X93686128Y-38253543D01*
X93780377Y-38144773D01*
X93840165Y-38013857D01*
X93860647Y-37871400D01*
X93840165Y-37728943D01*
X93780377Y-37598027D01*
X93686128Y-37489257D01*
X93565053Y-37411447D01*
X93565054Y-37411447D01*
X93426961Y-37370900D01*
X93283039Y-37370900D01*
X93144945Y-37411447D01*
X93023874Y-37489255D01*
X92929623Y-37598027D01*
X92929621Y-37598030D01*
X92869836Y-37728939D01*
X92869834Y-37728944D01*
X92849353Y-37871400D01*
X91829657Y-37871400D01*
X91810301Y-37674877D01*
X91810300Y-37674866D01*
X91750232Y-37476846D01*
X91652685Y-37294350D01*
X91632669Y-37269960D01*
X91521413Y-37134393D01*
X91521406Y-37134386D01*
X91361453Y-37003117D01*
X91361451Y-37003116D01*
X91361450Y-37003115D01*
X91178954Y-36905568D01*
X91178951Y-36905567D01*
X91178949Y-36905566D01*
X91091149Y-36878933D01*
X90980934Y-36845500D01*
X90980930Y-36845499D01*
X90980922Y-36845498D01*
X90775003Y-36825217D01*
X90774997Y-36825217D01*
X90569077Y-36845498D01*
X90569067Y-36845499D01*
X90569066Y-36845500D01*
X90513958Y-36862216D01*
X90371050Y-36905566D01*
X90188546Y-37003117D01*
X90028593Y-37134386D01*
X90028586Y-37134393D01*
X89997689Y-37172042D01*
X89949686Y-37200459D01*
X89894648Y-37191372D01*
X89858327Y-37149033D01*
X89853100Y-37120307D01*
X89853100Y-36472850D01*
X89872179Y-36420431D01*
X89920489Y-36392539D01*
X89934650Y-36391300D01*
X91644746Y-36391300D01*
X91644748Y-36391300D01*
X91703231Y-36379667D01*
X91769552Y-36335352D01*
X91813867Y-36269031D01*
X91825500Y-36210548D01*
X91825500Y-34552180D01*
X91844579Y-34499761D01*
X91892889Y-34471869D01*
X91907284Y-34470630D01*
X114475595Y-34537998D01*
G37*
%TD.AperFunction*%
%TA.AperFunction,Conductor*%
G36*
X106116125Y-51946948D02*
G01*
X106148121Y-51992643D01*
X106150900Y-52013750D01*
X106150900Y-56732838D01*
X106171377Y-56809257D01*
X106171379Y-56809262D01*
X106210937Y-56877778D01*
X106210938Y-56877779D01*
X106210940Y-56877782D01*
X107092615Y-57759457D01*
X107116190Y-57810013D01*
X107116500Y-57817121D01*
X107116500Y-65963767D01*
X107136977Y-66040186D01*
X107136979Y-66040191D01*
X107176537Y-66108707D01*
X107176538Y-66108708D01*
X107176540Y-66108711D01*
X109159484Y-68091655D01*
X111067829Y-70000000D01*
X111091404Y-70050557D01*
X111090884Y-70069268D01*
X111086553Y-70099397D01*
X111086553Y-70099399D01*
X111107035Y-70241859D01*
X111107391Y-70243071D01*
X111107335Y-70243946D01*
X111107865Y-70247630D01*
X111107093Y-70247740D01*
X111103850Y-70298742D01*
X111065352Y-70339112D01*
X111009912Y-70345292D01*
X110971478Y-70323707D01*
X105982585Y-65334814D01*
X105959010Y-65284257D01*
X105958700Y-65277149D01*
X105958700Y-52042850D01*
X105977779Y-51990431D01*
X105982585Y-51985185D01*
X106011685Y-51956085D01*
X106062242Y-51932510D01*
X106116125Y-51946948D01*
G37*
%TD.AperFunction*%
%TA.AperFunction,Conductor*%
G36*
X107934274Y-51554929D02*
G01*
X107966270Y-51600624D01*
X107969049Y-51621731D01*
X107969049Y-55304717D01*
X107988337Y-55376697D01*
X108025604Y-55441246D01*
X108320399Y-55736042D01*
X108343974Y-55786599D01*
X108329536Y-55840481D01*
X108288516Y-55869940D01*
X108288647Y-55870227D01*
X108287194Y-55870890D01*
X108285719Y-55871950D01*
X108283348Y-55872646D01*
X108283341Y-55872649D01*
X108162274Y-55950455D01*
X108068023Y-56059227D01*
X108068021Y-56059230D01*
X108008236Y-56190139D01*
X108008234Y-56190144D01*
X107987753Y-56332600D01*
X108008234Y-56475055D01*
X108008236Y-56475060D01*
X108055744Y-56579086D01*
X108068023Y-56605973D01*
X108162272Y-56714743D01*
X108283347Y-56792553D01*
X108421439Y-56833100D01*
X108565361Y-56833100D01*
X108703453Y-56792553D01*
X108824528Y-56714743D01*
X108918777Y-56605973D01*
X108955121Y-56526390D01*
X108994249Y-56486638D01*
X109049780Y-56481335D01*
X109086964Y-56502606D01*
X109294065Y-56709707D01*
X109317640Y-56760264D01*
X109317950Y-56767372D01*
X109317950Y-65543869D01*
X109337238Y-65615849D01*
X109337239Y-65615852D01*
X109337240Y-65615853D01*
X109374504Y-65680397D01*
X110275399Y-66581292D01*
X111164745Y-67470638D01*
X111188320Y-67521195D01*
X111173882Y-67575078D01*
X111168713Y-67581705D01*
X111156822Y-67595428D01*
X111097034Y-67726345D01*
X111090840Y-67769426D01*
X111064494Y-67818596D01*
X111012706Y-67839328D01*
X110959708Y-67821921D01*
X110952455Y-67815484D01*
X108141385Y-65004414D01*
X108117810Y-64953857D01*
X108117500Y-64946749D01*
X108117500Y-57453624D01*
X108117499Y-57453619D01*
X108108065Y-57418412D01*
X108108065Y-57418410D01*
X108097023Y-57377201D01*
X108097022Y-57377197D01*
X108057460Y-57308674D01*
X107182185Y-56433399D01*
X107158610Y-56382842D01*
X107158300Y-56375734D01*
X107158300Y-52269380D01*
X107177379Y-52216961D01*
X107182185Y-52211715D01*
X107829834Y-51564066D01*
X107880391Y-51540491D01*
X107934274Y-51554929D01*
G37*
%TD.AperFunction*%
%TA.AperFunction,Conductor*%
G36*
X95384293Y-54051662D02*
G01*
X95416289Y-54097357D01*
X95419068Y-54118464D01*
X95419068Y-64290929D01*
X95399989Y-64343348D01*
X95395183Y-64348594D01*
X94590065Y-65153712D01*
X94539508Y-65177287D01*
X94485625Y-65162849D01*
X94453629Y-65117154D01*
X94450850Y-65096047D01*
X94450850Y-54923582D01*
X94469929Y-54871163D01*
X94474735Y-54865917D01*
X95279853Y-54060799D01*
X95330410Y-54037224D01*
X95384293Y-54051662D01*
G37*
%TD.AperFunction*%
%TA.AperFunction,Conductor*%
G36*
X100020622Y-51011230D02*
G01*
X100031550Y-51052008D01*
X100031550Y-53568385D01*
X100012471Y-53620804D01*
X99964161Y-53648696D01*
X99909225Y-53639009D01*
X99905911Y-53636989D01*
X99788053Y-53561247D01*
X99788054Y-53561247D01*
X99649961Y-53520700D01*
X99506039Y-53520700D01*
X99367945Y-53561247D01*
X99246874Y-53639055D01*
X99152623Y-53747827D01*
X99152621Y-53747830D01*
X99092836Y-53878739D01*
X99092834Y-53878744D01*
X99072353Y-54021200D01*
X99092834Y-54163655D01*
X99092836Y-54163660D01*
X99112022Y-54205671D01*
X99152623Y-54294573D01*
X99246872Y-54403343D01*
X99367947Y-54481153D01*
X99506039Y-54521700D01*
X99649961Y-54521700D01*
X99788053Y-54481153D01*
X99905912Y-54405409D01*
X99960323Y-54393120D01*
X100009906Y-54418681D01*
X100031458Y-54470133D01*
X100031550Y-54474014D01*
X100031550Y-61363177D01*
X100012471Y-61415596D01*
X100007665Y-61420842D01*
X98199042Y-63229465D01*
X98148485Y-63253040D01*
X98141377Y-63253350D01*
X98026235Y-63253350D01*
X97973816Y-63234271D01*
X97964606Y-63225207D01*
X97903128Y-63154257D01*
X97782053Y-63076447D01*
X97782054Y-63076447D01*
X97643961Y-63035900D01*
X97500039Y-63035900D01*
X97361945Y-63076447D01*
X97240874Y-63154255D01*
X97146623Y-63263027D01*
X97146621Y-63263030D01*
X97086836Y-63393939D01*
X97086834Y-63393944D01*
X97066353Y-63536400D01*
X97086834Y-63678855D01*
X97086836Y-63678860D01*
X97089528Y-63684754D01*
X97146623Y-63809773D01*
X97240872Y-63918543D01*
X97240876Y-63918545D01*
X97245277Y-63922359D01*
X97243399Y-63924526D01*
X97270694Y-63960366D01*
X97268059Y-64016087D01*
X97250495Y-64042270D01*
X96854583Y-64438183D01*
X96804026Y-64461759D01*
X96750143Y-64447321D01*
X96718147Y-64401626D01*
X96715368Y-64380519D01*
X96715368Y-54208053D01*
X96734447Y-54155634D01*
X96739242Y-54150399D01*
X99880696Y-51008946D01*
X99880699Y-51008940D01*
X99883951Y-51004704D01*
X99885625Y-51005989D01*
X99922104Y-50975377D01*
X99977888Y-50975375D01*
X100020622Y-51011230D01*
G37*
%TD.AperFunction*%
%TD*%
M02*
