%TF.GenerationSoftware,KiCad,Pcbnew,8.0.6*%
%TF.CreationDate,2025-02-05T21:25:15+00:00*%
%TF.ProjectId,custom-esp32,63757374-6f6d-42d6-9573-7033322e6b69,0.1*%
%TF.SameCoordinates,Original*%
%TF.FileFunction,Paste,Top*%
%TF.FilePolarity,Positive*%
%FSLAX46Y46*%
G04 Gerber Fmt 4.6, Leading zero omitted, Abs format (unit mm)*
G04 Created by KiCad (PCBNEW 8.0.6) date 2025-02-05 21:25:15*
%MOMM*%
%LPD*%
G01*
G04 APERTURE LIST*
G04 Aperture macros list*
%AMRoundRect*
0 Rectangle with rounded corners*
0 $1 Rounding radius*
0 $2 $3 $4 $5 $6 $7 $8 $9 X,Y pos of 4 corners*
0 Add a 4 corners polygon primitive as box body*
4,1,4,$2,$3,$4,$5,$6,$7,$8,$9,$2,$3,0*
0 Add four circle primitives for the rounded corners*
1,1,$1+$1,$2,$3*
1,1,$1+$1,$4,$5*
1,1,$1+$1,$6,$7*
1,1,$1+$1,$8,$9*
0 Add four rect primitives between the rounded corners*
20,1,$1+$1,$2,$3,$4,$5,0*
20,1,$1+$1,$4,$5,$6,$7,0*
20,1,$1+$1,$6,$7,$8,$9,0*
20,1,$1+$1,$8,$9,$2,$3,0*%
G04 Aperture macros list end*
%ADD10C,0.010000*%
%ADD11RoundRect,0.225000X-0.225000X-0.250000X0.225000X-0.250000X0.225000X0.250000X-0.225000X0.250000X0*%
%ADD12RoundRect,0.200000X-0.275000X0.200000X-0.275000X-0.200000X0.275000X-0.200000X0.275000X0.200000X0*%
%ADD13R,0.350000X0.800000*%
%ADD14R,0.500000X0.300000*%
%ADD15R,0.800000X0.400000*%
%ADD16R,0.400000X0.800000*%
%ADD17R,1.200000X1.200000*%
%ADD18R,0.800000X0.800000*%
%ADD19RoundRect,0.225000X-0.250000X0.225000X-0.250000X-0.225000X0.250000X-0.225000X0.250000X0.225000X0*%
%ADD20RoundRect,0.090000X-0.660000X-0.360000X0.660000X-0.360000X0.660000X0.360000X-0.660000X0.360000X0*%
%ADD21RoundRect,0.160000X-0.245000X-0.160000X0.245000X-0.160000X0.245000X0.160000X-0.245000X0.160000X0*%
%ADD22RoundRect,0.093750X-0.093750X-0.106250X0.093750X-0.106250X0.093750X0.106250X-0.093750X0.106250X0*%
%ADD23RoundRect,0.225000X0.250000X-0.225000X0.250000X0.225000X-0.250000X0.225000X-0.250000X-0.225000X0*%
%ADD24R,1.050000X0.650000*%
%ADD25R,0.250000X0.625000*%
%ADD26R,0.450000X0.700000*%
%ADD27R,0.450000X0.575000*%
%ADD28RoundRect,0.200000X0.275000X-0.200000X0.275000X0.200000X-0.275000X0.200000X-0.275000X-0.200000X0*%
%ADD29RoundRect,0.200000X-0.200000X-0.275000X0.200000X-0.275000X0.200000X0.275000X-0.200000X0.275000X0*%
%ADD30RoundRect,0.200000X0.200000X0.275000X-0.200000X0.275000X-0.200000X-0.275000X0.200000X-0.275000X0*%
%ADD31RoundRect,0.218750X-0.218750X-0.256250X0.218750X-0.256250X0.218750X0.256250X-0.218750X0.256250X0*%
%ADD32RoundRect,0.150000X-0.150000X-0.425000X0.150000X-0.425000X0.150000X0.425000X-0.150000X0.425000X0*%
%ADD33RoundRect,0.075000X-0.075000X-0.500000X0.075000X-0.500000X0.075000X0.500000X-0.075000X0.500000X0*%
%ADD34O,1.000000X2.100000*%
%ADD35O,1.000000X1.800000*%
G04 APERTURE END LIST*
D10*
%TO.C,U3*%
X101156000Y-40794200D02*
X99956000Y-40794200D01*
X99956000Y-40194200D01*
X100556000Y-39594200D01*
X101156000Y-39594200D01*
X101156000Y-40794200D01*
G36*
X101156000Y-40794200D02*
G01*
X99956000Y-40794200D01*
X99956000Y-40194200D01*
X100556000Y-39594200D01*
X101156000Y-39594200D01*
X101156000Y-40794200D01*
G37*
%TD*%
D11*
%TO.C,C5*%
X96034400Y-51811400D03*
X97584400Y-51811400D03*
%TD*%
D12*
%TO.C,R8*%
X109505500Y-56773600D03*
X109505500Y-58423600D03*
%TD*%
D13*
%TO.C,U2*%
X97419000Y-62073000D03*
D14*
X96469000Y-61598000D03*
X96469000Y-62548000D03*
X98369000Y-62548000D03*
X98369000Y-61598000D03*
%TD*%
D11*
%TO.C,C1*%
X108191000Y-78181200D03*
X109741000Y-78181200D03*
%TD*%
D15*
%TO.C,U3*%
X95206000Y-35894200D03*
X95206000Y-36744200D03*
X95206000Y-37594200D03*
X95206000Y-38444200D03*
X95206000Y-39294200D03*
X95206000Y-40144200D03*
X95206000Y-40994200D03*
X95206000Y-41844200D03*
X95206000Y-42694200D03*
X95206000Y-43544200D03*
X95206000Y-44394200D03*
X95206000Y-45244200D03*
X95206000Y-46094200D03*
X95206000Y-46944200D03*
X95206000Y-47794200D03*
D16*
X96256000Y-48844200D03*
X97106000Y-48844200D03*
X97956000Y-48844200D03*
X98806000Y-48844200D03*
X99656000Y-48844200D03*
X100506000Y-48844200D03*
X101356000Y-48844200D03*
X102206000Y-48844200D03*
X103056000Y-48844200D03*
X103906000Y-48844200D03*
X104756000Y-48844200D03*
X105606000Y-48844200D03*
X106456000Y-48844200D03*
X107306000Y-48844200D03*
X108156000Y-48844200D03*
D15*
X109206000Y-47794200D03*
X109206000Y-46944200D03*
X109206000Y-46094200D03*
X109206000Y-45244200D03*
X109206000Y-44394200D03*
X109206000Y-43544200D03*
X109206000Y-42694200D03*
X109206000Y-41844200D03*
X109206000Y-40994200D03*
X109206000Y-40144200D03*
X109206000Y-39294200D03*
X109206000Y-38444200D03*
X109206000Y-37594200D03*
X109206000Y-36744200D03*
X109206000Y-35894200D03*
D16*
X108156000Y-34844200D03*
X107306000Y-34844200D03*
X106456000Y-34844200D03*
X105606000Y-34844200D03*
X104756000Y-34844200D03*
X103906000Y-34844200D03*
X103056000Y-34844200D03*
X102206000Y-34844200D03*
X101356000Y-34844200D03*
X100506000Y-34844200D03*
X99656000Y-34844200D03*
X98806000Y-34844200D03*
X97956000Y-34844200D03*
X97106000Y-34844200D03*
X96256000Y-34844200D03*
D17*
X102206000Y-41844200D03*
X102206000Y-40194200D03*
X103856000Y-40194200D03*
X103856000Y-41844200D03*
X103856000Y-43494200D03*
X102206000Y-43494200D03*
X100556000Y-43494200D03*
X100556000Y-41844200D03*
D18*
X95206000Y-34844200D03*
X95206000Y-48844200D03*
X109206000Y-48844200D03*
X109206000Y-34844200D03*
%TD*%
D19*
%TO.C,C3*%
X94894200Y-61519000D03*
X94894200Y-63069000D03*
%TD*%
D20*
%TO.C,D1*%
X94918200Y-55851000D03*
X94918200Y-59151000D03*
X99818200Y-59151000D03*
X99818200Y-55851000D03*
%TD*%
D21*
%TO.C,U4*%
X106914700Y-55465000D03*
X106914700Y-56265000D03*
D22*
X106027200Y-55215000D03*
X106027200Y-55865000D03*
X106027200Y-56515000D03*
X107802200Y-56515000D03*
X107802200Y-55865000D03*
X107802200Y-55215000D03*
%TD*%
D11*
%TO.C,C2*%
X96807300Y-78168800D03*
X98357300Y-78168800D03*
%TD*%
D23*
%TO.C,C4*%
X109173800Y-55207200D03*
X109173800Y-53657200D03*
%TD*%
D11*
%TO.C,C6*%
X96034400Y-53691000D03*
X97584400Y-53691000D03*
%TD*%
D24*
%TO.C,BOOT1*%
X95377200Y-74197800D03*
X99527200Y-74197800D03*
X95377200Y-76347800D03*
X99527200Y-76347800D03*
%TD*%
D25*
%TO.C,U1*%
X102879850Y-81497500D03*
X102379850Y-81497500D03*
D26*
X101879850Y-81535000D03*
D25*
X101379850Y-81497500D03*
X100879850Y-81497500D03*
X100879850Y-82272500D03*
X101379850Y-82272500D03*
D27*
X101879850Y-82297500D03*
D25*
X102379850Y-82272500D03*
X102879850Y-82272500D03*
%TD*%
D28*
%TO.C,R6*%
X104577900Y-58435800D03*
X104577900Y-56785800D03*
%TD*%
D29*
%TO.C,R2*%
X106144400Y-82139000D03*
X107794400Y-82139000D03*
%TD*%
D12*
%TO.C,R3*%
X99923400Y-62802000D03*
X99923400Y-64452000D03*
%TD*%
D29*
%TO.C,R4*%
X96597000Y-64511400D03*
X98247000Y-64511400D03*
%TD*%
D23*
%TO.C,C7*%
X104601800Y-55207200D03*
X104601800Y-53657200D03*
%TD*%
D30*
%TO.C,R5*%
X106514400Y-78181200D03*
X104864400Y-78181200D03*
%TD*%
D31*
%TO.C,D2*%
X107981500Y-60087800D03*
X109556500Y-60087800D03*
%TD*%
D24*
%TO.C,RESET1*%
X105494000Y-74210600D03*
X109644000Y-74210600D03*
X105494000Y-76360600D03*
X109644000Y-76360600D03*
%TD*%
D30*
%TO.C,R1*%
X98929800Y-82139000D03*
X97279800Y-82139000D03*
%TD*%
D32*
%TO.C,J3*%
X99437850Y-84365600D03*
X100237850Y-84365600D03*
D33*
X101387850Y-84365600D03*
X102387850Y-84365600D03*
X102887850Y-84365600D03*
X103887850Y-84365600D03*
D32*
X105037850Y-84365600D03*
X105837850Y-84365600D03*
X105837850Y-84365600D03*
X105037850Y-84365600D03*
D33*
X104387850Y-84365600D03*
X103387850Y-84365600D03*
X101887850Y-84365600D03*
X100887850Y-84365600D03*
D32*
X100237850Y-84365600D03*
X99437850Y-84365600D03*
D34*
X98317850Y-84940600D03*
D35*
X98317850Y-89120600D03*
D34*
X106957850Y-84940600D03*
D35*
X106957850Y-89120600D03*
%TD*%
D30*
%TO.C,R7*%
X107879900Y-58360600D03*
X106229900Y-58360600D03*
%TD*%
M02*
