%TF.GenerationSoftware,KiCad,Pcbnew,8.0.6*%
%TF.CreationDate,2025-02-05T21:25:15+00:00*%
%TF.ProjectId,custom-esp32,63757374-6f6d-42d6-9573-7033322e6b69,0.1*%
%TF.SameCoordinates,Original*%
%TF.FileFunction,Legend,Bot*%
%TF.FilePolarity,Positive*%
%FSLAX46Y46*%
G04 Gerber Fmt 4.6, Leading zero omitted, Abs format (unit mm)*
G04 Created by KiCad (PCBNEW 8.0.6) date 2025-02-05 21:25:15*
%MOMM*%
%LPD*%
G01*
G04 APERTURE LIST*
%ADD10C,0.100000*%
G04 APERTURE END LIST*
D10*
X93828180Y-89231115D02*
X94828180Y-89231115D01*
X93828180Y-88754925D02*
X94494847Y-88754925D01*
X94399609Y-88754925D02*
X94447228Y-88707306D01*
X94447228Y-88707306D02*
X94494847Y-88612068D01*
X94494847Y-88612068D02*
X94494847Y-88469211D01*
X94494847Y-88469211D02*
X94447228Y-88373973D01*
X94447228Y-88373973D02*
X94351990Y-88326354D01*
X94351990Y-88326354D02*
X93828180Y-88326354D01*
X94351990Y-88326354D02*
X94447228Y-88278735D01*
X94447228Y-88278735D02*
X94494847Y-88183497D01*
X94494847Y-88183497D02*
X94494847Y-88040640D01*
X94494847Y-88040640D02*
X94447228Y-87945401D01*
X94447228Y-87945401D02*
X94351990Y-87897782D01*
X94351990Y-87897782D02*
X93828180Y-87897782D01*
X93875800Y-87469211D02*
X93828180Y-87326354D01*
X93828180Y-87326354D02*
X93828180Y-87088259D01*
X93828180Y-87088259D02*
X93875800Y-86993021D01*
X93875800Y-86993021D02*
X93923419Y-86945402D01*
X93923419Y-86945402D02*
X94018657Y-86897783D01*
X94018657Y-86897783D02*
X94113895Y-86897783D01*
X94113895Y-86897783D02*
X94209133Y-86945402D01*
X94209133Y-86945402D02*
X94256752Y-86993021D01*
X94256752Y-86993021D02*
X94304371Y-87088259D01*
X94304371Y-87088259D02*
X94351990Y-87278735D01*
X94351990Y-87278735D02*
X94399609Y-87373973D01*
X94399609Y-87373973D02*
X94447228Y-87421592D01*
X94447228Y-87421592D02*
X94542466Y-87469211D01*
X94542466Y-87469211D02*
X94637704Y-87469211D01*
X94637704Y-87469211D02*
X94732942Y-87421592D01*
X94732942Y-87421592D02*
X94780561Y-87373973D01*
X94780561Y-87373973D02*
X94828180Y-87278735D01*
X94828180Y-87278735D02*
X94828180Y-87040640D01*
X94828180Y-87040640D02*
X94780561Y-86897783D01*
X93875800Y-86088259D02*
X93828180Y-86183497D01*
X93828180Y-86183497D02*
X93828180Y-86373973D01*
X93828180Y-86373973D02*
X93875800Y-86469211D01*
X93875800Y-86469211D02*
X93971038Y-86516830D01*
X93971038Y-86516830D02*
X94351990Y-86516830D01*
X94351990Y-86516830D02*
X94447228Y-86469211D01*
X94447228Y-86469211D02*
X94494847Y-86373973D01*
X94494847Y-86373973D02*
X94494847Y-86183497D01*
X94494847Y-86183497D02*
X94447228Y-86088259D01*
X94447228Y-86088259D02*
X94351990Y-86040640D01*
X94351990Y-86040640D02*
X94256752Y-86040640D01*
X94256752Y-86040640D02*
X94161514Y-86516830D01*
X93828180Y-85183497D02*
X94351990Y-85183497D01*
X94351990Y-85183497D02*
X94447228Y-85231116D01*
X94447228Y-85231116D02*
X94494847Y-85326354D01*
X94494847Y-85326354D02*
X94494847Y-85516830D01*
X94494847Y-85516830D02*
X94447228Y-85612068D01*
X93875800Y-85183497D02*
X93828180Y-85278735D01*
X93828180Y-85278735D02*
X93828180Y-85516830D01*
X93828180Y-85516830D02*
X93875800Y-85612068D01*
X93875800Y-85612068D02*
X93971038Y-85659687D01*
X93971038Y-85659687D02*
X94066276Y-85659687D01*
X94066276Y-85659687D02*
X94161514Y-85612068D01*
X94161514Y-85612068D02*
X94209133Y-85516830D01*
X94209133Y-85516830D02*
X94209133Y-85278735D01*
X94209133Y-85278735D02*
X94256752Y-85183497D01*
X94494847Y-84707306D02*
X93828180Y-84707306D01*
X94399609Y-84707306D02*
X94447228Y-84659687D01*
X94447228Y-84659687D02*
X94494847Y-84564449D01*
X94494847Y-84564449D02*
X94494847Y-84421592D01*
X94494847Y-84421592D02*
X94447228Y-84326354D01*
X94447228Y-84326354D02*
X94351990Y-84278735D01*
X94351990Y-84278735D02*
X93828180Y-84278735D01*
X93923419Y-83231116D02*
X93875800Y-83278735D01*
X93875800Y-83278735D02*
X93828180Y-83421592D01*
X93828180Y-83421592D02*
X93828180Y-83516830D01*
X93828180Y-83516830D02*
X93875800Y-83659687D01*
X93875800Y-83659687D02*
X93971038Y-83754925D01*
X93971038Y-83754925D02*
X94066276Y-83802544D01*
X94066276Y-83802544D02*
X94256752Y-83850163D01*
X94256752Y-83850163D02*
X94399609Y-83850163D01*
X94399609Y-83850163D02*
X94590085Y-83802544D01*
X94590085Y-83802544D02*
X94685323Y-83754925D01*
X94685323Y-83754925D02*
X94780561Y-83659687D01*
X94780561Y-83659687D02*
X94828180Y-83516830D01*
X94828180Y-83516830D02*
X94828180Y-83421592D01*
X94828180Y-83421592D02*
X94780561Y-83278735D01*
X94780561Y-83278735D02*
X94732942Y-83231116D01*
X93828180Y-82659687D02*
X93875800Y-82754925D01*
X93875800Y-82754925D02*
X93923419Y-82802544D01*
X93923419Y-82802544D02*
X94018657Y-82850163D01*
X94018657Y-82850163D02*
X94304371Y-82850163D01*
X94304371Y-82850163D02*
X94399609Y-82802544D01*
X94399609Y-82802544D02*
X94447228Y-82754925D01*
X94447228Y-82754925D02*
X94494847Y-82659687D01*
X94494847Y-82659687D02*
X94494847Y-82516830D01*
X94494847Y-82516830D02*
X94447228Y-82421592D01*
X94447228Y-82421592D02*
X94399609Y-82373973D01*
X94399609Y-82373973D02*
X94304371Y-82326354D01*
X94304371Y-82326354D02*
X94018657Y-82326354D01*
X94018657Y-82326354D02*
X93923419Y-82373973D01*
X93923419Y-82373973D02*
X93875800Y-82421592D01*
X93875800Y-82421592D02*
X93828180Y-82516830D01*
X93828180Y-82516830D02*
X93828180Y-82659687D01*
X94494847Y-81897782D02*
X93828180Y-81897782D01*
X94399609Y-81897782D02*
X94447228Y-81850163D01*
X94447228Y-81850163D02*
X94494847Y-81754925D01*
X94494847Y-81754925D02*
X94494847Y-81612068D01*
X94494847Y-81612068D02*
X94447228Y-81516830D01*
X94447228Y-81516830D02*
X94351990Y-81469211D01*
X94351990Y-81469211D02*
X93828180Y-81469211D01*
X93828180Y-80993020D02*
X94494847Y-80993020D01*
X94304371Y-80993020D02*
X94399609Y-80945401D01*
X94399609Y-80945401D02*
X94447228Y-80897782D01*
X94447228Y-80897782D02*
X94494847Y-80802544D01*
X94494847Y-80802544D02*
X94494847Y-80707306D01*
X93828180Y-80231115D02*
X93875800Y-80326353D01*
X93875800Y-80326353D02*
X93923419Y-80373972D01*
X93923419Y-80373972D02*
X94018657Y-80421591D01*
X94018657Y-80421591D02*
X94304371Y-80421591D01*
X94304371Y-80421591D02*
X94399609Y-80373972D01*
X94399609Y-80373972D02*
X94447228Y-80326353D01*
X94447228Y-80326353D02*
X94494847Y-80231115D01*
X94494847Y-80231115D02*
X94494847Y-80088258D01*
X94494847Y-80088258D02*
X94447228Y-79993020D01*
X94447228Y-79993020D02*
X94399609Y-79945401D01*
X94399609Y-79945401D02*
X94304371Y-79897782D01*
X94304371Y-79897782D02*
X94018657Y-79897782D01*
X94018657Y-79897782D02*
X93923419Y-79945401D01*
X93923419Y-79945401D02*
X93875800Y-79993020D01*
X93875800Y-79993020D02*
X93828180Y-80088258D01*
X93828180Y-80088258D02*
X93828180Y-80231115D01*
X94494847Y-79564448D02*
X93828180Y-79326353D01*
X94494847Y-79088258D02*
X93828180Y-79326353D01*
X93828180Y-79326353D02*
X93590085Y-79421591D01*
X93590085Y-79421591D02*
X93542466Y-79469210D01*
X93542466Y-79469210D02*
X93494847Y-79564448D01*
X94875800Y-77993020D02*
X93590085Y-78850162D01*
X93923419Y-77088258D02*
X93875800Y-77135877D01*
X93875800Y-77135877D02*
X93828180Y-77278734D01*
X93828180Y-77278734D02*
X93828180Y-77373972D01*
X93828180Y-77373972D02*
X93875800Y-77516829D01*
X93875800Y-77516829D02*
X93971038Y-77612067D01*
X93971038Y-77612067D02*
X94066276Y-77659686D01*
X94066276Y-77659686D02*
X94256752Y-77707305D01*
X94256752Y-77707305D02*
X94399609Y-77707305D01*
X94399609Y-77707305D02*
X94590085Y-77659686D01*
X94590085Y-77659686D02*
X94685323Y-77612067D01*
X94685323Y-77612067D02*
X94780561Y-77516829D01*
X94780561Y-77516829D02*
X94828180Y-77373972D01*
X94828180Y-77373972D02*
X94828180Y-77278734D01*
X94828180Y-77278734D02*
X94780561Y-77135877D01*
X94780561Y-77135877D02*
X94732942Y-77088258D01*
X94494847Y-76231115D02*
X93828180Y-76231115D01*
X94494847Y-76659686D02*
X93971038Y-76659686D01*
X93971038Y-76659686D02*
X93875800Y-76612067D01*
X93875800Y-76612067D02*
X93828180Y-76516829D01*
X93828180Y-76516829D02*
X93828180Y-76373972D01*
X93828180Y-76373972D02*
X93875800Y-76278734D01*
X93875800Y-76278734D02*
X93923419Y-76231115D01*
X93875800Y-75802543D02*
X93828180Y-75707305D01*
X93828180Y-75707305D02*
X93828180Y-75516829D01*
X93828180Y-75516829D02*
X93875800Y-75421591D01*
X93875800Y-75421591D02*
X93971038Y-75373972D01*
X93971038Y-75373972D02*
X94018657Y-75373972D01*
X94018657Y-75373972D02*
X94113895Y-75421591D01*
X94113895Y-75421591D02*
X94161514Y-75516829D01*
X94161514Y-75516829D02*
X94161514Y-75659686D01*
X94161514Y-75659686D02*
X94209133Y-75754924D01*
X94209133Y-75754924D02*
X94304371Y-75802543D01*
X94304371Y-75802543D02*
X94351990Y-75802543D01*
X94351990Y-75802543D02*
X94447228Y-75754924D01*
X94447228Y-75754924D02*
X94494847Y-75659686D01*
X94494847Y-75659686D02*
X94494847Y-75516829D01*
X94494847Y-75516829D02*
X94447228Y-75421591D01*
X94494847Y-75088257D02*
X94494847Y-74707305D01*
X94828180Y-74945400D02*
X93971038Y-74945400D01*
X93971038Y-74945400D02*
X93875800Y-74897781D01*
X93875800Y-74897781D02*
X93828180Y-74802543D01*
X93828180Y-74802543D02*
X93828180Y-74707305D01*
X93828180Y-74231114D02*
X93875800Y-74326352D01*
X93875800Y-74326352D02*
X93923419Y-74373971D01*
X93923419Y-74373971D02*
X94018657Y-74421590D01*
X94018657Y-74421590D02*
X94304371Y-74421590D01*
X94304371Y-74421590D02*
X94399609Y-74373971D01*
X94399609Y-74373971D02*
X94447228Y-74326352D01*
X94447228Y-74326352D02*
X94494847Y-74231114D01*
X94494847Y-74231114D02*
X94494847Y-74088257D01*
X94494847Y-74088257D02*
X94447228Y-73993019D01*
X94447228Y-73993019D02*
X94399609Y-73945400D01*
X94399609Y-73945400D02*
X94304371Y-73897781D01*
X94304371Y-73897781D02*
X94018657Y-73897781D01*
X94018657Y-73897781D02*
X93923419Y-73945400D01*
X93923419Y-73945400D02*
X93875800Y-73993019D01*
X93875800Y-73993019D02*
X93828180Y-74088257D01*
X93828180Y-74088257D02*
X93828180Y-74231114D01*
X93828180Y-73469209D02*
X94494847Y-73469209D01*
X94399609Y-73469209D02*
X94447228Y-73421590D01*
X94447228Y-73421590D02*
X94494847Y-73326352D01*
X94494847Y-73326352D02*
X94494847Y-73183495D01*
X94494847Y-73183495D02*
X94447228Y-73088257D01*
X94447228Y-73088257D02*
X94351990Y-73040638D01*
X94351990Y-73040638D02*
X93828180Y-73040638D01*
X94351990Y-73040638D02*
X94447228Y-72993019D01*
X94447228Y-72993019D02*
X94494847Y-72897781D01*
X94494847Y-72897781D02*
X94494847Y-72754924D01*
X94494847Y-72754924D02*
X94447228Y-72659685D01*
X94447228Y-72659685D02*
X94351990Y-72612066D01*
X94351990Y-72612066D02*
X93828180Y-72612066D01*
X94209133Y-72135876D02*
X94209133Y-71373972D01*
X94351990Y-70897781D02*
X94351990Y-70564448D01*
X93828180Y-70421591D02*
X93828180Y-70897781D01*
X93828180Y-70897781D02*
X94828180Y-70897781D01*
X94828180Y-70897781D02*
X94828180Y-70421591D01*
X93875800Y-70040638D02*
X93828180Y-69897781D01*
X93828180Y-69897781D02*
X93828180Y-69659686D01*
X93828180Y-69659686D02*
X93875800Y-69564448D01*
X93875800Y-69564448D02*
X93923419Y-69516829D01*
X93923419Y-69516829D02*
X94018657Y-69469210D01*
X94018657Y-69469210D02*
X94113895Y-69469210D01*
X94113895Y-69469210D02*
X94209133Y-69516829D01*
X94209133Y-69516829D02*
X94256752Y-69564448D01*
X94256752Y-69564448D02*
X94304371Y-69659686D01*
X94304371Y-69659686D02*
X94351990Y-69850162D01*
X94351990Y-69850162D02*
X94399609Y-69945400D01*
X94399609Y-69945400D02*
X94447228Y-69993019D01*
X94447228Y-69993019D02*
X94542466Y-70040638D01*
X94542466Y-70040638D02*
X94637704Y-70040638D01*
X94637704Y-70040638D02*
X94732942Y-69993019D01*
X94732942Y-69993019D02*
X94780561Y-69945400D01*
X94780561Y-69945400D02*
X94828180Y-69850162D01*
X94828180Y-69850162D02*
X94828180Y-69612067D01*
X94828180Y-69612067D02*
X94780561Y-69469210D01*
X93828180Y-69040638D02*
X94828180Y-69040638D01*
X94828180Y-69040638D02*
X94828180Y-68659686D01*
X94828180Y-68659686D02*
X94780561Y-68564448D01*
X94780561Y-68564448D02*
X94732942Y-68516829D01*
X94732942Y-68516829D02*
X94637704Y-68469210D01*
X94637704Y-68469210D02*
X94494847Y-68469210D01*
X94494847Y-68469210D02*
X94399609Y-68516829D01*
X94399609Y-68516829D02*
X94351990Y-68564448D01*
X94351990Y-68564448D02*
X94304371Y-68659686D01*
X94304371Y-68659686D02*
X94304371Y-69040638D01*
X94828180Y-68135876D02*
X94828180Y-67516829D01*
X94828180Y-67516829D02*
X94447228Y-67850162D01*
X94447228Y-67850162D02*
X94447228Y-67707305D01*
X94447228Y-67707305D02*
X94399609Y-67612067D01*
X94399609Y-67612067D02*
X94351990Y-67564448D01*
X94351990Y-67564448D02*
X94256752Y-67516829D01*
X94256752Y-67516829D02*
X94018657Y-67516829D01*
X94018657Y-67516829D02*
X93923419Y-67564448D01*
X93923419Y-67564448D02*
X93875800Y-67612067D01*
X93875800Y-67612067D02*
X93828180Y-67707305D01*
X93828180Y-67707305D02*
X93828180Y-67993019D01*
X93828180Y-67993019D02*
X93875800Y-68088257D01*
X93875800Y-68088257D02*
X93923419Y-68135876D01*
X94732942Y-67135876D02*
X94780561Y-67088257D01*
X94780561Y-67088257D02*
X94828180Y-66993019D01*
X94828180Y-66993019D02*
X94828180Y-66754924D01*
X94828180Y-66754924D02*
X94780561Y-66659686D01*
X94780561Y-66659686D02*
X94732942Y-66612067D01*
X94732942Y-66612067D02*
X94637704Y-66564448D01*
X94637704Y-66564448D02*
X94542466Y-66564448D01*
X94542466Y-66564448D02*
X94399609Y-66612067D01*
X94399609Y-66612067D02*
X93828180Y-67183495D01*
X93828180Y-67183495D02*
X93828180Y-66564448D01*
X93447228Y-65088257D02*
X93494847Y-65135876D01*
X93494847Y-65135876D02*
X93637704Y-65231114D01*
X93637704Y-65231114D02*
X93732942Y-65278733D01*
X93732942Y-65278733D02*
X93875800Y-65326352D01*
X93875800Y-65326352D02*
X94113895Y-65373971D01*
X94113895Y-65373971D02*
X94304371Y-65373971D01*
X94304371Y-65373971D02*
X94542466Y-65326352D01*
X94542466Y-65326352D02*
X94685323Y-65278733D01*
X94685323Y-65278733D02*
X94780561Y-65231114D01*
X94780561Y-65231114D02*
X94923419Y-65135876D01*
X94923419Y-65135876D02*
X94971038Y-65088257D01*
X94494847Y-64802542D02*
X93828180Y-64564447D01*
X93828180Y-64564447D02*
X94494847Y-64326352D01*
X94828180Y-63754923D02*
X94828180Y-63659685D01*
X94828180Y-63659685D02*
X94780561Y-63564447D01*
X94780561Y-63564447D02*
X94732942Y-63516828D01*
X94732942Y-63516828D02*
X94637704Y-63469209D01*
X94637704Y-63469209D02*
X94447228Y-63421590D01*
X94447228Y-63421590D02*
X94209133Y-63421590D01*
X94209133Y-63421590D02*
X94018657Y-63469209D01*
X94018657Y-63469209D02*
X93923419Y-63516828D01*
X93923419Y-63516828D02*
X93875800Y-63564447D01*
X93875800Y-63564447D02*
X93828180Y-63659685D01*
X93828180Y-63659685D02*
X93828180Y-63754923D01*
X93828180Y-63754923D02*
X93875800Y-63850161D01*
X93875800Y-63850161D02*
X93923419Y-63897780D01*
X93923419Y-63897780D02*
X94018657Y-63945399D01*
X94018657Y-63945399D02*
X94209133Y-63993018D01*
X94209133Y-63993018D02*
X94447228Y-63993018D01*
X94447228Y-63993018D02*
X94637704Y-63945399D01*
X94637704Y-63945399D02*
X94732942Y-63897780D01*
X94732942Y-63897780D02*
X94780561Y-63850161D01*
X94780561Y-63850161D02*
X94828180Y-63754923D01*
X93923419Y-62993018D02*
X93875800Y-62945399D01*
X93875800Y-62945399D02*
X93828180Y-62993018D01*
X93828180Y-62993018D02*
X93875800Y-63040637D01*
X93875800Y-63040637D02*
X93923419Y-62993018D01*
X93923419Y-62993018D02*
X93828180Y-62993018D01*
X93828180Y-61993019D02*
X93828180Y-62564447D01*
X93828180Y-62278733D02*
X94828180Y-62278733D01*
X94828180Y-62278733D02*
X94685323Y-62373971D01*
X94685323Y-62373971D02*
X94590085Y-62469209D01*
X94590085Y-62469209D02*
X94542466Y-62564447D01*
X93447228Y-61659685D02*
X93494847Y-61612066D01*
X93494847Y-61612066D02*
X93637704Y-61516828D01*
X93637704Y-61516828D02*
X93732942Y-61469209D01*
X93732942Y-61469209D02*
X93875800Y-61421590D01*
X93875800Y-61421590D02*
X94113895Y-61373971D01*
X94113895Y-61373971D02*
X94304371Y-61373971D01*
X94304371Y-61373971D02*
X94542466Y-61421590D01*
X94542466Y-61421590D02*
X94685323Y-61469209D01*
X94685323Y-61469209D02*
X94780561Y-61516828D01*
X94780561Y-61516828D02*
X94923419Y-61612066D01*
X94923419Y-61612066D02*
X94971038Y-61659685D01*
M02*
