M48
; DRILL file {KiCad 8.0.6} date 2025-02-05T21:25:50+0000
; FORMAT={-:-/ absolute / inch / decimal}
; #@! TF.CreationDate,2025-02-05T21:25:50+00:00
; #@! TF.GenerationSoftware,Kicad,Pcbnew,8.0.6
; #@! TF.FileFunction,Plated,1,4,PTH
FMAT,2
INCH
; #@! TA.AperFunction,Plated,PTH,ViaDrill
T1C0.0118
; #@! TA.AperFunction,Plated,PTH,ComponentDrill
T2C0.0236
; #@! TA.AperFunction,Plated,PTH,ComponentDrill
T3C0.0394
%
G90
G05
T1
X3.6374Y-3.1918
X3.6374Y-3.2898
X3.6394Y-2.7918
X3.6394Y-2.8918
X3.6394Y-2.9958
X3.6394Y-3.0938
X3.6414Y-2.6958
X3.6434Y-1.5258
X3.645Y-2.621
X3.6454Y-3.4758
X3.6454Y-3.5158
X3.6754Y-1.491
X3.6994Y-1.3738
X3.7011Y-1.4478
X3.7074Y-2.9218
X3.7354Y-2.5258
X3.7407Y-2.0161
X3.7474Y-1.9738
X3.7874Y-1.8818
X3.7894Y-1.4078
X3.7894Y-1.9741
X3.8174Y-3.3218
X3.8174Y-3.3598
X3.8214Y-3.4818
X3.8214Y-3.5218
X3.8234Y-1.4078
X3.8234Y-1.9741
X3.8294Y-3.1918
X3.8354Y-2.3838
X3.8414Y-2.5014
X3.8549Y-1.9741
X3.8574Y-1.4078
X3.8734Y-2.3858
X3.8854Y-2.0718
X3.8874Y-2.1118
X3.8914Y-1.4078
X3.8914Y-1.9738
X3.9074Y-3.2738
X3.911Y-1.567
X3.912Y-1.601
X3.912Y-1.636
X3.912Y-1.67
X3.913Y-1.704
X3.914Y-1.737
X3.9194Y-3.0778
X3.9204Y-2.1268
X3.9234Y-1.4078
X3.9234Y-1.9738
X3.9234Y-2.3818
X3.9354Y-2.5878
X3.937Y-1.538
X3.943Y-1.764
X3.9549Y-1.9738
X3.9574Y-1.4078
X3.9612Y-2.922
X3.97Y-1.537
X3.976Y-1.763
X3.9764Y-2.4628
X3.9867Y-2.0278
X3.9894Y-1.4078
X3.9914Y-1.9718
X3.9914Y-3.1698
X3.9974Y-3.2718
X4.004Y-1.536
X4.0055Y-3.3845
X4.01Y-1.762
X4.0234Y-1.4078
X4.0278Y-3.3634
X4.038Y-1.536
X4.044Y-1.762
X4.055Y-3.3849
X4.0574Y-1.4078
X4.073Y-1.536
X4.0755Y-3.3625
X4.079Y-1.762
X4.086Y-2.0061
X4.087Y-2.205
X4.0878Y-2.076
X4.0914Y-1.4078
X4.0914Y-1.9718
X4.0933Y-3.0217
X4.107Y-1.535
X4.107Y-2.923
X4.113Y-1.761
X4.1254Y-1.4078
X4.1254Y-1.9718
X4.135Y-1.565
X4.136Y-1.599
X4.136Y-1.634
X4.136Y-1.668
X4.137Y-1.702
X4.138Y-1.735
X4.1574Y-1.9718
X4.1594Y-1.4078
X4.1615Y-3.2739
X4.1834Y-2.2578
X4.1894Y-1.9718
X4.1914Y-1.4078
X4.201Y-2.347
X4.205Y-2.384
X4.2194Y-2.0058
X4.2254Y-1.4078
X4.2254Y-1.9718
X4.2306Y-2.131
X4.243Y-3.19
X4.254Y-1.875
X4.2574Y-1.4078
X4.2634Y-3.3218
X4.2634Y-3.3578
X4.2634Y-3.4898
X4.2634Y-3.5238
X4.2714Y-2.2178
X4.2994Y-1.9718
X4.2994Y-2.0678
X4.3374Y-1.3718
X4.3374Y-1.4818
X4.3374Y-1.5138
X4.3654Y-2.8338
X4.366Y-3.075
X4.369Y-2.921
X4.3912Y-2.6228
X4.393Y-2.672
X4.3934Y-2.7598
X4.4053Y-1.4617
X4.4074Y-1.3718
X4.4074Y-1.3998
T3
X3.5738Y-1.3914
X3.5738Y-1.4914
X3.5738Y-1.5914
X3.5738Y-1.6914
X3.5738Y-1.7914
X3.5738Y-1.8914
X3.5738Y-1.9914
X3.5738Y-2.0914
X3.5738Y-2.1914
X3.5738Y-2.2914
X3.5738Y-2.3914
X3.5738Y-2.4914
X3.5738Y-2.5914
X3.5738Y-2.6914
X3.5738Y-2.7914
X3.5738Y-2.8914
X3.5738Y-2.9914
X3.5738Y-3.0914
X3.5738Y-3.1914
X3.5738Y-3.2914
X3.5738Y-3.3914
X3.5738Y-3.4914
X4.4738Y-1.3914
X4.4738Y-1.4914
X4.4738Y-1.5914
X4.4738Y-1.6914
X4.4738Y-1.7914
X4.4738Y-1.8914
X4.4738Y-1.9914
X4.4738Y-2.0914
X4.4738Y-2.1914
X4.4738Y-2.2914
X4.4738Y-2.3914
X4.4738Y-2.4914
X4.4738Y-2.5914
X4.4738Y-2.6914
X4.4738Y-2.7914
X4.4738Y-2.8914
X4.4738Y-2.9914
X4.4738Y-3.0914
X4.4738Y-3.1914
X4.4738Y-3.2914
X4.4738Y-3.3914
X4.4738Y-3.4914
T2
G00X3.8708Y-3.3225
M15
G01X3.8708Y-3.3658
M16
G05
G00X3.8708Y-3.4929
M15
G01X3.8708Y-3.5244
M16
G05
G00X4.2109Y-3.3225
M15
G01X4.2109Y-3.3658
M16
G05
G00X4.2109Y-3.4929
M15
G01X4.2109Y-3.5244
M16
G05
M30
